<svg xmlns="http://www.w3.org/2000/svg" viewBox="0 0 60.18 56.65"><defs><style>.cls-1{fill:#735e46;}.cls-2{fill:#ce575b;}.cls-3{fill:#f8db70;}.cls-4{fill:#7e4e3d;}</style></defs><g id="レイヤー_2" data-name="レイヤー 2"><g id="Layer_1" data-name="Layer 1"><g id="Apple"><path class="cls-1" d="M27.27,35.19A2,2,0,0,0,27,34c-.19-.32-.38-.65-.58-1a10.09,10.09,0,0,0-.91-1.16,14,14,0,0,0-2.69-2.34,13.65,13.65,0,0,0-1.29-.76,8.14,8.14,0,0,0-1.09-.47c-.63-.39-.72-.28-.28.33a5.12,5.12,0,0,0,.71,1.19l2.83,2.4q1.74,1.47,3.47,3A.12.12,0,0,1,27.27,35.19Z"/><path class="cls-2" d="M15.36,2.15C10.81,2.9,6.43,4.44,3.11,7.58a41.62,41.62,0,0,1,9.74-2.86C13.59,3.84,14.21,2.49,15.36,2.15Z"/><path class="cls-2" d="M17.1,4.24a39,39,0,0,1,5.82.1c.44,0,.86.09,1.29.15a15.65,15.65,0,0,1,2.24-2.65L27,1.4c-1,0-2,0-3,0-1.2,0-2.43.08-3.67.16A11.57,11.57,0,0,0,17.1,4.24Z"/><path class="cls-2" d="M15.53,2.35a10.29,10.29,0,0,0-2.3,2.31l1.35-.19a.19.19,0,0,1,0-.08,7.77,7.77,0,0,1,1.75-1.95,10.6,10.6,0,0,1,.94-.56c-.58.07-1.17.15-1.75.24C15.61,2.15,15.59,2.31,15.53,2.35Z"/><path class="cls-2" d="M17,2.51a6.55,6.55,0,0,0-2.15,1.94c.73-.09,1.46-.16,2.2-.2a.15.15,0,0,1,0-.16,9.5,9.5,0,0,1,2.36-2.42l-.91.08A11.6,11.6,0,0,1,17,2.51Z"/><path class="cls-3" d="M19.73,27.74a.12.12,0,0,1,.1,0c3,.6,7.84,4.31,7.87,7.67a.34.34,0,0,1-.11.24c2.07,1.78,4.1,3.61,6,5.54C37,44.53,39.75,48.4,43,51.84c.84.89,2.4,2.9,3.67,3,1.07.09,2.18-1.14,2.91-1.87a15.36,15.36,0,0,0,3.71-6.23C55,41.51,53.94,36,51.82,31,48.07,22.3,41.46,13.54,32.91,9c-9.83-5.17-21.41-3.3-31.44.33l-.29.38C6.24,17.21,13,23.16,19.8,29A1.11,1.11,0,0,1,19.73,27.74ZM48.09,50.8A6.65,6.65,0,0,1,45.46,49c0-.05,0-.21.08-.16.42.29.83.6,1.27.87s.93.47,1.37.75C48.28,50.54,48.23,50.84,48.09,50.8Zm-1.42-2.64a8.25,8.25,0,0,1,.95.45l.33.17c.18-.44.39-.89.59-1.36h0a10.45,10.45,0,0,1-1.31-.62c-.09,0,0-.29.07-.26.4.13.78.32,1.17.48l.22.1c.18-.43.36-.87.53-1.31L49,45.69a6.25,6.25,0,0,1-1.11-.52c-.07,0,0-.24.06-.22a5.23,5.23,0,0,1,1,.37l.41.17a7.69,7.69,0,0,0,.54-3.22,13.49,13.49,0,0,1-.17-4.44c0-.15.18-.12.16,0a11.2,11.2,0,0,0,0,3.32,10.21,10.21,0,0,1,.32,1.63,3.76,3.76,0,0,1-.1.75,13,13,0,0,1-.51,2c.17.08.35.16.51.25s0,.31-.07.28a3.62,3.62,0,0,1-.55-.2c-.16.44-.33.87-.52,1.3a4.29,4.29,0,0,1,.88.45c.07,0,0,.27-.07.24a3.58,3.58,0,0,1-.94-.36q-.32.69-.63,1.35a2.69,2.69,0,0,1,.54.33c.07.06.06.34-.07.29a2.57,2.57,0,0,1-.62-.31l-.32.66c-.06.11-.14,0-.11-.09s.17-.44.27-.67l-.16-.1a7.85,7.85,0,0,1-1-.66S46.59,48.14,46.67,48.16Zm1-18.06a7.09,7.09,0,0,1,1,3.35c0,.07-.12.24-.16.1-.18-.54-.26-1.1-.43-1.64s-.43-1.07-.6-1.63C47.44,30.21,47.55,30,47.63,30.1ZM34.38,38.72c-.49,0-1-.09-1.47-.15-.08,0,0-.17,0-.17.5.05,1,.09,1.48.16C34.48,38.57,34.46,38.73,34.38,38.72ZM44.86,23.18c.16-.16.24.15.15.26a11.56,11.56,0,0,1-.92,1.07,5.09,5.09,0,0,1-.94,1c-.07.05-.06-.08,0-.11a6,6,0,0,1,.81-1.07A14.41,14.41,0,0,1,44.86,23.18Zm-.32-3.52c.1-.08.13.15.07.21a6.06,6.06,0,0,0-.55.58c-.16.21-.27.46-.44.65s-.1-.06-.09-.11A3.08,3.08,0,0,1,44.54,19.66ZM40.42,21c.31-.48.62-1,.95-1.45.08-.1.14,0,.1.12-.3.51-.61,1-.92,1.5C40.45,21.36,40.35,21.15,40.42,21Zm-1.24-3.62c0-.16.21-.14.17,0-.14.77-.16,1.57-.32,2.33,0,.07-.13.15-.14,0A7.16,7.16,0,0,1,39.18,17.42ZM35.26,36.73a2.47,2.47,0,0,1-1,.39,7.28,7.28,0,0,1-1.21.27c-.13,0-.09-.2,0-.24.37-.15.75-.28,1.14-.41a2.44,2.44,0,0,1,1-.29C35.35,36.47,35.32,36.67,35.26,36.73Zm-.34-1.89a6.46,6.46,0,0,1-2.26.55c-.11,0-.1-.2,0-.22.75-.18,1.48-.51,2.23-.65C35.05,34.48,35,34.79,34.92,34.84ZM37.2,15.46c0,.69-.09,1.39-.15,2.08,0,.18-.24.28-.22.06.05-.71.11-1.42.17-2.13C37,15.31,37.21,15.29,37.2,15.46ZM33.94,32.22c.11,0,.09.16,0,.21a3.36,3.36,0,0,1-.93.55,3.7,3.7,0,0,1-1,.41c-.11,0-.08-.17,0-.21.3-.2.68-.32,1-.5A5.46,5.46,0,0,1,33.94,32.22Zm-2.36-.8a5,5,0,0,1,.65-.55,6.4,6.4,0,0,1,.71-.55c.12-.07.13.16.07.22a4.78,4.78,0,0,1-.65.54,4,4,0,0,1-.72.53C31.53,31.67,31.54,31.47,31.58,31.42Zm-1-2.29a11.32,11.32,0,0,0,1-1.24c.08-.12.15,0,.1.12a4.7,4.7,0,0,1-1,1.29C30.53,29.39,30.51,29.2,30.56,29.13Zm-.75-1.9.75-.75c.07-.07.1.08.05.13-.24.26-.49.51-.74.76C29.79,27.45,29.75,27.29,29.81,27.23Zm-1.57-1.18a7.41,7.41,0,0,1,.65-.72,3.74,3.74,0,0,1,.68-.64c.1-.06.11.13.07.18a4.34,4.34,0,0,1-.63.73,5.3,5.3,0,0,1-.67.67C28.22,26.36,28.2,26.11,28.24,26.05Zm-2.82-2.53c-.05.21-.28.18-.23,0,.13-.55.18-1.1.3-1.65,0-.13.16-.16.16,0A6.11,6.11,0,0,1,25.42,23.52Zm4.64-13.24-.14.66c0,.14-.16.11-.14,0s.07-.45.1-.67S30.09,10.12,30.06,10.28Zm-2.58,13c.06-.12.13,0,.11.1a10,10,0,0,1-.49,1.17c-.08.15-.18,0-.14-.12A7.48,7.48,0,0,1,27.48,23.29ZM28,9.81a2.79,2.79,0,0,1,0,1,6.35,6.35,0,0,1-.18,1.06c-.06.21-.25.09-.22-.08.05-.33.11-.65.14-1a7.77,7.77,0,0,1,.06-1C27.8,9.81,27.91,9.69,28,9.81ZM23.64,20.43c0,.71,0,1.41,0,2.11,0,.2-.25.3-.24.06,0-.71,0-1.41,0-2.11C23.42,20.31,23.64,20.2,23.64,20.43Zm-4-11A15.11,15.11,0,0,1,19.8,11c0,.14-.18.28-.21.09a12.66,12.66,0,0,1-.19-1.64C19.39,9.33,19.6,9.15,19.64,9.38ZM17.55,9.3a5.67,5.67,0,0,1,.29.91c.1.34.22.68.3,1,0,.11-.13.33-.19.16s-.18-.63-.27-.94a7.67,7.67,0,0,1-.26-1.05C17.41,9.34,17.49,9.18,17.55,9.3ZM8.12,13A9.53,9.53,0,0,1,6.7,11.4c0-.06,0-.27.09-.2a9.32,9.32,0,0,1,1.44,1.57C8.29,12.84,8.22,13.05,8.12,13Zm1.56.09a9.27,9.27,0,0,1-.85-1.2c-.3-.4-.6-.79-.91-1.17-.08-.1,0-.37.14-.24.34.38.67.78,1,1.19a5.84,5.84,0,0,1,.8,1.18C9.9,12.91,9.81,13.17,9.68,13.05Zm1.53-1.31c-.21-.27-.39-.56-.61-.81a8.31,8.31,0,0,1-.71-.75s0-.17,0-.15a2.06,2.06,0,0,1,.76.62,3.6,3.6,0,0,1,.67.88C11.41,11.61,11.31,11.86,11.21,11.74Zm2.34-.39c-.38-.5-.75-1-1.09-1.55,0-.07,0-.25.1-.16.38.5.74,1,1.09,1.55C13.69,11.26,13.62,11.44,13.55,11.35Zm1.08-1.7c0-.08,0-.31.15-.2a2.8,2.8,0,0,1,.54.89,4.42,4.42,0,0,1,.36,1c0,.11-.13.37-.21.18s-.22-.64-.36-1S14.76,10,14.63,9.65Zm.62,13.61a4,4,0,0,1-1.95-1.77c-.05-.08,0-.29.14-.19a9.88,9.88,0,0,0,.91.92c.31.26.67.45,1,.7C15.44,23,15.4,23.31,15.25,23.26Zm.85-.76a3.39,3.39,0,0,1-.93-1,9.94,9.94,0,0,1-.76-1.15c0-.06.05-.24.11-.15.26.36.52.71.81,1a9.46,9.46,0,0,1,.89,1C16.26,22.33,16.24,22.57,16.1,22.5Zm1.57-.3a4.2,4.2,0,0,1-.75-1L16.12,20c-.05-.07,0-.27.11-.17L17.05,21A5,5,0,0,1,17.77,22C17.79,22.07,17.75,22.28,17.67,22.2Zm1.77-.53a9.8,9.8,0,0,0-.31-1.15c-.16-.35-.42-.63-.59-1,0-.06,0-.21.1-.17a2.12,2.12,0,0,1,.72,1,2.52,2.52,0,0,1,.3,1.23C19.65,21.71,19.5,21.88,19.44,21.67Zm1.5-2.35a5,5,0,0,1,.37,2.11c0,.14-.2.23-.23.05-.15-.66-.16-1.31-.36-2C20.68,19.38,20.88,19.13,20.94,19.32Z"/><path class="cls-2" d="M25.87,2.78C25.35,3.3,25,4,24.45,4.53c.49.07,1,.16,1.44.25a17.28,17.28,0,0,1,2.58-3.36l-.9,0A9.92,9.92,0,0,0,25.87,2.78Z"/><path class="cls-2" d="M43.61,15.56c1.2-1.29,2.32-2.63,3.49-4l0,0c-1.31-1.34-2.66-2.71-4.09-4a27.85,27.85,0,0,1-3.36,4.15A40.42,40.42,0,0,1,43.61,15.56Z"/><path class="cls-2" d="M51.55,27.18a.41.41,0,0,1,.05.09,23.63,23.63,0,0,1,2.4-2.7,14.72,14.72,0,0,0,1.59-1.46,1.67,1.67,0,0,0,.18-.28c-.46-.84-1-1.67-1.47-2.48a33.65,33.65,0,0,1-4,4.49C50.72,25.61,51.15,26.39,51.55,27.18Z"/><path class="cls-2" d="M47.25,11.85a17.55,17.55,0,0,1-3.4,4A50.44,50.44,0,0,1,47,19.76a22.52,22.52,0,0,1,3.74-4.11c.08-.07.08.11,0,.15-1.2,1.4-2.51,2.69-3.68,4.11,1.09,1.51,2.09,3.08,3,4.68.71-.9,1.49-1.76,2.25-2.62.56-.64,1.11-1.32,1.72-1.92a55.87,55.87,0,0,0-6.8-8.29l0,0A.22.22,0,0,1,47.25,11.85Z"/><path class="cls-2" d="M54.64,36.14a27.77,27.77,0,0,1,.49,6.34c1.11.22,2.15-.68,3.2-1,.15-.49.29-1,.4-1.5a5.69,5.69,0,0,1-3.31.37c-.14,0-.08-.31,0-.3a9,9,0,0,0,2.14-.17,10.73,10.73,0,0,0,1.24-.44,18.36,18.36,0,0,0,.37-3,8.4,8.4,0,0,1-3.79,1.84c-.14,0-.11-.26,0-.29a11.15,11.15,0,0,0,2.47-1.1,13.42,13.42,0,0,0,1.34-1c0-.58,0-1.15,0-1.74A6.89,6.89,0,0,1,54.64,36.14Z"/><path class="cls-2" d="M54.66,24.41a39.06,39.06,0,0,0-2.93,3.11A34.16,34.16,0,0,1,54.17,34h0A10.41,10.41,0,0,0,58.56,31c.12-.13.16.11.12.19a7.23,7.23,0,0,1-4.43,3.19c.12.47.23,1,.33,1.44A9.42,9.42,0,0,0,57.29,35a8.13,8.13,0,0,0,1.87-1.41c0-.23,0-.46-.07-.69a28.37,28.37,0,0,0-3.16-9.78l-.06.11A7.44,7.44,0,0,1,54.66,24.41Z"/><path class="cls-2" d="M27.16,5.08q1.66-1.8,3.4-3.52c-.55-.05-1.1-.09-1.66-.12a44,44,0,0,0-2.83,3.38C26.43,4.9,26.8,5,27.16,5.08Z"/><path class="cls-2" d="M39.43,11.53c1.11-1.4,2.26-2.76,3.36-4.16-.68-.6-1.37-1.18-2.09-1.73-1.05,1.46-2.09,3-3.23,4.36C38.14,10.48,38.79,11,39.43,11.53Z"/><path class="cls-2" d="M35,8.34A43,43,0,0,0,38.37,4c-.28-.17-.57-.33-.86-.49a15.88,15.88,0,0,0-3.6-1.4,30.31,30.31,0,0,0-4.21,3.7A30.76,30.76,0,0,1,35,8.34Z"/><path class="cls-2" d="M37.28,9.86c1-1.52,2.07-3,3.14-4.43-.57-.43-1.16-.83-1.76-1.2a29,29,0,0,1-3.52,4.22C35.87,8.9,36.59,9.37,37.28,9.86Z"/><path class="cls-2" d="M55.11,42.84a18.42,18.42,0,0,1-2,7.43,24.79,24.79,0,0,0,5-8.37,12.8,12.8,0,0,1-1.6.74A2.08,2.08,0,0,1,55.11,42.84Z"/><path class="cls-2" d="M29.5,5.78a20.34,20.34,0,0,1,4.08-3.72A21.27,21.27,0,0,0,31,1.6c-1.19,1.17-2.39,2.34-3.57,3.53C28.09,5.32,28.8,5.54,29.5,5.78Z"/><path class="cls-4" d="M42.35,5.35a20.45,20.45,0,0,0-10.16-5A55.17,55.17,0,0,0,20.77.26C13.69.69,6.48,2.44,2,8.08c-.51.24-1,.49-1.52.75-.31-.08-.63.75-.4,1.09,6,9.1,14.42,16,22.64,22.91A135.29,135.29,0,0,1,35,44.37c3.77,4.11,6.85,8.89,11.4,12.23a.37.37,0,0,0,.39,0c.3-.16.59-.33.88-.5,0,.24.2.39.44.21,5.12-3.77,9.71-8.84,11.36-15.13,1.73-6.63.15-13.74-3.11-19.65C52.92,15.27,47.77,9.92,42.35,5.35Zm9.2,21.83c-.4-.79-.83-1.57-1.27-2.34a33.65,33.65,0,0,0,4-4.49c.52.81,1,1.64,1.47,2.48a1.67,1.67,0,0,1-.18.28A14.72,14.72,0,0,1,54,24.57a23.63,23.63,0,0,0-2.4,2.7A.41.41,0,0,0,51.55,27.18ZM47.31,11.76a55.87,55.87,0,0,1,6.8,8.29c-.61.6-1.16,1.28-1.72,1.92-.76.86-1.54,1.72-2.25,2.62-.93-1.6-1.93-3.17-3-4.68,1.17-1.42,2.48-2.71,3.68-4.11,0,0,0-.22,0-.15A22.52,22.52,0,0,0,47,19.76a50.44,50.44,0,0,0-3.16-3.94,17.55,17.55,0,0,0,3.4-4,.22.22,0,0,0,0-.12Zm-.21-.15c-1.17,1.32-2.29,2.66-3.49,4a40.42,40.42,0,0,0-3.93-3.82A27.85,27.85,0,0,0,43,7.59c1.43,1.29,2.78,2.66,4.09,4ZM42.79,7.37c-1.1,1.4-2.25,2.76-3.36,4.16-.64-.54-1.29-1-2-1.53,1.14-1.39,2.18-2.9,3.23-4.36C41.42,6.19,42.11,6.77,42.79,7.37ZM37.28,9.86c-.69-.49-1.41-1-2.14-1.41a29,29,0,0,0,3.52-4.22c.6.37,1.19.77,1.76,1.2C39.35,6.88,38.26,8.34,37.28,9.86ZM38.37,4A43,43,0,0,1,35,8.34,30.76,30.76,0,0,0,29.7,5.85a30.31,30.31,0,0,1,4.21-3.7,15.88,15.88,0,0,1,3.6,1.4C37.8,3.71,38.09,3.87,38.37,4Zm-4.79-2A20.34,20.34,0,0,0,29.5,5.78c-.7-.24-1.41-.46-2.12-.65C28.56,3.94,29.76,2.77,31,1.6A21.27,21.27,0,0,1,33.58,2.06Zm-6.42,3c-.36-.1-.73-.18-1.09-.26A44,44,0,0,1,28.9,1.44c.56,0,1.11.07,1.66.12Q28.82,3.29,27.16,5.08Zm1.31-3.66a17.28,17.28,0,0,0-2.58,3.36c-.47-.09-.95-.18-1.44-.25.52-.52.9-1.23,1.42-1.75a9.92,9.92,0,0,1,1.7-1.38ZM27,1.4l-.56.44a15.65,15.65,0,0,0-2.24,2.65c-.43-.06-.85-.11-1.29-.15a39,39,0,0,0-5.82-.1,11.57,11.57,0,0,1,3.24-2.65c1.24-.08,2.47-.13,3.67-.16C25,1.41,26,1.39,27,1.4ZM17,4.09a.15.15,0,0,0,0,.16c-.74,0-1.47.11-2.2.2A6.55,6.55,0,0,1,17,2.51a11.6,11.6,0,0,0,1.49-.76l.91-.08A9.5,9.5,0,0,0,17,4.09Zm.29-2.21a10.6,10.6,0,0,0-.94.56A7.77,7.77,0,0,0,14.6,4.39a.19.19,0,0,0,0,.08l-1.35.19a10.29,10.29,0,0,1,2.3-2.31c.06,0,.08-.2,0-.23C16.12,2,16.71,2,17.29,1.88Zm-1.93.27c-1.15.34-1.77,1.69-2.51,2.57A41.62,41.62,0,0,0,3.11,7.58C6.43,4.44,10.81,2.9,15.36,2.15Zm5.47,27.7a5.12,5.12,0,0,1-.71-1.19c-.44-.61-.35-.72.28-.33a8.14,8.14,0,0,1,1.09.47,13.65,13.65,0,0,1,1.29.76,14,14,0,0,1,2.69,2.34,10.09,10.09,0,0,1,.91,1.16c.2.32.39.65.58,1a2,2,0,0,1,.31,1.16.12.12,0,0,0-.14,0q-1.72-1.48-3.47-3Zm25.86,25c-1.27-.09-2.83-2.1-3.67-3C39.75,48.4,37,44.53,33.61,41.15c-1.92-1.93-3.95-3.76-6-5.54a.34.34,0,0,0,.11-.24c0-3.36-4.87-7.07-7.87-7.67a.12.12,0,0,0-.1,0A1.11,1.11,0,0,0,19.8,29C13,23.16,6.24,17.21,1.18,9.75l.29-.38c10-3.63,21.61-5.5,31.44-.33,8.55,4.5,15.16,13.26,18.91,22C53.94,36,55,41.51,53.31,46.73A15.36,15.36,0,0,1,49.6,53C48.87,53.69,47.76,54.92,46.69,54.83Zm12.55-19a13.42,13.42,0,0,1-1.34,1,11.15,11.15,0,0,1-2.47,1.1c-.11,0-.14.32,0,.29a8.4,8.4,0,0,0,3.79-1.84,18.36,18.36,0,0,1-.37,3,10.73,10.73,0,0,1-1.24.44,9,9,0,0,1-2.14.17c-.13,0-.19.27,0,.3a5.69,5.69,0,0,0,3.31-.37c-.11.51-.25,1-.4,1.5-1,.37-2.09,1.27-3.2,1a27.77,27.77,0,0,0-.49-6.34,6.89,6.89,0,0,0,4.56-2C59.23,34.68,59.25,35.25,59.24,35.83Zm-6.1,14.44a18.42,18.42,0,0,0,2-7.43,2.08,2.08,0,0,0,1.47-.2,12.8,12.8,0,0,0,1.6-.74A24.79,24.79,0,0,1,53.14,50.27Zm6-16.67A8.13,8.13,0,0,1,57.29,35a9.42,9.42,0,0,1-2.71.78c-.1-.48-.21-1-.33-1.44a7.23,7.23,0,0,0,4.43-3.19c0-.08,0-.32-.12-.19A10.41,10.41,0,0,1,54.17,34h0a34.16,34.16,0,0,0-2.44-6.51,39.06,39.06,0,0,1,2.93-3.11,7.44,7.44,0,0,0,1.21-1.17l.06-.11a28.37,28.37,0,0,1,3.16,9.78C59.12,33.14,59.14,33.37,59.16,33.6Z"/><path class="cls-4" d="M15.34,22.92c-.32-.25-.68-.44-1-.7a9.88,9.88,0,0,1-.91-.92c-.1-.1-.19.11-.14.19a4,4,0,0,0,1.95,1.77C15.4,23.31,15.44,23,15.34,22.92Z"/><path class="cls-4" d="M15.33,21.25c-.29-.33-.55-.68-.81-1-.06-.09-.14.09-.11.15a9.94,9.94,0,0,0,.76,1.15,3.39,3.39,0,0,0,.93,1c.14.07.16-.17.12-.24A9.46,9.46,0,0,0,15.33,21.25Z"/><path class="cls-4" d="M17.05,21l-.82-1.12c-.07-.1-.16.1-.11.17l.8,1.18a4.2,4.2,0,0,0,.75,1c.08.08.12-.13.1-.18A5,5,0,0,0,17.05,21Z"/><path class="cls-4" d="M18.64,19.38c-.09,0-.13.11-.1.17.17.34.43.62.59,1a9.8,9.8,0,0,1,.31,1.15c.06.21.21,0,.22-.09a2.52,2.52,0,0,0-.3-1.23A2.12,2.12,0,0,0,18.64,19.38Z"/><path class="cls-4" d="M20.72,19.52c.2.65.21,1.3.36,2,0,.18.21.09.23-.05a5,5,0,0,0-.37-2.11C20.88,19.13,20.68,19.38,20.72,19.52Z"/><path class="cls-4" d="M34.41,38.56c-.49-.07-1-.11-1.48-.16-.07,0-.1.17,0,.17.49.06,1,.13,1.47.15C34.46,38.73,34.48,38.57,34.41,38.56Z"/><path class="cls-4" d="M35.24,36.45a2.44,2.44,0,0,0-1,.29c-.39.13-.77.26-1.14.41-.09,0-.13.26,0,.24a7.28,7.28,0,0,0,1.21-.27,2.47,2.47,0,0,0,1-.39C35.32,36.67,35.35,36.47,35.24,36.45Z"/><path class="cls-4" d="M34.89,34.52c-.75.14-1.48.47-2.23.65-.1,0-.11.24,0,.22a6.46,6.46,0,0,0,2.26-.55C35,34.79,35.05,34.48,34.89,34.52Z"/><path class="cls-4" d="M34,32.43c.05,0,.07-.24,0-.21a5.46,5.46,0,0,0-.9.46c-.32.18-.7.3-1,.5-.06,0-.09.23,0,.21a3.7,3.7,0,0,0,1-.41A3.36,3.36,0,0,0,34,32.43Z"/><path class="cls-4" d="M32.94,30.32a6.4,6.4,0,0,0-.71.55,5,5,0,0,0-.65.55s0,.25.06.19a4,4,0,0,0,.72-.53,4.78,4.78,0,0,0,.65-.54C33.07,30.48,33.06,30.25,32.94,30.32Z"/><path class="cls-4" d="M31.51,27.89a11.32,11.32,0,0,1-1,1.24c0,.07,0,.26.08.17a4.7,4.7,0,0,0,1-1.29C31.66,27.93,31.59,27.77,31.51,27.89Z"/><path class="cls-4" d="M30.56,26.48l-.75.75c-.06.06,0,.22.06.14.25-.25.5-.5.74-.76C30.66,26.56,30.63,26.41,30.56,26.48Z"/><path class="cls-4" d="M29.57,24.69a3.74,3.74,0,0,0-.68.64,7.41,7.41,0,0,0-.65.72c0,.06,0,.31.1.22A5.3,5.3,0,0,0,29,25.6a4.34,4.34,0,0,0,.63-.73C29.68,24.82,29.67,24.63,29.57,24.69Z"/><path class="cls-4" d="M27.48,23.29A7.48,7.48,0,0,0,27,24.44c0,.09.06.27.14.12a10,10,0,0,0,.49-1.17C27.61,23.31,27.54,23.17,27.48,23.29Z"/><path class="cls-4" d="M25.49,21.83c-.12.55-.17,1.1-.3,1.65-.05.22.18.25.23,0a6.11,6.11,0,0,0,.23-1.7C25.65,21.67,25.51,21.7,25.49,21.83Z"/><path class="cls-4" d="M23.64,20.43c0-.23-.22-.12-.23.06,0,.7,0,1.4,0,2.11,0,.24.24.14.24-.06C23.63,21.84,23.65,21.14,23.64,20.43Z"/><path class="cls-4" d="M48.65,33.45a7.09,7.09,0,0,0-1-3.35c-.08-.12-.19.11-.17.18.17.56.43,1.08.6,1.63s.25,1.1.43,1.64C48.53,33.69,48.65,33.52,48.65,33.45Z"/><path class="cls-4" d="M48.18,50.48c-.44-.28-.93-.48-1.37-.75s-.85-.58-1.27-.87c-.07,0-.12.11-.08.16a6.65,6.65,0,0,0,2.63,1.78C48.23,50.84,48.28,50.54,48.18,50.48Z"/><path class="cls-4" d="M48.67,49.2a2.69,2.69,0,0,0-.54-.33q.32-.66.63-1.35a3.58,3.58,0,0,0,.94.36c.11,0,.14-.19.07-.24a4.29,4.29,0,0,0-.88-.45c.19-.43.36-.86.52-1.3a3.62,3.62,0,0,0,.55.2c.12,0,.16-.23.07-.28s-.34-.17-.51-.25a13,13,0,0,0,.51-2,3.76,3.76,0,0,0,.1-.75,10.21,10.21,0,0,0-.32-1.63,11.2,11.2,0,0,1,0-3.32c0-.15-.13-.18-.16,0a13.49,13.49,0,0,0,.17,4.44,7.69,7.69,0,0,1-.54,3.22l-.41-.17a5.23,5.23,0,0,0-1-.37c-.1,0-.13.18-.06.22a6.25,6.25,0,0,0,1.11.52l.25.11c-.17.44-.35.88-.53,1.31l-.22-.1c-.39-.16-.77-.35-1.17-.48-.11,0-.16.22-.07.26a10.45,10.45,0,0,0,1.31.62h0c-.2.47-.41.92-.59,1.36l-.33-.17a8.25,8.25,0,0,0-.95-.45c-.08,0-.08.13,0,.16a7.85,7.85,0,0,0,1,.66l.16.1c-.1.23-.19.45-.27.67s.05.2.11.09l.32-.66a2.57,2.57,0,0,0,.62.31C48.73,49.54,48.74,49.26,48.67,49.2Z"/><path class="cls-4" d="M44.86,23.18a14.41,14.41,0,0,0-1,1.12,6,6,0,0,0-.81,1.07s0,.16,0,.11a5.09,5.09,0,0,0,.94-1A11.56,11.56,0,0,0,45,23.44C45.1,23.33,45,23,44.86,23.18Z"/><path class="cls-4" d="M44.61,19.87c.06-.06,0-.29-.07-.21a3.08,3.08,0,0,0-1,1.33c0,.05,0,.19.09.11s.28-.44.44-.65A6.06,6.06,0,0,1,44.61,19.87Z"/><path class="cls-4" d="M41.37,19.59c-.33.48-.64,1-.95,1.45-.07.11,0,.32.13.17.31-.5.62-1,.92-1.5C41.51,19.63,41.45,19.49,41.37,19.59Z"/><path class="cls-4" d="M39.18,17.42a7.16,7.16,0,0,0-.29,2.39c0,.12.13,0,.14,0,.16-.76.18-1.56.32-2.33C39.39,17.28,39.22,17.26,39.18,17.42Z"/><path class="cls-4" d="M37.05,17.54c.06-.69.11-1.39.15-2.08,0-.17-.19-.15-.2,0-.06.71-.12,1.42-.17,2.13C36.81,17.82,37,17.72,37.05,17.54Z"/><path class="cls-4" d="M6.79,11.2c-.09-.07-.13.14-.09.2A9.53,9.53,0,0,0,8.12,13c.1.09.17-.12.11-.19A9.32,9.32,0,0,0,6.79,11.2Z"/><path class="cls-4" d="M9.05,11.63c-.32-.41-.65-.81-1-1.19-.11-.13-.22.14-.14.24.31.38.61.77.91,1.17a9.27,9.27,0,0,0,.85,1.2c.13.12.22-.14.17-.24A5.84,5.84,0,0,0,9.05,11.63Z"/><path class="cls-4" d="M10.7,10.65A2.06,2.06,0,0,0,9.94,10c-.07,0-.08.12,0,.15a8.31,8.31,0,0,0,.71.75c.22.25.4.54.61.81.1.12.2-.13.16-.21A3.6,3.6,0,0,0,10.7,10.65Z"/><path class="cls-4" d="M12.56,9.64c-.07-.09-.14.09-.1.16.34.53.71,1,1.09,1.55.07.09.14-.09.1-.16C13.3,10.67,12.94,10.14,12.56,9.64Z"/><path class="cls-4" d="M15.68,11.34a4.42,4.42,0,0,0-.36-1,2.8,2.8,0,0,0-.54-.89c-.11-.11-.18.12-.15.2.13.32.34.6.48.91s.24.64.36,1S15.71,11.45,15.68,11.34Z"/><path class="cls-4" d="M17.68,10.46c.09.31.16.63.27.94s.22-.05.19-.16c-.08-.35-.2-.69-.3-1a5.67,5.67,0,0,0-.29-.91c-.06-.12-.14,0-.13.11A7.67,7.67,0,0,0,17.68,10.46Z"/><path class="cls-4" d="M19.59,11.12c0,.19.22.05.21-.09a15.11,15.11,0,0,0-.16-1.65c0-.23-.25-.05-.24.1A12.66,12.66,0,0,0,19.59,11.12Z"/><path class="cls-4" d="M28,9.81c0-.12-.15,0-.16.07a7.77,7.77,0,0,0-.06,1c0,.33-.09.65-.14,1,0,.17.16.29.22.08A6.35,6.35,0,0,0,28,10.85,2.79,2.79,0,0,0,28,9.81Z"/><path class="cls-4" d="M29.92,10.94l.14-.66c0-.16-.16-.2-.18,0s-.07.45-.1.67S29.9,11.08,29.92,10.94Z"/></g></g></g></svg>