<svg xmlns="http://www.w3.org/2000/svg" width="34.5" height="33" viewBox="0 0 34.5 33"><g transform="translate(-1.5)"><path d="M28.5,25.5H27a1.5,1.5,0,0,1,0-3h1.5a4.5,4.5,0,0,0,0-9H27a1.5,1.5,0,0,1,0-3h1.5a7.5,7.5,0,0,1,0,15Z" fill="#fff"/><path d="M3,10.5H27A1.5,1.5,0,0,1,28.5,12V25.5A7.509,7.509,0,0,1,21,33H9a7.509,7.509,0,0,1-7.5-7.5V12A1.5,1.5,0,0,1,3,10.5Zm22.5,3H4.5v12A4.505,4.505,0,0,0,9,30H21a4.505,4.505,0,0,0,4.5-4.5Z" fill="#fff"/><path d="M9,7.5A1.5,1.5,0,0,1,7.5,6V1.5a1.5,1.5,0,0,1,3,0V6A1.5,1.5,0,0,1,9,7.5Z" fill="#fff"/><path d="M15,7.5A1.5,1.5,0,0,1,13.5,6V1.5a1.5,1.5,0,1,1,3,0V6A1.5,1.5,0,0,1,15,7.5Z" fill="#fff"/><path d="M21,7.5A1.5,1.5,0,0,1,19.5,6V1.5a1.5,1.5,0,0,1,3,0V6A1.5,1.5,0,0,1,21,7.5Z" fill="#fff"/></g></svg>