<svg xmlns="http://www.w3.org/2000/svg" viewBox="0 0 236.47 170.26"><defs><style>.cls-1{fill:#fdc77a;}.cls-2{fill:#b69b7f;}.cls-3{fill:#a85726;}.cls-4{fill:#886751;}</style></defs><g id="レイヤー_2" data-name="レイヤー 2"><g id="Layer_1" data-name="Layer 1"><path class="cls-1" d="M126.63,16.36a47.92,47.92,0,0,0-5.88-7.64,39.39,39.39,0,0,0-3.37-3.22h-.11c-.13,0-.19-.12-.2-.26-1.7-1.32-3.56-2.28-5-1.5a.07.07,0,0,1-.09,0l.2.41a5.5,5.5,0,0,1,2.71,1.25,6.83,6.83,0,0,1,2.26,2.46c.07.14,0,.61-.25.41-.79-.71-1.38-1.57-2.24-2.22a22.21,22.21,0,0,0-2.08-1.17c1,1.8,2.23,3.5,3.19,5.34.19.38-.22,1.3-.6.74a45.07,45.07,0,0,1-3.61-6.1c-.66-1.4-.73-3.14-2.8-2.55a.6.6,0,0,1-.12.47,17.76,17.76,0,0,1-8,4.43,3.4,3.4,0,0,1,1.36,1.24c1.31,2,1.14,5,1.29,7.34,0,.56-.54.56-.59,0-.18-2,0-4.35-.83-6.21a3.51,3.51,0,0,0-2.64-2c-6.92,1.6-14.86,1.1-21.09,4.06A36.56,36.56,0,0,0,64.67,23.2,39.66,39.66,0,0,0,60,31.48c-1,2.49-1.64,5.13-2.68,7.62,0,4.21,1.88,7.86,3.53,11.74.11.28-.19,1-.45.55C58.41,48,56.8,44,56.94,40c-1.17,2.38-2.94,4.45-3.83,7a12.17,12.17,0,0,0-.66,4.74,1.1,1.1,0,0,1,0,.7,16.82,16.82,0,0,0,1.12,4.52.41.41,0,0,1,.1.23l.21.5c2.59,5.78,7.45,10.45,11.77,15C74.55,81.8,84,90.39,93.61,98.87l15,13.21c4.75,4.2,9.41,8.48,14.92,11.68.51-.66,1-1.33,1.48-2-2.79-2.67-5.34-5.57-8.21-8.15a106.71,106.71,0,0,0-9.72-7.77c-.11-.08-.06-.44.09-.35a62,62,0,0,1,9.64,6.94c3.07,2.72,5.74,5.8,8.61,8.72.66-1,1.3-1.94,1.89-2.94-.71-.52-1.42-1-2.14-1.56-.07,0,0-.29.06-.23.8.42,1.61.81,2.41,1.22.25-.43.49-.86.73-1.29-16.65-13.15-30.62-29.38-43.7-46-.11-.15,0-.53.2-.32,13.93,15.82,27.41,32.14,44,45.24.53-1,1-2.07,1.49-3.13.23-.54.45-1.08.65-1.62-4.93-4.23-8.23-9.66-12.41-14.57a92.39,92.39,0,0,0-7.34-7.6c-2.45-2.26-5.16-4.23-7.58-6.53-.11-.11-.11-.64.13-.51,5.45,2.89,10.2,7.94,14.26,12.51,4.58,5.16,8.14,11,13.33,15.62.2-.56.38-1.12.56-1.68a29.23,29.23,0,0,1-5.17-6.36c-.06-.09,0-.49.15-.32,1.77,2,3.39,4,5.27,5.86.16-.55.31-1.09.46-1.64a22.82,22.82,0,0,1-4.73-5.76s0-.18.07-.11a50.16,50.16,0,0,0,4.75,5.53c.11-.39.21-.79.31-1.18a16.24,16.24,0,0,1-4.78-6.43c0-.09.05-.23.12-.11a17.64,17.64,0,0,0,4.75,6.19c.76-3,1.43-6.06,2.3-9.07a34.6,34.6,0,0,1,2.35-6,22,22,0,0,1-1.68-2.79s0-.17.09-.1a20.74,20.74,0,0,1,1.72,2.62c.2-.38.4-.76.61-1.13a41.08,41.08,0,0,1-2.72-6.37c-.22-.65.52-1.74.84-.79a44.3,44.3,0,0,0,2.58,6A44.57,44.57,0,0,1,144,79.44s0,0,0,0A224.34,224.34,0,0,0,133,49.7c-4.58-10.05-9.21-20.08-13.56-30.23-.1-.24.16-.64.32-.3,9.46,19.29,18.94,38.73,25,59.41,1.3-1.41,2.68-2.76,4.11-4.07a252.88,252.88,0,0,0-13-40.09A123.23,123.23,0,0,0,126.63,16.36Zm-10.31,92.87a14.36,14.36,0,0,1,3.12,2.49,10.28,10.28,0,0,1,2.45,3c.08.19,0,.66-.29.47a16.81,16.81,0,0,1-2.56-2.82c-.9-1-1.92-1.81-2.81-2.77C116.16,109.5,116.14,109.13,116.32,109.23ZM87.52,86.29c.79.69,1.53,1.45,2.26,2.2a12.44,12.44,0,0,1,2,2.26c.11.18.07.76-.26.55a10.81,10.81,0,0,1-2-2.13c-.72-.83-1.44-1.68-2.09-2.57C87.29,86.51,87.36,86.15,87.52,86.29Zm22.76-66.07a28.79,28.79,0,0,0,1.4,6.68c0,.11-.11.36-.21.19A13.8,13.8,0,0,1,110,20.22C110,20,110.27,20,110.28,20.22Zm4.23,20.42c.09.31-.19,1.23-.54.67a46.91,46.91,0,0,1-5.1-11.6c0-.13.1-.38.22-.2A44.83,44.83,0,0,1,114.51,40.64Zm-2.07-11.72c0-.08.07-.19.12-.08.24.51.42,1.06.64,1.58a16.24,16.24,0,0,1,.73,1.59c0,.11-.05.4-.19.23a6.38,6.38,0,0,1-.77-1.6A9.26,9.26,0,0,1,112.44,28.92Zm-5-15.87c0-.08.09-.21.13-.08a12,12,0,0,1,.38,5.12,17.15,17.15,0,0,0,1.39,8.8c.07.16-.12.58-.26.32a13.56,13.56,0,0,1-1.59-5.15C107.23,19,108,16.08,107.49,13.05ZM104,7.65c3.35,5.06.94,11.86,2.48,17.45,0,.2-.18.47-.29.2-2.24-5.66.48-11.88-2.32-17.49C103.79,7.73,103.88,7.53,104,7.65Zm-.36,14.16c0-.07.1-.09.11,0,.14,1.18.22,2.38.43,3.55s.59,2.1.7,3.18c0,.14-.16.36-.28.18C103.39,26.93,103.25,23.87,103.6,21.81Zm2.32,16.1a13.49,13.49,0,0,1,1.06,1.8c.06.14-.06.49-.23.28a13.28,13.28,0,0,1-1.12-1.84,12.73,12.73,0,0,1-.91-1.76s0-.19.08-.12A9.7,9.7,0,0,1,105.92,37.91ZM97.4,69.36a22.78,22.78,0,0,1,1.67,2.39c0,.07,0,.29-.12.19a22.2,22.2,0,0,1-1.67-2.39C97.22,69.46,97.31,69.23,97.4,69.36Zm-5.92-5.8a9.28,9.28,0,0,1,4,3.62c.06.11,0,.41-.15.24a13.46,13.46,0,0,0-3.92-3.71S91.41,63.52,91.48,63.56Zm-6.11-6.81c1.27,1.57,2.69,3.06,3.9,4.68,0,.07,0,.3-.1.21a24.35,24.35,0,0,1-3.87-4.77C85.26,56.81,85.31,56.66,85.37,56.75Zm-4-10.18a17.45,17.45,0,0,1,1.35,4.06A11,11,0,0,0,84.16,55c.07.1,0,.37-.14.22a7,7,0,0,1-1.25-3.34,34.9,34.9,0,0,0-1.42-5.21C81.34,46.58,81.38,46.5,81.42,46.57ZM76.09,35.65c.07.32-.27.74-.47.31a39.57,39.57,0,0,1-1.33-3.84,19.86,19.86,0,0,1-1-3.53c0-.06.05-.22.12-.11a17,17,0,0,1,1.41,3.45C75.28,33.16,75.78,34.38,76.09,35.65ZM73.57,17.54c.08-.24.26,0,.24.14-.3,2.55-.51,5.21-1,7.71-.06.3-.31.2-.33-.06A20.87,20.87,0,0,1,73.57,17.54Zm-3,2.14c.08-.23.28,0,.24.15a35.52,35.52,0,0,0-.7,6.5c0,.43-.42.43-.45,0A15.89,15.89,0,0,1,70.61,19.68Zm-2.88,3.11c.06-.18.2,0,.18.11-.51,3.39-1.22,6.7-1.6,10.12,0,.45-.45.17-.43-.17A37.31,37.31,0,0,1,67.73,22.79ZM65.49,37.57a36.7,36.7,0,0,0,5,12.37c2.2,3.44,5.18,6.35,7.31,9.81.19.31.07,1.49-.49,1-3.37-2.87-6.23-7.19-8.41-11A30.21,30.21,0,0,1,64.94,37.7C64.89,37.26,65.39,37.1,65.49,37.57ZM56.43,55.93c-.32-2.56-1.94-4.72-2.23-7.26,0-.06,0-.15.09-.06.92,2.33,2.26,4.71,2.51,7.24C56.83,56.14,56.47,56.25,56.43,55.93Zm5.12,7.24a18.64,18.64,0,0,1-3.41-3.74c-.06-.08,0-.35.11-.24,1.15,1.19,2.42,2.32,3.49,3.58C61.85,62.9,61.76,63.33,61.55,63.17Zm4.3,1.35a48.29,48.29,0,0,1-5.39-6.94c-1.59-2.57-2.26-5.63-4.05-8-.08-.1,0-.47.15-.32,2,1.83,2.5,4.85,3.84,7.14a62.9,62.9,0,0,0,5.73,7.59C66.28,64.14,66.1,64.79,65.85,64.52Zm-.33-6.06c-.08-.09,0-.41.11-.29a7,7,0,0,1,1.81,2.72,21.8,21.8,0,0,0,3.47,4.74c2.84,3.22,5.71,6.42,8.44,9.74.1.13,0,.56-.18.39-2.85-3-5.55-6.06-8.29-9.12a26.94,26.94,0,0,1-3-3.68C67,61.51,66.73,59.7,65.52,58.46ZM83.36,82.69c-6-3.93-10.67-9.77-14.61-15.7,0-.06,0-.21.08-.12C73.47,72.31,77.66,78,83.52,82.24,83.69,82.36,83.6,82.85,83.36,82.69Zm15.73-5.43C96.7,75.87,96,73,94.43,70.85c-2.09-2.77-5-4.8-7.36-7.31-3.83-4-6.95-9.52-7.4-15.17,0-.11.14-.23.19-.08,1.92,6,4.25,11.16,8.92,15.51a62.71,62.71,0,0,1,5.78,5.51c1.78,2.12,2.57,5,4.85,6.7C99.78,76.29,99.62,77.56,99.09,77.26Zm1.08-62.79c-.27-1.47-.29-3.75-1.64-4.69-.11-.07-.08-.41.08-.35a2.44,2.44,0,0,1,1.25,1.66,15.54,15.54,0,0,1,.66,3.31C100.54,14.66,100.23,14.77,100.17,14.47Zm.43,3.29c0-.14.14-.14.15,0,.23,2.69.18,5.4.35,8.09.18,3,1.32,5.35,2.47,8,.07.17-.11.6-.26.33C100.39,29.09,100.4,23.52,100.6,17.76ZM111,83.66a18.89,18.89,0,0,1-5.43-3.38,25.23,25.23,0,0,1-4.08-5.36s0-.15.06-.09c1.37,1.66,2.51,3.7,4.14,5.11A31.18,31.18,0,0,0,111,83.35C111.14,83.41,111.14,83.72,111,83.66Zm5,4.71a14.31,14.31,0,0,0-2.45-2.82s0-.21.06-.16a8.73,8.73,0,0,1,2.54,2.8C116.23,88.28,116.13,88.51,116,88.37Zm.33-36.24C114,48.69,112,45,109.93,41.39a61,61,0,0,1-4.88-10c0-.16.11-.45.23-.21,3.48,7,7.87,13.55,11.44,20.52C116.84,51.91,116.59,52.47,116.36,52.13Zm6.08,44.76a18.08,18.08,0,0,1-3.76-6.31s0-.16.07-.09c1.31,1.92,2.78,3.82,4,5.83C122.81,96.49,122.72,97.17,122.44,96.89ZM126.35,98a71.43,71.43,0,0,1-4.45-6.06,31.25,31.25,0,0,0-2.27-3.31c-.76-.85-1.76-1.42-2.54-2.26,0-.05,0-.21,0-.15a20.5,20.5,0,0,1,2.62,2.11,24.07,24.07,0,0,1,2.07,3c1.49,2.2,3.11,4.29,4.67,6.43C126.59,97.86,126.49,98.17,126.35,98Zm-7.3-41.55c1.33.14,1.82,2.4,2.25,3.41a33.93,33.93,0,0,1,2.62,7.33c0,.27-.2.62-.39.26a44.43,44.43,0,0,1-2-5.23c-.57-1.5-1.2-4.53-2.53-5.46C118.92,56.71,118.91,56.44,119.05,56.45ZM135.24,83.7c-.36-.89-.62-1.83-.91-2.74a13.43,13.43,0,0,1-.69-2.48s0,0,0,0a12.07,12.07,0,0,1,.92,2.5c.29.87.61,1.74.83,2.63C135.44,83.7,135.3,83.86,135.24,83.7Zm-.61-24.1c1.58.37,1.91,2.54,2.33,3.86a44.41,44.41,0,0,1,1.8,7.36c.05.36-.34.66-.44.2-.39-1.77-.73-3.53-1.2-5.28s-.9-5-2.52-6C134.56,59.7,134.57,59.59,134.63,59.6ZM126.4,39.8c2,1.87,2.77,4.52,3.76,7,1.27,3.13,2.74,6.27,3.7,9.51.07.25-.2.55-.36.24-2.67-5.3-3.58-11.76-7.16-16.58C126.31,39.89,126.34,39.74,126.4,39.8Zm2.2,25.58c.19.32,0,1.15-.43.68-1.85-2.19-3.23-3.73-4.2-6.46a56.9,56.9,0,0,0-4.29-8.81c-.08-.14,0-.53.19-.31a29.74,29.74,0,0,1,4,7.12,23.51,23.51,0,0,0,2,4.58C126.76,63.34,127.86,64.15,128.6,65.38Zm-3.73-29.51c0,.35-.35.46-.44.1-1.3-5.23-4-9.51-6.66-14.1-2.61-4.42-3.86-9.51-6.6-13.82-.06-.09,0-.32.11-.19,1.84,2.11,2.71,4.66,3.77,7.21a55.59,55.59,0,0,0,4.07,7.71C121.57,26.83,124.33,31.06,124.87,35.87ZM118.26,9.33c-.05-.05-.05-.29.06-.23A10.43,10.43,0,0,1,122,13c1.17,1.88,2.37,3.72,3.58,5.57.1.15,0,.7-.23.48a17.6,17.6,0,0,1-3.13-4.56A24.77,24.77,0,0,0,118.26,9.33ZM123.08,19c-.6-.25-1-1.2-1.41-1.7-.55-.71-1.27-1.32-1.76-2.07,0-.05,0-.32.09-.25a7.88,7.88,0,0,1,1.84,1.76,5.23,5.23,0,0,1,1.4,2C123.26,18.83,123.22,19.06,123.08,19ZM136.4,48.73c-1.83-4.95-3.67-9.83-5.9-14.61s-4.85-9.45-7-14.29c0-.12.08-.43.2-.24A143.13,143.13,0,0,1,131,33.66a84.85,84.85,0,0,1,5.67,14.89C136.7,48.73,136.49,49,136.4,48.73Zm5.87,12.54a15.39,15.39,0,0,1,2.87,8.21c0,.26-.27.37-.33.08a27.19,27.19,0,0,0-2.7-8C142,61.41,142.15,61.09,142.27,61.27Zm-2-8.4c-2-5.48-4.06-10.95-6.28-16.37-1.11-2.72-2.31-5.4-3.48-8.08s-2.25-5.72-4.06-8.14c-.06-.07,0-.31.1-.21a21.33,21.33,0,0,1,3.65,6.37c1.3,2.95,2.57,5.91,3.84,8.88a139.5,139.5,0,0,1,6.5,17.37C140.55,52.87,140.33,53.12,140.23,52.87Z"/><path class="cls-1" d="M54.16,156.61a18.88,18.88,0,0,1-7.93-4.68,26.39,26.39,0,0,1-4-6.78A9.49,9.49,0,0,0,44,150.07c1.69,2.76,3.63,6.21,6.69,7.63,3.41,1.59,7.3.24,10.6-.95.44-.15.56.78.19.92-3,1.06-6.29,2.24-9.46,1.44-2.75-.7-4.61-2.83-6.2-5.05-.75-1.05-1.44-2.14-2.11-3.24a29.74,29.74,0,0,1,1.07,3.46,19.61,19.61,0,0,0,3,6.66,26.08,26.08,0,0,1,2.49,3.88.2.2,0,0,1,.16,0c3.87,2.68,8.87-1.77,12.34-3.38.17-.07.18.26.07.33-3.18,2.12-8.24,6.1-12.18,3.94.15.4.29.8.44,1.19.73,0,1.45.19,2.19.16s1.48-.28,2.24-.35c.19,0,.16.33.05.4a5,5,0,0,1-4.33.12,4.14,4.14,0,0,0,.53.87c1.16,1.43,2.76,1.34,4.21.41,1.64-1.06,2.83-2.71,4.45-3.83s3.51-2,5.27-3a19.67,19.67,0,0,0,8.48-9.9l-.49-.15c-2.13.58-4.19,1.46-6.33,2-.13,0-.14-.2,0-.25a24.78,24.78,0,0,1,5.45-2L72,151c-3.83.54-6.88,2.08-10.17,4C59.39,156.42,57,157.4,54.16,156.61ZM64.71,160a14,14,0,0,1,4.47-2.19c.25-.06.28.39.1.49-.72.4-1.52.65-2.26,1s-1.46.72-2.22,1C64.66,160.34,64.61,160,64.71,160Z"/><path class="cls-1" d="M56,144.31a23.61,23.61,0,0,1,3.74-.32c-.76-.46-1.53-.92-2.31-1.34a82.19,82.19,0,0,0-8.77-3.78c1.12,1.55,1.32,3.55,2.7,4.91S54.27,144.61,56,144.31Z"/><path class="cls-1" d="M182.7,5.9c-1.49.25-3,.66-4.53.88,3.31,1.12,5.73,3.7,7.82,6.53.12.17,0,.6-.23.36-2.47-2.94-4.75-5.38-8.28-6.8a10.82,10.82,0,0,1-2,0,39.4,39.4,0,0,1,6.76,6.91c7.48,9.54,10.78,21.57,12.59,33.37a70.15,70.15,0,0,0,7.84-4.55c-.09-.94-.32-1.86-.43-2.8,0-.09.08-.24.14-.09a12,12,0,0,1,.63,2.66c.67-.46,1.34-.93,2-1.41v-.52c0-.17.22-.39.3-.13s.07.24.1.36l1.39-1.06c-1-10.43-4.43-21.06-11.7-28.86C191.76,7.15,187.71,5,182.7,5.9Zm4.78,7.63A14.4,14.4,0,0,0,185,10a26.71,26.71,0,0,0-2.93-2.38c-.07,0-.06-.29.06-.25,2.52.92,4.61,3.52,5.67,5.9C187.9,13.48,187.65,13.87,187.48,13.53Zm2.44,1.33A27.13,27.13,0,0,0,186,8.66c-.06-.08,0-.35.12-.25a15,15,0,0,1,4.06,6.17C190.3,14.81,190.06,15.19,189.92,14.86Zm2.39-1.46c-.92-1.13-1.64-2.45-2.5-3.63-.07-.1,0-.35.14-.21a21.52,21.52,0,0,1,2.55,3.6C192.56,13.28,192.45,13.56,192.31,13.4Z"/><path class="cls-1" d="M173.67,6.48a6.6,6.6,0,0,1-1.56-.84.29.29,0,0,1-.08-.13,14.1,14.1,0,0,0-7-1.82,11,11,0,0,0-2.44.38c.91.22,2.35.39,2.72.49a15.22,15.22,0,0,1,3.18,1.38,12.9,12.9,0,0,1,4.71,4.33c.09.16,0,.77-.25.52a21.75,21.75,0,0,0-4.62-4,18.34,18.34,0,0,0-6.49-2.07.29.29,0,0,1-.22-.31h0c-2,.63-4,1.56-6,2.06a13.31,13.31,0,0,1,7.58,4c.2.22.09,1-.25.7-1.46-1.3-2.71-2.6-4.63-3.22-1.56-.51-3.22-.7-4.79-1.18a6.57,6.57,0,0,1-3.29-.63,31,31,0,0,1,4.71,6.73c1.71,3.11,3.08,6.39,4.62,9.59,1.88,3.92,4.16,7.61,6.27,11.41,4,7.19,5.91,14.6,7.34,22.61.51-.27,1-.54,1.53-.8l.25-.11c-.61-2.25-1.55-4.39-2.12-6.64,0-.08.07-.26.15-.14a26.18,26.18,0,0,1,2.53,6.52c2.95-1.39,6-2.58,9-3.75-.79-4.24-2.79-8.23-4.26-12.26a36.58,36.58,0,0,1-2.28-11c0-.16.15-.21.19-.05,1,4,1.72,8,2.92,12,1.16,3.8,3.19,7.22,4,11.14,2.85-1.1,5.7-2.21,8.46-3.51l.64-.31c-1.69-11.92-5.06-24.14-12.74-33.65A35.78,35.78,0,0,0,173.67,6.48Zm-10.56,7.74a23.22,23.22,0,0,0-2-2.25c-.71-.63-1.5-1.16-2.26-1.73-.07-.06-.06-.28.07-.25a7.79,7.79,0,0,1,4.49,3.81C163.56,14,163.36,14.51,163.11,14.22ZM164,12c1.73.71,2.44,2.44,3.15,4.05a60.07,60.07,0,0,1,3,7.49c.07.25-.2.55-.35.24-1.73-3.72-2.48-8.9-5.81-11.58C163.86,12.18,163.86,12,164,12Zm2,11.34a32.39,32.39,0,0,1-1.85-7.88c0-.11.1-.21.13-.06.66,2.57,1.45,5.1,2.13,7.66C166.5,23.37,166.16,23.75,166,23.36Zm6,20.84a46.74,46.74,0,0,1-2.14-8.65c-.29-1.61-1-3.64,0-5.1.12-.18.22.12.16.23-1,1.8.4,5.33.84,7.24s1.06,4,1.48,6C172.42,44.19,172.13,44.56,172,44.2Zm.32-30.44c-.52-.6-1-1.23-1.57-1.79s-1.17-1-1.77-1.5c0,0,0-.09,0-.08a5.84,5.84,0,0,1,3.6,3C172.68,13.6,172.52,14,172.31,13.76Zm4.17,8.75a27.69,27.69,0,0,1-1.33-3.81c-.38-1.14-.82-2.27-1.09-3.45,0-.08.07-.27.14-.14a21.55,21.55,0,0,1,1.45,3.47,19.68,19.68,0,0,1,1.13,3.72C176.81,22.51,176.62,22.78,176.48,22.51Zm6.09,4.82a22.94,22.94,0,0,1-3.08-6.68A24,24,0,0,0,175,12.79c-.15-.18,0-.78.25-.54,4,4.21,4.93,9.61,7.65,14.53C183.05,27,182.87,27.72,182.57,27.33Z"/><path class="cls-1" d="M213.37,30.2l.94-2.31c.72-1.78.93-3.58-.86-4.81-1.08-.74-2.18-1.46-3.27-2.2A12.23,12.23,0,0,1,213.37,30.2Z"/><path class="cls-1" d="M47.63,140.41c1,2.15,1.12,5.16,3.56,6.29,2.26,1,4.75.21,7-.27a16.22,16.22,0,0,1,4.9-.31l-2.4-1.51a27.39,27.39,0,0,0-5.41.45,5.72,5.72,0,0,1-3.45-.05,3,3,0,0,1-1.6-1.87,13.91,13.91,0,0,0-2.39-4.58c-.76-.31-1.51-.64-2.24-1A9.77,9.77,0,0,1,47.63,140.41Z"/><path class="cls-1" d="M96.54,122.19c-6.62-2.27-10.09-7.85-14.07-13.21C72.66,95.74,61,84.06,49.72,72.08c-4.84-2.53-8,3.61-8.86,7.55-.21,1-.38,2-.57,3.05A15.54,15.54,0,0,0,40.8,88a36,36,0,0,0,2.39,4.13c.09.17,0,.62-.28.44-2.34-1.7-3.13-4.67-3.2-7.54-.56,1.78-1.49,3.39-2.2,5.11-1.91,4.65.25,8.54,2.82,12.36,2,2.92,4,5.84,6.15,8.58,4.69,5.83,10.47,10.56,17.93,12.14a27.45,27.45,0,0,1,9.16,3.31,67.68,67.68,0,0,1,7.66,6c5.42,4.56,11.28,8.77,18.2,10.64a.29.29,0,0,1,.16,0l2.08-1.15c-2.73.16-5.47-1.19-7.7-2.67-3.12-2.08-5.91-4.6-9-6.66-.09-.06-.07-.32.06-.28,2.87.89,5.09,3,7.44,4.75,3.33,2.54,6.44,4,10.67,3.86a.18.18,0,0,1,.16.09c.55-.32,1.09-.65,1.62-1-4.39-.53-9-2-11.88-5.29-.09-.1,0-.44.15-.31,3.89,3.24,8.35,3.82,13,4.78l1.48-1a11.25,11.25,0,0,1-4.77-1.62c-.12-.07-.08-.42.09-.37a22.89,22.89,0,0,0,6,1.11l1.69-1.21a19.84,19.84,0,0,1-4-1.28c-.14-.08-.13-.49.07-.42,1.5.57,3.13.67,4.65,1.16.55-.42,1.1-.84,1.64-1.28a11,11,0,0,1-2.92-1.78s0-.17,0-.15c.79.26,1.54.7,2.31,1l1.13.47q.81-.66,1.59-1.35a.26.26,0,0,1-.09,0c-4.31-.9-6.93-5.25-11.7-4.71-.18,0-.2-.39,0-.43,4.34-1.33,8.08,3.07,11.87,4.4.19.07.24.38.15.58.62-.54,1.22-1.09,1.82-1.66-3.42-1.39-6.59-3.54-10-5S100.08,123.4,96.54,122.19ZM41.7,100.63c-2.22-1.34-3.49-5.79-3.07-8.23,0-.22.26-.23.31,0a24.82,24.82,0,0,0,1,4.24c.52,1.28,1.44,2.28,2,3.5C42,100.26,41.94,100.77,41.7,100.63Zm20.78,11.69c-3.19-.38-6.82-3.19-8.69-5.69,0-.07,0-.3.11-.22,1.39.94,2.7,2,4.12,2.9s3.12,1.47,4.56,2.4C62.73,111.81,62.74,112.35,62.48,112.32ZM53.31,99.21c-.06-.07,0-.34.12-.24,1.23,1.1,2.36,2.29,3.55,3.43A15.9,15.9,0,0,0,60.92,105c.18.1.25.66,0,.63C57.77,105.35,55.11,101.43,53.31,99.21ZM59,100.43c.87.78,1.8,1.47,2.73,2.18.18.14.09.66-.18.49a15.36,15.36,0,0,1-5-4.9c0-.06,0-.32.11-.22C57.48,98.75,58.18,99.67,59,100.43ZM54.37,84.37a9.89,9.89,0,0,1,1.69,1.73,16.38,16.38,0,0,1,1.64,2.14c.09.16,0,.58-.22.34-.52-.68-1-1.39-1.52-2.06s-1.18-1.28-1.68-2C54.24,84.49,54.27,84.29,54.37,84.37ZM47.46,74.15c2.51,1.74,3,5.16,4.68,7.53.12.18,0,.62-.23.37C50,79.69,49.74,76.4,47.4,74.33,47.34,74.27,47.37,74.09,47.46,74.15Zm-2.67,2.2c.1-.1.16.13.11.2-1.31,1.81-.24,5.58.45,7.46a21.24,21.24,0,0,0,2.41,4.6,79.11,79.11,0,0,0,6.05,7.15c.15.17,0,.78-.26.54-3.25-3-6.42-6.61-8.2-10.72C44.39,83.36,42.67,78.35,44.79,76.35Zm-1.9,0c.08-.17.21.06.19.16-.12.55-.29,1.08-.41,1.63a11.57,11.57,0,0,1-.33,1.44c-.06.16-.19,0-.19-.07A6.83,6.83,0,0,1,42.89,76.32Zm-1,4.26c0-.19.24-.15.23,0-.23,5.17,3.83,9.95,6.76,13.84.1.13,0,.52-.18.38-2.3-1.46-3.64-4.3-4.85-6.66S41.25,83.28,41.93,80.58ZM58.5,116.89c-3.14.3-5.24-3-7.09-5.06-2.66-3-5.64-5.84-7.87-9.16,0-.07,0-.32.1-.22,2.69,2.16,4.88,5,7.18,7.57,2.1,2.32,4.35,5.84,7.67,6.37C58.7,116.42,58.73,116.86,58.5,116.89ZM59.58,114c-6-1.28-9.09-6.79-12.26-11.53-.1-.15,0-.53.19-.32,1.79,2.1,3.43,4.32,5.14,6.49,2,2.52,4.29,3.33,7,4.67C59.94,113.48,59.92,114.11,59.58,114Zm1.7.6a53.51,53.51,0,0,1,6.87,4.14c.17.14.14.76-.15.62a50.61,50.61,0,0,1-6.83-4.31C61,115,61.09,114.54,61.28,114.64Zm8.28,7.46a12.35,12.35,0,0,1-7.67-3.77s0-.22.07-.18c1.28.45,2.44,1.26,3.68,1.83s2.67.91,4,1.49C69.8,121.56,69.84,122.11,69.56,122.1Zm35.64,8.53a3.58,3.58,0,0,1,1.58.26,3,3,0,0,1,1.4.75c.07.09.07.4-.09.39a5.61,5.61,0,0,1-1.48-.62,11.43,11.43,0,0,1-1.44-.59C105.11,130.78,105.13,130.64,105.2,130.63Zm-.3,3.38c.2,0,.16.52-.07.47a10.48,10.48,0,0,1-2.56-.82c-.08,0-.07-.25,0-.22C103.17,133.64,104,133.85,104.9,134Z"/><path class="cls-1" d="M95.61,118.26c-6.9-4.5-11.07-12-16.14-18.27A203.32,203.32,0,0,0,61.7,80.64c-3.09-3-6.31-5.73-9.52-8.55l-.11-.1a12.93,12.93,0,0,0-1.58-.25.23.23,0,0,1,.07.11c10.66,11,21.49,22.06,30.87,34.23C86,112,89.6,118.69,97.08,121.18c3.56,1.19,7.14,2.16,10.6,3.64s6.8,3.48,10.21,5.23l1.26-1.26c-4.28-1.2-8.2-3.24-12.28-5A73.1,73.1,0,0,1,95.61,118.26Z"/><path class="cls-1" d="M88.55,96.21C78.37,87.12,68.28,77.83,59.36,67.48a37.86,37.86,0,0,1-6.07-9c-.43,1.25-.85,2.51-1.29,3.76-.72,2.09-2.06,4.68-1.19,6.89a6.12,6.12,0,0,0,1.54,2.08l.2.06c.12,0,.18.16.2.31,1,.84,2,1.6,2.87,2.31,1.35,1.17,2.68,2.35,4,3.56,2.93,2.69,5.79,5.47,8.55,8.34a199.79,199.79,0,0,1,14.59,17c2.41,3.13,4.61,6.46,7.24,9.42a33,33,0,0,0,9.9,7.39c3.19,1.62,6.54,2.9,9.79,4.4a59.17,59.17,0,0,0,10.23,4c.26-.28.52-.55.77-.83s.47-.55.71-.83c-3.06-.94-6.33-1.45-9.25-2.73-.22-.09-.19-.63.08-.55,3.2,1,6.57,1.51,9.73,2.63l.63-.77c-5.84-3.5-10.81-8.15-15.9-12.64C100.64,106.9,94.57,101.58,88.55,96.21ZM63.61,79c-1.6-1.85-3-3.87-4.54-5.75s-3.46-2.49-5.28-3.91c-1.45-1.12-2.26-3.11-1-4.63.14-.18.27.22.18.34-2.16,3.09,4.18,5.06,5.72,6.72a64,64,0,0,1,5.23,6.72C64.09,78.69,63.9,79.29,63.61,79ZM104.83,119c-7.83-.49-13-8.07-17.29-13.71-5.76-7.54-12-14.71-18.28-21.78-.08-.1,0-.42.14-.29a226.4,226.4,0,0,1,16.87,19.46c5.26,6.73,9.85,13.56,18.6,15.72C105.09,118.48,105.08,119,104.83,119Z"/><path class="cls-1" d="M159.54,24.41c-1.55-3.16-2.88-6.42-4.47-9.56-1.73-3.43-3.82-7-6.84-9.48a8.59,8.59,0,0,0-6-2.26c-1.21.1-2.23.61-3.32.45a46.93,46.93,0,0,1,7,10.44c.16.33-.22,1.11-.5.62-2.27-3.88-4.75-7.54-7.22-11.28l-.32-.17c-1.49-.89-2.2-2.49-4.23-2.34s-4,1.5-5.78,2.13a41.93,41.93,0,0,1-9.57,2.45A39.31,39.31,0,0,1,124.85,12c4.3,5.42,7.39,11.87,10.25,18.13,6.37,13.94,11,28.63,14.74,43.46q2.11-1.89,4.34-3.69c-2.15-6.77-4.83-13.34-7.16-20-.06-.17.11-.47.23-.21a183.49,183.49,0,0,1,7.52,19.77l3.31-2.66a103.38,103.38,0,0,1,14.3-9.93c-1.44-8.11-3.45-15.58-7.53-22.84C163.05,30.83,161.16,27.7,159.54,24.41ZM145.29,9c-.64-.71-1.22-1.47-1.84-2.2S142,5.27,141.37,4.42c0-.06,0-.24.08-.17a20.61,20.61,0,0,1,4,4.42C145.55,8.79,145.46,9.22,145.29,9Zm-19.66,2.08a34,34,0,0,1-2.47-2.62A19.17,19.17,0,0,1,121,6s0-.11,0-.08a18,18,0,0,1,2.5,2.51c.75.8,1.54,1.58,2.21,2.44C125.82,10.93,125.76,11.24,125.63,11.12Zm2.45,0a25.75,25.75,0,0,1-2.58-2.43,29.47,29.47,0,0,1-2.27-2.34c0-.05,0-.23.08-.17a34.17,34.17,0,0,1,2.61,2.35,27.61,27.61,0,0,1,2.31,2.28C128.31,10.88,128.24,11.22,128.08,11.09ZM129,9.22a21.72,21.72,0,0,1-1.78-1.81c-.61-.62-1.24-1.21-1.86-1.82-.06,0,0-.25.06-.18a17.51,17.51,0,0,1,2,1.7A10.07,10.07,0,0,1,129.13,9C129.18,9,129.15,9.33,129,9.22Zm3.05-.06c-1.32-1.46-2.56-3-3.92-4.41-.06-.06,0-.3.08-.21a17.46,17.46,0,0,1,4,4.26C132.29,8.91,132.21,9.33,132.05,9.16Zm1.06-2.24c-.35-.51-.68-1-1.07-1.53s-.88-.92-1.22-1.45c0,0,0-.23.06-.18A5.47,5.47,0,0,1,132.14,5a10.54,10.54,0,0,1,1.15,1.67C133.35,6.82,133.23,7.08,133.11,6.92Zm10.36,36.93c-.8-2.25-1.31-4.6-2.13-6.85s-1.83-4.51-2.72-6.77c0-.08,0-.28.12-.15a34.72,34.72,0,0,1,5.16,13.48C143.93,43.83,143.62,44.27,143.47,43.85Zm3-13.79c-1.67-4.18-3.33-8.47-4.74-12.75,0-.08,0-.21.1-.1a71.78,71.78,0,0,1,5,12.48C147,30,146.64,30.52,146.46,30.06ZM139.71,9.91c-.06-.08,0-.35.11-.24a23.28,23.28,0,0,1,4.35,6.5c1.57,3,3.17,6.12,4.55,9.27.11.26-.19.93-.42.51C145.36,20.64,143.33,14.81,139.71,9.91Zm10.64,27.76a15.46,15.46,0,0,1-.9-2.13c-.34-.79-.83-1.52-1.15-2.32,0-.08,0-.39.16-.25a7.3,7.3,0,0,1,1.26,1.93,7.61,7.61,0,0,1,1,2.45C150.71,37.52,150.54,38,150.35,37.67ZM150.7,32c-.59-1.1-1.09-2.24-1.62-3.37-.08-.17.12-.58.26-.32.59,1.06,1.22,2.11,1.75,3.2C151.22,31.79,150.91,32.4,150.7,32Zm12.1,21c-2.8-5.46-4.73-11.52-7-17.22-2.21-5.51-4.26-11-7.27-16.11,0-.05,0-.27.09-.18,3.76,3.66,5.27,9.83,7.17,14.56,2.47,6.14,5.45,12.29,7.39,18.62C163.24,52.94,163,53.41,162.8,53Z"/><path class="cls-1" d="M96.52,143.58a36.44,36.44,0,0,0-10.15,4.11c-3.1,1.66-6,1.67-9.41,1.16-.15,0-.16-.35,0-.34a22.25,22.25,0,0,0,5.65-.08,16.84,16.84,0,0,0,5-2.17A30.15,30.15,0,0,1,96,142.9c-7.28-2.93-13-8.27-19.22-13.14a27.14,27.14,0,0,0-11.32-5.5,29.84,29.84,0,0,1-10.77-4.42c-6.46-4.43-11.18-11.17-15.39-17.67a.25.25,0,0,1-.16.17c-2.57.94-1.48,4.45-2.06,6.55.6,3.53,3.94,6,6,8.77.13.17.05.68-.24.5-2.14-1.33-4-4-5.15-6.2a9.52,9.52,0,0,1-.91-2.17c-.51,1.27-1.25,2.45-1.72,3.72a17.75,17.75,0,0,0,.84,13.62,20.07,20.07,0,0,0,4.32,5.79q1.28.72,2.61,1.35a1,1,0,0,1,.38,1c.33.22.65.42,1,.62,3.34,2,7.17,2.78,10.68,4.37,6.65,3,12.24,8.18,19.28,10.4a9.83,9.83,0,0,0,6.51.24c2.19-.74,4.32-1.79,6.46-2.68l11-4.56c-.46-.15-.91-.31-1.36-.48A.4.4,0,0,1,96.52,143.58ZM39.14,109.1c-1.49-.6-.64-3.11-.57-4.19,0-.15.16-.08.17,0,.12,1.46-.59,2.69.47,4C39.26,108.94,39.24,109.15,39.14,109.1ZM37.2,125.29a11.65,11.65,0,0,1-1-2.35,14,14,0,0,0-.8-2.75s0-.17,0-.11a4.73,4.73,0,0,1,.78,1.94c.33,1,.79,2,1.17,3C37.44,125.17,37.32,125.49,37.2,125.29ZM81.57,136a14.64,14.64,0,0,0,2.09,2,12.35,12.35,0,0,0,2.88,1.45c.17.07.15.47-.06.43a7.81,7.81,0,0,1-5-3.75S81.51,135.91,81.57,136Zm-1.18,1.24c.78.7,1.55,1.41,2.29,2.15s1.52,1.81,2.68,1.69c.18,0,.19.37,0,.43-1,.4-1.74-.54-2.35-1.16-.94-1-1.85-1.94-2.75-2.94C80.27,137.32,80.31,137.14,80.39,137.21Zm-1.32,1.31a13.26,13.26,0,0,1,2,2.07,23,23,0,0,0,2,1.81c.11.09.11.49-.1.41a5.61,5.61,0,0,1-2-1.69,15.67,15.67,0,0,1-2-2.47S79,138.47,79.07,138.52Zm-1.89,1.26c.63.66,1.19,1.39,1.77,2.11s1.35,2.08,2.2,2.26c.19,0,.17.52,0,.52-.78,0-1.31-1.08-1.74-1.62-.78-1-1.6-2-2.29-3.07C77,139.92,77.08,139.67,77.18,139.78ZM50.34,121.05A9.93,9.93,0,0,1,52,122.12a13.61,13.61,0,0,1,1.82,1.38c.06.07.08.4-.08.32a10.54,10.54,0,0,1-1.67-1.15,13.26,13.26,0,0,1-1.79-1.46S50.25,121,50.34,121.05Zm4.88,5.06c.16.09.17.54-.07.47-4.13-1.21-7.71-4.36-10.76-7.25-.08-.07-.07-.4.08-.32a40.81,40.81,0,0,1,4.47,3.4A59.06,59.06,0,0,0,55.22,126.11ZM39.9,110.27c0-.06,0-.2.07-.12,1.34,1.75,2.7,3.47,4.19,5.11,1.23,1.36,2.55,3.25,4.24,4,.16.07.15.44-.06.41-1.74-.32-3.24-2.75-4.34-4A33.86,33.86,0,0,1,39.9,110.27Zm11.55,26c-2.21-.16-4.36-2.4-6.09-3.62A30.1,30.1,0,0,1,39,127.24c-.08-.1,0-.42.13-.29a33.4,33.4,0,0,0,5.75,4.71c2.06,1.44,4.21,3.4,6.62,4.19C51.62,135.9,51.63,136.29,51.45,136.27Zm-2.54-6.91c.53.4,1,.88,1.54,1.27a16.93,16.93,0,0,1,1.73,1.1c.07.06.1.34,0,.33a4.1,4.1,0,0,1-1.75-.94,6.69,6.69,0,0,1-1.56-1.58C48.79,129.48,48.81,129.28,48.91,129.36Zm3.7,5.11a16.72,16.72,0,0,1-3.7-2.77c-.07-.06,0-.29.07-.21,1.23.88,2.55,1.68,3.71,2.64C52.78,134.2,52.77,134.55,52.61,134.47Zm.39-4a13.58,13.58,0,0,1-4-2.75c-.07-.06,0-.29.08-.21.65.44,1.32.86,2,1.28a22.25,22.25,0,0,1,2,1.25C53.23,130.15,53.21,130.56,53,130.49Zm.21-2.25a23.28,23.28,0,0,1-2.67-1.49,13.79,13.79,0,0,1-2.32-1.51s0-.16,0-.14A13.24,13.24,0,0,1,51,126.44a23.09,23.09,0,0,1,2.36,1.38C53.43,127.91,53.4,128.32,53.21,128.24Zm4.68,12.23c-.68-.43-1.3-1-1.94-1.46s-1.42-.88-2-1.42c0-.05,0-.21,0-.19a8.68,8.68,0,0,1,2,1.12A11.11,11.11,0,0,1,58,140.07C58.15,140.19,58.11,140.61,57.89,140.47Zm1.61-16.63c3.19,1,7.1,1.94,9.67,4.21.12.1.07.48-.13.35-3.05-1.9-6.45-2.59-9.59-4.24C59.34,124.1,59.34,123.79,59.5,123.84Zm6.69,7.63a13.65,13.65,0,0,0-3-2.44c-.14-.07-.1-.43,0-.35a8.37,8.37,0,0,1,3.13,2.46C66.43,131.24,66.35,131.63,66.19,131.47Zm1-1.81c-.71-.43-1.33-1-2-1.47a15.65,15.65,0,0,0-2.51-1.29c-.1,0-.08-.28,0-.24a10.12,10.12,0,0,1,4.65,2.72C67.42,129.48,67.37,129.76,67.21,129.66Zm7,18.92a5.84,5.84,0,0,1-3.54-1.11c-.65-.42-1.79-1.11-1.63-2,0-.07.07-.22.17-.21h.11c.06,0,.09.08.09.14,0,.65,1.84,1.49,2.3,1.7.83.38,1.7.51,2.55.82C74.52,148,74.51,148.55,74.22,148.58Zm1.34-6.72s0-.09,0-.07A8.29,8.29,0,0,1,76.9,143c.51.45,1.09.82,1.63,1.24.11.08.08.47-.1.39a6.29,6.29,0,0,1-1.68-1.22A4.27,4.27,0,0,1,75.56,141.86Z"/><path class="cls-1" d="M43.55,139.58c-.29,1.29-.72,2.55-1.08,3.81a6.61,6.61,0,0,0-.21,1c1.47,2.66,2.68,5.76,5,7.72s5.79,4,8.78,4.15,5.57-2,8.15-3.33a22.64,22.64,0,0,1,6.91-2.32,55.07,55.07,0,0,1-6.84-3.78c-3-.47-5.51.16-8.45.71A7.17,7.17,0,0,1,50.5,147a6.42,6.42,0,0,1-2.27-3.57A14.34,14.34,0,0,0,44.49,137c-.33-.18-.66-.36-1-.55A5.21,5.21,0,0,1,43.55,139.58Zm11,10.78c-.09,0-.09-.19,0-.22a18.25,18.25,0,0,1,5.13-1c.22,0,.24.49,0,.51C57.91,149.85,56.22,150.18,54.5,150.36Zm1.86.78a13.56,13.56,0,0,1,3.81-.32c.18,0,.2.41,0,.42-1.27.1-2.54,0-3.81.21C56.24,151.47,56.23,151.17,56.36,151.14Zm4.08,2c-1,.11-1.95.18-2.92.3-.14,0-.16-.29,0-.33a13.3,13.3,0,0,1,2.94-.5C60.66,152.62,60.67,153.13,60.44,153.16ZM52.32,149c2.73-.06,5.43-1.21,8.16-1,.22,0,.24.5,0,.5-2.72,0-5.49,1.23-8.19.65C52.23,149.12,52.24,149,52.32,149Zm-5-4.22a3,3,0,0,1,1,1.74,2.05,2.05,0,0,0,1,1.45c.36.2.76.21,1.13.38.12.06.14.31,0,.37-.7.31-1.57-.3-2-.84-.7-.91-.38-2.14-1.25-3C47.17,144.83,47.2,144.67,47.27,144.73Z"/><path class="cls-2" d="M33.5,117.63a17.56,17.56,0,0,1,1.14-4.95c.61-1.56,1.66-3,2-4.65,0-.15,0-.31.08-.47.26-2.16-.44-5.17,2.21-6C37.26,99,35.76,96,36.13,92.83A17.88,17.88,0,0,1,38,87.58a26.27,26.27,0,0,0,1.91-6.25c.55-3,1.08-6.38,3.3-8.68A5.71,5.71,0,0,1,49.12,71c0-.14.11-.26.27-.25a15.15,15.15,0,0,1,1.71.19A5.6,5.6,0,0,1,50,66.13a60.47,60.47,0,0,1,3-8.26A19.76,19.76,0,0,1,51.69,53,237.16,237.16,0,0,1,24.28,67.13c-4.26,1.77-8.63,3.27-13,4.63-2.35.72-4.73,1.36-7.07,2.1-1.69.53-3,1.43-3,3.39a15.26,15.26,0,0,0,.38,2.84,41.61,41.61,0,0,0,11,21.28c2.79,2.87,6,4.93,9.22,7.24,3,2.11,4.16,4.83,5.05,8.25,1.62,6.2,5.67,11,10.8,14.48A19.71,19.71,0,0,1,33.5,117.63Zm2.11-50.2a37.07,37.07,0,0,1,4.76-3.26c1.47-1,3.05-2.45,4.78-2.83.3-.06.33.56.21.71a15,15,0,0,1-4.14,3A24.07,24.07,0,0,1,35.79,68C35.5,68.08,35.45,67.57,35.61,67.43ZM24.79,71.67a15.67,15.67,0,0,1,3.41-1.26,9.71,9.71,0,0,1,3.08-.82c.36,0,.32.62.09.76a11.91,11.91,0,0,1-3.45,1.05,12.7,12.7,0,0,1-3.08.64C24.66,72,24.68,71.73,24.79,71.67ZM10.58,85.39c1.65,1.58,3.74,3.07,5,5,.11.16.11.89-.25.71C13.28,90,11.55,87.68,10,86l-.63-.68a2.38,2.38,0,0,1-.48-.24.36.36,0,0,1-.1-.39,42.35,42.35,0,0,1-3.7-4.37c0-.08,0-.36.12-.25C6.73,81.4,8.1,82.9,9.53,84.34c1.8-.45,3.49-1.41,5.34-1.81,2.11-.45,4.45-.12,6.25-1.43.52-.37.7.59.49.91-1.15,1.85-3.64,1.47-5.53,1.74a30.62,30.62,0,0,0-5.19,1.42l-.41.12A.94.94,0,0,1,10.58,85.39ZM33,113.14c-1.29-.51-2-2.5-2.35-3.73a9.77,9.77,0,0,1-.44-3.56c-.72,1.33-1.24,2.81-2.05,4.07.07.56-.31,1.31-.74.73A79.52,79.52,0,0,0,20.08,102c-.2-.2-.1-.91.23-.65a37.17,37.17,0,0,1,7.4,7.83c.77-3.27,3.12-6.66,5.14-9.13.29-.34.56.16.58.58a14.7,14.7,0,0,1,.46,3.52,27.66,27.66,0,0,0,1.69,5.7c.13.38-.24,1.45-.64.79a15,15,0,0,1-1.8-5.16,34.7,34.7,0,0,1-.49-3.48c-.69,1-1.35,2-2,3a13.47,13.47,0,0,0,.7,4.21c.47,1.24,1.38,2.24,1.82,3.47C33.25,112.81,33.23,113.24,33,113.14Z"/><path class="cls-1" d="M212.62,32V32c1.09-4.79-.79-8.92-4.25-12.18a.2.2,0,0,1-.05-.14l-3-1.95a20.44,20.44,0,0,1,1.95,3.08c.05.12-.05.39-.19.23a23.27,23.27,0,0,1-2.45-3.75c-1.1-.72-2.21-1.45-3.29-2.2a11.21,11.21,0,0,1,4.37,6.72c0,.17-.16.42-.25.17a15.39,15.39,0,0,0-4.84-7.15c-.07-.06,0-.25.06-.2-1.23-.86-2.41-1.75-3.56-2.69,6.22,7.83,9.3,17.37,10.4,27.2.62-.5,1.23-1,1.84-1.53a58.66,58.66,0,0,0-1.1-6.69c0-.15.14-.26.19-.08a46.85,46.85,0,0,1,1.35,6.39l.57-.51a73,73,0,0,0-1-9c-.05-.21.17-.48.3-.21a11.84,11.84,0,0,1,.84,3.9c.16,1.58.34,3.16.45,4.75l0,0a.45.45,0,0,1,0-.2Z"/><path class="cls-2" d="M137.25,138.05c3.91-2.29,6.67-5.81,9.13-9.53,4.76-7.19,9.6-13.94,16.1-19.68S176.66,99,180.9,91.32c4-7.29,5-15.8,8.58-23.27.39-.8,1.08.41.84,1-3.78,8.7-4.88,18.85-10.63,26.61a36.9,36.9,0,0,1-5.46,5.78c4.22-1.8,8.37-3.68,12.51-5.71l8.7-4.24a78.69,78.69,0,0,1,8.35-4,.79.79,0,0,1,.23-.54l.13-.12c.91-4.43,2.37-8.79,3.6-13.14.77-2.7,1.45-5.49,2.22-8.23a.85.85,0,0,1-.18-.37c-1.19-4.61-2.54-9.27-3.52-13.92-.08-.37.3-.86.53-.36a53.39,53.39,0,0,1,3.74,12.68c.43-1.42.89-2.83,1.42-4.21.26-.67.81,0,.72.43-.91,4.67-2.52,9.26-3.82,13.83-1.15,4-2.13,8.22-3.49,12.22a311.39,311.39,0,0,0,23.75-23.06q1.65-1.82,3.29-3.64c.47-.52,1-1,1.41-1.58s.74-.86,1.08-1.31c0-1.17,0-2.34.07-3.51-.34-1.62-1.57-3.42-2.26-4.93s-1.41-3.06-2.11-4.59l-8.28-18a73.44,73.44,0,0,1-11.26,12.73h0c0,.32-.27.51-.44.37A71.87,71.87,0,0,1,192,50.13c-6.37,2.79-13.08,4.8-19.21,8.13S161,66.15,155.49,70.56c-5.05,4-10.14,8.23-14,13.49a28.69,28.69,0,0,0-2,3.24v0c-2.75,5.06-3.95,10.63-5.35,16.31A55.66,55.66,0,0,1,129.41,116c0,.37-.13.77-.4.77a61.71,61.71,0,0,1-5,7.89c0,.42-.2.81-.52.68a66.17,66.17,0,0,1-9.11,9.6h0a66.93,66.93,0,0,1-18.38,11.27c9.66-1.62,19.55-1.55,29.11-3.84C129.25,141.41,133.51,140.26,137.25,138.05ZM220.31,32.54c0-.47.51-.3.51.09,0,1.44.05,2.87.11,4.31a17.44,17.44,0,0,1,.07,3.82c-.06.33-.46.57-.6.14C219.57,38.39,220.12,35.14,220.31,32.54Zm-2.26,3.36a44.43,44.43,0,0,1,.76-4.57c.08-.27.31,0,.33.13a28,28,0,0,1-.34,4.74,15.82,15.82,0,0,1-.8,4.66c-.21.47-.59.16-.61-.24A23.13,23.13,0,0,1,218.05,35.9ZM169.11,72.25c0-.6.61-.61.64,0,.15,3.37.89,7.34.27,10.67-.08.48-.55.49-.66,0C168.58,79.64,169.13,75.63,169.11,72.25Zm-1.82-1.46c.05-.3.4-.34.44,0A84.61,84.61,0,0,1,168,81.93c0,1.07-.95.8-1,0h0A65.07,65.07,0,0,1,167.29,70.79Z"/><path class="cls-3" d="M124,124.7c-.17.23-.34.46-.52.68C123.76,125.51,124,125.12,124,124.7Z"/><path class="cls-3" d="M52.45,51.66a12.17,12.17,0,0,1,.66-4.74c.89-2.51,2.66-4.58,3.83-7a12.62,12.62,0,0,1,.37-2.71c0-.15.17-.06.15.06a13.72,13.72,0,0,0-.13,1.79C58.37,36.61,59,34,60,31.48a39.66,39.66,0,0,1,4.66-8.28A36.56,36.56,0,0,1,78.19,11.63c6.23-3,14.17-2.46,21.09-4.06a16.24,16.24,0,0,0-3-.25c-.07,0-.09-.15,0-.17a6.38,6.38,0,0,1,4.46.06,17.76,17.76,0,0,0,8-4.43.6.6,0,0,0,.12-.47h0c-.14,0-.16-.22-.06-.27h0a.22.22,0,0,0-.37-.07C100,9.05,87.41,5.8,77.9,10.25A36.82,36.82,0,0,0,64.83,20.94C61,25.77,59.08,31,57.09,36.75c-1,3-2.9,5.28-4.23,8.07a14,14,0,0,0-1.29,6.92l.46-.25C52.22,51.38,52.37,51.48,52.45,51.66Z"/><path class="cls-3" d="M93.61,98.87C84,90.39,74.55,81.8,65.7,72.56c-4.32-4.5-9.18-9.17-11.77-15l-.21-.5a.61.61,0,0,1,0,.14l-.42,1.25a37.86,37.86,0,0,0,6.07,9c8.92,10.35,19,19.64,29.19,28.73,6,5.37,12.09,10.69,18.14,16,5.09,4.49,10.06,9.14,15.9,12.64.3-.37.6-.74.89-1.12-5.51-3.2-10.17-7.48-14.92-11.68Z"/><path class="cls-3" d="M53.37,57c.07-.18.17-.17.25-.08a16.82,16.82,0,0,1-1.12-4.52.51.51,0,0,1-.22.32c-.19.12-.39.23-.59.34A19.76,19.76,0,0,0,53,57.87Z"/><path class="cls-3" d="M135.82,80.65A41.08,41.08,0,0,0,138.54,87c.22-.41.46-.8.7-1.2a44.3,44.3,0,0,1-2.58-6C136.34,78.91,135.6,80,135.82,80.65Z"/><path class="cls-3" d="M139.47,87.31v0Z"/><path class="cls-3" d="M129.41,116c-.13.26-.26.52-.4.77C129.28,116.81,129.44,116.41,129.41,116Z"/><path class="cls-3" d="M84.82,70c-.18-.21-.31.17-.2.32,13.08,16.6,27.05,32.83,43.7,46,.19-.35.36-.71.54-1.06C112.23,102.18,98.75,85.86,84.82,70Z"/><path class="cls-3" d="M108.75,2.32h0c2.07-.59,2.14,1.15,2.8,2.55A45.07,45.07,0,0,0,115.2,11c.38.56.79-.36.6-.74-1-1.84-2.16-3.54-3.19-5.34a4.12,4.12,0,0,1-.69-.49c-.06,0-.07-.22,0-.24a2.25,2.25,0,0,1,.26,0l-.2-.41a.19.19,0,0,1-.07-.14l-.27-.55c-.64-1.41-1.58-1.76-3-1h0C108.59,2.1,108.61,2.36,108.75,2.32Z"/><path class="cls-3" d="M124.85,12a39.31,39.31,0,0,0-6.58-6.63c-.3,0-.59.07-.89.09a39.39,39.39,0,0,1,3.37,3.22,47.92,47.92,0,0,1,5.88,7.64,123.23,123.23,0,0,1,9.21,18.06,252.88,252.88,0,0,1,13,40.09l1-.88c-3.79-14.83-8.37-29.52-14.74-43.46C132.24,23.91,129.15,17.46,124.85,12Z"/><path class="cls-3" d="M112,3.74a.07.07,0,0,0,.09,0c1.41-.78,3.27.18,5,1.5,0-.15.05-.32.19-.34l.27-.06C116,3.63,113.78,2,112,3.38a.26.26,0,0,0,0,.22A.19.19,0,0,0,112,3.74Z"/><path class="cls-3" d="M108.87,29.71a46.91,46.91,0,0,0,5.1,11.6c.35.56.63-.36.54-.67a44.83,44.83,0,0,0-5.42-11.13C109,29.33,108.84,29.58,108.87,29.71Z"/><path class="cls-3" d="M119.87,50.48c-.17-.22-.27.17-.19.31A56.9,56.9,0,0,1,124,59.6c1,2.73,2.35,4.27,4.2,6.46.4.47.62-.36.43-.68-.74-1.23-1.84-2-2.67-3.2a23.51,23.51,0,0,1-2-4.58A29.74,29.74,0,0,0,119.87,50.48Z"/><path class="cls-3" d="M77.29,60.77c.56.47.68-.71.49-1-2.13-3.46-5.11-6.37-7.31-9.81a36.7,36.7,0,0,1-5-12.37c-.1-.47-.6-.31-.55.13a30.21,30.21,0,0,0,3.94,12.06C71.06,53.58,73.92,57.9,77.29,60.77Z"/><path class="cls-3" d="M60.41,51.39c.26.45.56-.27.45-.55C59.21,47,57.29,43.31,57.33,39.1a13.72,13.72,0,0,1,.13-1.79c0-.12-.12-.21-.15-.06A12.62,12.62,0,0,0,56.94,40C56.8,44,58.41,48,60.41,51.39Z"/><path class="cls-3" d="M79.17,75.76c.17.17.28-.26.18-.39-2.73-3.32-5.6-6.52-8.44-9.74a21.8,21.8,0,0,1-3.47-4.74,7,7,0,0,0-1.81-2.72c-.15-.12-.19.2-.11.29,1.21,1.24,1.48,3,2.38,4.5a26.94,26.94,0,0,0,3,3.68C73.62,69.7,76.32,72.79,79.17,75.76Z"/><path class="cls-3" d="M60.4,56.35c-1.34-2.29-1.85-5.31-3.84-7.14-.16-.15-.23.22-.15.32,1.79,2.42,2.46,5.48,4.05,8a48.29,48.29,0,0,0,5.39,6.94c.25.27.43-.38.28-.58A62.9,62.9,0,0,1,60.4,56.35Z"/><path class="cls-3" d="M68.83,66.87c-.07-.09-.12.06-.08.12,3.94,5.93,8.6,11.77,14.61,15.7.24.16.33-.33.16-.45C77.66,78,73.47,72.31,68.83,66.87Z"/><path class="cls-3" d="M119.48,19.47c4.35,10.15,9,20.18,13.56,30.23A224.34,224.34,0,0,1,144,79.4s0,0,0,0c.25-.29.51-.57.77-.86-6-20.68-15.5-40.12-25-59.41C119.64,18.83,119.38,19.23,119.48,19.47Z"/><path class="cls-3" d="M116.93,8.27c.22.2.32-.27.25-.41a6.83,6.83,0,0,0-2.26-2.46,5.5,5.5,0,0,0-2.71-1.25,2.25,2.25,0,0,0-.26,0c-.1,0-.09.19,0,.24a4.12,4.12,0,0,0,.69.49,22.21,22.21,0,0,1,2.08,1.17C115.55,6.7,116.14,7.56,116.93,8.27Z"/><path class="cls-3" d="M125.3,19.09c.25.22.33-.33.23-.48-1.21-1.85-2.41-3.69-3.58-5.57a10.43,10.43,0,0,0-3.63-3.94c-.11-.06-.11.18-.06.23a24.77,24.77,0,0,1,3.91,5.2A17.6,17.6,0,0,0,125.3,19.09Z"/><path class="cls-3" d="M130.16,26.44a21.33,21.33,0,0,0-3.65-6.37c-.1-.1-.16.14-.1.21,1.81,2.42,2.86,5.38,4.06,8.14s2.37,5.36,3.48,8.08c2.22,5.42,4.23,10.89,6.28,16.37.1.25.32,0,.27-.18A139.5,139.5,0,0,0,134,35.32C132.73,32.35,131.46,29.39,130.16,26.44Z"/><path class="cls-3" d="M121.84,16.74A7.88,7.88,0,0,0,120,15c-.12-.07-.12.2-.09.25.49.75,1.21,1.36,1.76,2.07.4.5.81,1.45,1.41,1.7.14.06.18-.17.16-.25A5.23,5.23,0,0,0,121.84,16.74Z"/><path class="cls-3" d="M131,33.66a143.13,143.13,0,0,0-7.31-14.07c-.12-.19-.25.12-.2.24,2.18,4.84,4.78,9.48,7,14.29s4.07,9.66,5.9,14.61c.09.23.3,0,.25-.18A84.85,84.85,0,0,0,131,33.66Z"/><path class="cls-3" d="M144.81,69.56c.06.29.34.18.33-.08a15.39,15.39,0,0,0-2.87-8.21c-.12-.18-.23.14-.16.26A27.19,27.19,0,0,1,144.81,69.56Z"/><path class="cls-3" d="M89.46,89.17a10.81,10.81,0,0,0,2,2.13c.33.21.37-.37.26-.55a12.44,12.44,0,0,0-2-2.26c-.73-.75-1.47-1.51-2.26-2.2-.16-.14-.23.22-.15.31C88,87.49,88.74,88.34,89.46,89.17Z"/><path class="cls-3" d="M116.76,112.42a62,62,0,0,0-9.64-6.94c-.15-.09-.2.27-.09.35a106.71,106.71,0,0,1,9.72,7.77c2.87,2.58,5.42,5.48,8.21,8.15l.41-.61C122.5,118.22,119.83,115.14,116.76,112.42Z"/><path class="cls-3" d="M119,112.35a16.81,16.81,0,0,0,2.56,2.82c.28.19.37-.28.29-.47a10.28,10.28,0,0,0-2.45-3,14.36,14.36,0,0,0-3.12-2.49c-.18-.1-.16.27-.09.35C117.12,110.54,118.14,111.39,119,112.35Z"/><path class="cls-3" d="M125.12,116.64c.72.51,1.43,1,2.14,1.56l.33-.57c-.8-.41-1.61-.8-2.41-1.22C125.08,116.35,125.05,116.59,125.12,116.64Z"/><path class="cls-3" d="M99.41,76c-2.28-1.66-3.07-4.58-4.85-6.7a62.71,62.71,0,0,0-5.78-5.51c-4.67-4.35-7-9.55-8.92-15.51,0-.15-.19,0-.19.08.45,5.65,3.57,11.12,7.4,15.17,2.38,2.51,5.27,4.54,7.36,7.31,1.59,2.11,2.27,5,4.66,6.41C99.62,77.56,99.78,76.29,99.41,76Z"/><path class="cls-3" d="M118.06,93.83c-4.06-4.57-8.81-9.62-14.26-12.51-.24-.13-.24.4-.13.51,2.42,2.3,5.13,4.27,7.58,6.53a92.39,92.39,0,0,1,7.34,7.6c4.18,4.91,7.48,10.34,12.41,14.57q.21-.54.39-1.08C126.2,104.85,122.64,99,118.06,93.83Z"/><path class="cls-3" d="M118.75,90.49c0-.07-.09.05-.07.09a18.08,18.08,0,0,0,3.76,6.31c.28.28.37-.4.27-.57C121.53,94.31,120.06,92.41,118.75,90.49Z"/><path class="cls-3" d="M126.93,101.09c-.15-.17-.21.23-.15.32a29.23,29.23,0,0,0,5.17,6.36c.08-.27.16-.55.25-.82C130.32,105.09,128.7,103,126.93,101.09Z"/><path class="cls-3" d="M104.84,28.54c-.11-1.08-.51-2.11-.7-3.18s-.29-2.37-.43-3.55c0-.09-.1-.07-.11,0-.35,2.06-.21,5.12,1,6.91C104.68,28.9,104.85,28.68,104.84,28.54Z"/><path class="cls-3" d="M105.28,31.16c-.12-.24-.28.05-.23.21a61,61,0,0,0,4.88,10c2.07,3.6,4.1,7.3,6.43,10.74.23.34.48-.22.36-.45C113.15,44.71,108.76,38.2,105.28,31.16Z"/><path class="cls-3" d="M121.53,62.22a44.43,44.43,0,0,0,2,5.23c.19.36.44,0,.39-.26a33.93,33.93,0,0,0-2.62-7.33c-.43-1-.92-3.27-2.25-3.41-.14,0-.13.26,0,.31C120.33,57.69,121,60.72,121.53,62.22Z"/><path class="cls-3" d="M115.05,15.07c-1.06-2.55-1.93-5.1-3.77-7.21-.11-.13-.17.1-.11.19,2.74,4.31,4,9.4,6.6,13.82,2.71,4.59,5.36,8.87,6.66,14.1.09.36.47.25.44-.1-.54-4.81-3.3-9-5.75-13.09A55.59,55.59,0,0,1,115.05,15.07Z"/><path class="cls-3" d="M133.5,56.51c.16.31.43,0,.36-.24-1-3.24-2.43-6.38-3.7-9.51-1-2.44-1.8-5.09-3.76-7-.06-.06-.09.09-.06.13C129.92,44.75,130.83,51.21,133.5,56.51Z"/><path class="cls-3" d="M137.12,65.74c.47,1.75.81,3.51,1.2,5.28.1.46.49.16.44-.2a44.41,44.41,0,0,0-1.8-7.36c-.42-1.32-.75-3.49-2.33-3.86-.06,0-.07.1,0,.13C136.22,60.77,136.69,64.12,137.12,65.74Z"/><path class="cls-3" d="M99.9,119.59A33,33,0,0,1,90,112.2c-2.63-3-4.83-6.29-7.24-9.42a199.79,199.79,0,0,0-14.59-17c-2.76-2.87-5.62-5.65-8.55-8.34-1.32-1.21-2.65-2.39-4-3.56-.82-.71-1.91-1.47-2.87-2.31,0,.23-.09.51-.32.46L52.07,72l.11.1c3.21,2.82,6.43,5.59,9.52,8.55A203.32,203.32,0,0,1,79.47,100c5.07,6.29,9.24,13.77,16.14,18.27a73.1,73.1,0,0,0,11.26,5.55c4.08,1.74,8,3.78,12.28,5,.26-.27.51-.56.77-.83a59.17,59.17,0,0,1-10.23-4C106.44,122.49,103.09,121.21,99.9,119.59Z"/><path class="cls-3" d="M53.37,57l-.36.91a60.47,60.47,0,0,0-3,8.26,5.6,5.6,0,0,0,1.07,4.8c.42.08.83.18,1.25.3a6.12,6.12,0,0,1-1.54-2.08c-.87-2.21.47-4.8,1.19-6.89.44-1.25.86-2.51,1.29-3.76l.42-1.25a.61.61,0,0,0,0-.14.41.41,0,0,0-.1-.23C53.54,56.79,53.44,56.78,53.37,57Z"/><path class="cls-3" d="M58.69,71.73C57.15,70.07,50.81,68.1,53,65c.09-.12,0-.52-.18-.34-1.26,1.52-.45,3.51,1,4.63,1.82,1.42,3.74,2,5.28,3.91S62,77.11,63.61,79c.29.33.48-.27.31-.51A64,64,0,0,0,58.69,71.73Z"/><path class="cls-3" d="M104.87,118.43c-8.75-2.16-13.34-9-18.6-15.72A226.4,226.4,0,0,0,69.4,83.25c-.13-.13-.22.19-.14.29,6.32,7.07,12.52,14.24,18.28,21.78C91.85,111,97,118.54,104.83,119,105.08,119,105.09,118.48,104.87,118.43Z"/><path class="cls-3" d="M112.15,123.57c2.92,1.28,6.19,1.79,9.25,2.73.19-.21.38-.43.56-.65-3.16-1.12-6.53-1.62-9.73-2.63C112,122.94,111.93,123.48,112.15,123.57Z"/><path class="cls-3" d="M117.07,5.25c0,.14.07.27.2.26h.11c.3,0,.59,0,.89-.09A41.93,41.93,0,0,0,127.84,3c1.79-.63,3.86-2,5.78-2.13s2.74,1.45,4.23,2.34l.32.17-.13-.2c-.07-.11,0-.53.17-.35s.48.51.72.77c1.09.16,2.11-.35,3.32-.45a8.59,8.59,0,0,1,6,2.26c3,2.46,5.11,6.05,6.84,9.48,1.59,3.14,2.92,6.4,4.47,9.56s3.51,6.42,5.31,9.61c4.08,7.26,6.09,14.73,7.53,22.84.25-.14.52-.27.78-.4-1.43-8-3.36-15.42-7.34-22.61-2.11-3.8-4.39-7.49-6.27-11.41-1.54-3.2-2.91-6.48-4.62-9.59a31,31,0,0,0-4.71-6.73,6.91,6.91,0,0,1-1.31-.82.39.39,0,0,1,0-.43l-.37-.31a10,10,0,0,0-4.75-2.25c-1.72-.23-3.7.92-5.26.34S136.19.25,134.37,0a7.17,7.17,0,0,0-3.59,1,59.91,59.91,0,0,1-13.25,3.86l-.27.06C117.12,4.93,117.06,5.1,117.07,5.25Z"/><path class="cls-3" d="M138.62,30.23c.89,2.26,1.89,4.48,2.72,6.77s1.33,4.6,2.13,6.85c.15.42.46,0,.43-.29a34.72,34.72,0,0,0-5.16-13.48C138.66,30,138.59,30.15,138.62,30.23Z"/><path class="cls-3" d="M147,49.89c2.33,6.71,5,13.28,7.16,20,.19-.17.39-.33.59-.49a183.49,183.49,0,0,0-7.52-19.77C147.13,49.42,147,49.72,147,49.89Z"/><path class="cls-3" d="M145.89,14a46.93,46.93,0,0,0-7-10.44c-.24-.26-.47-.52-.72-.77S138,3,138,3.14l.13.2c2.47,3.74,5,7.4,7.22,11.28C145.67,15.11,146.05,14.33,145.89,14Z"/><path class="cls-3" d="M155.77,34.06c-1.9-4.73-3.41-10.9-7.17-14.56-.09-.09-.12.13-.09.18,3,5.13,5.06,10.6,7.27,16.11,2.29,5.7,4.22,11.76,7,17.22.2.4.44-.07.36-.33C161.22,46.35,158.24,40.2,155.77,34.06Z"/><path class="cls-3" d="M148.72,25.44c-1.38-3.15-3-6.22-4.55-9.27a23.28,23.28,0,0,0-4.35-6.5c-.11-.11-.17.16-.11.24,3.62,4.9,5.65,10.73,8.59,16C148.53,26.37,148.83,25.7,148.72,25.44Z"/><path class="cls-3" d="M149.34,28.33c-.14-.26-.34.15-.26.32.53,1.13,1,2.27,1.62,3.37.21.38.52-.23.39-.49C150.56,30.44,149.93,29.39,149.34,28.33Z"/><path class="cls-3" d="M141.82,17.21c-.06-.11-.12,0-.1.1,1.41,4.28,3.07,8.57,4.74,12.75.18.46.49-.08.4-.37A71.78,71.78,0,0,0,141.82,17.21Z"/><path class="cls-3" d="M148.46,33c-.13-.14-.19.17-.16.25.32.8.81,1.53,1.15,2.32a15.46,15.46,0,0,0,.9,2.13c.19.31.36-.15.34-.32a7.61,7.61,0,0,0-1-2.45A7.3,7.3,0,0,0,148.46,33Z"/><path class="cls-3" d="M49.39,70.74c-.16,0-.24.11-.27.25a5,5,0,0,1,1.34.72l0,0a12.93,12.93,0,0,1,1.58.25l.36.07c.23,0,.35-.23.32-.46s-.08-.28-.2-.31l-.2-.06c-.42-.12-.83-.22-1.25-.3A15.15,15.15,0,0,0,49.39,70.74Z"/><path class="cls-3" d="M97.08,121.18C89.6,118.69,86,112,81.43,106.08c-9.38-12.17-20.21-23.2-30.87-34.23.1.26,0,.71-.33.52l-.51-.29C61,84.06,72.66,95.74,82.47,109c4,5.36,7.45,10.94,14.07,13.21,3.54,1.21,7.13,2.14,10.59,3.6s6.59,3.6,10,5l.75-.73c-3.41-1.75-6.68-3.71-10.21-5.23S100.64,122.37,97.08,121.18Z"/><path class="cls-3" d="M73.57,126.55a27.45,27.45,0,0,0-9.16-3.31c-7.46-1.58-13.24-6.31-17.93-12.14-2.2-2.74-4.19-5.66-6.15-8.58-2.57-3.82-4.73-7.71-2.82-12.36.71-1.72,1.64-3.33,2.2-5.11a20.91,20.91,0,0,1,.21-3.32c0-.3.32-.18.34.06s0,.59,0,.89c.19-1,.36-2,.57-3.05.81-3.94,4-10.08,8.86-7.55l.51.29c.29.19.43-.26.33-.52a.23.23,0,0,0-.07-.11l0,0A5,5,0,0,0,49.12,71a5.71,5.71,0,0,0-5.92,1.66C41,75,40.45,78.31,39.9,81.33A26.27,26.27,0,0,1,38,87.58a17.88,17.88,0,0,0-1.86,5.25c-.37,3.17,1.13,6.13,2.79,8.74l.07,0c.3-.08.42.36.32.63,4.21,6.5,8.93,13.24,15.39,17.67a29.84,29.84,0,0,0,10.77,4.42,27.14,27.14,0,0,1,11.32,5.5C83,134.63,88.73,140,96,142.9l.49-.11c.18,0,.27.18.26.4.45.17.9.33,1.36.48l1.28-.53h0c-6.92-1.87-12.78-6.08-18.2-10.64A67.68,67.68,0,0,0,73.57,126.55Z"/><path class="cls-3" d="M89,148.22c3.59-1.58,7.13-3.25,10.56-5.09a.29.29,0,0,0-.16,0h0l-1.28.53-11,4.56c-2.14.89-4.27,1.94-6.46,2.68a9.83,9.83,0,0,1-6.51-.24c-7-2.22-12.63-7.36-19.28-10.4-3.51-1.59-7.34-2.41-10.68-4.37-.34-.2-.66-.4-1-.62a1.09,1.09,0,0,1-.15.47,2.61,2.61,0,0,1,.45.7c.32.19.65.37,1,.55l-.22-.21c-.09-.08,0-.38.1-.27a12.41,12.41,0,0,1,1.24,1c.73.36,1.48.69,2.24,1l-.4-.42c-.1-.1-.05-.45.12-.33a5.2,5.2,0,0,1,1,1.06,82.19,82.19,0,0,1,8.77,3.78c.78.42,1.55.88,2.31,1.34.55,0,1.1,0,1.65,0,.27,0,.28.62,0,.61l-.65,0,2.4,1.51c.55,0,1.1.13,1.66.23.24.05.2.63-.09.58l-.4-.06a55.07,55.07,0,0,0,6.84,3.78l.89-.14c.22,0,.24.47,0,.5h0l.74.28,1-.29c.28-.08.35.5.12.56l-.21.06.49.15.21-.53c.21-.54.65.12.44.5l-.1.2,1.1.28c3.9.88,7.22-1.13,10.75-2.59l2.51-1C88.91,148.56,88.9,148.28,89,148.22Z"/><path class="cls-3" d="M36.71,107.56c0-.12.06-.24.1-.36s.21,0,.2.13a7.29,7.29,0,0,0,.08,1.56c.58-2.1-.51-5.61,2.06-6.55a.25.25,0,0,0,.16-.17c.1-.27,0-.71-.32-.63l-.07,0C36.27,102.39,37,105.4,36.71,107.56Z"/><path class="cls-3" d="M35.9,127.13a17.75,17.75,0,0,1-.84-13.62c.47-1.27,1.21-2.45,1.72-3.72a5,5,0,0,1-.15-1.76c-.33,1.65-1.38,3.09-2,4.65a17.56,17.56,0,0,0-1.14,4.95,19.71,19.71,0,0,0,4.17,13.71c.82.56,1.67,1.09,2.55,1.58A20.07,20.07,0,0,1,35.9,127.13Z"/><path class="cls-3" d="M74.27,147.89c-.85-.31-1.72-.44-2.55-.82-.46-.21-2.32-1-2.3-1.7,0-.06,0-.13-.09-.14h-.11c-.1,0-.16.14-.17.21-.16.93,1,1.62,1.63,2a5.84,5.84,0,0,0,3.54,1.11C74.51,148.55,74.52,148,74.27,147.89Z"/><path class="cls-3" d="M82.6,148.43a22.25,22.25,0,0,1-5.65.08c-.15,0-.14.32,0,.34,3.41.51,6.31.5,9.41-1.16a36.44,36.44,0,0,1,10.15-4.11.4.4,0,0,0,.24-.39c0-.22-.08-.44-.26-.4l-.49.11a30.15,30.15,0,0,0-8.39,3.36A16.84,16.84,0,0,1,82.6,148.43Z"/><path class="cls-3" d="M42.87,149.14a14.31,14.31,0,0,1,.81,1.68c.67,1.1,1.36,2.19,2.11,3.24,1.59,2.22,3.45,4.35,6.2,5.05,3.17.8,6.51-.38,9.46-1.44.37-.14.25-1.07-.19-.92-3.3,1.19-7.19,2.54-10.6.95-3.06-1.42-5-4.87-6.69-7.63a9.49,9.49,0,0,1-1.75-4.92L41.69,144c-.07-.13.08-.46.2-.26s.25.44.37.66a6.61,6.61,0,0,1,.21-1c.36-1.26.79-2.52,1.08-3.81a5.21,5.21,0,0,0,0-3.13,2.61,2.61,0,0,0-.45-.7.36.36,0,0,1-.47.13c2.35,3.09-1.7,7.13-1.28,10.43a8.39,8.39,0,0,0,1.42,2.91C42.74,149.13,42.81,149,42.87,149.14Z"/><path class="cls-3" d="M74.35,151.25l-.21.53a19.67,19.67,0,0,1-8.48,9.9c-1.76,1-3.6,1.87-5.27,3s-2.81,2.77-4.45,3.83c-1.45.93-3,1-4.21-.41a4.14,4.14,0,0,1-.53-.87c-.09,0-.18-.08-.25-.13s-.05-.19,0-.2h.07c-.15-.39-.29-.79-.44-1.19a3.68,3.68,0,0,1-.45-.28c-.2-.13-.14-.58.06-.64a26.08,26.08,0,0,0-2.49-3.88,19.61,19.61,0,0,1-3-6.66,29.74,29.74,0,0,0-1.07-3.46,14.31,14.31,0,0,0-.81-1.68c-.06-.11-.13,0-.14.08a.14.14,0,0,0,0,.09c.86,2.47,1.34,5.06,2.18,7.53a24.16,24.16,0,0,0,3.31,5.85c1.29,1.89,1.71,4.05,2.87,5.94a3.1,3.1,0,0,0,3.6,1.51c2.17-.53,3.44-2.62,5.11-3.93a60.59,60.59,0,0,1,6.67-4,16.71,16.71,0,0,0,4.72-4c1.51-1.92,2.35-4.13,3.5-6.25l.1-.2C75,151.37,74.56,150.71,74.35,151.25Z"/><path class="cls-3" d="M175.51,6.89a6.53,6.53,0,0,1-1.84-.41,35.78,35.78,0,0,1,7.77,7.38c7.68,9.51,11.05,21.73,12.74,33.65l.68-.34c-1.81-11.8-5.11-23.83-12.59-33.37A39.4,39.4,0,0,0,175.51,6.89Z"/><path class="cls-3" d="M148.91,5.3a6.91,6.91,0,0,0,1.31.82,6.57,6.57,0,0,0,3.29.63,11.68,11.68,0,0,1-1.13-.4c-.07,0-.08-.21,0-.21a16.31,16.31,0,0,1,3.21.28c2-.5,4-1.43,6-2.06V3.83c0-.13.14-.26.21-.09s.35.23.76.33A11,11,0,0,1,165,3.69a14.1,14.1,0,0,1,7,1.82c0-.19.05-.45.25-.34a6.34,6.34,0,0,0,2,.8,18.79,18.79,0,0,0-5.94-2.71,13.19,13.19,0,0,0-8.15.76c-3.51,1.37-7.6,3.42-11.08.82a.12.12,0,0,0-.19,0A.39.39,0,0,0,148.91,5.3Z"/><path class="cls-3" d="M172,5.51a.29.29,0,0,0,.08.13,6.6,6.6,0,0,0,1.56.84,6.53,6.53,0,0,0,1.84.41,10.82,10.82,0,0,0,2,0c-.26-.11-.52-.21-.8-.3-.07,0-.05-.19,0-.17a9.76,9.76,0,0,1,1.46.38c1.51-.22,3-.63,4.53-.88,5-.86,9.06,1.25,12.43,4.87,7.27,7.8,10.67,18.43,11.7,28.86l.67-.52c-1.1-9.83-4.18-19.37-10.4-27.2-.28-.23-.57-.45-.84-.69-.07-.06-.08-.28,0-.33-2.44-2.85-5.55-5.48-9.35-6.06-4.12-.62-8.64,2.09-12.67,1.14a6.34,6.34,0,0,1-2-.8C172.08,5.06,172,5.32,172,5.51Z"/><path class="cls-3" d="M196.26,11.22c.27.24.56.46.84.69,1.15.94,2.33,1.83,3.56,2.69h0l.65.46c1.08.75,2.19,1.48,3.29,2.2-.11-.21-.23-.41-.35-.6s0-.36.13-.21l.91,1.25,3,1.95c0-.11.05-.23.16-.16a9.55,9.55,0,0,1,1.7,1.39c1.09.74,2.19,1.46,3.27,2.2,1.79,1.23,1.58,3,.86,4.81l-.94,2.31a14.23,14.23,0,0,1-.28,2c-.1.44-.5.23-.47-.12L211,35.93a.45.45,0,0,0,0,.2c.48-.44.95-.89,1.42-1.34,1.13-2.75,2.35-5.49,3.27-8.29.61-1.87,0-2.94-1.54-4.06-2.89-2.09-6-4-8.94-6a83.54,83.54,0,0,0-8.86-5.6.08.08,0,0,0-.08,0C196.18,10.94,196.19,11.16,196.26,11.22Z"/><path class="cls-3" d="M205,40.46V41l.4-.29c0-.12-.06-.24-.1-.36S205,40.29,205,40.46Z"/><path class="cls-3" d="M202.27,39.82c.11.94.34,1.86.43,2.8l.34-.23a12,12,0,0,0-.63-2.66C202.35,39.58,202.25,39.73,202.27,39.82Z"/><path class="cls-3" d="M178.19,28.21c0-.16-.2-.11-.19.05a36.58,36.58,0,0,0,2.28,11c1.47,4,3.47,8,4.26,12.26l.54-.21c-.78-3.92-2.81-7.34-4-11.14C179.91,36.23,179.18,32.22,178.19,28.21Z"/><path class="cls-3" d="M170.89,37.92c-.44-1.91-1.79-5.44-.84-7.24.06-.11,0-.41-.16-.23-1,1.46-.33,3.49,0,5.1A46.74,46.74,0,0,0,172,44.2c.14.36.43,0,.38-.26C172,41.92,171.35,39.93,170.89,37.92Z"/><path class="cls-3" d="M172.82,48.91c.57,2.25,1.51,4.39,2.12,6.64l.56-.26A26.18,26.18,0,0,0,173,48.77C172.89,48.65,172.8,48.83,172.82,48.91Z"/><path class="cls-3" d="M209.67,27.5c-.13-.27-.35,0-.3.21a73,73,0,0,1,1,9l.61-.54c-.11-1.59-.29-3.17-.45-4.75A11.84,11.84,0,0,0,209.67,27.5Z"/><path class="cls-3" d="M211.06,37.86h0l-.44.38C210.79,38.37,211.07,38.18,211.06,37.86Z"/><path class="cls-3" d="M208.24,30.89a58.66,58.66,0,0,1,1.1,6.69l.44-.38a46.85,46.85,0,0,0-1.35-6.39C208.38,30.63,208.21,30.74,208.24,30.89Z"/><path class="cls-3" d="M161.81,4.67a18.34,18.34,0,0,1,6.49,2.07,21.75,21.75,0,0,1,4.62,4c.25.25.34-.36.25-.52a12.9,12.9,0,0,0-4.71-4.33,15.22,15.22,0,0,0-3.18-1.38c-.37-.1-1.81-.27-2.72-.49-.41-.1-.71-.21-.76-.33s-.21,0-.21.09v.53h0A.29.29,0,0,0,161.81,4.67Z"/><path class="cls-3" d="M175,12.79a24,24,0,0,1,4.47,7.86,22.94,22.94,0,0,0,3.08,6.68c.3.39.48-.3.35-.55-2.72-4.92-3.69-10.32-7.65-14.53C175,12,174.87,12.61,175,12.79Z"/><path class="cls-3" d="M162.93,11.15c.34.29.45-.48.25-.7a13.31,13.31,0,0,0-7.58-4,16.31,16.31,0,0,0-3.21-.28c-.09,0-.08.18,0,.21a11.68,11.68,0,0,0,1.13.4c1.57.48,3.23.67,4.79,1.18C160.22,8.55,161.47,9.85,162.93,11.15Z"/><path class="cls-3" d="M169.72,23.8c.15.31.42,0,.35-.24a60.07,60.07,0,0,0-3-7.49c-.71-1.61-1.42-3.34-3.15-4.05-.1,0-.1.16-.05.2C167.24,14.9,168,20.08,169.72,23.8Z"/><path class="cls-3" d="M159,10c-.13,0-.14.19-.07.25.76.57,1.55,1.1,2.26,1.73a23.22,23.22,0,0,1,2,2.25c.25.29.45-.2.34-.42A7.79,7.79,0,0,0,159,10Z"/><path class="cls-3" d="M164.29,15.42c0-.15-.15-.05-.13.06A32.39,32.39,0,0,0,166,23.36c.15.39.49,0,.41-.28C165.74,20.52,165,18,164.29,15.42Z"/><path class="cls-3" d="M169,10.39s-.05.06,0,.08c.6.47,1.22,1,1.77,1.5s1,1.19,1.57,1.79c.21.25.37-.16.28-.35A5.84,5.84,0,0,0,169,10.39Z"/><path class="cls-3" d="M175.65,18.58a21.55,21.55,0,0,0-1.45-3.47c-.07-.13-.16.06-.14.14.27,1.18.71,2.31,1.09,3.45a27.69,27.69,0,0,0,1.33,3.81c.14.27.33,0,.3-.21A19.68,19.68,0,0,0,175.65,18.58Z"/><path class="cls-3" d="M101.92,9.59c.82,1.86.65,4.23.83,6.21,0,.55.63.55.59,0-.15-2.3,0-5.32-1.29-7.34a3.4,3.4,0,0,0-1.36-1.24,6.38,6.38,0,0,0-4.46-.06c-.07,0,0,.17,0,.17a16.24,16.24,0,0,1,3,.25A3.51,3.51,0,0,1,101.92,9.59Z"/><path class="cls-3" d="M66.31,33c.38-3.42,1.09-6.73,1.6-10.12,0-.12-.12-.29-.18-.11a37.31,37.31,0,0,0-1.85,10.06C65.86,33.19,66.26,33.47,66.31,33Z"/><path class="cls-3" d="M70.15,26.33a35.52,35.52,0,0,1,.7-6.5c0-.16-.16-.38-.24-.15a15.89,15.89,0,0,0-.91,6.66C69.73,26.76,70.15,26.76,70.15,26.33Z"/><path class="cls-3" d="M72.78,25.39c.52-2.5.73-5.16,1-7.71,0-.15-.16-.38-.24-.14a20.87,20.87,0,0,0-1.12,7.79C72.47,25.59,72.72,25.69,72.78,25.39Z"/><path class="cls-3" d="M73.32,28.59a19.86,19.86,0,0,0,1,3.53A39.57,39.57,0,0,0,75.62,36c.2.43.54,0,.47-.31-.31-1.27-.81-2.49-1.24-3.72a17,17,0,0,0-1.41-3.45C73.37,28.37,73.31,28.53,73.32,28.59Z"/><path class="cls-3" d="M39.92,96.64a24.82,24.82,0,0,1-1-4.24c0-.23-.27-.22-.31,0-.42,2.44.85,6.89,3.07,8.23.24.14.29-.37.23-.49C41.36,98.92,40.44,97.92,39.92,96.64Z"/><path class="cls-3" d="M58.49,116.39c-3.32-.53-5.57-4-7.67-6.37-2.3-2.56-4.49-5.41-7.18-7.57-.12-.1-.15.15-.1.22,2.23,3.32,5.21,6.19,7.87,9.16,1.85,2.06,4,5.36,7.09,5.06C58.73,116.86,58.7,116.42,58.49,116.39Z"/><path class="cls-3" d="M69.6,121.47c-1.29-.58-2.67-.9-4-1.49s-2.4-1.38-3.68-1.83c-.09,0-.11.13-.07.18a12.35,12.35,0,0,0,7.67,3.77C69.84,122.11,69.8,121.56,69.6,121.47Z"/><path class="cls-3" d="M59.68,113.35c-2.74-1.34-5.06-2.15-7-4.67-1.71-2.17-3.35-4.39-5.14-6.49-.17-.21-.29.17-.19.32,3.17,4.74,6.26,10.25,12.26,11.53C59.92,114.11,59.94,113.48,59.68,113.35Z"/><path class="cls-3" d="M68.15,118.78a53.51,53.51,0,0,0-6.87-4.14c-.19-.1-.25.36-.11.45A50.61,50.61,0,0,0,68,119.4C68.29,119.54,68.32,118.92,68.15,118.78Z"/><path class="cls-3" d="M53.9,106.41c-.12-.08-.16.15-.11.22,1.87,2.5,5.5,5.31,8.69,5.69.26,0,.25-.51.1-.61-1.44-.93-3.1-1.49-4.56-2.4S55.29,107.35,53.9,106.41Z"/><path class="cls-3" d="M92.42,137.12c-2.35-1.79-4.57-3.86-7.44-4.75-.13,0-.15.22-.06.28,3.14,2.06,5.93,4.58,9,6.66,2.23,1.48,5,2.83,7.7,2.67l1.58-.91a.18.18,0,0,0-.16-.09C98.86,141.11,95.75,139.66,92.42,137.12Z"/><path class="cls-3" d="M93,134.8c2.92,3.28,7.49,4.76,11.88,5.29l1.32-.82c-4.7-1-9.16-1.54-13-4.78C93,134.36,92.9,134.7,93,134.8Z"/><path class="cls-3" d="M102.9,136.68a11.25,11.25,0,0,0,4.77,1.62l1.28-.88a22.89,22.89,0,0,1-6-1.11C102.82,136.26,102.78,136.61,102.9,136.68Z"/><path class="cls-3" d="M115.17,131.86c-3.79-1.33-7.53-5.73-11.87-4.4-.15,0-.13.45,0,.43,4.77-.54,7.39,3.81,11.7,4.71a.26.26,0,0,0,.09,0l.18-.16C115.41,132.24,115.36,131.93,115.17,131.86Z"/><path class="cls-3" d="M102.27,133.66a10.48,10.48,0,0,0,2.56.82c.23.05.27-.43.07-.47-.87-.16-1.73-.37-2.59-.57C102.2,133.41,102.19,133.62,102.27,133.66Z"/><path class="cls-3" d="M106.64,134.93a19.84,19.84,0,0,0,4,1.28l.72-.54c-1.52-.49-3.15-.59-4.65-1.16C106.51,134.44,106.5,134.85,106.64,134.93Z"/><path class="cls-3" d="M106.61,131.41a5.61,5.61,0,0,0,1.48.62c.16,0,.16-.3.09-.39a3,3,0,0,0-1.4-.75,3.58,3.58,0,0,0-1.58-.26c-.07,0-.09.15,0,.19A11.43,11.43,0,0,0,106.61,131.41Z"/><path class="cls-3" d="M114.33,135h0Z"/><path class="cls-3" d="M110.11,132.46c-.07,0-.07.12,0,.15a11,11,0,0,0,2.92,1.78l.55-.44-1.13-.47C111.65,133.16,110.9,132.72,110.11,132.46Z"/><path class="cls-3" d="M39.92,81.73a20.91,20.91,0,0,0-.21,3.32c.07,2.87.86,5.84,3.2,7.54.25.18.37-.27.28-.44A36,36,0,0,1,40.8,88a15.54,15.54,0,0,1-.51-5.34c0-.3,0-.59,0-.89S40,81.43,39.92,81.73Z"/><path class="cls-3" d="M42.34,79.55a11.57,11.57,0,0,0,.33-1.44c.12-.55.29-1.08.41-1.63,0-.1-.11-.33-.19-.16a6.83,6.83,0,0,0-.74,3.16C42.15,79.59,42.28,79.71,42.34,79.55Z"/><path class="cls-3" d="M48.74,94.84c.21.14.28-.25.18-.38-2.93-3.89-7-8.67-6.76-13.84,0-.19-.19-.23-.23,0-.68,2.7.76,5.25,2,7.6S46.44,93.38,48.74,94.84Z"/><path class="cls-3" d="M60.88,105.67c.29,0,.22-.53,0-.63A15.9,15.9,0,0,1,57,102.4c-1.19-1.14-2.32-2.33-3.55-3.43-.12-.1-.18.17-.12.24C55.11,101.43,57.77,105.35,60.88,105.67Z"/><path class="cls-3" d="M53.55,96.3c.26.24.41-.37.26-.54a79.11,79.11,0,0,1-6.05-7.15A21.24,21.24,0,0,1,45.35,84c-.69-1.88-1.76-5.65-.45-7.46.05-.07,0-.3-.11-.2-2.12,2-.4,7,.56,9.23C47.13,89.69,50.3,93.27,53.55,96.3Z"/><path class="cls-3" d="M56.64,98c-.12-.1-.15.16-.11.22a15.36,15.36,0,0,0,5,4.9c.27.17.36-.35.18-.49-.93-.71-1.86-1.4-2.73-2.18S57.48,98.75,56.64,98Z"/><path class="cls-3" d="M37,107.33c0-.12-.13-.33-.2-.13s-.07.24-.1.36-.06.32-.08.47a5,5,0,0,0,.15,1.76,9.52,9.52,0,0,0,.91,2.17c1.2,2.16,3,4.87,5.15,6.2.29.18.37-.33.24-.5-2-2.77-5.39-5.24-6-8.77A7.29,7.29,0,0,1,37,107.33Z"/><path class="cls-3" d="M44.39,119.33c3,2.89,6.63,6,10.76,7.25.24.07.23-.38.07-.47a59.06,59.06,0,0,1-6.28-3.7,40.81,40.81,0,0,0-4.47-3.4C44.32,118.93,44.31,119.26,44.39,119.33Z"/><path class="cls-3" d="M38.74,104.94c0-.11-.15-.18-.17,0-.07,1.08-.92,3.59.57,4.19.1.05.12-.16.07-.21C38.15,107.63,38.86,106.4,38.74,104.94Z"/><path class="cls-3" d="M48.34,119.7c.21,0,.22-.34.06-.41-1.69-.78-3-2.67-4.24-4-1.49-1.64-2.85-3.36-4.19-5.11-.06-.08-.1.06-.07.12a33.86,33.86,0,0,0,4.1,5.44C45.1,117,46.6,119.38,48.34,119.7Z"/><path class="cls-3" d="M52.09,122.67a10.54,10.54,0,0,0,1.67,1.15c.16.08.14-.25.08-.32A13.61,13.61,0,0,0,52,122.12a9.93,9.93,0,0,0-1.68-1.07c-.09,0-.08.13,0,.16A13.26,13.26,0,0,0,52.09,122.67Z"/><path class="cls-3" d="M36.22,122a4.73,4.73,0,0,0-.78-1.94c0-.06-.07.08,0,.11a14,14,0,0,1,.8,2.75,11.65,11.65,0,0,0,1,2.35c.12.2.24-.12.19-.24C37,124,36.55,123.06,36.22,122Z"/><path class="cls-3" d="M51.48,135.85c-2.41-.79-4.56-2.75-6.62-4.19A33.4,33.4,0,0,1,39.11,127c-.12-.13-.21.19-.13.29a30.1,30.1,0,0,0,6.38,5.41c1.73,1.22,3.88,3.46,6.09,3.62C51.63,136.29,51.62,135.9,51.48,135.85Z"/><path class="cls-3" d="M56,138.52a8.68,8.68,0,0,0-2-1.12c-.1,0-.1.14,0,.19.6.54,1.36.93,2,1.42s1.26,1,1.94,1.46c.22.14.26-.28.14-.4A11.11,11.11,0,0,0,56,138.52Z"/><path class="cls-3" d="M123.55,8.4a18,18,0,0,0-2.5-2.51S121,6,121,6a19.17,19.17,0,0,0,2.15,2.53,34,34,0,0,0,2.47,2.62c.13.12.19-.19.13-.28C125.09,10,124.3,9.2,123.55,8.4Z"/><path class="cls-3" d="M125.92,8.5a34.17,34.17,0,0,0-2.61-2.35c-.09-.06-.13.12-.08.17a29.47,29.47,0,0,0,2.27,2.34,25.75,25.75,0,0,0,2.58,2.43c.16.13.23-.21.15-.31A27.61,27.61,0,0,0,125.92,8.5Z"/><path class="cls-3" d="M127.46,7.11a17.51,17.51,0,0,0-2-1.7c-.09-.07-.12.13-.06.18.62.61,1.25,1.2,1.86,1.82A21.72,21.72,0,0,0,129,9.22c.15.11.18-.19.13-.27A10.07,10.07,0,0,0,127.46,7.11Z"/><path class="cls-3" d="M128.21,4.54c-.11-.09-.14.15-.08.21,1.36,1.43,2.6,3,3.92,4.41.16.17.24-.25.17-.36A17.46,17.46,0,0,0,128.21,4.54Z"/><path class="cls-3" d="M132.14,5a5.47,5.47,0,0,0-1.26-1.28c-.09,0-.09.14-.06.18.34.53.83.95,1.22,1.45s.72,1,1.07,1.53c.12.16.24-.1.18-.21A10.54,10.54,0,0,0,132.14,5Z"/><path class="cls-3" d="M141.45,4.25c-.09-.07-.12.11-.08.17.63.85,1.39,1.62,2.08,2.42s1.2,1.49,1.84,2.2c.17.18.26-.25.18-.37A20.61,20.61,0,0,0,141.45,4.25Z"/><path class="cls-3" d="M185.76,13.67c.2.24.35-.19.23-.36-2.09-2.83-4.51-5.41-7.82-6.53a9.76,9.76,0,0,0-1.46-.38c-.08,0-.1.15,0,.17.28.09.54.19.8.3C181,8.29,183.29,10.73,185.76,13.67Z"/><path class="cls-3" d="M182.13,7.34c-.12,0-.13.2-.06.25A26.71,26.71,0,0,1,185,10a14.4,14.4,0,0,1,2.48,3.56c.17.34.42,0,.32-.29C186.74,10.86,184.65,8.26,182.13,7.34Z"/><path class="cls-3" d="M186.16,8.41c-.12-.1-.18.17-.12.25a27.13,27.13,0,0,1,3.88,6.2c.14.33.38,0,.3-.28A15,15,0,0,0,186.16,8.41Z"/><path class="cls-3" d="M190,9.56c-.12-.14-.21.11-.14.21.86,1.18,1.58,2.5,2.5,3.63.14.16.25-.12.19-.24A21.52,21.52,0,0,0,190,9.56Z"/><path class="cls-3" d="M200.6,14.8A15.39,15.39,0,0,1,205.44,22c.09.25.28,0,.25-.17a11.21,11.21,0,0,0-4.37-6.72l-.65-.46h0C200.56,14.55,200.53,14.74,200.6,14.8Z"/><path class="cls-3" d="M207.25,20.78a20.44,20.44,0,0,0-1.95-3.08l-.91-1.25c-.1-.15-.19.11-.13.21s.24.39.35.6A23.27,23.27,0,0,0,207.06,21C207.2,21.17,207.3,20.9,207.25,20.78Z"/><path class="cls-3" d="M51.91,82.05c.2.25.35-.19.23-.37-1.7-2.37-2.17-5.79-4.68-7.53-.09-.06-.12.12-.06.18C49.74,76.4,50,79.69,51.91,82.05Z"/><path class="cls-3" d="M56,86.52c.53.67,1,1.38,1.52,2.06.18.24.31-.18.22-.34a16.38,16.38,0,0,0-1.64-2.14,9.89,9.89,0,0,0-1.69-1.73c-.1-.08-.13.12-.09.18C54.78,85.24,55.42,85.85,56,86.52Z"/><path class="cls-3" d="M69.17,128.05c-2.57-2.27-6.48-3.18-9.67-4.21-.16,0-.16.26,0,.32,3.14,1.65,6.54,2.34,9.59,4.24C69.24,128.53,69.29,128.15,69.17,128.05Z"/><path class="cls-3" d="M62.7,126.66c-.12,0-.14.2,0,.24a15.65,15.65,0,0,1,2.51,1.29c.71.45,1.33,1,2,1.47.16.1.21-.18.14-.28A10.12,10.12,0,0,0,62.7,126.66Z"/><path class="cls-3" d="M63.22,128.68c-.15-.08-.19.28,0,.35a13.65,13.65,0,0,1,3,2.44c.16.16.24-.23.16-.33A8.37,8.37,0,0,0,63.22,128.68Z"/><path class="cls-3" d="M82.77,51.84A7,7,0,0,0,84,55.18c.12.15.21-.12.14-.22a11,11,0,0,1-1.39-4.33,17.45,17.45,0,0,0-1.35-4.06c0-.07-.08,0-.07.06A34.9,34.9,0,0,1,82.77,51.84Z"/><path class="cls-3" d="M89.17,61.64c.11.09.15-.14.1-.21-1.21-1.62-2.63-3.11-3.9-4.68-.06-.09-.11.06-.07.12A24.35,24.35,0,0,0,89.17,61.64Z"/><path class="cls-3" d="M95.36,67.42c.12.17.21-.13.15-.24a9.28,9.28,0,0,0-4-3.62c-.07,0-.09.12,0,.15A13.46,13.46,0,0,1,95.36,67.42Z"/><path class="cls-3" d="M99,71.94c.09.1.15-.12.12-.19a22.78,22.78,0,0,0-1.67-2.39c-.09-.13-.18.1-.12.19A22.2,22.2,0,0,0,99,71.94Z"/><path class="cls-3" d="M111,83.35a31.18,31.18,0,0,1-5.36-3.41c-1.63-1.41-2.77-3.45-4.14-5.11-.05-.06-.09,0-.06.09a25.23,25.23,0,0,0,4.08,5.36A18.89,18.89,0,0,0,111,83.66C111.14,83.72,111.14,83.41,111,83.35Z"/><path class="cls-3" d="M113.64,85.39c-.08,0-.11.11-.06.16A14.31,14.31,0,0,1,116,88.37c.1.14.2-.09.15-.18A8.73,8.73,0,0,0,113.64,85.39Z"/><path class="cls-3" d="M121.83,91.32a24.07,24.07,0,0,0-2.07-3,20.5,20.5,0,0,0-2.62-2.11c-.07-.06-.09.1,0,.15.78.84,1.78,1.41,2.54,2.26a31.25,31.25,0,0,1,2.27,3.31A71.43,71.43,0,0,0,126.35,98c.14.17.24-.14.15-.25C124.94,95.61,123.32,93.52,121.83,91.32Z"/><path class="cls-3" d="M128,99.44c-.06-.07-.1.06-.07.11a22.82,22.82,0,0,0,4.73,5.76l.09-.34A50.16,50.16,0,0,1,128,99.44Z"/><path class="cls-3" d="M128.4,97.25c-.07-.12-.16,0-.12.11a16.24,16.24,0,0,0,4.78,6.43l.09-.35A17.64,17.64,0,0,1,128.4,97.25Z"/><path class="cls-3" d="M134.58,81a12.07,12.07,0,0,0-.92-2.5s0,0,0,0a13.43,13.43,0,0,0,.69,2.48c.29.91.55,1.85.91,2.74.06.16.2,0,.17-.11C135.19,82.7,134.87,81.83,134.58,81Z"/><path class="cls-3" d="M136.12,85.63a22,22,0,0,0,1.68,2.79c0-.09.08-.18.13-.27a20.74,20.74,0,0,0-1.72-2.62C136.15,85.46,136.1,85.58,136.12,85.63Z"/><path class="cls-3" d="M54.2,48.67c.29,2.54,1.91,4.7,2.23,7.26,0,.32.4.21.37-.08-.25-2.53-1.59-4.91-2.51-7.24C54.25,48.52,54.19,48.61,54.2,48.67Z"/><path class="cls-3" d="M58.25,59.19c-.11-.11-.17.16-.11.24a18.64,18.64,0,0,0,3.41,3.74c.21.16.3-.27.19-.4C60.67,61.51,59.4,60.38,58.25,59.19Z"/><path class="cls-3" d="M98.61,9.43c-.16-.06-.19.28-.08.35,1.35.94,1.37,3.22,1.64,4.69.06.3.37.19.35-.07a15.54,15.54,0,0,0-.66-3.31A2.44,2.44,0,0,0,98.61,9.43Z"/><path class="cls-3" d="M103.57,33.88c-1.15-2.68-2.29-5.05-2.47-8-.17-2.69-.12-5.4-.35-8.09,0-.14-.14-.14-.15,0-.2,5.76-.21,11.33,2.71,16.45C103.46,34.48,103.64,34.05,103.57,33.88Z"/><path class="cls-3" d="M104.72,36.39a12.73,12.73,0,0,0,.91,1.76A13.28,13.28,0,0,0,106.75,40c.17.21.29-.14.23-.28a13.49,13.49,0,0,0-1.06-1.8,9.7,9.7,0,0,0-1.12-1.64C104.73,36.2,104.71,36.35,104.72,36.39Z"/><path class="cls-3" d="M106.15,25.3c.11.27.34,0,.29-.2-1.54-5.59.87-12.39-2.48-17.45-.08-.12-.17.08-.13.16C106.63,13.42,103.91,19.64,106.15,25.3Z"/><path class="cls-3" d="M107.54,22.06a13.56,13.56,0,0,0,1.59,5.15c.14.26.33-.16.26-.32a17.15,17.15,0,0,1-1.39-8.8,12,12,0,0,0-.38-5.12c0-.13-.14,0-.13.08C108,16.08,107.23,19,107.54,22.06Z"/><path class="cls-3" d="M111.68,26.9a28.79,28.79,0,0,1-1.4-6.68c0-.26-.26-.25-.26,0a13.8,13.8,0,0,0,1.45,6.87C111.57,27.26,111.71,27,111.68,26.9Z"/><path class="cls-3" d="M113.93,32a16.24,16.24,0,0,0-.73-1.59c-.22-.52-.4-1.07-.64-1.58,0-.11-.13,0-.12.08a9.26,9.26,0,0,0,.53,1.72,6.38,6.38,0,0,0,.77,1.6C113.88,32.41,114,32.12,113.93,32Z"/><path class="cls-3" d="M51,126.44a13.24,13.24,0,0,0-2.69-1.34c-.08,0-.08.11,0,.14a13.79,13.79,0,0,0,2.32,1.51,23.28,23.28,0,0,0,2.67,1.49c.19.08.22-.33.1-.42A23.09,23.09,0,0,0,51,126.44Z"/><path class="cls-3" d="M51.06,128.81c-.67-.42-1.34-.84-2-1.28-.12-.08-.15.15-.08.21a13.58,13.58,0,0,0,4,2.75c.21.07.23-.34.1-.43A22.25,22.25,0,0,0,51.06,128.81Z"/><path class="cls-3" d="M50.38,131.12a4.1,4.1,0,0,0,1.75.94c.15,0,.12-.27,0-.33a16.93,16.93,0,0,0-1.73-1.1c-.55-.39-1-.87-1.54-1.27-.1-.08-.12.12-.09.18A6.69,6.69,0,0,0,50.38,131.12Z"/><path class="cls-3" d="M49,131.49c-.11-.08-.14.15-.07.21a16.72,16.72,0,0,0,3.7,2.77c.16.08.17-.27.08-.34C51.53,133.17,50.21,132.37,49,131.49Z"/><path class="cls-3" d="M86.48,139.85c.21,0,.23-.36.06-.43A12.35,12.35,0,0,1,83.66,138a14.64,14.64,0,0,1-2.09-2c-.06-.06-.08.09-.06.13A7.81,7.81,0,0,0,86.48,139.85Z"/><path class="cls-3" d="M83.06,140.32c.61.62,1.38,1.56,2.35,1.16.14-.06.13-.45,0-.43-1.16.12-1.94-1-2.68-1.69s-1.51-1.45-2.29-2.15c-.08-.07-.12.11-.08.17C81.21,138.38,82.12,139.36,83.06,140.32Z"/><path class="cls-3" d="M81,141.12a5.61,5.61,0,0,0,2,1.69c.21.08.21-.32.1-.41a23,23,0,0,1-2-1.81,13.26,13.26,0,0,0-2-2.07c-.08-.05-.09.09-.06.13A15.67,15.67,0,0,0,81,141.12Z"/><path class="cls-3" d="M79.37,143.05c.43.54,1,1.61,1.74,1.62.21,0,.23-.48,0-.52-.85-.18-1.66-1.6-2.2-2.26s-1.14-1.45-1.77-2.11c-.1-.11-.14.14-.1.2C77.77,141.06,78.59,142.05,79.37,143.05Z"/><path class="cls-3" d="M78.53,144.24c-.54-.42-1.12-.79-1.63-1.24a8.29,8.29,0,0,0-1.31-1.21s0,.05,0,.07a4.27,4.27,0,0,0,1.19,1.55,6.29,6.29,0,0,0,1.68,1.22C78.61,144.71,78.64,144.32,78.53,144.24Z"/><path class="cls-3" d="M56.05,156.3c-3-.12-6.55-2.28-8.78-4.15s-3.54-5.06-5-7.72c-.12-.22-.24-.44-.37-.66s-.27.13-.2.26l.53,1.12a26.39,26.39,0,0,0,4,6.78,18.88,18.88,0,0,0,7.93,4.68c2.82.79,5.23-.19,7.65-1.6,3.29-1.91,6.34-3.45,10.17-4h0c.22,0,.2-.54,0-.5l-.89.14A22.64,22.64,0,0,0,64.2,153C61.62,154.35,59.15,156.42,56.05,156.3Z"/><path class="cls-3" d="M67.32,153.6c2.14-.51,4.2-1.39,6.33-2l.21-.06c.23-.06.16-.64-.12-.56l-1,.29a24.78,24.78,0,0,0-5.45,2C67.18,153.4,67.19,153.63,67.32,153.6Z"/><path class="cls-3" d="M48.23,143.39A6.42,6.42,0,0,0,50.5,147a7.17,7.17,0,0,0,5.32.62c2.94-.55,5.47-1.18,8.45-.71l.4.06c.29,0,.33-.53.09-.58-.56-.1-1.11-.18-1.66-.23a16.22,16.22,0,0,0-4.9.31c-2.26.48-4.75,1.31-7,.27-2.44-1.13-2.55-4.14-3.56-6.29a9.77,9.77,0,0,0-2-2.85,12.41,12.41,0,0,0-1.24-1c-.14-.11-.19.19-.1.27l.22.21A14.34,14.34,0,0,1,48.23,143.39Z"/><path class="cls-3" d="M51.84,145a5.72,5.72,0,0,0,3.45.05,27.39,27.39,0,0,1,5.41-.45l.65,0c.27,0,.26-.59,0-.61-.55,0-1.1,0-1.65,0a23.61,23.61,0,0,0-3.74.32c-1.68.3-3.26.83-4.64-.53s-1.58-3.36-2.7-4.91a5.2,5.2,0,0,0-1-1.06c-.17-.12-.22.23-.12.33l.4.42a13.91,13.91,0,0,1,2.39,4.58A3,3,0,0,0,51.84,145Z"/><path class="cls-3" d="M48.47,147.83c.41.54,1.28,1.15,2,.84.13-.06.11-.31,0-.37-.37-.17-.77-.18-1.13-.38a2.05,2.05,0,0,1-1-1.45,3,3,0,0,0-1-1.74c-.07-.06-.1.1-.05.14C48.09,145.69,47.77,146.92,48.47,147.83Z"/><path class="cls-3" d="M52.3,149.13c2.7.58,5.47-.61,8.19-.65.23,0,.21-.48,0-.5-2.73-.24-5.43.91-8.16,1C52.24,149,52.23,149.12,52.3,149.13Z"/><path class="cls-3" d="M59.61,149.18a18.25,18.25,0,0,0-5.13,1c-.07,0-.07.23,0,.22,1.72-.18,3.41-.51,5.12-.67C59.85,149.67,59.83,149.17,59.61,149.18Z"/><path class="cls-3" d="M60.17,150.82a13.56,13.56,0,0,0-3.81.32c-.13,0-.12.33,0,.31,1.27-.17,2.54-.11,3.81-.21C60.37,151.23,60.35,150.84,60.17,150.82Z"/><path class="cls-3" d="M60.42,152.63a13.3,13.3,0,0,0-2.94.5c-.12,0-.1.35,0,.33,1-.12,1.94-.19,2.92-.3C60.67,153.13,60.66,152.62,60.42,152.63Z"/><path class="cls-3" d="M62.79,161.8c.11-.07.1-.4-.07-.33-3.47,1.61-8.47,6.06-12.34,3.38a.2.2,0,0,0-.16,0c-.2.06-.26.51-.06.64a3.68,3.68,0,0,0,.45.28C54.55,167.9,59.61,163.92,62.79,161.8Z"/><path class="cls-3" d="M55.53,167.14c.11-.07.14-.42-.05-.4-.76.07-1.47.33-2.24.35s-1.46-.18-2.19-.16H51c-.08,0-.08.16,0,.2s.16.08.25.13A5,5,0,0,0,55.53,167.14Z"/><path class="cls-3" d="M64.8,160.28c.76-.31,1.48-.7,2.22-1s1.54-.59,2.26-1c.18-.1.15-.55-.1-.49A14,14,0,0,0,64.71,160C64.61,160,64.66,160.34,64.8,160.28Z"/><path class="cls-3" d="M212.62,32V32c0,.35.37.56.47.12a14.23,14.23,0,0,0,.28-2,12.23,12.23,0,0,0-3.19-9.32,9.55,9.55,0,0,0-1.7-1.39c-.11-.07-.17.05-.16.16a.2.2,0,0,0,.05.14C211.83,23.05,213.71,27.18,212.62,32Z"/><path class="cls-4" d="M43.06,135.75a1.09,1.09,0,0,0,.15-.47,1,1,0,0,0-.38-1q-1.34-.63-2.61-1.35c-.88-.49-1.73-1-2.55-1.58-5.13-3.49-9.18-8.28-10.8-14.48-.89-3.42-2.09-6.14-5.05-8.25-3.24-2.31-6.43-4.37-9.22-7.24a41.61,41.61,0,0,1-11-21.28,15.26,15.26,0,0,1-.38-2.84c0-2,1.3-2.86,3-3.39,2.34-.74,4.72-1.38,7.07-2.1C15.65,70.4,20,68.9,24.28,67.13A237.16,237.16,0,0,0,51.69,53c.2-.11.4-.22.59-.34a.51.51,0,0,0,.22-.32,1.1,1.1,0,0,0,0-.7c-.08-.18-.23-.28-.42-.17l-.46.25c-8.92,4.86-17.8,9.83-27.2,13.72a150.36,150.36,0,0,1-14.7,5.12C6.5,71.52,1,71.79.17,75.75-.51,79.16,1,83.41,2.09,86.6A43.33,43.33,0,0,0,7.66,97.5,42.9,42.9,0,0,0,16,106.41c1.69,1.33,3.52,2.41,5.27,3.65a10.86,10.86,0,0,1,4.34,6.56c1.14,4.19,2.53,7.63,5.48,10.91a35.7,35.7,0,0,0,11.46,8.35h0A.36.36,0,0,0,43.06,135.75Z"/><path class="cls-3" d="M204,86.93a.79.79,0,0,0-.23.54l.24-.09.12-.57Z"/><path class="cls-4" d="M232.81,45.23l-10-21.68c-.16-.37-.54-.52-.8-.14a72.12,72.12,0,0,1-9.61,11.38c-.47.45-.94.9-1.42,1.34l0,0-.61.54-.57.51-.44.38c-.61.52-1.22,1-1.84,1.53l-.67.52-1.39,1.06L205,41c-.66.48-1.33,1-2,1.41l-.34.23a70.15,70.15,0,0,1-7.84,4.55l-.68.34-.64.31c-2.76,1.3-5.61,2.41-8.46,3.51l-.54.21c-3,1.17-6.09,2.36-9,3.75l-.56.26-.25.11c-.52.26-1,.53-1.53.8-.26.13-.53.26-.78.4a103.38,103.38,0,0,0-14.3,9.93l-3.31,2.66c-.2.16-.4.32-.59.49q-2.22,1.8-4.34,3.69l-1,.88c-1.43,1.31-2.81,2.66-4.11,4.07-.26.29-.52.57-.77.86a44.57,44.57,0,0,0-4.75,6.38c-.24.4-.48.79-.7,1.2s-.41.75-.61,1.13c-.05.09-.09.18-.13.27a34.6,34.6,0,0,0-2.35,6c-.87,3-1.54,6-2.3,9.07l-.09.35c-.1.39-.2.79-.31,1.18l-.09.34c-.15.55-.3,1.09-.46,1.64-.09.27-.17.55-.25.82-.18.56-.36,1.12-.56,1.68q-.18.54-.39,1.08c-.2.54-.42,1.08-.65,1.62-.45,1.06-1,2.1-1.49,3.13-.18.35-.35.71-.54,1.06s-.48.86-.73,1.29l-.33.57c-.59,1-1.23,2-1.89,2.94l-.41.61c-.48.68-1,1.35-1.48,2-.29.38-.59.75-.89,1.12l-.63.77c-.18.22-.37.44-.56.65s-.47.56-.71.83-.51.55-.77.83-.51.56-.77.83l-1.26,1.26-.75.73c-.6.57-1.2,1.12-1.82,1.66l-.18.16q-.78.69-1.59,1.35l-.55.44c-.54.44-1.09.86-1.64,1.28l-.72.54L109,137.42l-1.28.88-1.48,1-1.32.82c-.53.33-1.07.66-1.62,1l-1.58.91-2.08,1.15c-3.43,1.84-7,3.51-10.56,5.09-.13.06-.12.34,0,.38a.06.06,0,0,0,.06,0c1.65-.46,3.29-1,4.9-1.59l-1.14.09c-.12,0-.12-.25,0-.27,1-.22,2-.4,3.07-.57A66.93,66.93,0,0,0,114.32,135h0a66.17,66.17,0,0,0,9.11-9.6c.18-.22.35-.45.52-.68a61.71,61.71,0,0,0,5-7.89c.14-.25.27-.51.4-.77a55.66,55.66,0,0,0,4.71-12.42c1.4-5.68,2.6-11.25,5.35-16.31v0a28.69,28.69,0,0,1,2-3.24c3.83-5.26,8.92-9.45,14-13.49,5.51-4.41,11-8.93,17.28-12.3s12.84-5.34,19.21-8.13a71.87,71.87,0,0,0,18.64-11.9l.44-.38a73.44,73.44,0,0,0,11.26-12.73l8.28,18q1.05,2.3,2.11,4.59c.69,1.51,1.92,3.31,2.26,4.93,0,1.17-.05,2.34-.07,3.51-.34.45-.7.89-1.08,1.31s-.94,1.06-1.41,1.58q-1.64,1.83-3.29,3.64a311.39,311.39,0,0,1-23.75,23.06c-.22.65-.46,1.3-.7,2a.69.69,0,0,1-.16.7l-.16.1a.55.55,0,0,0,.26-.12,324.08,324.08,0,0,0,28.35-28c1.61-1.81,3.68-3.55,3.5-6.18C236.25,51.16,234.06,48,232.81,45.23Z"/><path class="cls-4" d="M169.66,103.3c1.53-.63,3.05-1.26,4.57-1.91a36.9,36.9,0,0,0,5.46-5.78c5.75-7.76,6.85-17.91,10.63-26.61.24-.54-.45-1.75-.84-1-3.6,7.47-4.56,16-8.58,23.27-4.24,7.66-12,11.89-18.42,17.52s-11.34,12.49-16.1,19.68c-2.46,3.72-5.22,7.24-9.13,9.53-3.74,2.21-8,3.36-12.2,4.37-9.56,2.29-19.45,2.22-29.11,3.84-1,.17-2,.35-3.07.57-.12,0-.12.28,0,.27L94,147c9.47-.76,19-.62,28.38-2.44,8.16-1.58,16.19-4,21.65-10.63,2.76-3.36,4.86-7.19,7.37-10.74a74.61,74.61,0,0,1,9.29-10.79c3.29-3.17,7.12-5.83,10.73-8.7-.56.14-1.11.27-1.68.39C169.42,104.16,169.39,103.41,169.66,103.3Z"/><path class="cls-4" d="M204.67,87.69l-.08.2c-.21.55-.67,0-.59-.36l0-.15-.24.09a78.69,78.69,0,0,0-8.35,4l-8.7,4.24c-4.14,2-8.29,3.91-12.51,5.71-1.52.65-3,1.28-4.57,1.91-.27.11-.24.86.09.8.57-.12,1.12-.25,1.68-.39,5.45-1.41,10.58-4.23,15.6-6.64,3-1.46,6.08-2.94,9.12-4.41a63.14,63.14,0,0,0,8.2-4.17l.16-.1A.69.69,0,0,0,204.67,87.69Z"/><path class="cls-4" d="M212.68,59.69c.09-.47-.46-1.1-.72-.43-.53,1.38-1,2.79-1.42,4.21.07.39.14.79.2,1.17.11.66-.44,1.19-.77.8-.77,2.74-1.45,5.53-2.22,8.23-1.23,4.35-2.69,8.71-3.6,13.14l-.12.57,0,.15c-.08.39.38.91.59.36l.08-.2c.24-.65.48-1.3.7-2,1.36-4,2.34-8.18,3.49-12.22C210.16,69,211.77,64.36,212.68,59.69Z"/><path class="cls-4" d="M210.74,64.64c-.06-.38-.13-.78-.2-1.17a53.39,53.39,0,0,0-3.74-12.68c-.23-.5-.61,0-.53.36,1,4.65,2.33,9.31,3.52,13.92a.85.85,0,0,0,.18.37C210.3,65.83,210.85,65.3,210.74,64.64Z"/><path class="cls-4" d="M218,40.86a15.82,15.82,0,0,0,.8-4.66,28,28,0,0,0,.34-4.74c0-.18-.25-.4-.33-.13a44.43,44.43,0,0,0-.76,4.57,23.13,23.13,0,0,0-.66,4.72C217.41,41,217.79,41.33,218,40.86Z"/><path class="cls-4" d="M221,40.76a17.44,17.44,0,0,0-.07-3.82c-.06-1.44-.1-2.87-.11-4.31,0-.39-.48-.56-.51-.09-.19,2.6-.74,5.85.09,8.36C220.54,41.33,220.94,41.09,221,40.76Z"/><path class="cls-4" d="M167,82c0,.78,1,1,1,0a84.61,84.61,0,0,0-.25-11.15c0-.33-.39-.29-.44,0A65.07,65.07,0,0,0,167,82Z"/><path class="cls-4" d="M170,82.91c.62-3.33-.12-7.3-.27-10.67,0-.6-.65-.59-.64,0,0,3.38-.53,7.39.25,10.68C169.47,83.4,169.94,83.39,170,82.91Z"/><path class="cls-4" d="M9.37,85.33,10,86c1.55,1.67,3.28,4,5.34,5.06.36.18.36-.55.25-.71-1.27-1.9-3.36-3.39-5-5a.94.94,0,0,0-.1-.1A1.58,1.58,0,0,1,9.37,85.33Z"/><path class="cls-4" d="M9,84.47l.54-.13C8.1,82.9,6.73,81.4,5.21,80.08c-.13-.11-.17.17-.12.25a42.35,42.35,0,0,0,3.7,4.37A.27.27,0,0,1,9,84.47Z"/><path class="cls-4" d="M16.08,83.75c1.89-.27,4.38.11,5.53-1.74.21-.32,0-1.28-.49-.91-1.8,1.31-4.14,1-6.25,1.43-1.85.4-3.54,1.36-5.34,1.81L9,84.47a.27.27,0,0,0-.2.23.36.36,0,0,0,.1.39,2.38,2.38,0,0,0,.48.24,1.58,1.58,0,0,0,1.11,0l.41-.12A30.62,30.62,0,0,1,16.08,83.75Z"/><path class="cls-4" d="M27.53,110.08c0-.3.11-.61.18-.91a37.17,37.17,0,0,0-7.4-7.83c-.33-.26-.43.45-.23.65a79.52,79.52,0,0,1,7.31,8.66c.43.58.81-.17.74-.73a4.43,4.43,0,0,1-.29.42C27.67,110.58,27.5,110.25,27.53,110.08Z"/><path class="cls-4" d="M30.66,104.63c0,.12,0,.24,0,.36.62-1,1.28-2,2-3a13.72,13.72,0,0,1,0-1.56c0-.11.09-.15.18-.22.24-.18.46,0,.57.22a1.07,1.07,0,0,1,.07.19c0-.42-.29-.92-.58-.58-2,2.47-4.37,5.86-5.14,9.13-.07.3-.14.61-.18.91s.14.5.31.26a4.43,4.43,0,0,0,.29-.42c.81-1.26,1.33-2.74,2.05-4.07a7.26,7.26,0,0,1,.21-1.32C30.45,104.3,30.65,104.48,30.66,104.63Z"/><path class="cls-4" d="M32.79,100.21c-.09.07-.18.11-.18.22a13.72,13.72,0,0,0,0,1.56,34.7,34.7,0,0,0,.49,3.48,15,15,0,0,0,1.8,5.16c.4.66.77-.41.64-.79a27.66,27.66,0,0,1-1.69-5.7,14.7,14.7,0,0,0-.46-3.52,1.07,1.07,0,0,0-.07-.19C33.25,100.18,33,100,32.79,100.21Z"/><path class="cls-4" d="M31.38,109.2a13.47,13.47,0,0,1-.7-4.21c0-.12,0-.24,0-.36s-.21-.33-.27-.1a7.26,7.26,0,0,0-.21,1.32,9.77,9.77,0,0,0,.44,3.56c.37,1.23,1.06,3.22,2.35,3.73.26.1.28-.33.23-.47C32.76,111.44,31.85,110.44,31.38,109.2Z"/><path class="cls-4" d="M24.84,72a12.7,12.7,0,0,0,3.08-.64,11.91,11.91,0,0,0,3.45-1.05c.23-.14.27-.75-.09-.76a9.71,9.71,0,0,0-3.08.82,15.67,15.67,0,0,0-3.41,1.26C24.68,71.73,24.66,72,24.84,72Z"/><path class="cls-4" d="M35.79,68a24.07,24.07,0,0,0,5.43-2.9,15,15,0,0,0,4.14-3c.12-.15.09-.77-.21-.71-1.73.38-3.31,1.87-4.78,2.83a37.07,37.07,0,0,0-4.76,3.26C35.45,67.57,35.5,68.08,35.79,68Z"/></g></g></svg>