<svg xmlns="http://www.w3.org/2000/svg" xmlns:xlink="http://www.w3.org/1999/xlink" width="63" height="3" viewBox="0 0 63 3"><defs><clipPath id="a"><rect width="63" height="3" fill="none"/></clipPath></defs><g clip-path="url(#a)"><g transform="translate(-24 -507)"><circle cx="1.5" cy="1.5" r="1.5" transform="translate(24 507)" fill="#725b53"/></g><g transform="translate(-20 -507)"><circle cx="1.5" cy="1.5" r="1.5" transform="translate(24 507)" fill="#725b53"/></g><g transform="translate(-16 -507)"><circle cx="1.5" cy="1.5" r="1.5" transform="translate(24 507)" fill="#725b53"/></g><g transform="translate(-12 -507)"><circle cx="1.5" cy="1.5" r="1.5" transform="translate(24 507)" fill="#725b53"/></g><g transform="translate(-8 -507)"><circle cx="1.5" cy="1.5" r="1.5" transform="translate(24 507)" fill="#725b53"/></g><g transform="translate(-4 -507)"><circle cx="1.5" cy="1.5" r="1.5" transform="translate(24 507)" fill="#725b53"/></g><g transform="translate(0 -507)"><circle cx="1.5" cy="1.5" r="1.5" transform="translate(24 507)" fill="#725b53"/></g><g transform="translate(4 -507)"><circle cx="1.5" cy="1.5" r="1.5" transform="translate(24 507)" fill="#725b53"/></g><g transform="translate(8 -507)"><circle cx="1.5" cy="1.5" r="1.5" transform="translate(24 507)" fill="#725b53"/></g><g transform="translate(12 -507)"><circle cx="1.5" cy="1.5" r="1.5" transform="translate(24 507)" fill="#725b53"/></g><g transform="translate(16 -507)"><circle cx="1.5" cy="1.5" r="1.5" transform="translate(24 507)" fill="#725b53"/></g><g transform="translate(20 -507)"><circle cx="1.5" cy="1.5" r="1.5" transform="translate(24 507)" fill="#725b53"/></g><g transform="translate(24 -507)"><circle cx="1.5" cy="1.5" r="1.5" transform="translate(24 507)" fill="#725b53"/></g><g transform="translate(28 -507)"><circle cx="1.5" cy="1.5" r="1.5" transform="translate(24 507)" fill="#725b53"/></g><g transform="translate(32 -507)"><circle cx="1.5" cy="1.5" r="1.5" transform="translate(24 507)" fill="#725b53"/></g><g transform="translate(36 -507)"><circle cx="1.5" cy="1.5" r="1.5" transform="translate(24 507)" fill="#725b53"/></g></g></svg>