<svg xmlns="http://www.w3.org/2000/svg" viewBox="0 0 130.8 128.39"><defs><style>.cls-1{fill:#7ea258;}.cls-2{fill:#dab890;}.cls-3{fill:#8c6957;}.cls-4{fill:#fff;}.cls-5{fill:#ffcd27;}.cls-6{fill:#75421b;}.cls-7{fill:#a2812f;}.cls-8{fill:#455c37;}</style></defs><g id="レイヤー_2" data-name="レイヤー 2"><g id="Layer_1" data-name="Layer 1"><g id="eggToast"><path class="cls-1" d="M14.31,55c-.46,3.6-1,6.8,1.19,9.86.39.55,1.62,1.58,2.47,2.54a1.13,1.13,0,0,0-.24.49,1.2,1.2,0,0,0,.76,1.32,1.17,1.17,0,0,0,.51.4c.23,1.68-.15,3.07,2.53,1.87a20.2,20.2,0,0,1-.5-2.9,2.3,2.3,0,0,1-.43.12,1,1,0,0,0-.05-.54c-.05-.14-.11-.27-.16-.4a2.55,2.55,0,0,0,.56-.23c0-.9,0-1.8,0-2.7a.12.12,0,0,0-.05,0,1.52,1.52,0,0,0,.21-1.56c.07-.57.14-1.14.25-1.71a53.7,53.7,0,0,1,3.86-12.67,5.42,5.42,0,0,0,1.46-1.6c.57-.84,1.59-2.39,1.32-3.51a2.14,2.14,0,0,1,.13-.19H28a2.3,2.3,0,0,0-1-1c.57.12,1.16.21,1.65.32.63-.87,1.3-1.71,2-2.51a4,4,0,0,0,.86-.48,14.24,14.24,0,0,0,2.24-1.76,2.7,2.7,0,0,0,.57-1.32l0,.1c.4-.3.81-.59,1.23-.86.77.4,1.9-.14,1.77-1.06.5-.28,1-.56,1.51-.82a1.19,1.19,0,0,0,1.67.43l2.93-1.82a1,1,0,0,0,.52-.9l2.31-.51L48,31c.35-.08.93-.34,1.4-.46a1.07,1.07,0,0,0,.68.08h.09a1.22,1.22,0,0,0,1.08-1.26v0a2.66,2.66,0,0,0,.37.07,1.85,1.85,0,0,0,1.05-.29,7.57,7.57,0,0,1,2.19-.8.41.41,0,0,0,.32-.5l.81-.28a10.2,10.2,0,0,0,6.13-1.9c2-.57,4-1.08,6.08-1.5A4.16,4.16,0,0,1,68,22.69c-2-.23-3.79,1-5.56,2.33a.43.43,0,0,0-.7-.2C59.92,26.63,56,26.9,53.48,26.6a.35.35,0,0,0-.29.08,10.49,10.49,0,0,0-2.11-.4c-7.92-.61-14.91-3.74-22.6.28a5.58,5.58,0,0,0-3.36,4.37c.23,1,.37,2,.69,2.94a12.4,12.4,0,0,1,1,3.09c0,1-.78,1.45-1.37,2.2a5.14,5.14,0,0,0-.69,1.14,1.3,1.3,0,0,0-1.08-.67c.57-.92,1.81-1.29,2.24-2.32.36-.84-.58-2.47-.83-3.31a8.63,8.63,0,0,1-.2-.88,1.52,1.52,0,0,1-.13.35,1.86,1.86,0,0,1-.81.83,3.42,3.42,0,0,1,.15,1.32c-.07.6-.53,1.58-1.22,1.64-.16,0-.26-.35-.18-.46a3.36,3.36,0,0,0,.83-1.38,1.75,1.75,0,0,0-.08-.89l-.63.24c-.78.3-1.68.26-2.46.58-1.13.47-2,1.54-3.06,2.08a7.34,7.34,0,0,1-2.42.71c-1.48.24-2.78,0-3.95,1.17-.35.35-1.59,2.13-1.42,2.74.39,1.43,1.43-.69,1.2-.48.1-.09.23-.47.29-.52a5.31,5.31,0,0,1,3-1.47c.43-.08.56.82.5,1.08-.72,3.47-.17,6.81,0,10.23a2.18,2.18,0,0,1,.34-.63c.4-.54,1.09-.76,1.51-1.27.22-.27.4-1.16.7-1.47a2.13,2.13,0,0,1,2.1-.52c1.08.11,1.66.44,2.7-.13a3.9,3.9,0,0,0,.54-.36,1.87,1.87,0,0,0,.26,1.11,4.85,4.85,0,0,1-.4.28c-1.13.63-1.75.22-2.91.06-1.51-.21-1.59.72-2.38,1.64s-2.31,1.33-2.41,2.46c0,0,0,0,0,0A24.19,24.19,0,0,1,14.31,55ZM25,45.66l-.47-.12a.33.33,0,0,1,0,.15,4.64,4.64,0,0,0-.24-.93l-.06-.08a6.31,6.31,0,0,0,1.3,0A5.52,5.52,0,0,1,25,45.66Zm-2.67-1.81a2.86,2.86,0,0,0,.66.47,1.14,1.14,0,0,0-.3.18,4.4,4.4,0,0,1-.39-.35C22.25,44.07,22.19,43.71,22.35,43.85Zm-.52-4.94c-.22.43-.59.7-.76,1.17a1.77,1.77,0,0,0,.15,1.6c.06.09.09.54-.07.34a3.06,3.06,0,0,1-.65-2c0-.59.31-1.82,1-1.88C21.82,38.16,21.93,38.73,21.83,38.91Zm9.28-3.46a3.2,3.2,0,0,1,.88.73,1.44,1.44,0,0,1-.32.4,4,4,0,0,0-1.93-1,7.49,7.49,0,0,1-1.81-.7,2.71,2.71,0,0,1,.55,1.59A8.3,8.3,0,0,1,28,38.59l-.09,0a1.16,1.16,0,0,0-.61.24c.18-.54.36-1.08.51-1.63.39-1.37-.43-2.29-1.12-3.41-.1-.16-.12-.68.12-.36l.51.65C28.36,34.87,30,34.84,31.11,35.45Zm-.17-7.08c-.69.5-1.58.55-2.29,1.05a2.45,2.45,0,0,0-1.11,1.95c0,.31-.28-.11-.3-.21-.36-1.86,1.69-3.58,3.48-3.44C30.89,27.74,31.08,28.27,30.94,28.37Zm2.72-1.15-.46.28c-.14.08-.39-.52-.19-.59l.49-.17C33.66,26.7,33.78,27.14,33.66,27.22Zm18.58,1.07-.05,0c.12,0,.23,0,.35-.06l-.06,0A2.1,2.1,0,0,1,52.24,28.29ZM36.63,31.48c-1.48.36-2.36-1.58-1.74-2.77,0,0,0-.06.07-.05h.11c0-.77.23-1.3,1.49-1.44a19.39,19.39,0,0,1,3.12.25,8.18,8.18,0,0,0,2.75-.14c.37-.1.69-.29,1.06-.37l0,0,1.8,1.09a12.32,12.32,0,0,1,1.31.79l-.18,0a3.81,3.81,0,0,0-2-1,18.42,18.42,0,0,0-2.83.27c-1.13,0-2.26-.08-3.39-.07-1.5,0-2.24.16-2.88,1.45.27,1,.72,1.29,1.36.84l.39-.19a1.78,1.78,0,0,1,.85-.17,5.72,5.72,0,0,1,2.14,1.28l.61.41-.66.41c-.28-.2-.55-.39-.83-.57C38,30.82,37.73,31.22,36.63,31.48ZM16.2,62.16a5.06,5.06,0,0,1-.69-2.22c0-.13.09,0,.1,0,.37,1.71,1.67,2.8,2.19,4.41A14,14,0,0,0,18.73,67a1.13,1.13,0,0,0-.75.41,2.31,2.31,0,0,1-.22-.51,12.31,12.31,0,0,1-.18-1.44A10.85,10.85,0,0,0,16.2,62.16Zm-1.72-4.6A2.68,2.68,0,0,1,19,54.83a3.46,3.46,0,0,1,1.15,2.75c-.1.63-.64.88-.86,1.43s.15,1,0,1.56c-.05.13-.17-.16-.17-.22.06-.54-.38-1-.34-1.56s.49-.8.72-1.31c.71-1.63-1.5-2.75-2.69-2.51a2.36,2.36,0,0,0-1.83,2.69C15,58.15,14.56,57.83,14.48,57.56Z"/><path class="cls-1" d="M101.4,23.86c1.12,0,4.28-.12,5-1.05.6-.74.2-.93.07-1.86,0-.3-.5-.5-.54-.78-.55-3.56,1.57-2.58,2.79-2a18.69,18.69,0,0,1,2,1.28c.39.27.78.56,1.15.86l-.81,2.44c-.21.1-1-.18-1.36-.15a7.41,7.41,0,0,0-2.16,1l-.76.33a.37.37,0,0,1-.24.35,9.27,9.27,0,0,1-2.88.94,17.69,17.69,0,0,1-3.06-.4.36.36,0,0,1-.3-.45c-1-.22-2-.44-3.07-.62C98.48,23.42,100.37,23.91,101.4,23.86Z"/><path class="cls-1" d="M100.79,19.67c-1.27.26-1.11-1.77-1.21-2.67a9.45,9.45,0,0,0-.16-1.22,11.6,11.6,0,0,0,1.57.9C101.71,17.61,102.46,19.34,100.79,19.67Z"/><path class="cls-1" d="M107.94,98.81a2,2,0,0,1,.45,2.63,5.83,5.83,0,0,1-2,1.76c-.87.59-2.19.42-.88,1.33,1.5,1,4.79-.69,6.23-1.52a8.24,8.24,0,0,0,1.85-1.57l.26-.07c.76-.3,1.1-1,1.84-1.34a6.39,6.39,0,0,0,2.09-1.3l.09-.12a7,7,0,0,0,2.41-2.46c1.43-2.16,1-4,.72-6.47-.12-1.07-.61-1.38-.35-2.54s2.07-2.89.29-2.93c-1.49,0-2.44.81-3.84.67A4.6,4.6,0,0,1,117,90.1c-.86,1.48-1.94,6.53-4.66,5.49-2.2-.85-.11-3.83-1.31-5.13-.62-.67-1.62-.74-2.13-1.6-.62-1.06-.58-2.47-.8-3.7,0-.07.09-.14.15-.21.61,1.58.66,3.28,2.07,4.35.67.51,1.24.71,1.55,1.54.23.62,0,1,.1,1.58a21.84,21.84,0,0,0,1.09,2.3c.4.1,1.2-.8,1.43-1.09.79-1,1-2.42,1.48-3.53.8-1.7,2.12-2.47.69-5a1.1,1.1,0,0,1-.1-.36,2.44,2.44,0,0,1-.32-.11,3.65,3.65,0,0,1-1.41-.8,3.14,3.14,0,0,1-1.36,2.34c-.81.53-1.49.53-1.88-.37-.33-.74-.79-2.32-.14-3,.39-.42,1.08-.55,1.52-1a3.2,3.2,0,0,0,.95-2.47c0-.49.24-.29.42,0a19,19,0,0,0-2.31-7,7.16,7.16,0,0,1,0,2.65c-.46,1.81-2.18,3.18-1.95,5.17,0,.16-.12.05-.14,0a4.6,4.6,0,0,1,.4-3.38,8.45,8.45,0,0,0,1.17-3,16.76,16.76,0,0,0-.18-2.82c-.29-.63-.58-1.28-.83-2,0-.11-.07-.21-.1-.32,0,1.22.39,2.44.5,3.66,0,.37.26.72.18,1.09-.2,1.09-1,1.23-1.7.61A5.56,5.56,0,0,1,108.09,71c-.58-3.65,1-6.66-1.33-10a1.1,1.1,0,0,0,.44-.44,11.55,11.55,0,0,1,1.54,7.27c-.06.61-.1,1.22-.13,1.83,1.34,2.29,1.81,3,1.43,2,0-.18-.48-1.56-.5-1.72a5,5,0,0,1,.47-3.1c-.16-3.1,1.35-6.15.44-9.13a7.68,7.68,0,0,1-1.62,1c-.52.24-1.06.45-1.59.68a1,1,0,0,0-1.09-.56l-.25.05a7.53,7.53,0,0,1,1.45-.87c1.72-.82,5.37-2.8,5.27-5.32.27-.31.87-.12,1.21-.16a1.85,1.85,0,0,0,1.49-1.79.34.34,0,0,1,0-.1,1.09,1.09,0,0,0-.08-1.16,1.28,1.28,0,0,0-1.25-.48,1.17,1.17,0,0,0-1,.41,2.23,2.23,0,0,0-.4.8h-.12a3.2,3.2,0,0,0-1,.42,3.06,3.06,0,0,0-1.27,1.83.94.94,0,0,0,.44,1.15c-2.36,1.59-4.62,3.3-5.89,5.59a1,1,0,0,0-1.19.64,10.94,10.94,0,0,0-.3,7.46c.14.55.26,1.11.39,1.67.16,1.8.44,3.59.67,5.39a1.12,1.12,0,0,0,.6.87L105.8,80a2,2,0,0,0,.07.26q0,2.12-.12,4.23a9.06,9.06,0,0,0-.68,2.64,49.43,49.43,0,0,1-1.62,6.64c-.32,1.16,1.1,1.66,1.88,1.07a10.74,10.74,0,0,0,1.1-.15,8.42,8.42,0,0,1-.61-.73c.07-.23.13-.46.2-.69a10,10,0,0,0,1.26,1.35h.12a3.12,3.12,0,0,1,2.17,1.25c.8,1,2.07,3.24,1.35,4.53,0,.08-.13-.18-.12-.22a4.17,4.17,0,0,0-2.86-4.4s0,0-.1,0h0a2.83,2.83,0,0,0-.58,0,1.69,1.69,0,0,0-.31-.13,10.68,10.68,0,0,0-3.37-.37,1.15,1.15,0,0,0-.73,2,6.63,6.63,0,0,1-1.48,1.78,8,8,0,0,1-2.6,1.36h0a11.08,11.08,0,0,1-.37,2.81C100.79,102.38,105.17,96.59,107.94,98.81Zm.11-19.49c-.31-1.67-.6-3.34-.91-5l0,0C107.94,75.94,107.88,77.65,108.05,79.32Zm-2.14-13.46a2.77,2.77,0,0,1,0,.33c0-.14,0-.28,0-.44C105.9,65.79,105.91,65.83,105.91,65.86Zm3.19,18a1.26,1.26,0,0,0-.82-1.35,5.25,5.25,0,0,1-.86-1.56.93.93,0,0,0,.73-.84,6.38,6.38,0,0,0,1.08,2.82c.08.1.3.67.06.73Z"/><path class="cls-1" d="M35.71,120.62a40.17,40.17,0,0,1,6.47-2.13,11.79,11.79,0,0,0,3-1.08c1.88-1.38.23.07.66-1.52s.19-2.49,1.3-2.63a11.79,11.79,0,0,1-1.46-1.71s-.07-.32,0-.2a10.28,10.28,0,0,0,2.32,2l.25,0c.06,0,.11.07.16.14a3,3,0,0,0,1.32.2c1.51-.11,2.5-1.27,3.31-2.44l-.95-.91c-.09-.08-.18-.6,0-.46,1.07.77,2,1.84,3.06,2.56,2.39,1.57,3-.24,4.67-1.46a2.64,2.64,0,0,1,1.6-.52c1.91-.2,3.09-.22,4.53-1.41a9.69,9.69,0,0,1-1.87-1.28l.24-.08a1.07,1.07,0,0,0,.38-.24,14.11,14.11,0,0,0,7,2.4c.49,0,1.06.15,1.67.26a.15.15,0,0,1,.06-.13,14.23,14.23,0,0,0,2.79-1.63c.36-.33.67-.75,1.05-1a6.74,6.74,0,0,0-1.06.13,12.09,12.09,0,0,1-1.73.39,6.19,6.19,0,0,1-2.74-.54,5.58,5.58,0,0,1-1.06-.63,1.18,1.18,0,0,0,.16-.38.74.74,0,0,0,0-.21,6.9,6.9,0,0,0,5,.41,3.36,3.36,0,0,1,2.08,0,15.25,15.25,0,0,0,3.32.26c.27,0,.51.93.25,1a9.53,9.53,0,0,1-2.77.07l-.25-.06a.23.23,0,0,1-.07.1c-1.19.73-2.24,2.1-3.6,2.56,2.71.46,5.77.67,6.73-1.93,0-.08.08-.09.16-.05,1.24.63,3,0,4.32-.18,1-.15,2.2.1,3.23-.33.39-.16.49-.66,1-.74,1.2-.22,2.45.38,3.73-.07,2.12-.74,3.42-2.93,3.94-5.1,1.07-.33.79-2.24-.56-2.28a8.91,8.91,0,0,0-3.79,1.2,1.07,1.07,0,0,0-.33-.12,10.41,10.41,0,0,0-4.74.3l-.23.1c-4.29.38-8.57,1.26-12.8,1.93a1.23,1.23,0,0,0-1,1.46l-2.09.3-2,.25a1,1,0,0,0-.47-.21,3.1,3.1,0,0,0-2,.4.61.61,0,0,0-.16.12l-2.93.33a1.33,1.33,0,0,0-.28-.3,1.12,1.12,0,0,0-1.67.25,13,13,0,0,1-1.52.37,1.55,1.55,0,0,0-.23.07H61c-1.49.14-3.06.37-4.62.5a.93.93,0,0,0-.24,0c-1.32-.14-2.65-.3-4-.42a2.17,2.17,0,0,0-1,.15c-2.32-.77-3.53-2.65-4.52-4.79a1.24,1.24,0,0,0,0-.38,8.48,8.48,0,0,1-.38-2.24,1,1,0,0,0-.9-1v0c-.65-1.42-1.94-3.39-3.23-3.22-1,.14-1.76,1.34-3,1.36a5.56,5.56,0,0,0-.53-1.13,1.34,1.34,0,0,0-1.86-.35c-.32-.41-.6-.85-.84-1.22-1.68-2.72-3-5.36-5.1-7.8-1.72-2-3.54-3.92-5.15-6,0,.2.07.39.09.59.09.85-.18,1.71-.13,2.52.17,2.3,1.3,2.54,2.88,3.67a11.12,11.12,0,0,1,3.4,4c.4.95.18,4.91,1,4.89.39,0,.56.76.41,1,.52,1.61,1.43,2.44,2.73,2.5a3.45,3.45,0,0,1,.79-.62,2.71,2.71,0,0,1,.44-.23,1.19,1.19,0,0,0,1.08,1c-.53.49-.73-.36-.83,1.2s.47.86,1.12,1.85a2,2,0,0,1,.33,1.48c-.32,1.11-1.3.55-.58,1.78a1.94,1.94,0,0,0,1.85.87l.31-.16c.08,0,.14,0,.18.16.36,0,.72,0,1.07,0a1.38,1.38,0,0,1,0-.5,2,2,0,0,1,.34-.94c.56-.89,1.06-1.22.69-2.38a2.38,2.38,0,0,1-.09-2.08,1.7,1.7,0,0,1,1.24-.92c0,.34,0,.68.1,1a1,1,0,0,0-.2.07c-1.43.64-.27,2-.2,3a1.78,1.78,0,0,1-.38,1.24c-.27.39-.89.79-1,1.28s.82,1.53,1.14,2.06c.11.18.12.77-.13.4a11.71,11.71,0,0,1-1.38-1.85,3.66,3.66,0,0,1-1.94.68,3.26,3.26,0,0,0-.26.37,6,6,0,0,0-.58,3.5,6.18,6.18,0,0,1,.05,1.92C38.66,115.37,37,118.22,35.71,120.62ZM85,106.32c1.14-.47,2.47-1.34,3.69-1.42s2.4.32,3.65-.33c.21-.11.4.56.28.69-.88,1-2.08.59-3.24.55-1.55-.06-2.73.88-4.33.71C85,106.52,85,106.34,85,106.32Zm-15.81,1.59a6.06,6.06,0,0,1,1.23.28,13.36,13.36,0,0,1,1.41.23c.14,0,.37.56.17.61a3.06,3.06,0,0,1-1.37-.15,3.61,3.61,0,0,1-1.34-.49C69.27,108.34,69.07,107.92,69.23,107.91Zm-4.45-.56a1.3,1.3,0,0,0,.28-.66c.55.33,1.13.58,1.69.87.14.07.36.73.1.7A5,5,0,0,1,64.78,107.35Zm-9.16,2.23a20.31,20.31,0,0,0,2.35.2,13.77,13.77,0,0,0,2.21-.46c.18,0,.35.46.23.56a4.09,4.09,0,0,1-4.75.06S55.47,109.58,55.62,109.58Zm-2.35-1,.41,0,.49,0c.08.17.19.57,0,.5A3,3,0,0,1,53.27,108.63ZM47,110.42a3.69,3.69,0,0,1,.7.61,3.74,3.74,0,0,0,.95.63,2.5,2.5,0,0,0,1,.21,8.71,8.71,0,0,0,1-.22c.31,0,.51.68.36.89-.48.63-1.54.4-2.14.11a5,5,0,0,1-2-1.82C46.93,110.76,46.79,110.32,47,110.42Zm-2.85-4.07c0-.15.05-.31.18-.12a21.19,21.19,0,0,1,1.18,2.21c.07.13.09.79-.16.47A5.87,5.87,0,0,1,44.16,106.35Z"/><path class="cls-1" d="M114.47,83.47a3.13,3.13,0,0,1-1.68,2,1.43,1.43,0,0,1-.73.17,1.48,1.48,0,0,1,0-1.87,9.48,9.48,0,0,1,.84-.44,3.61,3.61,0,0,0,1.28-1.67,3.78,3.78,0,0,0,.24,1.82Z"/><path class="cls-1" d="M105.87,25.83l-1.29-.38c.44-.1.88-.23,1.31-.37a.93.93,0,0,1,1.25-.66l.3.09c.58-.22,1.17-.44,1.82-.66,1.27-.42,3.4.71,4.17-.88,1.24-2.54-3.6-5.07-5.1-5.74-2.13-1-4.38-.24-3.49,2.32.09.26.38.46.49.71.63,1.51.83,1.48-.4,2.16-1.39.77-3.93.65-5.41.56l-.37,0a.56.56,0,0,1-.22.21,4.17,4.17,0,0,1-.91.28l-1.08.3a.38.38,0,0,1-.45-.19.35.35,0,0,0,0,.08c-1.22-.21-2.45-.38-3.68-.53a8.43,8.43,0,0,1,.55-.78c.76-1,1.52-1.93,2.21-2.95.1-.14-.09-.74-.27-.58a19.39,19.39,0,0,0-3,3.21,3.1,3.1,0,0,0-.44,1l-2-.19c.06.45-.62.68-.74.21a2.68,2.68,0,0,0-.07-.27,77.59,77.59,0,0,0-11.1,0A19.32,19.32,0,0,1,83,20.28c2.62-.63,5-.92,7.35-2.32a22.32,22.32,0,0,0,1.88-1.33c.36,1.14-.89,1.64-1.81,2.24a6.51,6.51,0,0,0-2,1.53,1.72,1.72,0,0,0-.2,1.4,1.77,1.77,0,0,0,.73.91c-.06-.25-.13-.5-.19-.75a.43.43,0,0,1,0-.32c.06-.9,2.07-1.81,2.69-2.2s1.5-.8,1.56-1.7a2.93,2.93,0,0,0-.36-1.44A11.83,11.83,0,0,1,94,15.45a.07.07,0,0,0,.1,0c.34-.39.83.36,1,.61a2.09,2.09,0,0,1,.21,1c0,.11.06.34.2.37l.07,0a.17.17,0,0,0,.1,0,2.05,2.05,0,0,0-.44-2,3.48,3.48,0,0,0-.34-.41,4.77,4.77,0,0,1,1.25-.31,4.15,4.15,0,0,1,2.35.51,1.53,1.53,0,0,1,.25.82,2.27,2.27,0,0,1,.36,1.51,5.52,5.52,0,0,0,.16,1.34,2.08,2.08,0,0,0,1.52,1.58c1.06.13,1.6-1,1.58-1.86a3.51,3.51,0,0,0-.54-1.68,3.64,3.64,0,0,0,.59.09c2.18.12,3.56-1.51,5.45-2.16,2.31-.79,1.36-.37,2.43,1.36a8.08,8.08,0,0,0,3.6,2.77c.49.55,1,1.1,1.44,1.67a2.4,2.4,0,0,1,.81,2c.5.73.45,1.2-.16,1.43a6.53,6.53,0,0,1-1.29.72,7.13,7.13,0,0,1-2.17.73,23.32,23.32,0,0,1-2.39-.21h0l1.27.43c.58.21,1.16.46,1.75.71a6.2,6.2,0,0,0,.72-.16c1-.31,2.83-.94,3.19-2,.51-1.58-.52-3.29-1.73-4.67,2.36,1.09,4.55,2.33,3.22,6.49a5.54,5.54,0,0,1-1.22,2c-.13,1.43-1.3,1.91-2.78,1.39-2.61-.92-5.15-2-7.8-2.8A1.21,1.21,0,0,1,105.87,25.83Z"/><path class="cls-2" d="M22.3,122.33c0-.06.1-.06.21.06,4.93,5.63,16.8,4.33,23.44,4.08a132.74,132.74,0,0,0,24.46-3.3,163.71,163.71,0,0,0,23.69-7.39c7.56-3,15.48-6.2,22-11.07,6-4.47,10.8-10.92,10.31-18.74a12.9,12.9,0,0,0-6.38-10.66c-1.66-1-3-1.78-3.07-3.92-.07-2.32,1.74-4.72,2.68-6.79a108.44,108.44,0,0,0,4.43-11.38,109.67,109.67,0,0,0,4.78-22.44c.44-4.13,1.21-9,.48-13.11-1.22-6.9-6.2-10.47-12.34-12.79a42.07,42.07,0,0,0-21.3-2.4A31.54,31.54,0,0,0,86.5,5.4c-3.42,1.74-5.85,4.34-8.71,6.8a27.64,27.64,0,0,1-17.18,6.57c-3.17,0-5.79-1.22-8.72-2.25a25.9,25.9,0,0,0-11.28-1.39c-6.66.68-12.83,3.65-18.9,6.28a108.18,108.18,0,0,1-10.43,4.06C6.76,26.89,2,27.62,1.36,33.25.42,41,2.55,49.69,4.74,57.06A136.75,136.75,0,0,0,13.92,79.7C17,85.74,21.08,91.3,24,97.35a8.08,8.08,0,0,1-.91,9.31,18.16,18.16,0,0,0-3,4.72C18.77,115.14,20.54,119,22.3,122.33ZM50.37,20.89C47,19.41,43.72,17.84,39.93,18.5c-3.07.55-6.1,2-9,3-7.29,2.63-14.19,5.84-21.25,9C8.48,31,6.52,31.22,5.54,32c-2,1.54-1.46,5.08-1.32,7.21a67.11,67.11,0,0,0,2,11.17c1.92,8,4.63,15.58,7.22,23.33.06.17-.05.34-.16.11A141.31,141.31,0,0,1,5.5,49.48a65,65,0,0,1-2-11.41c-.1-1.89-.65-5.4.9-6.88,1.12-1.07,3.4-1.25,4.82-1.88,2-.88,3.92-1.91,5.9-2.82,4.33-2,8.77-3.71,13.24-5.35,3.86-1.41,8.17-3.61,12.31-3.93,3.41-.27,6.62,1.29,9.54,2.86C50.45,20.18,50.59,21,50.37,20.89ZM10,55.59A4.54,4.54,0,0,1,9.52,53c.08-.28.35.17.38.26.15.53.16,1.08.31,1.62a7.31,7.31,0,0,0,.29.78c.07.14.14.29.2.44l.05,0,0,0a.34.34,0,0,1,.08.32C10.66,57.08,10.07,55.71,10,55.59ZM20.57,83.13a3.58,3.58,0,0,1,.68,1c.23.39.46.77.66,1.17.06.12.1.69-.14.41a8.2,8.2,0,0,1-1.36-2.08C20.38,83.5,20.33,82.92,20.57,83.13Zm-1-1.78c.08.2,0,.5-.16.19s-.47-.87-.7-1.31a3.13,3.13,0,0,1-.44-1.13c0-.08,0-.26.15-.17a2.21,2.21,0,0,1,.55,1ZM9.63,50.1c0,.14-.09.15-.19.1a.67.67,0,0,1-.18-.43c0-.38,0-.76,0-1.13,0,0,0-.15.08-.17h0c.08,0,.15.11.18.17A3,3,0,0,1,9.63,50.1Zm1.59,3.51A3.34,3.34,0,0,1,11,52.49c0-.23.21-.06.27.06a4.39,4.39,0,0,1,.27,1.15,4.45,4.45,0,0,1,.14,1.08c0,.18-.16,0-.19,0A5.54,5.54,0,0,1,11.22,53.61ZM7.31,36.88c0-.1,0-.19.16-.19h0c.1,0,.18.2.21.27a1.89,1.89,0,0,1,.08.82,3,3,0,0,0,.11.9c.06.27-.14.33-.25.08A3.61,3.61,0,0,1,7.31,36.88ZM8,35.17a3,3,0,0,1,.17-1.11c.09-.3.18-.73.46-.9s.36.52.34.63a4.29,4.29,0,0,1-.36,1,2.67,2.67,0,0,1-.29.85C8.2,35.78,8.05,35.25,8,35.17Zm2.53-1.05a.26.26,0,0,1,.11-.21l.07,0c.19-.07.33.38.35.48a2.52,2.52,0,0,1,0,.82,1.89,1.89,0,0,0,.1.88c.09.27-.07.52-.24.17A3.78,3.78,0,0,1,10.57,34.12Zm1.33-1.71c0,.14,0,.16,0,0v-.08a.43.43,0,0,0,0,0h0a1.47,1.47,0,0,1,.08-.25,4,4,0,0,1,.32-.62c.2-.32.6-.88,1-.76a.69.69,0,0,1,.3.75c-.15.33-.49.47-.76.69a2.61,2.61,0,0,0-.65.75C12.12,33,11.94,32.63,11.9,32.41Zm2.54,1.46c0-.44.11-1.34.66-1.41.27,0,.42.57.3.74s-.57.49-.57.94S14.45,34.11,14.44,33.87ZM16.59,31c-.21.06-.33-.45-.28-.58A4,4,0,0,1,17.62,29a2.29,2.29,0,0,1,1.49-.66c.21,0,.32.5.22.65A4.47,4.47,0,0,1,18,30,6,6,0,0,1,16.59,31Zm1.35,1.31a6.15,6.15,0,0,1,.4-.76c.08-.14.31.34.26.47a5,5,0,0,1-.38.81C18.11,33,17.9,32.4,17.94,32.28ZM61,21.63a4.71,4.71,0,0,1-2.69.17,6.3,6.3,0,0,1-2.73-.72c-.06,0-.21-.36-.08-.39a9.63,9.63,0,0,1,2.45.13,11.43,11.43,0,0,1,2.87.15C61,21,61.22,21.51,61,21.63Zm63.32-4.51A8.26,8.26,0,0,0,124,15.9a5.38,5.38,0,0,1-.36-1c0-.15,0-.5.23-.27a3.1,3.1,0,0,1,.54,1.18,13.38,13.38,0,0,1,.35,1.42C124.81,17.72,124.43,17.43,124.35,17.12Zm-7-8.11c-2.14-.75-4.28-1.55-6.47-2.16-5-1.38-9.84-.91-14.88.06C90.47,8,86.56,10.13,82.1,13.45c-3.36,2.5-6.67,4.85-10.87,5.64-.13,0-.25-.35-.13-.39,6.05-2,10.31-6.72,15.72-9.87,5.15-3,12.39-4.33,18.34-4a33.17,33.17,0,0,1,9,2.05c2.73.93,5.87,1.67,8.4,3.06a7.77,7.77,0,0,1,4.1,8.38c-.1.52-.49-.31-.48-.54C126.5,11.41,121.6,10.52,117.31,9ZM88.76,11a4.43,4.43,0,0,1,.73-1c.2-.26.46-.64.81-.64s.35.6.31.78a1.35,1.35,0,0,1-.73.82c-.28.14-.68.41-1,.33C88.78,11.28,88.73,11.06,88.76,11Zm5.06-2.21a5.19,5.19,0,0,1,1.32-.17,6,6,0,0,1,1.2-.07c.15,0,.33.53.15.58a6,6,0,0,1-1.34.11,4.9,4.9,0,0,1-1.21,0C93.82,9.19,93.68,8.82,93.82,8.76Zm6.92-.53a4.72,4.72,0,0,1,2-.22,6.71,6.71,0,0,1,2.24.15c.16.06.47.73.21.78a7.93,7.93,0,0,1-2-.1,9.53,9.53,0,0,1-2.27-.11C100.75,8.69,100.59,8.31,100.74,8.23Zm9.86,1.3a2.94,2.94,0,0,1,2,1.09.64.64,0,0,1,.15.42c0,.07,0,.23-.16.14a8.25,8.25,0,0,0-1.84-1C110.58,10.15,110.31,9.53,110.6,9.53Zm5.17,3.83c-.2-.2-.4-.57-.22-.83a.12.12,0,0,1,.17,0,3,3,0,0,1,1.15,1.67c.1.29-.09.58-.27.19A3.27,3.27,0,0,0,115.77,13.36Zm3.5,1.59c-.07-.1-.37-.76,0-.73.54,0,1.07.91,1.32,1.33a2.89,2.89,0,0,1,.52,1.57c0,.12-.11.08-.16,0-.23-.37-.34-.79-.61-1.15S119.57,15.33,119.27,15Zm2,5c0-.2.08-.43.25-.17a7.42,7.42,0,0,1,.62,1.9c0,.15,0,.29-.13.1A7.25,7.25,0,0,1,121.3,20Zm1.53-.46a3.5,3.5,0,0,0-.07-1.25c-.08-.33-.22-.62-.27-1,0-.1,0-.29.17-.2a2.18,2.18,0,0,1,.6,1.35A3.64,3.64,0,0,1,123.2,20C123.12,20.3,122.82,19.65,122.83,19.53Zm-3-8.16c.32-.21.94.4,1.17.61a5.51,5.51,0,0,1,1,1.12c.09.14.22.45.13.62s-.23,0-.31-.07a4.51,4.51,0,0,0-.91-.94,4.29,4.29,0,0,1-1-.72C119.85,11.86,119.67,11.49,119.86,11.37Zm4.33,17.49a8.08,8.08,0,0,1,0-1.63,2.59,2.59,0,0,1,.26-1.36c.19-.25.42.46.42.56a7.47,7.47,0,0,1-.13,1.41c0,.46-.08.92-.1,1.38,0,.15-.1.16-.2.1S124.21,29,124.19,28.86Zm-1.4-.72a.68.68,0,0,1-.16-.49l.05-1.12a3.69,3.69,0,0,1,.1-1c.14-.4.47.41.48.53a9.23,9.23,0,0,1-.26,2C123,28.21,122.89,28.23,122.79,28.14Zm.69,6.54a6,6,0,0,1,.08-1.58c0-.35.11-1.1.48-1.23s.34.48.34.61a4.61,4.61,0,0,1-.39,1.19,5.13,5.13,0,0,0-.22,1.28C123.76,35.26,123.48,34.8,123.48,34.68Zm-3,14.26.32-.9a1.66,1.66,0,0,1,.34-.75c.19-.18.34.42.33.53a6.31,6.31,0,0,1-.61,1.72C120.75,49.84,120.42,49.15,120.49,48.94Zm-1.56,5a10.07,10.07,0,0,1,.58-1.62c.08-.14.25.11.27.15a.68.68,0,0,1,.09.5,10.86,10.86,0,0,1-.57,1.53C119.18,54.81,118.87,54.15,118.93,54Zm-1.22-2.12a7.91,7.91,0,0,0,.49-1.16c.07-.22.12-.72.36-.79s.22.24.23.31a2.86,2.86,0,0,1-.82,2.2C117.84,52.58,117.63,52,117.71,51.84Zm-2.48,15.93c-.06.15-.18-.19-.17-.26a33.15,33.15,0,0,1,4.07-10.65c.15-.23.47.55.4.73-.72,1.73-1.61,3.38-2.32,5.12S115.93,66.1,115.23,67.77Zm2.33-13.08a5.24,5.24,0,0,1-.3,1,4.44,4.44,0,0,0-.23,1c0,.15-.11.16-.21.07a.66.66,0,0,1-.16-.49,6.74,6.74,0,0,1,.17-1.17c.08-.31.15-.71.45-.89S117.57,54.6,117.56,54.69ZM115.7,58a3.8,3.8,0,0,1-.3,1.48c-.09.27-.18,1.09-.47,1.16-.09,0-.14-.14-.15-.2a4.05,4.05,0,0,1,.19-1.5c.06-.29.11-.58.18-.86s0-.43.26-.55S115.69,57.87,115.7,58Zm5,22.08a10,10,0,0,1-1.57-1,14.8,14.8,0,0,1-1.61-1.22c-.11-.11-.31-.85,0-.68a12.53,12.53,0,0,1,1.64,1.17,14.84,14.84,0,0,1,1.49,1.24C120.71,79.59,120.86,80.11,120.69,80Zm-5.19-9.09c.1-.2.33.4.31.49a4.59,4.59,0,0,0,.41,3.25c0,.08.11.56-.07.35A4.07,4.07,0,0,1,115.5,70.94ZM119.37,83c.06,0,.18.43,0,.38a4.93,4.93,0,0,1-2.14-1.48.8.8,0,0,1-.18-.5c0-.09.05-.27.19-.17.35.27.64.62,1,.9S119,82.75,119.37,83ZM113,65.8a4.19,4.19,0,0,1,.05-1.06c0-.37.08-.73.15-1.09,0-.12.14,0,.18,0a.48.48,0,0,1,.1.35,10.92,10.92,0,0,1-.12,1.15,1.83,1.83,0,0,1-.17.84C113.1,66.1,113,65.84,113,65.8ZM83.05,109.32c-1.7.38-2.2,1.94-4.1,2.24s-4-.53-5.89-.73a21.87,21.87,0,0,1-6.15-1.33.23.23,0,0,1-.06.12,6,6,0,0,1-3.68,1.85c-1.21.12-2-.3-3.21.38-.35.2-.72.7-1,.9-2.1,1.42-3.73.45-5.28-.94a.34.34,0,0,1,0,.19,4.84,4.84,0,0,1-4.16,2.43,3.52,3.52,0,0,1-1-.26h0c-1.93-.26-2.28,1.48-1.85,3,0,.09.1.34,0,.43-1.23,1-3.14,1.42-4.63,1.87-2.17.66-4.38,1.42-6.59,1.91-.13,0-.23-.23-.21-.39a.35.35,0,0,1,0-.22c.69-1.83,1.47-3.61,2.24-5.41a21,21,0,0,0,1.07-2.49c.67-2.44-.06-2-.21-3.49a2.65,2.65,0,0,1,.6-2.48,2.47,2.47,0,0,1-1.61-1.3,2.22,2.22,0,0,1-.28-1.18c.07-.65,1.25-1.32,1.23-1.65,0-.56-1.87-1.22-2.22-1.82a2.42,2.42,0,0,1-.32-1.32C33.74,99.19,32,98,32.44,96.09a2,2,0,0,1-1-1.4,8.06,8.06,0,0,1-.06-1c-.05-.31.26-.67.24-1a6.94,6.94,0,0,0-2.36-4.91c-1.3-1.06-3.57-1.15-4.36-2.69a2.66,2.66,0,0,1-.27-.84c-.37-2.78,1.37-3,.36-5.66a23.38,23.38,0,0,1-2.5-4.24c-.28-.66-.51-1.32-.72-2a3.8,3.8,0,0,1-3.68-1.31,2.65,2.65,0,0,1,.36-.93A1.85,1.85,0,0,0,17,67.94c-.62-.51-1.14-.54-1.65-1.18-.28-.35-.19-.91-.33-1.28-.53-1.38-1.37-1.92-1.86-3.23s0-3.1.15-4.42a37.08,37.08,0,0,0,0-11.13,15.8,15.8,0,0,1,.31-5.77c-1.16.25-1.79.59-2.4,2.24-.14.38.15,1-.15,1.34-.48.58-.48,1.44-1.58,1.18s-1.05-1.5-1-2.3c.19-3.22,1.79-5.79,4.95-6.3a10.53,10.53,0,0,0,4.89-1.77,11,11,0,0,1,2.14-1.16c2.89-1,2.53.09,3.72-4.14,0-.14.07-.26.1-.38s0-.12-.05-.17c-.09-.28,0-.56.18-.45a3.37,3.37,0,0,1,1-1.92,15.09,15.09,0,0,1,5.63-3,22.72,22.72,0,0,1,12.79-.21,42.73,42.73,0,0,0,6.34,1.12c2.27.18,4.58,1.36,6.75,1.24,4.34-.22,7-5.89,11.41-4.69.37.1.5.76.43,1.07s.11.83.17,1.24c.88-.17,1.76-.33,2.65-.47,1.51-.23,3-.42,4.55-.56a16.37,16.37,0,0,1,7.19-3.74,23.55,23.55,0,0,0,5-1.33c1.71-.79,3-2.15,4.63-3.09a5.78,5.78,0,0,1,4-1,3.12,3.12,0,0,1,.53.11l0,0,.22.08a7.09,7.09,0,0,1,1.31.59c1.93,1.1,3.34,1.72,5.49.78,1.2-.53,3.18-2.48,4.53-2.32.66.07.6.71.92,1.05,1.78,1.87,2,2.88,4.53,4.08.36.17.66.28,1,.47a7.68,7.68,0,0,1,2.5,1.91c2.47,3.07,1.57,7-1,9.58l.36.17A13,13,0,0,1,121,32.68a.25.25,0,0,0,0,.17,3.28,3.28,0,0,0,1,1.3.35.35,0,0,0,.24.08l0,.08a.35.35,0,0,0,.16.21,7.49,7.49,0,0,1,.86,3.67c0,4.46-3.67,8.31-6.71,11.14-.25.24-.52.47-.8.69-.13,1.41-1.07,3-2.53,2.43a5.19,5.19,0,0,1-1.43,4,10.52,10.52,0,0,1-.78.83h0a8.94,8.94,0,0,1,.26,4.76c-.51,3.15-1.19,4.2.2,7.78,0,.09.08.17.12.26a1.05,1.05,0,0,1,.26.58h0c.57,1.19,1.3,2.31,1.79,3.53a17.67,17.67,0,0,1,1.3,5.36c.11,1.36-.25,3,1.06,4s3.48.25,5-.63c-.2-.19-.39-.39-.61-.57a12.78,12.78,0,0,1-1.1-.84c-.11-.1-.39-.85-.06-.81a2.62,2.62,0,0,1,1.22.78,5.11,5.11,0,0,1,1,1.15h0a4.87,4.87,0,0,0,.53-.39c.1-.08.2,0,.27.06a2.41,2.41,0,0,1,.82,2.19c0,.45-.21.36-.34,1.1a3.93,3.93,0,0,1-.58.82c-.06,1.35-.13,2.69-.19,4,.14,1.42.69,2.07.36,3.58a10.9,10.9,0,0,1-2.53,4.41,5.83,5.83,0,0,1-2.68,1.81,11.2,11.2,0,0,0-3,2.31,14.77,14.77,0,0,1-5.73,2.81c-2.46.68-4.71,1.07-5-1.79,0-.06,0-.27.1-.28,1.17-.07,3.65-.6,4.28-1.81,1.14-2.16-1.68-2.18-3.12-1.34-2.19,1.27-3.4,3.54-6,3.69-.08,0-.16-.08-.22-.19-.69,2.16-2.09,4.11-4.38,4.66C90.37,109.13,86.55,108.55,83.05,109.32Zm-70.91-59A11.4,11.4,0,0,1,12,48.52c0-.4.29,0,.31.22a8.28,8.28,0,0,1,.1,1.72C12.37,50.72,12.16,50.37,12.14,50.28Zm17.77,57c-.09.16-.36-.39-.29-.54a6.23,6.23,0,0,0,.51-1.62c.06-.38-.05-1,.18-1.31.1-.15.26.2.28.25A4.27,4.27,0,0,1,29.91,107.3Zm1,.88a6.81,6.81,0,0,1,.58-1.58c.06-.11.18.25.17.32a7.18,7.18,0,0,1-.56,1.55C31,108.63,30.87,108.27,30.89,108.18ZM22.3,82.79a5.91,5.91,0,0,1-.68-1.44c0-.14,0-.39.19-.22a4.87,4.87,0,0,1,.67,1.44C22.58,82.8,22.48,83.14,22.3,82.79Zm-2-4.37a5,5,0,0,1-.51-.86,3.63,3.63,0,0,1-.43-1c0-.16,0-.44.21-.25a2.89,2.89,0,0,1,.5,1,7.79,7.79,0,0,1,.37,1C20.45,78.34,20.4,78.58,20.28,78.42Zm8.53,16.32c.1.27-.09.53-.24.17-.3-.7-.65-1.4-.88-2.13-.1-.31.08-.6.28-.2C28.31,93.27,28.54,94,28.81,94.74ZM34,103c-.06-.13-.12-.78.16-.47a2.61,2.61,0,0,1,.52,2.19c-.07.36-.35-.21-.33-.38A2.34,2.34,0,0,0,34,103Zm2.09,4.47a5.18,5.18,0,0,1-.33,1.33c-.13.46-.27.92-.4,1.37-.07.22-.31-.28-.28-.43.12-.48.24-1,.35-1.46a3.62,3.62,0,0,1,.38-1.26C35.94,106.83,36.09,107.39,36.09,107.46Zm11.67,13.33a9.1,9.1,0,0,1,1.73-.05c.12,0,.28.44.13.48a7.86,7.86,0,0,1-1.68.09C47.75,121.32,47.62,120.8,47.76,120.79Zm3.24-2c-.16,0-.32-.57-.16-.59a4.73,4.73,0,0,1,2-.09c.16.05.37.53.17.62A4.43,4.43,0,0,1,51,118.78Zm1.72,1.54a10.2,10.2,0,0,1,2.48-.6c.18,0,.35.56.17.64a9.91,9.91,0,0,1-2.5.42C52.72,120.8,52.58,120.36,52.72,120.32ZM57.39,118a14.69,14.69,0,0,0,1.87-.23,5.35,5.35,0,0,1,1.68-.25c.17,0,.37.55.22.66-.89.68-2.51.55-3.58.52C57.38,118.73,57.2,118,57.39,118Zm5-2.91a1.25,1.25,0,0,1,.92-.28c.12,0,.2.33.11.39a1.22,1.22,0,0,1-.91.26C62.46,115.47,62.36,115.2,62.44,115.12Zm8,2.24c.18,0,.35.54.22.65a3.21,3.21,0,0,1-3,.12c-.07,0-.18-.29-.07-.35s.33-.07.58-.06a4.69,4.69,0,0,0,.92-.06A8.87,8.87,0,0,1,70.46,117.36ZM68.39,115a1.69,1.69,0,0,1-.81.22,1.49,1.49,0,0,1-.86,0c-.15-.07-.29-.38-.18-.53s.49-.23.77-.3a1.82,1.82,0,0,1,.86-.1C68.34,114.33,68.56,114.84,68.39,115Zm5.23.35c.4-.09.81-.17,1.21-.27a2.14,2.14,0,0,1,1.14-.14c.26.08.5.75.24.93a2.15,2.15,0,0,1-1.16.15l-1.19.07C73.62,116.08,73.38,115.38,73.62,115.33Zm6.25-.78a6.06,6.06,0,0,1,1.7-.49,3.4,3.4,0,0,1,1.56-.3c.19,0,.38.57.23.71a2.8,2.8,0,0,1-1.62.5,4.19,4.19,0,0,1-1.72.11C79.86,115,79.73,114.65,79.87,114.55Zm-44.21,9.13c18.62,1.08,36.24-4.42,54.11-8.77.12,0,.25.35.13.39-8.85,3.07-18.4,5.14-27.57,7-8.76,1.79-17.7,2.8-26.61,1.66C35.63,124,35.56,123.68,35.66,123.68ZM31.88,114a7.7,7.7,0,0,1,.5-1.19,2.73,2.73,0,0,1,.51-1c.16-.14.25.34.24.42a4.05,4.05,0,0,1-.49,1,4.06,4.06,0,0,1-.59,1C31.94,114.41,31.87,114.06,31.88,114Zm-5.76-7.58s-.07-.08-.06-.1c2.19-4.25,1.06-7.92-.69-12.1-.08-.18-.05-.72.18-.34C27.59,97.37,29.43,103.1,26.12,106.43Zm2.49,7c-.14-.5-.33-1.57.18-1.92.18-.12.32.48.31.58a3.75,3.75,0,0,0-.17,1.33C29,113.82,28.69,113.75,28.61,113.43ZM27,111.36a4.45,4.45,0,0,1,.59-1.31c.19-.2.38.44.36.56a5.19,5.19,0,0,1-.57,1.33C27.25,112.24,27,111.55,27,111.36Zm1.26,4.1c.06-.12.21.07.24.11a.74.74,0,0,1,.12.46.94.94,0,0,0,.09.64c.07.1.15.63-.08.4A1.5,1.5,0,0,1,28.28,115.46ZM27,119.86c-.06,0-.12-.18-.07-.22l.13-.18a5.56,5.56,0,0,1-2-3.27c-.13-1,.12-2.85,1.23-3.25.1,0,.18.11.22.26l.14-.08a.13.13,0,0,1,.12,0c1.25.8.69,2.18.64,3.37C27.39,117,28.4,120.12,27,119.86Zm-2.8.35A10.06,10.06,0,0,0,26.07,122a17.86,17.86,0,0,0,2.18,1.11c.12.06.3.56.08.55-1.65-.11-3.39-1.73-4.15-3.09C24.13,120.45,24.07,120,24.24,120.21Zm-1-10.69c.14-.22.44.5.37.66a10.05,10.05,0,0,0-.46,7c0,.1-.05.21-.12.08A8.25,8.25,0,0,1,23.21,109.52Z"/><path class="cls-3" d="M25.54,115.26a8.12,8.12,0,0,1,.91-1.66.43.43,0,0,0,.12.18c.86.76.28,1.73.36,2.73.05.78.59,2,.28,2.75h0C26.19,118.17,25.09,116.88,25.54,115.26Z"/><path class="cls-4" d="M108,50.13c-.59.22-1.25.14-1.71.62-.76.79-.34,1.89-1.82,1.89a12.44,12.44,0,0,1-2.33-.54c0-1.25.7-1.26,1.58-2a27.63,27.63,0,0,0,2.55-1.85c.74-.72.79-.37,1.79-.36a3.55,3.55,0,0,0,1.82-.5A1,1,0,0,0,110,48,3.53,3.53,0,0,1,108,50.13Z"/><path class="cls-4" d="M118.83,41a9,9,0,0,0,.58-.7c.41-.55.6-1.2,1-1.74a1.92,1.92,0,0,1,.8-.65,6.93,6.93,0,0,1-.91,2.64c-.34.12-.72.21-1.13.33Z"/><path class="cls-4" d="M111.27,48.22l-.09-.09c-.5-.44-.78-.1,0-.46a8.91,8.91,0,0,1,2.5-1.21l2.1-.37c-.56.54-1.14,1.06-1.73,1.56-.63.13-1.2.39-1.86.47C111.88,48.15,111.57,48.16,111.27,48.22Z"/><path class="cls-4" d="M82.76,59c.16.18.34.35.5.54a.5.5,0,0,1,.15.78.42.42,0,0,1-.29.54,3.69,3.69,0,0,1-1.35-3C82.1,58.24,82.42,58.61,82.76,59Z"/><path class="cls-4" d="M78.49,57.47a12.1,12.1,0,0,1,.56,1.28A3.09,3.09,0,0,1,79,61.48l-.77-.26A.47.47,0,0,0,78,61c-.66-1.81-2.12-3.82-1.38-5.69a.48.48,0,0,0,0-.24s0,0,0,0A5.52,5.52,0,0,1,78.49,57.47Z"/><path class="cls-4" d="M46.69,100c.71,1.83,1.57,3.62,3.56,4.44s4.36.33,6.36.12c5-.55,10-1.19,15-1.88s10-1.47,15-2.35c4.09-.72,11-.81,14.19-3.85s3.49-10,3.71-14.09c.27-5.16-.67-10-1.65-15a24.74,24.74,0,0,1-.47-4.25.76.76,0,0,1-.09-.22,21.62,21.62,0,0,0-2.54-10.08c-.07-.14-.09-.82.16-.48a15.06,15.06,0,0,1,2.83,7.31c.74-3,2.61-5.58,6-8,1.15-.81,2.28-1.64,3.39-2.5a3.16,3.16,0,0,1-1.34-.28.41.41,0,0,1-.15-.33,1,1,0,0,1-.35-.11A5,5,0,0,1,107.72,51a1.84,1.84,0,0,0-1.47,1l-.15.52c-.44.52-.07.55-.79.86-.94.4-2.48-.37-3.46-.43-.3,0-.55-1-.2-1l.25,0a5.73,5.73,0,0,1,.12-2.14.11.11,0,0,1,.13-.08c.93.31,1.33-.85,1.83-1.3.85-.77,1.69-.64,2.14-2,0-.13.14-.13.25-.08a3.55,3.55,0,0,0,3.81-.26c.2-.13.37.5.38.59a.27.27,0,0,0,0,.09,1.26,1.26,0,0,0,.29-.12c.46-.26.77-.71,1.22-1,1.32-.78,3.56-.92,5.09-1.12.62-.67,1.22-1.36,1.78-2.1.24-.31.48-.64.71-1-.55.16-1.12.31-1.68.53a4.18,4.18,0,0,1-1.21.39,2,2,0,0,1-.34,0s0,0-.06,0c-.5-.1-1-.4-1.44-.33-.79.11-1.15,1.12-1.8,1.41-.07,0-.15-.21-.1-.25.61-.51.12-1.4.77-1.84s1.13.11,1.65.26a2.55,2.55,0,0,0,.8.09c.08-.25.28-.28.59-.49a8.28,8.28,0,0,0,2.24-2.29c.51-.76.68-1.73,1.49-2.24a1.93,1.93,0,0,1,.58-.24,4.51,4.51,0,0,0-2-2.66c-2-1.4-4.85-2.28-7.1-3.14a78.51,78.51,0,0,0-24.56-5h-.78a36.87,36.87,0,0,1,7.33,7.6c.05.07.08.43-.06.27a50.76,50.76,0,0,0-9.1-7.91h-1a19,19,0,0,1,4.18,3.66s.14.41,0,.32c-1.56-1.06-3.06-2.2-4.64-3.24q-.52-.36-1.08-.69a83.24,83.24,0,0,0-22.21,3.77C55.5,31,51,32.67,46.41,34.43c-4.8,1.87-9.79,3.83-13.56,7.47s-5.75,8.25-7.46,12.94c-2,5.46-4.22,11.91-2.27,17.67,1.71,5,6.24,8.62,9.42,12.71,1.14,1.46,2,3,3,4.57.61.93,2.09,3.41,3.36,3.56.71.08,2-.94,2.48-1.32a.29.29,0,0,1,.29-.1c2.77,1.28,3,3.18,3.88,5.64.1,0,.23.09.37.41s.31.75.46,1.14A1,1,0,0,1,46.69,100ZM36.34,86.8c.08.22,0,.63-.24.29s-.36-.6-.56-.88a4.84,4.84,0,0,1-.61-.89c0-.11-.17-.49,0-.49s.6.56.75.79A4.72,4.72,0,0,1,36.34,86.8ZM30.48,68.62c.07.3.11.6.18.9s-.09.45-.27.18-.5-1-.24-1.45C30.27,68.06,30.47,68.57,30.48,68.62ZM38.8,92A4.15,4.15,0,0,1,37,89.62c-.12-.4.08-.76.35-.25a7.88,7.88,0,0,0,1.45,2C38.9,91.46,39.06,92.11,38.8,92ZM43,90.64c.09.18.18,1-.2.59A1.28,1.28,0,0,0,41.72,91c-.39.08-.74.46-1.12.44-.08,0-.11-.19-.1-.25a1.91,1.91,0,0,1,1.35-1.21A1.08,1.08,0,0,1,43,90.64Zm52-54.1c0-.09-.08-.63.12-.37a21,21,0,0,1,3.21,6.63c0,.11,0,.21-.09.07C97.1,40.79,95.93,38.68,95,36.54ZM90,32c3.38,2.61,5.46,7.25,6.79,11.19.06.2-.05.37-.18.13C94.58,39.53,93,36,90,32.77,89.89,32.65,89.71,31.82,90,32ZM56.64,89.24a1.17,1.17,0,0,1-1.13.34.36.36,0,0,1-.15-.32c.07-.44.53-1,1-.83A.67.67,0,0,1,56.64,89.24Zm-.18,1.85.07,0a.15.15,0,0,1,.13,0,1.82,1.82,0,0,1,.65.7.76.76,0,0,1,.13.54c0,.14-.13.17-.24,0a7.08,7.08,0,0,1-.7-.64C56.41,91.59,56.27,91.2,56.46,91.09Zm8-58.57a1.82,1.82,0,0,1-.56.39,2.84,2.84,0,0,1-.69.36c-.13,0-.23-.3-.15-.37a3.15,3.15,0,0,1,.55-.41,2.1,2.1,0,0,1,.69-.37C64.43,32.1,64.52,32.43,64.45,32.52ZM83,30.73c-.46-.06-.91.13-1.36.08-.15,0-.27-.42-.17-.53a2.3,2.3,0,0,1,2.64.16c.06.07.26.52.08.55C83.83,31.05,83.39,30.78,83,30.73Zm4.06,52.55a1.88,1.88,0,0,1-1,.93c-.16.08-.33-.45-.18-.56a4.84,4.84,0,0,0,.85-1C86.92,82.49,87.12,83.15,87.07,83.28Zm-1,1.88h0a2.64,2.64,0,0,0,1-.1c.14-.07.25.36.18.45a1.38,1.38,0,0,1-.26.23c0,.06,0,.08-.08,0a.69.69,0,0,1-.78-.07C86.14,85.63,86,85.18,86.1,85.16ZM59.47,80.83a.1.1,0,0,1-.14,0c-7.43-2.58-11-12.91-10.7-20.05C49,50.15,57.06,42.38,67.32,40.55c9.07-1.62,17.93,1.7,22.26,10.05C94,59.12,92.41,68,85.41,74.48A42.84,42.84,0,0,1,82,77.36a2.83,2.83,0,0,1-.45.63c-.17.22-.25.53-.55.52,0,0,0-.05,0-.06a1.82,1.82,0,0,1,0-.32C74.5,82.61,67,84.79,59.47,80.83ZM58,90.4a1.18,1.18,0,0,0,0-.42c0-.22.1-.47.26-.18a1.25,1.25,0,0,1,.14,1.11C58.22,91.21,57.92,90.54,58,90.4Zm1.93,1.31A.14.14,0,0,1,60,91.6h.07c.2,0,.31.45.32.58,0,.41-.22.73-.2,1.16,0,.22-.14.14-.21,0A2.24,2.24,0,0,1,59.88,91.71Zm-3.05,8.93c1.85-1.26,4.26-1,6.41-1.16a27.12,27.12,0,0,1,5.62-.13c.17,0,.37.57.17.64a21.73,21.73,0,0,1-5.82.69c-2.07.12-4.12.35-6.19.54C56.83,101.23,56.68,100.75,56.83,100.64ZM41.67,63.06l.46-.65c.13-.18.21-.38.45-.43s.31.46.28.61A3.39,3.39,0,0,1,42,63.78C41.84,64,41.53,63.25,41.67,63.06Zm-3.09,5.4c-.4,0-.61-.71-.68-1,0-.1,0-.36.11-.37s.26.26.29.36a5.2,5.2,0,0,0,.32.62C38.65,68.12,38.76,68.47,38.58,68.46Zm.23-6a1.15,1.15,0,0,1-.68.94c-.17.11-.33-.48-.24-.6a2.14,2.14,0,0,0,.32-.55,1,1,0,0,1,.21-.41C38.66,61.67,38.82,62.36,38.81,62.49Zm11.1,39a14.89,14.89,0,0,1,2-.22,5.79,5.79,0,0,1,1.84-.18c.15,0,.32.46.19.56A3.38,3.38,0,0,1,52,102a6,6,0,0,1-2-.16C49.93,101.84,49.78,101.51,49.91,101.47Zm-5.47-9.59a11.53,11.53,0,0,1,1.09,1.77c0,.09.09.52-.1.31a9.4,9.4,0,0,1-1.1-1.73C44.23,92.07,44.23,91.56,44.44,91.88Z"/><path class="cls-5" d="M59.28,79.92c7.64,3.33,16.66-1.23,22.65-6,3.43-2.73,6.77-6.06,8.13-10.34,2.09-6.55-1.14-14.23-6.74-18C75.37,40.25,62.91,42.76,56.17,49A19,19,0,0,0,50,62.32c-.24,7.32,3.56,13.13,9.19,17.44A.47.47,0,0,1,59.28,79.92ZM73.09,46.28a13.65,13.65,0,0,1,4.27.76c.08,0,.27.4.11.43a10.63,10.63,0,0,1-3.41-.22,17.59,17.59,0,0,0-4.1-.17c-.13,0-.23-.3-.12-.36A4.85,4.85,0,0,1,73.09,46.28Zm7.59.7c-2.18-.43-4.29-1.15-6.44-1.69-.12,0-.24-.44-.08-.42a19.27,19.27,0,0,1,6.42,1.62C80.69,46.54,80.87,47,80.68,47Zm.66,10c0-.18.14-.24.27-.09a9.86,9.86,0,0,1,2.25,2.86c.19.54.15,1.53-.56,1.64-.07,0-.13,0-.18-.14a3.13,3.13,0,0,1-1.42-1.66A4.78,4.78,0,0,1,81.34,57Zm-5.2-2.47c.07-.17.2-.08.31.09,0-.09,0-.16.08-.17.85-.09,1.34.72,1.71,1.39A17.07,17.07,0,0,1,80,60.08c.15.71.18,1.71-.58,2.11s-1.28-.21-1.51-.87a.47.47,0,0,1,0-.28C76.52,59.11,75.24,56.81,76.14,54.51Zm3.42,19.35c.12-.23.29-.43.41-.66s.1-.43.29-.49.3.32.31.42a1.32,1.32,0,0,1-.73,1.43C79.58,74.64,79.48,74,79.56,73.86ZM64.22,46.77c-.09,0-.18-.25-.1-.29,1.63-.66,3.58-1.74,5.36-1.82.25,0,.48.64.25.77C68.2,46.33,66,46.46,64.22,46.77Zm3.7.5c-1,.51-2.12.83-3.11,1.4a16.25,16.25,0,0,0-3,2.26c-.05,0-.11-.14-.08-.18,1.34-2,3.63-3.79,6.09-3.87C67.91,46.88,68,47.21,67.92,47.27ZM70.1,64.13s-.09-.45.08-.38c.52.2.67,1.12.72,1.6,0,.11,0,.23-.14.2s-.19-.27-.22-.37C70.44,64.8,70.21,64.49,70.1,64.13ZM68,65.18c0-.15,0-.5.22-.26a3.57,3.57,0,0,1,.52,1.18c0,.16,0,.45-.18.21A3.42,3.42,0,0,1,68,65.18Zm-7-11.5a6.61,6.61,0,0,1,5.36-3.09c.13,0,.24.39.12.45-.93.47-1.94.74-2.86,1.24S62,53.37,61.12,53.91C61.05,54,61,53.73,61,53.68Zm-2.56-2.85c.24-.43.75-.89,1.27-.66a.55.55,0,0,1,.22.65,2.16,2.16,0,0,1-1.22.68C58.49,51.57,58.4,51,58.47,50.83Zm-5.2,12c.09-.2.25.25.24.33-.33,2.8-.43,5.16.9,7.79,0,0,0,.11,0,0C53,68.77,52.07,65.34,53.27,62.83Zm1.85-5.38A9.73,9.73,0,0,1,54,59.84a20.58,20.58,0,0,1-.93,2.26c-.09.14-.22-.28-.22-.33A10.09,10.09,0,0,1,53.63,59c.23-.61.56-1.87,1.19-2.16C55,56.79,55.14,57.33,55.12,57.45Zm1.78-3.77a2.5,2.5,0,0,1-.27.75,1.4,1.4,0,0,0-.08.73c.05.4-.28.11-.34-.08a1.84,1.84,0,0,1,.24-1.92.1.1,0,0,1,.11,0l.09,0C56.84,53.23,56.9,53.51,56.9,53.68Zm4.44,22.17c.32,0,.69.49.85.73s.25.45.14.59-.89-.59-1-.72S61.1,75.84,61.34,75.85Zm-6.72-12c0,.05-.09-.12-.09-.14a12.09,12.09,0,0,1,1.52-4.18c.6-1.17,1.27-2.68,2.39-3.43.16-.1.28.44.25.53a32.92,32.92,0,0,1-2.12,3.55C55.92,61.31,55.5,62.83,54.62,63.83ZM59.44,77c.33,0,.6.26.86.44a7.62,7.62,0,0,1,.94.76c.09.08.33.82.06.73a4.55,4.55,0,0,1-.87-.47,2.93,2.93,0,0,1-.88-.68C59.49,77.72,59.17,77,59.44,77ZM56.9,72.3c-.8-.15-1.3-1.88-1.52-2.54A5.84,5.84,0,0,1,55,66.28c.08-.21.25.17.26.23A24,24,0,0,0,55.91,70a24.49,24.49,0,0,1,1,2.29S56.93,72.3,56.9,72.3Z"/><path class="cls-6" d="M22.25,122.63a1,1,0,0,0,.12.47c4.76,6.42,15.55,5.26,22.62,5.11a134.45,134.45,0,0,0,30.84-4.4,169.45,169.45,0,0,0,29.87-10.9c7.66-3.61,15.9-8.27,19.82-16.16a20,20,0,0,0,.66-16,14.37,14.37,0,0,0-4.54-6.17c-1.91-1.45-3.58-1.57-2.94-4.45.39-1.74,1.75-3.6,2.47-5.24a111.87,111.87,0,0,0,7.48-24c1.44-7.57,3-16.44,1.62-24.11C127.66,2.23,107.22-1.46,95.06.48a30.56,30.56,0,0,0-11.21,4C80.9,6.29,78.75,8.9,76,11c-6.7,5.15-15.17,7-23.07,4-15.8-6-28.92,4.34-43.62,8.7C5.76,24.75,2,25.56.65,29.49c-1,2.8-.61,6.31-.42,9.2A89.87,89.87,0,0,0,5.11,61.53a150.72,150.72,0,0,0,9.12,21q2.34,4.49,4.92,8.84c1.69,2.85,5.41,7.11,4.73,10.6-.3,1.6-2,3-2.95,4.32a12.63,12.63,0,0,0-2.23,4.55C17.7,115.22,19.53,119.36,22.25,122.63Zm-2.12-11.25a18.16,18.16,0,0,1,3-4.72A8.08,8.08,0,0,0,24,97.35c-3-6-7.06-11.61-10.12-17.65A136.75,136.75,0,0,1,4.74,57.06C2.55,49.69.42,41,1.36,33.25c.68-5.63,5.4-6.36,9.92-7.78a108.18,108.18,0,0,0,10.43-4.06c6.07-2.63,12.24-5.6,18.9-6.28a25.9,25.9,0,0,1,11.28,1.39c2.93,1,5.55,2.27,8.72,2.25A27.64,27.64,0,0,0,77.79,12.2c2.86-2.46,5.29-5.06,8.72-6.8a31.39,31.39,0,0,1,9.22-2.92A42.07,42.07,0,0,1,117,4.88c6.14,2.32,11.12,5.89,12.34,12.79.73,4.11,0,9-.48,13.11a109.67,109.67,0,0,1-4.78,22.44,108.44,108.44,0,0,1-4.43,11.38c-.94,2.07-2.75,4.47-2.68,6.79.06,2.14,1.41,2.91,3.07,3.92A12.9,12.9,0,0,1,126.45,86c.49,7.82-4.29,14.27-10.31,18.74-6.56,4.87-14.48,8.1-22,11.07a163.71,163.71,0,0,1-23.69,7.39A132.74,132.74,0,0,1,46,126.47c-6.64.25-18.51,1.55-23.44-4.08-.11-.12-.17-.12-.21-.06C20.54,119,18.77,115.14,20.13,111.38Z"/><path class="cls-7" d="M89.58,50.6c-4.33-8.35-13.19-11.67-22.26-10.05C57.06,42.38,49,50.15,48.63,60.82,48.37,68,51.9,78.29,59.33,80.87a.1.1,0,0,0,.14,0c7.48,4,15,1.78,21.44-2.7a1.82,1.82,0,0,0,0,.32s0,.06,0,.06c.3,0,.38-.3.55-.52a2.83,2.83,0,0,0,.45-.63,42.84,42.84,0,0,0,3.43-2.88C92.41,68,94,59.12,89.58,50.6Zm.48,13c-1.36,4.28-4.7,7.61-8.13,10.34-6,4.77-15,9.33-22.65,6a.47.47,0,0,0-.11-.16C53.54,75.45,49.74,69.64,50,62.32A19,19,0,0,1,56.17,49c6.74-6.2,19.2-8.71,27.15-3.38C88.92,49.35,92.15,57,90.06,63.58Z"/><path class="cls-7" d="M59.44,77c.33,0,.6.26.86.44a7.62,7.62,0,0,1,.94.76c.09.08.33.82.06.73a4.55,4.55,0,0,1-.87-.47,2.93,2.93,0,0,1-.88-.68C59.49,77.72,59.17,77,59.44,77Z"/><path class="cls-7" d="M61.34,75.85c.32,0,.69.49.85.73s.25.45.14.59-.89-.59-1-.72S61.1,75.84,61.34,75.85Z"/><path class="cls-7" d="M56.63,54.43a1.4,1.4,0,0,0-.08.73c.05.4-.28.11-.34-.08a1.84,1.84,0,0,1,.24-1.92.1.1,0,0,1,.11,0l.09,0c.19.07.25.35.25.52A2.5,2.5,0,0,1,56.63,54.43Z"/><path class="cls-7" d="M58.74,51.5c-.25.07-.34-.52-.27-.67.24-.43.75-.89,1.27-.66a.55.55,0,0,1,.22.65A2.16,2.16,0,0,1,58.74,51.5Z"/><path class="cls-7" d="M68.22,64.92a3.57,3.57,0,0,1,.52,1.18c0,.16,0,.45-.18.21A3.42,3.42,0,0,1,68,65.18C68,65,68,64.68,68.22,64.92Z"/><path class="cls-7" d="M70.18,63.75c.52.2.67,1.12.72,1.6,0,.11,0,.23-.14.2s-.19-.27-.22-.37c-.1-.38-.33-.69-.44-1.05C70.09,64.09,70,63.68,70.18,63.75Z"/><path class="cls-7" d="M76.14,54.51c-.9,2.3.38,4.6,1.71,6.53a.47.47,0,0,0,0,.28c.23.66.75,1.26,1.51.87s.73-1.4.58-2.11a17.07,17.07,0,0,0-1.72-4.26c-.37-.67-.86-1.48-1.71-1.39-.07,0-.09.08-.08.17C76.34,54.43,76.21,54.34,76.14,54.51Zm.5.77a.48.48,0,0,0,0-.24s0,0,0,0a5.52,5.52,0,0,1,1.82,2.4,12.1,12.1,0,0,1,.56,1.28A3.09,3.09,0,0,1,79,61.48l-.77-.26A.47.47,0,0,0,78,61C77.36,59.16,75.9,57.15,76.64,55.28Z"/><path class="cls-7" d="M81.34,57a4.78,4.78,0,0,0,.36,2.61,3.13,3.13,0,0,0,1.42,1.66c0,.09.11.15.18.14.71-.11.75-1.1.56-1.64a9.86,9.86,0,0,0-2.25-2.86C81.48,56.74,81.36,56.8,81.34,57Zm.43.88c.33.38.65.75,1,1.12.16.18.34.35.5.54a.5.5,0,0,1,.15.78.42.42,0,0,1-.29.54A3.69,3.69,0,0,1,81.77,57.86Z"/><path class="cls-7" d="M80,73.2c.08-.16.1-.43.29-.49s.3.32.31.42a1.32,1.32,0,0,1-.73,1.43c-.26.08-.36-.56-.28-.7S79.85,73.43,80,73.2Z"/><path class="cls-3" d="M85.9,83.65a4.84,4.84,0,0,0,.85-1c.17-.2.37.46.32.59a1.88,1.88,0,0,1-1,.93C85.92,84.29,85.75,83.76,85.9,83.65Z"/><path class="cls-3" d="M86.1,85.16h0a2.64,2.64,0,0,0,1-.1c.14-.07.25.36.18.45a1.38,1.38,0,0,1-.26.23c0,.06,0,.08-.08,0a.69.69,0,0,1-.78-.07C86.14,85.63,86,85.18,86.1,85.16Z"/><path class="cls-3" d="M57.2,92.36a7.08,7.08,0,0,1-.7-.64c-.09-.13-.23-.52,0-.63l.07,0a.15.15,0,0,1,.13,0,1.82,1.82,0,0,1,.65.7.76.76,0,0,1,.13.54C57.39,92.45,57.31,92.48,57.2,92.36Z"/><path class="cls-3" d="M55.51,89.58a.36.36,0,0,1-.15-.32c.07-.44.53-1,1-.83a.67.67,0,0,1,.27.81A1.17,1.17,0,0,1,55.51,89.58Z"/><path class="cls-3" d="M58,90.4a1.18,1.18,0,0,0,0-.42c0-.22.1-.47.26-.18a1.25,1.25,0,0,1,.14,1.11C58.22,91.21,57.92,90.54,58,90.4Z"/><path class="cls-3" d="M30.66,69.52c.05.24-.09.45-.27.18s-.5-1-.24-1.45c.12-.19.32.32.33.37C30.55,68.92,30.59,69.22,30.66,69.52Z"/><path class="cls-3" d="M38.58,68.46c-.4,0-.61-.71-.68-1,0-.1,0-.36.11-.37s.26.26.29.36a5.2,5.2,0,0,0,.32.62C38.65,68.12,38.76,68.47,38.58,68.46Z"/><path class="cls-3" d="M38.13,63.43c-.17.11-.33-.48-.24-.6a2.14,2.14,0,0,0,.32-.55,1,1,0,0,1,.21-.41c.24-.2.4.49.39.62A1.15,1.15,0,0,1,38.13,63.43Z"/><path class="cls-3" d="M42,63.78c-.17.2-.48-.53-.34-.72l.46-.65c.13-.18.21-.38.45-.43s.31.46.28.61A3.39,3.39,0,0,1,42,63.78Z"/><path class="cls-3" d="M38.8,92A4.15,4.15,0,0,1,37,89.62c-.12-.4.08-.76.35-.25a7.88,7.88,0,0,0,1.45,2C38.9,91.46,39.06,92.11,38.8,92Z"/><path class="cls-3" d="M36.1,87.09c-.19-.29-.36-.6-.56-.88a4.84,4.84,0,0,1-.61-.89c0-.11-.17-.49,0-.49s.6.56.75.79a4.72,4.72,0,0,1,.61,1.18C36.42,87,36.34,87.43,36.1,87.09Z"/><path class="cls-3" d="M42.8,91.23A1.28,1.28,0,0,0,41.72,91c-.39.08-.74.46-1.12.44-.08,0-.11-.19-.1-.25a1.91,1.91,0,0,1,1.35-1.21,1.08,1.08,0,0,1,1.15.71C43.09,90.82,43.18,91.59,42.8,91.23Z"/><path class="cls-3" d="M45.43,94a9.4,9.4,0,0,1-1.1-1.73c-.1-.16-.1-.67.11-.35a11.53,11.53,0,0,1,1.09,1.77C45.57,93.74,45.62,94.17,45.43,94Z"/><path class="cls-7" d="M69.73,45.43c-1.53.9-3.78,1-5.51,1.34-.09,0-.18-.25-.1-.29,1.63-.66,3.58-1.74,5.36-1.82C69.73,44.65,70,45.3,69.73,45.43Z"/><path class="cls-7" d="M80.68,47c-2.18-.43-4.29-1.15-6.44-1.69-.12,0-.24-.44-.08-.42a19.27,19.27,0,0,1,6.42,1.62C80.69,46.54,80.87,47,80.68,47Z"/><path class="cls-7" d="M54,59.84a20.58,20.58,0,0,1-.93,2.26c-.09.14-.22-.28-.22-.33A10.09,10.09,0,0,1,53.63,59c.23-.61.56-1.87,1.19-2.16.19-.09.32.45.3.57A9.73,9.73,0,0,1,54,59.84Z"/><path class="cls-7" d="M67.79,46.88c.12,0,.25.33.13.39-1,.51-2.12.83-3.11,1.4a16.25,16.25,0,0,0-3,2.26c-.05,0-.11-.14-.08-.18C63,48.8,65.33,47,67.79,46.88Z"/><path class="cls-7" d="M77.47,47.47a10.63,10.63,0,0,1-3.41-.22,17.59,17.59,0,0,0-4.1-.17c-.13,0-.23-.3-.12-.36a4.85,4.85,0,0,1,3.25-.44,13.65,13.65,0,0,1,4.27.76C77.44,47.08,77.63,47.44,77.47,47.47Z"/><path class="cls-7" d="M56.57,60.16c-.65,1.15-1.07,2.67-2,3.67,0,.05-.09-.12-.09-.14a12.09,12.09,0,0,1,1.52-4.18c.6-1.17,1.27-2.68,2.39-3.43.16-.1.28.44.25.53A32.92,32.92,0,0,1,56.57,60.16Z"/><path class="cls-7" d="M66.39,50.59c.13,0,.24.39.12.45-.93.47-1.94.74-2.86,1.24S62,53.37,61.12,53.91c-.07,0-.12-.18-.09-.23A6.61,6.61,0,0,1,66.39,50.59Z"/><path class="cls-7" d="M55,66.28c.08-.21.25.17.26.23A24,24,0,0,0,55.91,70a24.49,24.49,0,0,1,1,2.29s0,.06,0,.06c-.8-.15-1.3-1.88-1.52-2.54A5.84,5.84,0,0,1,55,66.28Z"/><path class="cls-7" d="M53.51,63.16c-.33,2.8-.43,5.16.9,7.79,0,0,0,.11,0,0-1.39-2.23-2.31-5.66-1.11-8.17C53.36,62.63,53.52,63.08,53.51,63.16Z"/><path class="cls-3" d="M63.89,32.91a2.84,2.84,0,0,1-.69.36c-.13,0-.23-.3-.15-.37a3.15,3.15,0,0,1,.55-.41,2.1,2.1,0,0,1,.69-.37c.14,0,.23.31.16.4A1.82,1.82,0,0,1,63.89,32.91Z"/><path class="cls-3" d="M84.2,31c-.37.06-.81-.21-1.19-.26s-.91.13-1.36.08c-.15,0-.27-.42-.17-.53a2.3,2.3,0,0,1,2.64.16C84.18,30.51,84.38,31,84.2,31Z"/><path class="cls-3" d="M96.61,43.36C94.58,39.53,93,36,90,32.77c-.11-.12-.29-1,0-.73,3.38,2.61,5.46,7.25,6.79,11.19C96.85,43.43,96.74,43.6,96.61,43.36Z"/><path class="cls-3" d="M98.2,42.87c-1.1-2.08-2.27-4.19-3.24-6.33,0-.09-.08-.63.12-.37a21,21,0,0,1,3.21,6.63C98.32,42.91,98.27,43,98.2,42.87Z"/><path class="cls-3" d="M60,93.34a2.24,2.24,0,0,1-.13-1.63A.14.14,0,0,1,60,91.6h.07c.2,0,.31.45.32.58,0,.41-.22.73-.2,1.16C60.24,93.56,60.08,93.48,60,93.34Z"/><path class="cls-3" d="M52,102a6,6,0,0,1-2-.16c-.08,0-.23-.35-.1-.39a14.89,14.89,0,0,1,2-.22,5.79,5.79,0,0,1,1.84-.18c.15,0,.32.46.19.56A3.38,3.38,0,0,1,52,102Z"/><path class="cls-3" d="M68.86,99.35c.17,0,.37.57.17.64a21.73,21.73,0,0,1-5.82.69c-2.07.12-4.12.35-6.19.54-.19,0-.34-.47-.19-.58,1.85-1.26,4.26-1,6.41-1.16A27.12,27.12,0,0,1,68.86,99.35Z"/><path class="cls-8" d="M34.33,36.91l-.33.27-.35-.86c-.33-.8-.65-2.22-1.54-2.57-.2-.08-.51-.73-.23-.86,1.76-.81,3.83,1,4.73,2.58a1.93,1.93,0,0,1-.44.32,6.33,6.33,0,0,0-1.29-1.87,2.87,2.87,0,0,0-2.09-.37,4.84,4.84,0,0,1,.56,1C33.57,35.08,34.11,36.39,34.33,36.91Z"/><path class="cls-8" d="M118.12,20.54a7.68,7.68,0,0,0-2.5-1.91c-.36-.19-.66-.3-1-.47-2.49-1.2-2.75-2.21-4.53-4.08-.32-.34-.26-1-.92-1.05-1.35-.16-3.33,1.79-4.53,2.32-2.15.94-3.56.32-5.49-.78A7.09,7.09,0,0,0,97.82,14l-.22-.08,0,0a3.12,3.12,0,0,0-.53-.11,5.78,5.78,0,0,0-4,1c-1.61.94-2.92,2.3-4.63,3.09a23.55,23.55,0,0,1-5,1.33,14.82,14.82,0,0,0-7.19,3.74A14.4,14.4,0,0,0,78,22.74,21.8,21.8,0,0,1,83,20.28c2.62-.63,5-.92,7.35-2.32a22.32,22.32,0,0,0,1.88-1.33c.36,1.14-.89,1.64-1.81,2.24a6.51,6.51,0,0,0-2,1.53,1.72,1.72,0,0,0-.2,1.4c0,.06.08.86-.09.92l1,.05c-.54-1,1.64-2.89,2.34-3.33s1.5-.8,1.56-1.7a2.93,2.93,0,0,0-.36-1.44A11.83,11.83,0,0,1,94,15.45a.07.07,0,0,0,.1,0c.34-.39.83.36,1,.61a2.09,2.09,0,0,1,.21,1c0,.11.06.34.2.37l.07,0a.17.17,0,0,0,.1,0,2.05,2.05,0,0,0-.44-2,3.48,3.48,0,0,0-.34-.41,4.77,4.77,0,0,1,1.25-.31,4.15,4.15,0,0,1,2.35.51,1.53,1.53,0,0,1,.25.82,2.27,2.27,0,0,1,.36,1.51,5.52,5.52,0,0,0,.16,1.34,2.08,2.08,0,0,0,1.52,1.58c1.06.13,1.6-1,1.58-1.86a3.51,3.51,0,0,0-.54-1.68,3.64,3.64,0,0,0,.59.09c2.18.12,3.56-1.51,5.45-2.16,2.31-.79,1.36-.37,2.43,1.36a8.08,8.08,0,0,0,3.6,2.77c.49.55,1,1.1,1.44,1.67a2.4,2.4,0,0,1,.81,2c.5.73.45,1.2-.16,1.43a6.53,6.53,0,0,1-1.29.72,7.13,7.13,0,0,1-2.17.73,23.32,23.32,0,0,1-2.39-.21c-.4,0-1.08,1.06-1.34,1.38.5.14.55.18,1.06.32.05,0,.84-.72.87-.72.36,0,.7.18,1.06.22a5.08,5.08,0,0,0,2-.21c1-.31,2.83-.94,3.19-2,.51-1.58-.52-3.29-1.73-4.67,2.36,1.09,4.55,2.33,3.22,6.49a10.16,10.16,0,0,1-2.66,3.5,3.91,3.91,0,0,0,1.24.47C120.36,27,120.41,23.38,118.12,20.54Zm-17.33-.87c-1.27.26-1.11-1.77-1.21-2.67a9.45,9.45,0,0,0-.16-1.22,11.6,11.6,0,0,0,1.57.9C101.71,17.61,102.46,19.34,100.79,19.67Z"/><path class="cls-8" d="M92.25,22a19.39,19.39,0,0,1,3-3.21c.18-.16.37.44.27.58-.69,1-1.45,2-2.21,2.95,0,0-.23.83-.25.86A8.17,8.17,0,0,0,91.81,23S92.22,22.05,92.25,22Z"/><path class="cls-8" d="M104.3,62.49c.17.44.41.92.7,1.5.11.23.43.36.52.62a4,4,0,0,1,.39,1.25c0,.9-.21.69-.56,1.41a.85.85,0,0,1-.67.14s-.14-.06-.19-.09c0-.41-.07-.81-.11-1.22a1.57,1.57,0,0,0-.2-2C104.15,63.47,103.86,61.82,104.3,62.49Z"/><path class="cls-8" d="M103.81,94.79c.21,0,1.24,0,1.46,0a9.45,9.45,0,0,0,1.16-.15,17.31,17.31,0,0,1-1.89-2c0-.17,0-.92,0-1.1s.15-.11.17-.21a16.71,16.71,0,0,0,2.54,3.28h.12a3.12,3.12,0,0,1,2.17,1.25c.8,1,2.07,3.24,1.35,4.53,0,.08-.13-.18-.12-.22a4.17,4.17,0,0,0-2.86-4.4s0,0-.1,0h0a2.34,2.34,0,0,0-.7,0,27.42,27.42,0,0,1-3.61.09C103.63,95.43,103.71,95.14,103.81,94.79Z"/><path class="cls-3" d="M21.74,72.41h0c.21.67.44,1.33.72,2A23.38,23.38,0,0,0,25,78.63h0a.35.35,0,0,1,.1.21c0,.24.3.44.46.62a1.09,1.09,0,0,1,.1.11s0-.06,0-.09c1.61,2.08,3.43,4,5.15,6,2.11,2.44,3.42,5.08,5.1,7.8a9.65,9.65,0,0,0,1.43,1.88h0c.29.22.58.42.86.62h0a2,2,0,0,0,.63.21c1.42.2,2.15-1.21,3.28-1.36,1.29-.17,2.58,1.8,3.23,3.22a1.28,1.28,0,0,0,.07.74c.09.19.17.39.25.59a7.13,7.13,0,0,1,.36.91.43.43,0,0,1,0,.07l.07.2h0c1.06,2.52,2.22,4.91,4.79,5.88a41.3,41.3,0,0,0,6,.37c1.4-.14,2.81-.34,4.15-.46l.27,0c1.63-.3,3.27-.34,4.92-.53l.28,0c1.17-.15,2.26-.33,3.4-.4l2.46-.3q5.5-.75,11-1.65c.46-.13.92-.25,1.38-.35,1.75-.36,3.5-.7,5.27-1,2-.33,4.12-.58,6.16-1a13,13,0,0,1,2.66-.57,7.92,7.92,0,0,0,2.52-1.33,7.58,7.58,0,0,0,2.16-3.15h0c.14-.51.28-1,.43-1.53.09-.31.41-1,.58-1.63a6.7,6.7,0,0,1,.08-.77s0-.08,0-.1a.33.33,0,0,1,.14-.44s0-.07,0-.11c.29-1.34.53-2.69.7-4,0,0,0,0,0,0,0-.55.25-1.14.27-1.7a2.07,2.07,0,0,1,0-.35.09.09,0,0,1,0,0,.38.38,0,0,1,0-.24,1.13,1.13,0,0,1,0-.18,48.52,48.52,0,0,0,0-7,.32.32,0,0,1-.12-.27c0-1.76-1.11-3.29-1.51-5a19.28,19.28,0,0,1-.49-4.48.32.32,0,0,1,.09-.24c-.08-1.48-.41-2.94-.35-4.42a10.69,10.69,0,0,1,1-3.48.31.31,0,0,1,.11-.16l.06-.12c0-.05,0-.09.07-.14,1.4-2.64,4.11-4.52,6.82-6.31a8,8,0,0,1,3.47-2.33l.77-.64h0c.27-.23.54-.45.79-.69,3-2.83,6.67-6.68,6.71-11.14a7.27,7.27,0,0,0-1-3.93.37.37,0,0,1-.2-.14c-.21-.31-.47-.58-.67-.9a2,2,0,0,1-.11-.26,12.6,12.6,0,0,0-3.78-2.67c-.57-.47-1.47-.54-2.18-1-2-.9-4-1.72-6.1-2.43v0c-.45-.12-.9-.26-1.35-.41s-.77-.27-1.16-.39c-.7-.22-1.39-.42-2.09-.62h0c-2.8-.76-5.67-1.29-8.52-1.88q-1.36-.21-2.73-.39a.36.36,0,0,1-.27,0l-.22-.07h-.07a6.17,6.17,0,0,0-.65-.16.36.36,0,0,1-.31.08l-.63-.08-1.4-.13c-.6,0-1.21-.06-1.78-.08a.47.47,0,0,1-.17,0,76.93,76.93,0,0,0-9.84.05,2.67,2.67,0,0,1-.69.09H76.22l-.06.05c-1.52.14-3,.33-4.55.56-.89.14-1.77.3-2.65.47h0a6.71,6.71,0,0,1-1.46.33h0q-2.79.6-5.53,1.37c0,.07-7,2.23-7.18,2.28a.31.31,0,0,1-.16.11c-1,.33-2.11.58-3.14,1l0,0a4.65,4.65,0,0,1-1.89.76c-.45.16-.94.31-1.39.48,0,0,0,0-.07,0-.2.07-.39.18-.6.24-1.72.63-3.45,1.3-5.13,2l-.07,0h0c-.31.16-.63.32-1,.46h0a49.1,49.1,0,0,0-4.57,2.34,10.37,10.37,0,0,1-2,1.28l-.43.31v0l-.1.08-.22.19h0l-.22.18c-.91.79-1.74,1.62-2.64,2.42l-.15.16h0a28.59,28.59,0,0,0-2.4,3h0c-.21.31-.42.61-.62.92l0,0c-.11.17-.21.34-.32.5h0a10,10,0,0,0-.91,1.41h.07c-.21.37-.42.74-.62,1.13h0l-.14.25a1.44,1.44,0,0,1-.42.85h0a53.32,53.32,0,0,0-4.26,13.56c-.15.84-.26,1.68-.34,2.53h0c0,.31-.05.61-.06.93,0,0,0,0,0,0a23.35,23.35,0,0,0,0,2.51h0c0,.34.06.7.07,1.05h0a20.2,20.2,0,0,0,.5,2.9h0C21.59,71.82,21.67,72.12,21.74,72.41Zm98.56-31.9c-.34.12-.72.21-1.13.33l-.34.12a9,9,0,0,0,.58-.7c.41-.55.6-1.2,1-1.74a1.92,1.92,0,0,1,.8-.65A6.93,6.93,0,0,1,120.3,40.51Zm-8.13,7.61c-.29,0-.6,0-.9.1l-.09-.09c-.5-.44-.78-.1,0-.46a8.91,8.91,0,0,1,2.5-1.21l2.1-.37c-.56.54-1.14,1.06-1.73,1.56C113.4,47.78,112.83,48,112.17,48.12Zm-89,24.39c-1.95-5.76.28-12.21,2.27-17.67,1.71-4.69,3.81-9.4,7.46-12.94s8.76-5.6,13.56-7.47C51,32.67,55.5,31,60.15,29.52a83.24,83.24,0,0,1,22.21-3.77q.56.33,1.08.69c1.58,1,3.08,2.18,4.64,3.24.14.09,0-.28,0-.32A19,19,0,0,0,83.9,25.7h1A50.76,50.76,0,0,1,94,33.62c.14.16.11-.2.06-.27a36.87,36.87,0,0,0-7.33-7.6h.78a78.51,78.51,0,0,1,24.56,5c2.25.86,5.12,1.74,7.1,3.14a4.51,4.51,0,0,1,2,2.66,1.93,1.93,0,0,0-.58.24c-.81.51-1,1.48-1.49,2.24a8.28,8.28,0,0,1-2.24,2.29c-.31.21-.51.24-.59.49a2.55,2.55,0,0,1-.8-.09c-.52-.15-1.09-.62-1.65-.26s-.16,1.33-.77,1.84c0,0,0,.28.1.25.65-.29,1-1.3,1.8-1.41.45-.07.94.23,1.44.33a.07.07,0,0,0,.06,0,2,2,0,0,0,.34,0,4.18,4.18,0,0,0,1.21-.39c.56-.22,1.13-.37,1.68-.53-.23.34-.47.67-.71,1-.56.74-1.16,1.43-1.78,2.1-1.53.2-3.77.34-5.09,1.12-.45.26-.76.71-1.22,1a1.26,1.26,0,0,1-.29.12.27.27,0,0,1,0-.09c0-.09-.18-.72-.38-.59a3.55,3.55,0,0,1-3.81.26c-.11-.05-.2-.05-.25.08-.45,1.36-1.29,1.23-2.14,2-.5.45-.9,1.61-1.83,1.3a.11.11,0,0,0-.13.08,5.73,5.73,0,0,0-.12,2.14l-.25,0c-.35,0-.1,1,.2,1,1,.06,2.52.83,3.46.43.72-.31.35-.34.79-.86l.15-.52a1.84,1.84,0,0,1,1.47-1,5,5,0,0,0,2.59-2.55,1,1,0,0,0,.35.11.41.41,0,0,0,.15.33,3.16,3.16,0,0,0,1.34.28c-1.11.86-2.24,1.69-3.39,2.5-3.37,2.39-5.24,4.93-6,8A15.06,15.06,0,0,0,100,52.33c-.25-.34-.23.34-.16.48a21.62,21.62,0,0,1,2.54,10.08.76.76,0,0,0,.09.22,24.74,24.74,0,0,0,.47,4.25c1,5,1.92,9.86,1.65,15-.22,4.13-.54,11-3.71,14.09s-10.1,3.13-14.19,3.85q-7.47,1.32-15,2.35c-5,.69-10,1.33-15,1.88-2,.21-4.43.67-6.36-.12s-2.85-2.61-3.56-4.44a1,1,0,0,0-.34-.87c-.15-.39-.3-.77-.46-1.14s-.27-.42-.37-.41c-.85-2.46-1.11-4.36-3.88-5.64a.29.29,0,0,0-.29.1c-.48.38-1.77,1.4-2.48,1.32-1.27-.15-2.75-2.63-3.36-3.56-1-1.54-1.83-3.11-3-4.57C29.36,81.13,24.83,77.55,23.12,72.51ZM110,48a3.53,3.53,0,0,1-2,2.1c-.59.22-1.25.14-1.71.62-.76.79-.34,1.89-1.82,1.89a12.44,12.44,0,0,1-2.33-.54c0-1.25.7-1.26,1.58-2a27.63,27.63,0,0,0,2.55-1.85c.74-.72.79-.37,1.79-.36a3.55,3.55,0,0,0,1.82-.5A1,1,0,0,0,110,48Z"/><path class="cls-8" d="M13.17,62.25c-.49-1.32,0-3.1.15-4.42a37.08,37.08,0,0,0,0-11.13,15.8,15.8,0,0,1,.31-5.77c-1.16.25-1.79.59-2.4,2.24-.14.38.15,1-.15,1.34-.48.58-.48,1.44-1.58,1.18s-1.05-1.5-1-2.3c.19-3.22,1.79-5.79,4.95-6.3a10.53,10.53,0,0,0,4.89-1.77,11,11,0,0,1,2.14-1.16c2.89-1,2.53.09,3.72-4.14,0-.14.07-.26.1-.38s0-.12-.05-.17c-.09-.28,0-.56.18-.45a3.37,3.37,0,0,1,1-1.92,15.09,15.09,0,0,1,5.63-3,22.72,22.72,0,0,1,12.79-.21,42.73,42.73,0,0,0,6.34,1.12c2.27.18,4.58,1.36,6.75,1.24,4.34-.22,7-5.89,11.41-4.69.37.1.5.76.43,1.07L69,23.91l-.82.22c0-.21-.12-1.21-.11-1.44-2.15-.25-4.1,1.27-6,2.67-5.5,2.42-5.29,1.51-7.67,1.64a16.34,16.34,0,0,0-3.25-.72c-7.92-.61-14.91-3.74-22.6.28a5.58,5.58,0,0,0-3.36,4.37c.23,1,.37,2,.69,2.94a12.4,12.4,0,0,1,1,3.09c0,1-.78,1.45-1.37,2.2-2.19,2.83,1.14,3.36,3.18,3.73-.13.2-.27.38-.39.57l-.17.25c-2.06-.1-5-.86-4.67-3.31.19-1.57,2-1.81,2.52-3.09.36-.84-.58-2.47-.83-3.31a8.63,8.63,0,0,1-.2-.88,1.52,1.52,0,0,1-.13.35,1.86,1.86,0,0,1-.81.83,3.42,3.42,0,0,1,.15,1.32c-.07.6-.53,1.58-1.22,1.64-.16,0-.26-.35-.18-.46a3.36,3.36,0,0,0,.83-1.38,1.75,1.75,0,0,0-.08-.89l-.63.24c-.78.3-1.68.26-2.46.58-1.13.47-2,1.54-3.06,2.08a7.34,7.34,0,0,1-2.42.71c-1.48.24-2.78,0-3.95,1.17-.35.35-1.59,2.13-1.42,2.74.39,1.43,1.43-.69,1.2-.48.1-.09.23-.47.29-.52a5.31,5.31,0,0,1,3-1.47c.43-.08.56.82.5,1.08-.72,3.47-.17,6.81,0,10.23a2.18,2.18,0,0,1,.34-.63c.4-.54,1.09-.76,1.51-1.27.22-.27.4-1.16.7-1.47a2.13,2.13,0,0,1,2.1-.52c1.08.11,1.66.44,2.7-.13a9.76,9.76,0,0,0,1.91-1.68,4.61,4.61,0,0,1-1.38-1c-.07-.08-.13-.44,0-.3,1.26,1.15,3.75.85,5.23.6a7.42,7.42,0,0,0-.81,1.32,16.54,16.54,0,0,1-2.22-.23.29.29,0,0,1-.05.17c-.42.45-.91,1-1.44,1.53l.29,0a3.43,3.43,0,0,0,1.11-.09.34.34,0,0,0,.2,0,4.73,4.73,0,0,1,1.38.08,1.07,1.07,0,0,0-.07.19,1.14,1.14,0,0,1-.34.51,22.48,22.48,0,0,1-3-.39c-.16.11-.31.22-.46.31-1.13.63-1.75.22-2.91.06-1.51-.21-1.59.72-2.38,1.64s-2.31,1.33-2.41,2.46c0,0,0,0,0,0A24.19,24.19,0,0,1,14.31,55c-.46,3.6-1,6.8,1.19,9.86.39.55,1.64,1.59,2.49,2.56a3.25,3.25,0,0,1-.23-.54,12.31,12.31,0,0,1-.18-1.44,10.85,10.85,0,0,0-1.38-3.31,5.06,5.06,0,0,1-.69-2.22c0-.13.09,0,.1,0,.37,1.71,1.67,2.8,2.19,4.41s2.81,3.35,4.33,3.12c0,.31-1.1.79-1.1,1.1a4.54,4.54,0,0,1-2.52-.48,2.28,2.28,0,0,1,.23.43c.71,1.88.52,3.69,2.79,3,.09.3.18.59.25.89-1.45.46-3.29.44-3.68-1.31a2.65,2.65,0,0,1,.36-.93A1.85,1.85,0,0,0,17,67.94c-.62-.51-1.14-.54-1.65-1.18-.28-.35-.19-.91-.33-1.28C14.5,64.1,13.66,63.56,13.17,62.25Z"/><path class="cls-8" d="M54.18,109.22a4.36,4.36,0,0,1-1.59-1.31c-.2-.23-.71-1.32-.89-1.59l.6.07c.46.49,1.38,1.77,1.84,2.27C54.2,108.72,54.39,109.31,54.18,109.22Z"/><path class="cls-8" d="M35.35,121.38c2.21-.49,4.42-1.25,6.59-1.91,1.49-.45,3.4-.87,4.63-1.87.1-.09,0-.34,0-.43-.43-1.51-.08-3.25,1.85-3h0a3.52,3.52,0,0,0,1,.26A4.84,4.84,0,0,0,53.62,112a.34.34,0,0,0,0-.19c1.55,1.39,3.18,2.36,5.28.94.31-.2.68-.7,1-.9,1.23-.68,2-.26,3.21-.38a6,6,0,0,0,3.68-1.85.23.23,0,0,0,.06-.12,21.87,21.87,0,0,0,6.15,1.33c1.87.2,4,1,5.89.73s2.4-1.86,4.1-2.24c3.5-.77,7.32-.19,10.8-1,2.29-.55,3.69-2.5,4.38-4.66.06.11.14.2.22.19,2.64-.15,3.85-2.42,6-3.69,1.44-.84,4.26-.82,3.12,1.34-.63,1.21-3.11,1.74-4.28,1.81-.1,0-.1.22-.1.28.33,2.86,2.58,2.47,5,1.79a14.77,14.77,0,0,0,5.73-2.81,11.2,11.2,0,0,1,3-2.31,5.83,5.83,0,0,0,2.68-1.81A10.9,10.9,0,0,0,122.22,94c.33-1.51-.22-2.16-.36-3.58.06-1.34.13-2.68.19-4a3.93,3.93,0,0,0,.58-.82c.13-.74.31-.65.34-1.1a2.41,2.41,0,0,0-.82-2.19c-.07-.09-.17-.14-.27-.06a4.87,4.87,0,0,1-.53.39,5,5,0,0,0-1-1.16,2.62,2.62,0,0,0-1.22-.78c-.33,0-.05.71.06.81a12.78,12.78,0,0,0,1.1.84c.22.18.41.38.61.57-1.47.88-3.64,1.65-5,.63s-1-2.67-1.06-4a17.67,17.67,0,0,0-1.3-5.36c-.49-1.22-1.22-2.34-1.79-3.53a1.05,1.05,0,0,0-.26-.58c0-.09-.09-.17-.12-.26-1.39-3.58-.71-4.63-.2-7.78a8.94,8.94,0,0,0-.26-4.76,10.52,10.52,0,0,0,.78-.83,5.2,5.2,0,0,0,1.43-3.92s0,0,0,0h0c1,.36,2.28-.31,2.5-2.44-.26.21-.87,1.71-1.14,1.9a1.58,1.58,0,0,1-1.07,0,4.33,4.33,0,0,0-.6.25c-.13,0-.26.24-.3.79-.24,2.35-3.62,4.18-5.26,5a5.45,5.45,0,0,0-2.3,1.75c-.86.85-.26,1.23-.4,1.63.07-.12.14-.24.22-.35l0-.06c.19-.18.34-.27.41-.47a4.82,4.82,0,0,1,.86-.62,1.28,1.28,0,0,0,.18.58c2.88,3.59,1.11,6.72,1.72,10.57a5.56,5.56,0,0,0,1.25,3.09c.75.62,1.5.48,1.7-.61.08-.37-.14-.72-.18-1.09-.11-1.22-.46-2.44-.5-3.66,0,.11.06.21.1.32.25.67.54,1.32.83,2a16.76,16.76,0,0,1,.18,2.82,8.45,8.45,0,0,1-1.17,3,4.6,4.6,0,0,0-.4,3.38c0,.09.16.2.14,0-.23-2,1.49-3.36,1.95-5.17a7.16,7.16,0,0,0,0-2.65,19,19,0,0,1,2.31,7c-.18-.29-.44-.49-.42,0a3.2,3.2,0,0,1-.95,2.47c-.44.42-1.13.55-1.52,1-.65.69-.19,2.27.14,3,.39.9,1.07.9,1.88.37a3.14,3.14,0,0,0,1.36-2.34,3.65,3.65,0,0,0,1.41.8,2.44,2.44,0,0,0,.32.11,1.1,1.1,0,0,0,.1.36c1.43,2.5.11,3.27-.69,5-.53,1.11-.69,2.54-1.48,3.53-.23.29-1,1.19-1.43,1.09a21.84,21.84,0,0,1-1.09-2.3c-.14-.58.13-1-.1-1.58-.31-.83-.88-1-1.55-1.54-1.43-1.09-1.46-2.84-2.1-4.44l1.11-1.2c.24-.06,0-.63-.06-.73-1.91-2.66-.7-5.8-2.06-8.59-.55-1.12-1.45-2.12-2-3.31a.37.37,0,0,1-.14-.18.56.56,0,0,0-.17-.21.44.44,0,0,1-.15.08,16.89,16.89,0,0,0,.51,2.18c.16.31.33.61.49.93,1.7,3.33,1.27,2.82,1.44,5.42a7.43,7.43,0,0,0,.14,1.34,5.84,5.84,0,0,0,1.29,2.33A7.08,7.08,0,0,0,107,84a4.38,4.38,0,0,0-.15,1.57,2.18,2.18,0,0,0,.38.18l0,0h0a.14.14,0,0,0,.08-.09L108,85c.25,1.27.18,2.75.83,3.85.51.86,1.51.93,2.13,1.6,1.2,1.3-.89,4.28,1.31,5.13,2.72,1,3.8-4,4.66-5.49a4.6,4.6,0,0,0,.18-5.22c1.4.14,2.35-.7,3.84-.67,1.78,0,0,1.79-.29,2.93s.23,1.47.35,2.54c.29,2.48.71,4.31-.72,6.47a8.12,8.12,0,0,1-3.62,3.17c-1.1.62-1.7.93-2,1.05a20.58,20.58,0,0,1-2.94,2.64c-1.44.83-4.73,2.57-6.23,1.52-1.31-.91,0-.74.88-1.33a5.83,5.83,0,0,0,2-1.76,2,2,0,0,0-.45-2.63c-2.77-2.22-7.15,3.57-9.55,4.3a21.75,21.75,0,0,0,.45-2.84,6.77,6.77,0,0,0-.76.08c-.34,2.44-1.7,5.87-4.1,6.71-1.28.45-2.53-.15-3.73.07-.47.08-.57.58-1,.74-1,.43-2.19.18-3.23.33-1.3.18-3.08.81-4.32.18-.08,0-.13,0-.16.05-1,2.6-4,2.39-6.73,1.93,1.36-.46,2.41-1.83,3.6-2.56a.23.23,0,0,0,.07-.1l.25.06a9.53,9.53,0,0,0,2.77-.07c.26,0,0-1-.25-1a15.25,15.25,0,0,1-3.32-.26,3.36,3.36,0,0,0-2.08,0c-2.14.56-4.44-.45-6.12-1.29-.31,0-.81,0-1.12,0,.7.43,2.37,1.75,3.08,2a6.19,6.19,0,0,0,2.74.54,12.09,12.09,0,0,0,1.73-.39,6.74,6.74,0,0,1,1.06-.13c-.38.3-.69.72-1.05,1A14.23,14.23,0,0,1,73.42,110a.15.15,0,0,0-.06.13c-.61-.11-1.18-.21-1.67-.26a17.94,17.94,0,0,1-9.11-3.92L62,106A16.74,16.74,0,0,0,66,109c-1.44,1.19-2.62,1.21-4.53,1.41a2.64,2.64,0,0,0-1.6.52c-1.64,1.22-2.28,3-4.67,1.46-1.09-.72-2-1.79-3.06-2.56-.18-.14-.09.38,0,.46l.95.91c-.81,1.17-1.8,2.33-3.31,2.44a3,3,0,0,1-1.32-.2c0-.07-.1-.13-.16-.14l-.25,0a10.28,10.28,0,0,1-2.32-2c-.11-.12-.08.15,0,.2a11.79,11.79,0,0,0,1.46,1.71c-1.11.14-.92,1.18-1.3,2.63s1.22.14-.66,1.52a11.79,11.79,0,0,1-3,1.08,40.17,40.17,0,0,0-6.47,2.13c1.27-2.4,2.95-5.25,3.42-7.82a6.18,6.18,0,0,0-.05-1.92,6,6,0,0,1,.58-3.5,3.26,3.26,0,0,1,.26-.37,3.66,3.66,0,0,0,1.94-.68,11.71,11.71,0,0,0,1.38,1.85c.25.37.24-.22.13-.4-.32-.53-1.24-1.5-1.14-2.06s.71-.89,1-1.28a1.78,1.78,0,0,0,.38-1.24c-.07-1-1.23-2.32.2-3,.35-.17,1.27,0,1.21-.6,0-.45-.66-.56-1-.52a1.71,1.71,0,0,0-1.33.95,2.38,2.38,0,0,0,.09,2.08c.37,1.16-.13,1.49-.69,2.38a2,2,0,0,0-.34.94,1.38,1.38,0,0,0,0,.5c-.35,0-.71,0-1.07,0,0-.12-.1-.2-.18-.16l-.31.16a1.94,1.94,0,0,1-1.85-.87c-.72-1.23.26-.67.58-1.78a2,2,0,0,0-.33-1.48c-.65-1-1.21-.43-1.12-1.85.12-1.76.35-.45,1.05-1.46a1.63,1.63,0,0,0,.15-1.3,3,3,0,0,0-.63-.65.5.5,0,0,1-.1.21l0,.07s0,.07,0,.1c0,.92-.36.59-1.13,1.09a3.45,3.45,0,0,0-.79.62c-1.3-.06-2.21-.89-2.73-2.5.15-.27,0-1-.41-1-.79,0-.57-3.94-1-4.89a11.12,11.12,0,0,0-3.4-4c-1.58-1.13-2.71-1.37-2.88-3.67,0-.66,0-2.41,0-3.11-.15,0-.53-.71-.64-.85a24.8,24.8,0,0,0-.36,5.66,2.66,2.66,0,0,0,.27.84c.79,1.54,3.06,1.63,4.36,2.69a6.94,6.94,0,0,1,2.36,4.91c0,.31-.29.67-.24,1a8.06,8.06,0,0,0,.06,1,2,2,0,0,0,1,1.4c-.49,1.91,1.3,3.1,3.18,3.54a2.42,2.42,0,0,0,.32,1.32c.35.6,2.19,1.26,2.22,1.82,0,.33-1.16,1-1.23,1.65a2.22,2.22,0,0,0,.28,1.18,2.47,2.47,0,0,0,1.61,1.3,2.65,2.65,0,0,0-.6,2.48c.15,1.48.88,1.05.21,3.49a21,21,0,0,1-1.07,2.49c-.77,1.8-1.55,3.58-2.24,5.41a.35.35,0,0,0,0,.22C35.12,121.15,35.22,121.41,35.35,121.38ZM114.2,81.62a3.78,3.78,0,0,0,.24,1.82l0,0a3.13,3.13,0,0,1-1.68,2,1.43,1.43,0,0,1-.73.17,1.48,1.48,0,0,1,0-1.87,9.48,9.48,0,0,1,.84-.44A3.61,3.61,0,0,0,114.2,81.62ZM110,66.82a5,5,0,0,0-.47,3.1c0,.16.53,1.54.5,1.72.38.93-.09.25-1.43-2,0-.61.07-1.22.13-1.83a11.17,11.17,0,0,0-2.16-8.16c.73-.37,1.52-.64,2.25-1a7.68,7.68,0,0,0,1.62-1C111.36,60.67,109.85,63.72,110,66.82Z"/><path class="cls-8" d="M66.78,107.55c.14.08.36.73.1.7a5.63,5.63,0,0,1-3-1.74l.78-.12.21.16C65.45,107,66.13,107.21,66.78,107.55Z"/><path class="cls-8" d="M104.84,19.55c-.89-2.56,1.36-3.28,3.49-2.32,1.5.67,6.34,3.2,5.1,5.74-.77,1.59-2.9.46-4.17.88s-3.19,1.41-4.16,1.75a11.76,11.76,0,0,0-1.44-.39,19.83,19.83,0,0,0,3.94-1.59,7.41,7.41,0,0,1,2.16-1c.32,0,1.15.25,1.36.15l.81-2.44c-.37-.3-.76-.59-1.15-.86a18.69,18.69,0,0,0-2-1.28c-1.22-.61-3.34-1.59-2.79,2,0,.28.5.48.54.78.13.93.53,1.12-.07,1.86-.75.93-3.91,1-5,1.05L98,24c-1.34-.31-.19-.06-1.53-.33A8.44,8.44,0,0,1,99.52,23c1.48.09,4,.21,5.41-.56,1.23-.68,1-.65.4-2.16C105.22,20,104.93,19.81,104.84,19.55Z"/><path class="cls-8" d="M36.63,31.48c-1.48.36-2.36-1.58-1.74-2.77,0,0,0-.06.07-.05h.11c0-.77.23-1.3,1.49-1.44a19.39,19.39,0,0,1,3.12.25,8.18,8.18,0,0,0,2.75-.14,6.46,6.46,0,0,1,1.29-.41c1.75-.12,3.59,1.78,4.42,3.3,0,0-.43.2-.54.23-.65-.95-2-2.38-3.15-2.54a18.42,18.42,0,0,0-2.83.27c-1.13,0-2.26-.08-3.39-.07-1.5,0-2.24.16-2.88,1.45.27,1,.72,1.29,1.36.84l.39-.19a1.78,1.78,0,0,1,.85-.17,5.72,5.72,0,0,1,2.14,1.28c.41.28,1.68,1.07,2.1,1.3-.28.13-.56.24-.85.36-.42-.3-1.69-1.14-2.13-1.41C38,30.82,37.73,31.22,36.63,31.48Z"/><path class="cls-8" d="M27.31,40.6c-.21.15-.37-.59-.33-.71.3-.88.58-1.77.83-2.67.39-1.37-.43-2.29-1.12-3.41-.1-.16-.12-.68.12-.36l.51.65c1,.77,2.66.74,3.79,1.35a7.86,7.86,0,0,1,2.17,2.37l-.38.36s-.61-.7-.62-.73a3.34,3.34,0,0,0-2.54-1.83,7.49,7.49,0,0,1-1.81-.7,2.71,2.71,0,0,1,.55,1.59,11.12,11.12,0,0,1-.72,2.77c.93-.47,3.11-.3,4.21-.24l-.37.32-.25.23-.49.5C29.93,40.1,28.09,40.05,27.31,40.6Z"/><path class="cls-8" d="M21.07,40.08a1.77,1.77,0,0,0,.15,1.6c.06.09.09.54-.07.34a3.06,3.06,0,0,1-.65-2c0-.59.31-1.82,1-1.88.28,0,.39.54.29.72C21.61,39.34,21.24,39.61,21.07,40.08Z"/><path class="cls-8" d="M19,54.83a3.46,3.46,0,0,1,1.15,2.75c-.1.63-.64.88-.86,1.43s.15,1,0,1.56c-.05.13-.17-.16-.17-.22.06-.54-.38-1-.34-1.56s.49-.8.72-1.31c.71-1.63-1.5-2.75-2.69-2.51a2.36,2.36,0,0,0-1.83,2.69c0,.49-.36.17-.44-.1A2.68,2.68,0,0,1,19,54.83Z"/><path class="cls-8" d="M30.94,28.37c-.69.5-1.58.55-2.29,1.05a2.45,2.45,0,0,0-1.11,1.95c0,.31-.28-.11-.3-.21-.36-1.86,1.69-3.58,3.48-3.44C30.89,27.74,31.08,28.27,30.94,28.37Z"/><path class="cls-8" d="M33.2,27.5c-.14.08-.39-.52-.19-.59l.49-.17c.16,0,.28.4.16.48Z"/><path class="cls-8" d="M44.34,106.23a21.19,21.19,0,0,1,1.18,2.21c.07.13.09.79-.16.47a5.87,5.87,0,0,1-1.2-2.56C44.14,106.2,44.21,106,44.34,106.23Z"/><path class="cls-8" d="M47,110.42a3.69,3.69,0,0,1,.7.61,3.74,3.74,0,0,0,.95.63,2.5,2.5,0,0,0,1,.21,8.71,8.71,0,0,0,1-.22c.31,0,.51.68.36.89-.48.63-1.54.4-2.14.11a5,5,0,0,1-2-1.82C46.93,110.76,46.79,110.32,47,110.42Z"/><path class="cls-8" d="M55.62,109.58a20.31,20.31,0,0,0,2.35.2,13.77,13.77,0,0,0,2.21-.46c.18,0,.35.46.23.56a4.09,4.09,0,0,1-4.75.06S55.47,109.58,55.62,109.58Z"/><path class="cls-8" d="M69.23,107.91a6.06,6.06,0,0,1,1.23.28,13.36,13.36,0,0,1,1.41.23c.14,0,.37.56.17.61a3.06,3.06,0,0,1-1.37-.15,3.61,3.61,0,0,1-1.34-.49C69.27,108.34,69.07,107.92,69.23,107.91Z"/><path class="cls-8" d="M85,106.32c1.14-.47,2.47-1.34,3.69-1.42s2.4.32,3.65-.33c.21-.11.4.56.28.69-.88,1-2.08.59-3.24.55-1.55-.06-2.73.88-4.33.71C85,106.52,85,106.34,85,106.32Z"/><path class="cls-6" d="M23.21,109.52c.14-.22.44.5.37.66a10.05,10.05,0,0,0-.46,7c0,.1-.05.21-.12.08A8.25,8.25,0,0,1,23.21,109.52Z"/><path class="cls-6" d="M26.06,106.33c2.19-4.25,1.06-7.92-.69-12.1-.08-.18-.05-.72.18-.34,2,3.48,3.88,9.21.57,12.54C26.09,106.46,26.05,106.35,26.06,106.33Z"/><path class="cls-6" d="M50.37,20.89C47,19.41,43.72,17.84,39.93,18.5c-3.07.55-6.1,2-9,3-7.29,2.63-14.19,5.84-21.25,9C8.48,31,6.52,31.22,5.54,32c-2,1.54-1.46,5.08-1.32,7.21a67.11,67.11,0,0,0,2,11.17c1.92,8,4.63,15.58,7.22,23.33.06.17-.05.34-.16.11A141.31,141.31,0,0,1,5.5,49.48a65,65,0,0,1-2-11.41c-.1-1.89-.65-5.4.9-6.88,1.12-1.07,3.4-1.25,4.82-1.88,2-.88,3.92-1.91,5.9-2.82,4.33-2,8.77-3.71,13.24-5.35,3.86-1.41,8.17-3.61,12.31-3.93,3.41-.27,6.62,1.29,9.54,2.86C50.45,20.18,50.59,21,50.37,20.89Z"/><path class="cls-6" d="M61,21.63a4.71,4.71,0,0,1-2.69.17,6.3,6.3,0,0,1-2.73-.72c-.06,0-.21-.36-.08-.39a9.63,9.63,0,0,1,2.45.13,11.43,11.43,0,0,1,2.87.15C61,21,61.22,21.51,61,21.63Z"/><path class="cls-6" d="M110.84,6.85c-5-1.38-9.84-.91-14.88.06C90.47,8,86.56,10.13,82.1,13.45c-3.36,2.5-6.67,4.85-10.87,5.64-.13,0-.25-.35-.13-.39,6.05-2,10.31-6.72,15.72-9.87,5.15-3,12.39-4.33,18.34-4a33.17,33.17,0,0,1,9,2.05c2.73.93,5.87,1.67,8.4,3.06a7.77,7.77,0,0,1,4.1,8.38c-.1.52-.49-.31-.48-.54.34-6.34-4.56-7.23-8.85-8.74C115.17,8.26,113,7.46,110.84,6.85Z"/><path class="cls-6" d="M115.06,67.51a33.15,33.15,0,0,1,4.07-10.65c.15-.23.47.55.4.73-.72,1.73-1.61,3.38-2.32,5.12s-1.28,3.39-2,5.06C115.17,67.92,115.05,67.58,115.06,67.51Z"/><path class="cls-6" d="M24.24,120.21A10.06,10.06,0,0,0,26.07,122a17.86,17.86,0,0,0,2.18,1.11c.12.06.3.56.08.55-1.65-.11-3.39-1.73-4.15-3.09C24.13,120.45,24.07,120,24.24,120.21Z"/><path class="cls-6" d="M35.66,123.68c18.62,1.08,36.24-4.42,54.11-8.77.12,0,.25.35.13.39-8.85,3.07-18.4,5.14-27.57,7-8.76,1.79-17.7,2.8-26.61,1.66C35.63,124,35.56,123.68,35.66,123.68Z"/><path class="cls-6" d="M27,119.86c1.36.26.35-2.82.38-3.34,0-1.19.61-2.57-.64-3.37a.13.13,0,0,0-.12,0l-.14.08c0-.15-.12-.3-.22-.26-1.11.4-1.36,2.23-1.23,3.25a5.56,5.56,0,0,0,2,3.27l-.13.18S27,119.85,27,119.86Zm.17-.6h0c-1-1.09-2.11-2.38-1.66-4a8.12,8.12,0,0,1,.91-1.66.43.43,0,0,0,.12.18c.86.76.28,1.73.36,2.73C27,117.29,27.52,118.48,27.21,119.26Z"/><path class="cls-6" d="M28.52,115.57a.74.74,0,0,1,.12.46.94.94,0,0,0,.09.64c.07.1.15.63-.08.4a1.5,1.5,0,0,1-.37-1.61C28.34,115.34,28.49,115.53,28.52,115.57Z"/><path class="cls-6" d="M28.79,111.51c.18-.12.32.48.31.58a3.75,3.75,0,0,0-.17,1.33c.08.4-.24.33-.32,0C28.47,112.93,28.28,111.86,28.79,111.51Z"/><path class="cls-6" d="M27,111.36a4.23,4.23,0,0,1,.6-1.31c.18-.2.37.44.35.56a5.19,5.19,0,0,1-.57,1.33C27.25,112.24,27,111.55,27,111.36Z"/><path class="cls-6" d="M20.57,83.13a3.58,3.58,0,0,1,.68,1c.23.39.46.77.66,1.17.06.12.1.69-.14.41a8.2,8.2,0,0,1-1.36-2.08C20.38,83.5,20.33,82.92,20.57,83.13Z"/><path class="cls-6" d="M19.44,81.54c-.24-.43-.47-.87-.7-1.31a3.13,3.13,0,0,1-.44-1.13c0-.08,0-.26.15-.17a2.21,2.21,0,0,1,.55,1l.6,1.44C19.68,81.55,19.6,81.85,19.44,81.54Z"/><path class="cls-6" d="M22.3,82.79a5.91,5.91,0,0,1-.68-1.44c0-.14,0-.39.19-.22a4.87,4.87,0,0,1,.67,1.44C22.58,82.8,22.48,83.14,22.3,82.79Z"/><path class="cls-6" d="M20.28,78.42a5,5,0,0,1-.51-.86,3.63,3.63,0,0,1-.43-1c0-.16,0-.44.21-.25a2.89,2.89,0,0,1,.5,1,7.79,7.79,0,0,1,.37,1C20.45,78.34,20.4,78.58,20.28,78.42Z"/><path class="cls-6" d="M49.49,120.74c.12,0,.28.44.13.48a7.86,7.86,0,0,1-1.68.09c-.19,0-.32-.51-.18-.52A9.1,9.1,0,0,1,49.49,120.74Z"/><path class="cls-6" d="M55.2,119.72c.18,0,.35.56.17.64a9.91,9.91,0,0,1-2.5.42c-.15,0-.29-.42-.15-.46A10.2,10.2,0,0,1,55.2,119.72Z"/><path class="cls-6" d="M50.84,118.19a4.73,4.73,0,0,1,2-.09c.16.05.37.53.17.62a4.43,4.43,0,0,1-2,.06C50.84,118.77,50.68,118.21,50.84,118.19Z"/><path class="cls-6" d="M57.39,118a14.69,14.69,0,0,0,1.87-.23,5.35,5.35,0,0,1,1.68-.25c.17,0,.37.55.22.66-.89.68-2.51.55-3.58.52C57.38,118.73,57.2,118,57.39,118Z"/><path class="cls-6" d="M70.68,118a3.21,3.21,0,0,1-3,.12c-.07,0-.18-.29-.07-.35s.33-.07.58-.06a4.69,4.69,0,0,0,.92-.06,8.87,8.87,0,0,1,1.39-.3C70.64,117.35,70.81,117.9,70.68,118Z"/><path class="cls-6" d="M63.36,114.84c.12,0,.2.33.11.39a1.22,1.22,0,0,1-.91.26c-.1,0-.2-.29-.12-.37A1.25,1.25,0,0,1,63.36,114.84Z"/><path class="cls-6" d="M67.58,115.2a1.49,1.49,0,0,1-.86,0c-.15-.07-.29-.38-.18-.53s.49-.23.77-.3a1.82,1.82,0,0,1,.86-.1c.17,0,.39.55.22.69A1.69,1.69,0,0,1,67.58,115.2Z"/><path class="cls-6" d="M28.57,94.91c-.3-.7-.65-1.4-.88-2.13-.1-.31.08-.6.28-.2.34.69.57,1.44.84,2.16C28.91,95,28.72,95.27,28.57,94.91Z"/><path class="cls-6" d="M10,55.59A4.54,4.54,0,0,1,9.52,53c.08-.28.35.17.38.26.15.53.16,1.08.31,1.62a7.31,7.31,0,0,0,.29.78c.07.14.14.29.2.44l.05,0,0,0a.34.34,0,0,1,.08.32C10.66,57.08,10.07,55.71,10,55.59Z"/><path class="cls-6" d="M11.3,52.55a4.39,4.39,0,0,1,.27,1.15,4.45,4.45,0,0,1,.14,1.08c0,.18-.16,0-.19,0a5.54,5.54,0,0,1-.3-1.13A3.34,3.34,0,0,1,11,52.49C11.07,52.26,11.24,52.43,11.3,52.55Z"/><path class="cls-6" d="M9.44,50.2a.67.67,0,0,1-.18-.43c0-.38,0-.76,0-1.13,0,0,0-.15.08-.17h0c.08,0,.15.11.18.17a3,3,0,0,1,.1,1.47C9.62,50.24,9.54,50.25,9.44,50.2Z"/><path class="cls-6" d="M12.29,48.74a8.24,8.24,0,0,1,.1,1.72c0,.26-.23-.09-.25-.18A11.4,11.4,0,0,1,12,48.52C12,48.12,12.27,48.56,12.29,48.74Z"/><path class="cls-6" d="M7.47,36.69h0c.1,0,.18.2.21.27a1.89,1.89,0,0,1,.08.82,3,3,0,0,0,.11.9c.06.27-.14.33-.25.08a3.61,3.61,0,0,1-.35-1.89C7.32,36.78,7.35,36.69,7.47,36.69Z"/><path class="cls-6" d="M8.67,33.16c.2-.13.36.52.34.63a4.29,4.29,0,0,1-.36,1,2.67,2.67,0,0,1-.29.85c-.16.18-.31-.35-.32-.43a3,3,0,0,1,.17-1.11C8.3,33.76,8.39,33.33,8.67,33.16Z"/><path class="cls-6" d="M10.68,33.91l.07,0c.19-.07.33.38.35.48a2.52,2.52,0,0,1,0,.82,1.89,1.89,0,0,0,.1.88c.09.27-.07.52-.24.17a3.78,3.78,0,0,1-.36-2.12A.26.26,0,0,1,10.68,33.91Z"/><path class="cls-6" d="M11.89,32.44v-.08a.43.43,0,0,0,0,0h0a1.47,1.47,0,0,1,.08-.25,4,4,0,0,1,.32-.62c.2-.32.6-.88,1-.76a.69.69,0,0,1,.3.75c-.15.33-.49.47-.76.69a2.61,2.61,0,0,0-.65.75c-.09.16-.27-.24-.31-.46C11.91,32.55,11.9,32.57,11.89,32.44Z"/><path class="cls-6" d="M15.1,32.46c.27,0,.42.57.3.74s-.57.49-.57.94-.38,0-.39-.27C14.41,33.43,14.55,32.53,15.1,32.46Z"/><path class="cls-6" d="M16.31,30.39A4,4,0,0,1,17.62,29a2.29,2.29,0,0,1,1.49-.66c.21,0,.32.5.22.65A4.47,4.47,0,0,1,18,30a6,6,0,0,1-1.41,1C16.38,31,16.26,30.52,16.31,30.39Z"/><path class="cls-6" d="M18.6,32a5,5,0,0,1-.38.81c-.11.17-.32-.4-.28-.52a6.15,6.15,0,0,1,.4-.76C18.42,31.38,18.65,31.86,18.6,32Z"/><path class="cls-6" d="M31.47,106.6c.06-.11.18.25.17.32a7.18,7.18,0,0,1-.56,1.55c-.08.16-.21-.2-.19-.29A6.81,6.81,0,0,1,31.47,106.6Z"/><path class="cls-6" d="M29.62,106.76a6.23,6.23,0,0,0,.51-1.62c.06-.38-.05-1,.18-1.31.1-.15.26.2.28.25a4.27,4.27,0,0,1-.68,3.22C29.82,107.46,29.55,106.91,29.62,106.76Z"/><path class="cls-6" d="M32.38,112.82a2.73,2.73,0,0,1,.51-1c.16-.14.25.34.24.42a4.05,4.05,0,0,1-.49,1,4.06,4.06,0,0,1-.59,1c-.11.1-.18-.25-.17-.3A7.7,7.7,0,0,1,32.38,112.82Z"/><path class="cls-6" d="M36.09,107.46a5.18,5.18,0,0,1-.33,1.33c-.13.46-.27.92-.4,1.37-.07.22-.31-.28-.28-.43.12-.48.24-1,.35-1.46a3.62,3.62,0,0,1,.38-1.26C35.94,106.83,36.09,107.39,36.09,107.46Z"/><path class="cls-6" d="M34.16,102.52a2.61,2.61,0,0,1,.52,2.19c-.07.36-.35-.21-.33-.38A2.34,2.34,0,0,0,34,103C33.94,102.86,33.88,102.21,34.16,102.52Z"/><path class="cls-6" d="M74.83,115.06a2.14,2.14,0,0,1,1.14-.14c.26.08.5.75.24.93a2.15,2.15,0,0,1-1.16.15l-1.19.07c-.24,0-.48-.69-.24-.74C74,115.24,74.43,115.16,74.83,115.06Z"/><path class="cls-6" d="M81.57,114.06a3.4,3.4,0,0,1,1.56-.3c.19,0,.38.57.23.71a2.8,2.8,0,0,1-1.62.5,4.19,4.19,0,0,1-1.72.11c-.16,0-.29-.43-.15-.53A6.06,6.06,0,0,1,81.57,114.06Z"/><path class="cls-6" d="M122.76,18.28c-.08-.33-.22-.62-.27-1,0-.1,0-.29.17-.2a2.18,2.18,0,0,1,.6,1.35A3.64,3.64,0,0,1,123.2,20c-.08.29-.38-.36-.37-.48A3.5,3.5,0,0,0,122.76,18.28Z"/><path class="cls-6" d="M123.6,14.88c0-.15,0-.5.23-.27a3.1,3.1,0,0,1,.54,1.18,13.38,13.38,0,0,1,.35,1.42c.09.51-.29.22-.37-.09A8.26,8.26,0,0,0,124,15.9,5.38,5.38,0,0,1,123.6,14.88Z"/><path class="cls-6" d="M119.86,11.37c.32-.21.94.4,1.17.61a5.51,5.51,0,0,1,1,1.12c.09.14.22.45.13.62s-.23,0-.31-.07a4.51,4.51,0,0,0-.91-.94,4.29,4.29,0,0,1-1-.72C119.85,11.86,119.67,11.49,119.86,11.37Z"/><path class="cls-6" d="M121.55,19.82a7.42,7.42,0,0,1,.62,1.9c0,.15,0,.29-.13.1A7.25,7.25,0,0,1,121.3,20C121.27,19.79,121.38,19.56,121.55,19.82Z"/><path class="cls-6" d="M119.22,14.22c.54,0,1.07.91,1.32,1.33a2.89,2.89,0,0,1,.52,1.57c0,.12-.11.08-.16,0-.23-.37-.34-.79-.61-1.15s-.72-.64-1-1C119.2,14.85,118.9,14.19,119.22,14.22Z"/><path class="cls-6" d="M115.72,12.52a3,3,0,0,1,1.15,1.67c.1.29-.09.58-.27.19a3.27,3.27,0,0,0-.83-1c-.2-.2-.4-.57-.22-.83A.12.12,0,0,1,115.72,12.52Z"/><path class="cls-6" d="M110.6,9.53a2.94,2.94,0,0,1,2,1.09.64.64,0,0,1,.15.42c0,.07,0,.23-.16.14a8.25,8.25,0,0,0-1.84-1C110.58,10.15,110.31,9.53,110.6,9.53Z"/><path class="cls-6" d="M90.3,9.37c.26,0,.35.6.31.78a1.35,1.35,0,0,1-.73.82c-.28.14-.68.41-1,.33-.11,0-.16-.24-.13-.33a4.18,4.18,0,0,1,.74-1C89.69,9.75,90,9.37,90.3,9.37Z"/><path class="cls-6" d="M95.14,8.59a6,6,0,0,1,1.2-.07c.15,0,.33.53.15.58a6,6,0,0,1-1.34.11,4.9,4.9,0,0,1-1.21,0c-.12,0-.26-.41-.12-.46A5.19,5.19,0,0,1,95.14,8.59Z"/><path class="cls-6" d="M102.69,8a6.71,6.71,0,0,1,2.24.15c.16.06.47.73.21.78a7.93,7.93,0,0,1-2-.1,9.53,9.53,0,0,1-2.27-.11c-.12,0-.28-.42-.13-.5A4.72,4.72,0,0,1,102.69,8Z"/><path class="cls-6" d="M123.56,33.1c0-.35.11-1.1.48-1.23s.34.48.34.61a4.61,4.61,0,0,1-.39,1.19,5.13,5.13,0,0,0-.22,1.28c0,.31-.29-.15-.29-.27A6,6,0,0,1,123.56,33.1Z"/><path class="cls-6" d="M124.14,27.23a2.59,2.59,0,0,1,.26-1.36c.19-.25.42.46.42.56a7.47,7.47,0,0,1-.13,1.41c0,.46-.08.92-.1,1.38,0,.15-.1.16-.2.1s-.18-.33-.2-.46A8.08,8.08,0,0,1,124.14,27.23Z"/><path class="cls-6" d="M122.79,28.14a.68.68,0,0,1-.16-.49c0-.37,0-.75.05-1.12a3.69,3.69,0,0,1,.1-1c.14-.4.47.41.48.53a9.23,9.23,0,0,1-.26,2C123,28.21,122.89,28.23,122.79,28.14Z"/><path class="cls-6" d="M114.93,60.59c-.09,0-.14-.14-.15-.2a4.05,4.05,0,0,1,.19-1.5c.06-.29.11-.58.18-.86s0-.43.26-.55.28.39.29.47a3.8,3.8,0,0,1-.3,1.48C115.31,59.7,115.22,60.52,114.93,60.59Z"/><path class="cls-6" d="M117,56.66c0,.15-.11.16-.21.07a.66.66,0,0,1-.16-.49,6.74,6.74,0,0,1,.17-1.17c.08-.31.15-.71.45-.89s.29.42.28.51a5.24,5.24,0,0,1-.3,1A4.44,4.44,0,0,0,117,56.66Z"/><path class="cls-6" d="M119.51,52.34c.08-.14.25.11.27.15a.68.68,0,0,1,.09.5,10.86,10.86,0,0,1-.57,1.53c-.12.29-.43-.37-.37-.56A10.07,10.07,0,0,1,119.51,52.34Z"/><path class="cls-6" d="M118.2,50.68c.07-.22.12-.72.36-.79s.22.24.23.31a2.86,2.86,0,0,1-.82,2.2c-.13.18-.34-.41-.26-.56A7.91,7.91,0,0,0,118.2,50.68Z"/><path class="cls-6" d="M120.81,48a1.66,1.66,0,0,1,.34-.75c.19-.18.34.42.33.53a6.31,6.31,0,0,1-.61,1.72c-.12.3-.45-.39-.38-.6Z"/><path class="cls-6" d="M113,64.74c0-.37.08-.73.15-1.09,0-.12.14,0,.18,0a.48.48,0,0,1,.1.35,10.92,10.92,0,0,1-.12,1.15,1.83,1.83,0,0,1-.17.84c-.08.09-.18-.17-.19-.21A4.19,4.19,0,0,1,113,64.74Z"/><path class="cls-6" d="M119.42,83.4a5,5,0,0,1-2.14-1.48.8.8,0,0,1-.18-.5c0-.09.05-.27.19-.17.35.27.64.62,1,.9s.73.6,1.11.87C119.43,83.07,119.55,83.45,119.42,83.4Z"/><path class="cls-6" d="M120.69,80a10,10,0,0,1-1.57-1,14.8,14.8,0,0,1-1.61-1.22c-.11-.11-.31-.85,0-.68a12.53,12.53,0,0,1,1.64,1.17,14.84,14.84,0,0,1,1.49,1.24C120.71,79.59,120.86,80.11,120.69,80Z"/><path class="cls-6" d="M115.81,71.43a4.59,4.59,0,0,0,.41,3.25c0,.08.11.56-.07.35a4.07,4.07,0,0,1-.65-4.09C115.6,70.74,115.83,71.34,115.81,71.43Z"/></g></g></g></svg>