<svg xmlns="http://www.w3.org/2000/svg" viewBox="0 0 57.81 62.61"><defs><style>.cls-1{fill:#fff0e9;}.cls-2{fill:#decbd4;}.cls-3{fill:#cba1b5;}.cls-4{fill:#f1f0ef;}.cls-5{fill:#764357;}.cls-6{fill:#762231;}.cls-7{fill:#efddde;}</style></defs><g id="レイヤー_2" data-name="レイヤー 2"><g id="Layer_1" data-name="Layer 1"><g id="Jelly"><path class="cls-1" d="M33.52,2.53c.06.32.22.6.28.91l.88.09a3.27,3.27,0,0,1,.09-1.83c-.42-.06-.85-.12-1.27-.16A2.75,2.75,0,0,0,33.52,2.53Z"/><path class="cls-1" d="M34.94,2.74a4.18,4.18,0,0,0,.22.86c.54.07,1.08.16,1.62.26A2.47,2.47,0,0,1,36.46,2c-.48-.1-1-.18-1.43-.25A3.1,3.1,0,0,0,34.94,2.74Z"/><path class="cls-2" d="M9,53.72a20.35,20.35,0,0,0,8.46,5.12,44.25,44.25,0,0,0,10.4,2.76c6.92.72,15.08-2,19.94-7.05S54.34,43.11,55,36.44a2.39,2.39,0,0,1-.13.28c-2.7,5.64-6.7,10.21-12.55,12.62a35.12,35.12,0,0,1-17.56,1.95c-10.15-1.23-20-6.43-23.43-15.9a67.22,67.22,0,0,0,2.87,9.18C5.39,47.8,6.65,51.12,9,53.72Zm43.44-8.57A22.53,22.53,0,0,0,53,42.58a8.35,8.35,0,0,1,.31-2c0-.1.13-.06.15,0a5.63,5.63,0,0,1-.05,2.31,18.65,18.65,0,0,1-.55,2.57C52.69,45.91,52.36,45.44,52.43,45.15Zm-.53-2.22c0-.23.24-.09.22.09a26.28,26.28,0,0,1-1,5.77c-.11.32-.37,0-.34-.21C51,46.69,51.56,44.82,51.9,42.93Zm-6.47,7c0-.34.36-.14.33.13-.18,1.79,0,3.64-.27,5.41,0,.22-.28.23-.32,0A19.13,19.13,0,0,1,45.43,49.93Zm-1.85.9A17.72,17.72,0,0,1,43.72,56c-.06.36-.4.23-.4-.07,0-1.69.1-3.35,0-5.05C43.25,50.67,43.54,50.57,43.58,50.83Zm-1.76.61c0-.15.15-.16.16,0a15.38,15.38,0,0,1,0,4.74c-.06.27-.27.17-.29,0A28.33,28.33,0,0,1,41.82,51.44ZM40,51c0-.19.2-.27.25-.06a12.67,12.67,0,0,1-.27,6.58c-.11.31-.32,0-.31-.19.08-1.12.32-2.22.37-3.35S39.94,52,40,51ZM26.4,53.51c0-.21.23-.22.23,0a13.74,13.74,0,0,1-.4,4.61c-.07.22-.29.07-.28-.11C26,56.51,26.36,55,26.4,53.51Zm-1.75-.32c0-.22.24-.13.25.05A19.52,19.52,0,0,1,24.54,59c-.08.28-.34.07-.34-.13A56.41,56.41,0,0,1,24.65,53.19Zm-1.42,0c0-.12.13-.11.16,0a14.07,14.07,0,0,1,0,4.8c-.05.38-.38.15-.36-.14C23.14,56.31,23.1,54.75,23.23,53.21ZM22,51.57c0-.24.24-.13.26,0a43.33,43.33,0,0,1,.05,6.93c0,.33-.34.34-.36,0A42.93,42.93,0,0,1,22,51.57ZM20.4,54.33a13.1,13.1,0,0,1,.28-2.42c0-.11.16-.06.17,0a13.59,13.59,0,0,1,0,2.47,16.22,16.22,0,0,1-.19,2.51c-.07.33-.35.21-.38-.07A16.31,16.31,0,0,1,20.4,54.33Zm-1.65-.45a4.9,4.9,0,0,1,.2-1.71c0-.08.14-.11.17,0a4.61,4.61,0,0,1,.1,1.7,10.69,10.69,0,0,1-.11,2c0,.25-.32.29-.36,0A10.69,10.69,0,0,1,18.75,53.88ZM9.34,47.81c.47,1.52.95,3,1.39,4.54.07.22-.22.51-.31.22C10,51,9.53,49.51,9.09,48,9,47.81,9.26,47.58,9.34,47.81ZM7.58,46.17c.53,1.77,1.23,3.41,1.88,5.13.06.15-.1.58-.25.31a16.83,16.83,0,0,1-1.83-5.34C7.34,46.09,7.52,46,7.58,46.17ZM5.76,44.74c.7,1.88,1.56,3.71,2.24,5.58.05.14-.08.53-.23.29a18.22,18.22,0,0,1-2.14-5.78C5.62,44.74,5.72,44.62,5.76,44.74Z"/><path class="cls-3" d="M15.67,37.78s0,0,0-.06l0,0c-.07-.09,0-.22.09-.18a.13.13,0,0,1,.16-.06h0a.12.12,0,0,1,.1,0,.94.94,0,0,1,.12.09,2.71,2.71,0,0,1,.49.22.09.09,0,0,1,.12,0,.29.29,0,0,1,.14.15A.56.56,0,0,1,17,37.8a.13.13,0,0,1,.15.05,1.22,1.22,0,0,1,.25.57c0,.1,0,.2,0,.3a.57.57,0,0,1,0,.26h0a1.25,1.25,0,0,1,.09.25,8.86,8.86,0,0,0,1.36.71,7.24,7.24,0,0,0,6.92-.87v0c0-.11,0-.22.07-.33a7.23,7.23,0,0,1-6.09-.38c-.06,0-.08-.21,0-.2,2.13.3,3.85.7,6,0a.16.16,0,0,1,.19.09c.1-.49.2-1,.29-1.51-.84,1.23-3,.73-4.21.47,0,0,0-.13,0-.13a7.52,7.52,0,0,0,4.14-.61c.05,0,.07,0,.09,0a8.26,8.26,0,0,0-.05-3.25,1.9,1.9,0,0,0-.09-.29c-.12.07-.24,0-.37.12l-.29.14a2.31,2.31,0,0,1-.71.21c-.06,0-.07-.1,0-.14a1.85,1.85,0,0,1,.62-.48,2.12,2.12,0,0,1,.41-.12l.25-.09a7.06,7.06,0,0,0-1.23-2,6.84,6.84,0,0,0-1.24.54c-.53.3-1,.81-1.52,1.06-.08,0-.08-.12,0-.16a5.53,5.53,0,0,1,2.52-1.75A6,6,0,0,0,24,29.8s0,.07,0,.08a15.7,15.7,0,0,0-2,1.25c-.53.45-.93,1-1.43,1.48,0,0-.06,0-.05-.06a4.94,4.94,0,0,1,3.36-2.87,8.3,8.3,0,0,0-1.95-1.26,6.59,6.59,0,0,0-3.47-.53l0,0c-.25.43-.52.85-.79,1.26s-.47.83-.76,1.2c-.08.11-.14-.06-.12-.13A6,6,0,0,1,18,28a7.56,7.56,0,0,0-1.22.32s0,0,0,0A4.47,4.47,0,0,0,15.58,31c0,.14-.18.1-.17,0a4.28,4.28,0,0,1,.72-2.46,6.3,6.3,0,0,0-.72.4.24.24,0,0,1,0,.15,7.15,7.15,0,0,0-.71,1,10.71,10.71,0,0,0-.4,1.21c0,.1-.15.07-.17,0a2.45,2.45,0,0,1,.36-1.61,5.48,5.48,0,0,0-1.63,3.22.11.11,0,0,1,0,.06A8.86,8.86,0,0,0,15.67,37.78Zm5.42-3.38a6,6,0,0,1,1.24-.57,4.67,4.67,0,0,1,1.13-.37c.14,0,.11.22.06.29-.54.64-1.63.65-2.37.9C21,34.69,21,34.45,21.09,34.4Z"/><path class="cls-1" d="M37.3,4l.85.19a2.74,2.74,0,0,1,0-.81c0-.32.07-.65.12-1q-.7-.18-1.41-.33A2.69,2.69,0,0,0,37.3,4Z"/><path class="cls-4" d="M13.74,8.44c.33-.23.67-.45,1-.66,0-.3,0-.61-.11-.91a3.87,3.87,0,0,0-.43-1.08c-.07-.12,0-.42.15-.25a3.16,3.16,0,0,1,.76,2c.37-.21.73-.42,1.11-.62,0,0,0,0,0,0,0-.32,0-.63-.08-1a2.59,2.59,0,0,0-.48-1c-.05-.07,0-.31.1-.21a2.62,2.62,0,0,1,.78,2l.88-.43a4.45,4.45,0,0,1-.12-.73A8.88,8.88,0,0,0,17,4.48c0-.15.14-.34.21-.15a9.61,9.61,0,0,1,.37,1.15,3.34,3.34,0,0,1,.14.7l1.15-.5c0-.21-.05-.42-.09-.63a2.3,2.3,0,0,1-.16-.76s0-.1.09-.08c.22,0,.31.5.37.69a2.75,2.75,0,0,1,.15.63A32,32,0,0,1,33.38,3.4a2.4,2.4,0,0,1-.21-.87,2.29,2.29,0,0,1,.11-1,38.9,38.9,0,0,0-18.35,3,.38.38,0,0,1-.09.12c-.59.38-1.17.79-1.74,1.22A3.54,3.54,0,0,1,13.74,8.44Z"/><path class="cls-1" d="M17,38.45l0,0,0-.08S17,38.43,17,38.45Z"/><path class="cls-4" d="M43.15,44.16a.07.07,0,0,1,0,0,22,22,0,0,1-2.5,1.32,6.48,6.48,0,0,1,1,1.81c.09.24-.19.63-.3.29a8.78,8.78,0,0,0-.94-2,24.13,24.13,0,0,1-2.62,1,4.78,4.78,0,0,1,1,2.25v0a24.92,24.92,0,0,0,5.77-2.33c-.27-.35-.42-.83-.66-1.21S43.36,44.55,43.15,44.16Z"/><path class="cls-4" d="M36,49.26c-.09-.36-.13-.72-.25-1.08s-.28-.62-.38-1a.57.57,0,0,1,0-.12c-.57.13-1.15.23-1.73.32a7,7,0,0,1,.65,2.21c.59-.07,1.18-.16,1.77-.26A.18.18,0,0,1,36,49.26Z"/><path class="cls-1" d="M16,38.09l.13.12a.09.09,0,0,0,0-.05Z"/><path class="cls-4" d="M37.55,46.57c-.67.2-1.35.37-2,.52a3.8,3.8,0,0,1,.8,2.1.23.23,0,0,1,0,.16c.74-.13,1.47-.29,2.2-.47a15.36,15.36,0,0,0-.91-2.27A.06.06,0,0,0,37.55,46.57Z"/><path class="cls-3" d="M24.79,12.32c-.12,0-.15-.17-.1-.24a4.4,4.4,0,0,1,3.06-1.44,3.89,3.89,0,0,0-.53-.46.08.08,0,0,1-.11,0c-1.13-.66-3,.85-3.87,1.47-.07.05-.09-.08,0-.12a6.34,6.34,0,0,1,2-1.49,5.24,5.24,0,0,1,1-.41l-.07,0a3.51,3.51,0,0,0-.49-.12.1.1,0,0,1-.08,0,4.16,4.16,0,0,0-2.16.7A8.39,8.39,0,0,0,22,11.5c-.05.06-.08-.07-.06-.1a5.51,5.51,0,0,1,1.9-2A6.07,6.07,0,0,0,20.18,11l0,0a0,0,0,0,0,0,0c-2.27,3-.68,7.8,3.26,8.16a5.42,5.42,0,0,0,5.29-2.06A3.91,3.91,0,0,0,29,12.31a3.54,3.54,0,0,0-1.25.22c-.52.27-.94.71-1.44,1-.06,0-.06-.09,0-.12a3.76,3.76,0,0,1,2.47-1.53c-.17-.25-.34-.5-.53-.73a7.18,7.18,0,0,0-1.82.37C25.83,11.74,25.34,12.11,24.79,12.32Zm-1.38,3.75c-.15.14-.38.07-.56.08H22.8a.76.76,0,0,1,0,.61,1.29,1.29,0,0,0,.09.16c.11.16.21.44,0,.56a.18.18,0,0,1-.14,0A1.21,1.21,0,0,1,22.4,17a.65.65,0,0,1-.54-.26l-.06-.12-.48.15c-.1,0-.11-.15,0-.19a3.34,3.34,0,0,0,.4-.25.74.74,0,0,1,0-.6.41.41,0,0,1,.24-.24,2.12,2.12,0,0,1,.06-.4c0-.13.16,0,.16.06a1.06,1.06,0,0,0,0,.31.64.64,0,0,1,.17,0,.92.92,0,0,1,.26.23c.3-.21.66-.32.86,0A.3.3,0,0,1,23.41,16.07Z"/><path class="cls-1" d="M4.64,34.43c-.19-.34-.37-.67-.54-1-.62.21-1.51.1-2,.53,0,.1.06.21.1.32s.17.48.26.71a2.08,2.08,0,0,1,.92-.44A6.29,6.29,0,0,1,4.64,34.43Z"/><path class="cls-3" d="M28.28,20.36a4.23,4.23,0,0,0,1.17-.57c.31-.17.65-.27,1-.42A3.86,3.86,0,0,0,32,17.59c.05-.09.12.05.09.11a4,4,0,0,1-1.42,2c-.43.26-.92.42-1.37.65a1.77,1.77,0,0,1-.66.24,9.28,9.28,0,0,0,5.14.5,6.07,6.07,0,0,0,1.57-.42c0-.26,0-.53,0-.79s0-.55,0-.82c0-.1.14-.15.17,0a2.55,2.55,0,0,1,0,1.57,5.37,5.37,0,0,0,.91-.5,13.73,13.73,0,0,1-.31-1.72,7.8,7.8,0,0,0-1.13-2.59c-.05-.08,0-.26.09-.16a5.69,5.69,0,0,1,1.14,2c.25.74.19,1.6.43,2.33l.31-.25a2.23,2.23,0,0,1-.07-.86,4.6,4.6,0,0,0-.57-2.35c0-.08,0-.27.1-.16a3.68,3.68,0,0,1,.71,1.54c.1.51.08,1,.13,1.54a4.28,4.28,0,0,0,.52-.67,8.51,8.51,0,0,0-.49-2.14c0-.12.08-.32.16-.15a8.1,8.1,0,0,1,.6,1.8,4.44,4.44,0,0,0,.35-1.12c.62-3.89-2.46-6.46-5.78-6.8a4.56,4.56,0,0,1,.89,2c0,.2-.2.37-.25.11a5.87,5.87,0,0,0-1-2.18,7.85,7.85,0,0,0-1,0,.36.36,0,0,1,.07.1,5.63,5.63,0,0,1,.91,1.5c0,.12,0,.42-.19.24a11.68,11.68,0,0,1-.66-1.06,3.45,3.45,0,0,0-.5-.74,6.83,6.83,0,0,0-.9.18,2.07,2.07,0,0,1,.55.45,3.48,3.48,0,0,1,.87,1.69c0,.11-.09.28-.17.12a8.33,8.33,0,0,0-.76-1.41,2.23,2.23,0,0,0-.74-.66l-.18-.06a6.13,6.13,0,0,0-.8.33c1.84,2.34,2,4.8-.07,7.19a5.48,5.48,0,0,1-1.56,1.25A3.42,3.42,0,0,0,28.28,20.36Z"/><path class="cls-1" d="M5.73,36.47l-.18-.36c-.2-.39-.41-.77-.62-1.15-.46,0-.91,0-1.36.11a3,3,0,0,0-.93.35,19.91,19.91,0,0,0,.87,1.87A3.3,3.3,0,0,1,5.73,36.47Z"/><path class="cls-3" d="M40.13,28a14.2,14.2,0,0,0-2.9-.74c-.39-.06-.56,0-.91-.13l0,0a4.93,4.93,0,0,0-2.4,1.43,2.61,2.61,0,0,1,1.24-.23c.19,0,.21.38,0,.45-.44.21-1,.18-1.4.36a2.57,2.57,0,0,0-.64.4,6.2,6.2,0,0,0-.44,6,5.44,5.44,0,0,0,7.32,2C43.7,35.54,44.4,29.64,40.13,28Zm-.63,2.95a1.7,1.7,0,0,1-.41-.47,6,6,0,0,0-.53-.6c-.35-.34-.79-.58-1.14-.91,0,0,0-.06,0-.06a3,3,0,0,1,1.22.72,2.84,2.84,0,0,1,1,1.14C39.63,30.8,39.61,31,39.5,30.91Zm2.1,3.83c-.21.16-.43,0-.49-.21a.49.49,0,0,1,.06-.43.63.63,0,0,1,.06-.27s0,0-.07,0a4,4,0,0,1-.48-.73c-.07-.1,0-.39.14-.23a4.33,4.33,0,0,1,.5.71.35.35,0,0,1,0,.2c.21-.13.43.11.48.31A.68.68,0,0,1,41.6,34.74Z"/><path class="cls-4" d="M45.63,5.31a4.67,4.67,0,0,0-.3.43,4.39,4.39,0,0,1-.71,1.08,5.3,5.3,0,0,1,.54.39c.19.15.1.7-.19.52a20.11,20.11,0,0,0-3.28-1.81c-.13,0-.11-.38.06-.33a12.27,12.27,0,0,1,1.73.61,2.77,2.77,0,0,1,.12-.85A1.79,1.79,0,0,1,44,4.52c.13-.13.21.13.2.22a4.63,4.63,0,0,1-.22.89c-.07.23-.1.48-.19.7.24.12.47.25.69.38a5.6,5.6,0,0,1,.67-1.5l.08-.15a25.31,25.31,0,0,0-3-1.4,30.41,30.41,0,0,0-3.75-1.23c0,.33,0,.65,0,1a2.81,2.81,0,0,1,0,.87c.13.17.06.59-.19.54s-.54-.1-.81-.15a.07.07,0,0,1-.08,0c-13.48-2.39-27.65,3-32.9,16.41-.05.12-.13,0-.11-.08a22.21,22.21,0,0,1,3.91-7.47c-.06-.21,0-.44-.09-.66a4.7,4.7,0,0,0-.46-.78s0-.13,0-.12c.4,0,.78.62.86,1.14.16-.2.34-.4.51-.59-.06-.23,0-.47-.12-.7A2,2,0,0,0,8.43,11c-.09-.09,0-.41.11-.29a2.25,2.25,0,0,1,.69,1,2.42,2.42,0,0,1,.14.56l.48-.51,0,0A2.46,2.46,0,0,1,9.74,11a1.67,1.67,0,0,0-.33-.76c-.05-.08,0-.35.12-.24a2,2,0,0,1,.51.84,1.48,1.48,0,0,1,.08.6,25,25,0,0,1,3.41-2.83,9.59,9.59,0,0,0-.2-1.6,2,2,0,0,0-.59-.88C4.61,12.42-.93,23.07,2,33.37a1.62,1.62,0,0,1,.58-.31,5.84,5.84,0,0,1,.83-.18l.44-.08A10.1,10.1,0,0,1,3,30.53a16.65,16.65,0,0,1,.1-5.27c0-.32.38-.21.37.07a14.69,14.69,0,0,0,.68,6.35c.17.39.36.78.56,1.16a17.68,17.68,0,0,1,.08-7.14c.56-2.34,2.39-4.42,3.76-6.33,2.89-4,6.76-8.59,11.93-9.54a5.92,5.92,0,0,1,4.67-1.07.05.05,0,0,1,0,0c4.21-.73,8.88-1.31,13.11-.59a14.62,14.62,0,0,1,8.7,5.16c3.83,4.26,7.14,9.81,7.4,15.67a18.91,18.91,0,0,0,.48-5.37c0-.35.32-.34.36,0a18,18,0,0,1-.88,7.54v0a.26.26,0,0,1-.06.15,18,18,0,0,1-6.3,8.86c-.13.1-.18-.16-.1-.24A24.4,24.4,0,0,0,54,30.51c.12-6.79-3.74-13.37-8.51-18C40,7.2,33.07,8.75,26.24,9a5.41,5.41,0,0,1,2.28,1.48h0c4.36-4,11.18,1.64,10.45,6.82a4.66,4.66,0,0,1-.78,2,.28.28,0,0,1-.1.15,6.07,6.07,0,0,1-3.49,2.23c-2.37.57-6.48.45-7.56-2.17-2.26,1.14-5.29,1-6.95-1s-2.51-5.71-.24-7.74a.71.71,0,0,1,0-.14A24.51,24.51,0,0,0,9.32,19.07c-1.49,2-3.46,4.4-4.08,6.82S5,31,5.11,33.5c.37.66.76,1.32,1.1,2,1.31,2.55,2.43,5,4.92,6.57.34.22.2,1.3-.26,1.06-2.42-1.25-3.64-3.65-4.81-6-.43.06-.87,0-1.3.08a4.49,4.49,0,0,0-1.08.39C8.73,46.67,20.44,50,30.41,49.9c1.2,0,2.39-.09,3.59-.22-.18-.74-.39-1.47-.57-2.21-.67.1-1.35.17-2,.23a41.52,41.52,0,0,1-9.25-.39,11.23,11.23,0,0,1-5.85-2.09c-.06,0,0-.27.06-.22,4.08,2.46,10,2.44,14.58,2.12A27.17,27.17,0,0,0,45.16,42c.25-.18.37.35.2.49A17.61,17.61,0,0,1,43.24,44a2.79,2.79,0,0,1,.92.92,3.46,3.46,0,0,1,.67,1.29v.06c.32-.19.64-.38,1-.59s.85-.59,1.25-.91c-.29-.33-.57-.68-.88-1-.12-.12-.06-.56.14-.4A8.29,8.29,0,0,1,47,44a1.75,1.75,0,0,1,.42.48c.37-.3.73-.62,1.08-1a2.41,2.41,0,0,1-.44-.4l-.53-.58c-.09-.1-.06-.44.12-.32l.58.42a1.87,1.87,0,0,1,.52.49l0,.11c.37-.36.72-.73,1.06-1.12l-.34-.38c-.18-.18-.43-.33-.53-.57s0-.38.13-.38.34.17.47.29a5,5,0,0,1,.4.4,1.79,1.79,0,0,1,.21.24c.4-.47.78-1,1.14-1.46l-.21-.18a2.58,2.58,0,0,1-.49-.5c-.06-.08-.05-.38.12-.33a2,2,0,0,1,.54.34,2.17,2.17,0,0,1,.32.27c.42-.61.81-1.23,1.19-1.87-.12-.07-.23-.19-.34-.25a1.34,1.34,0,0,0-.64-.18c-.2,0-.21-.42,0-.43a1.29,1.29,0,0,1,1.2.49c.36-.65.7-1.31,1-2a2.87,2.87,0,0,1-.65-.34c-.12-.09-.1-.44.1-.39a2.72,2.72,0,0,1,.73.35,33.7,33.7,0,0,0,1.62-4.43A21.67,21.67,0,0,0,45.63,5.31ZM10.36,9a2.05,2.05,0,0,1,.55,1.52c-.05.23-.25.23-.31,0s0-.42-.09-.63a2.15,2.15,0,0,0-.29-.68C10.16,9.12,10.23,8.86,10.36,9Zm39.33,2.75A33,33,0,0,0,46.79,9c-.09-.07-.07-.4.08-.32a9.83,9.83,0,0,1,3.05,2.62C50,11.44,49.89,12,49.69,11.75ZM13.52,23.63c.11-.09.22,0,.27.1s.21.47.32.7a2.29,2.29,0,0,1,.24.71c0,.13-.13.42-.29.27a1.53,1.53,0,0,1-.31-.64c-.1-.25-.19-.49-.28-.74A.38.38,0,0,1,13.52,23.63Zm12.75,15.6c0,.05,0,.09-.05.13a.35.35,0,0,1-.09.24,7.07,7.07,0,0,1-8.06.61c-2.41-1.39-5.44-4-5.4-7.05a.18.18,0,0,1,0-.11c.25-4.23,5.2-6.73,9-5.39C26.94,29.52,27.28,34.56,26.27,39.23ZM26.66,27c-.29,0-.48-.4-.64-.61a5.87,5.87,0,0,1-.6-.9c-.05-.11,0-.39.17-.28a4.44,4.44,0,0,1,.68.69,1.8,1.8,0,0,1,.52.81C26.81,26.8,26.79,27,26.66,27ZM43,18.48c0-.11.15-.1.19,0a3.35,3.35,0,0,1,.13.95,4.44,4.44,0,0,1,0,1.09c0,.14-.21.26-.28.06a3.44,3.44,0,0,1-.1-1.06A3.61,3.61,0,0,1,43,18.48Zm-1.83-1.16c0-.07.09-.11.15,0a1.75,1.75,0,0,1,.19.94,3.23,3.23,0,0,1-.05,1.12c-.08.24-.32.14-.36-.06a5.26,5.26,0,0,1,0-1.05A2.31,2.31,0,0,1,41.15,17.32Zm-12.76,9.2a5.34,5.34,0,0,1,.39-.75c.13-.2.26-.5.51-.54s.2.25.18.34a1.92,1.92,0,0,1-.37.65,4.44,4.44,0,0,0-.38.67.16.16,0,0,1-.27,0A.41.41,0,0,1,28.39,26.52Zm.74,16.08c-.26.17-.76.58-1.06.37a.25.25,0,0,1-.05-.26c.15-.34.6-.46.89-.68s.53-.62.87-.78.28.3.23.43A2.23,2.23,0,0,1,29.13,42.6Zm2-.12a3.27,3.27,0,0,1-.62.56,1.74,1.74,0,0,1-.63.42c-.16,0-.15-.27-.1-.35a2.16,2.16,0,0,1,.59-.53,2.7,2.7,0,0,1,.63-.43C31.13,42.09,31.17,42.39,31.1,42.48Zm8.19-3.82a5.92,5.92,0,0,1-7.72-4.58c-.48-3,1.47-6.94,4.67-7.4a.08.08,0,0,1,.08,0c1.16-.55,2.84.16,3.92.54a4.62,4.62,0,0,1,3.18,3.27A6.74,6.74,0,0,1,39.29,38.66Z"/><path class="cls-5" d="M48.14,5C38.92-1.28,24.48-1.68,14.85,4a.17.17,0,0,0-.14,0C4.85,8-.88,19.7.11,30a22.38,22.38,0,0,0,.51,3,.2.2,0,0,1,0-.07c0-.19.2-.26.23-.06.13.83.29,1.65.47,2.46,3.46,9.47,13.28,14.67,23.43,15.9A35.12,35.12,0,0,0,42.3,49.34c5.85-2.41,9.85-7,12.55-12.62a2.39,2.39,0,0,0,.13-.28c.08-.82.15-1.65.2-2.47,0-.54.62-.57.58,0,0,.27,0,.54,0,.81C59.9,24.18,58.05,11.82,48.14,5Zm6,30.26.2.13c.1.08.08.41-.09.35l-.29-.1c-.31.66-.65,1.32-1,2a.87.87,0,0,1,.07.17c0,.07,0,.25-.12.25a.25.25,0,0,1-.15,0c-.38.64-.77,1.26-1.19,1.87a.8.8,0,0,1,.13.19c0,.1,0,.33-.12.33a.42.42,0,0,1-.29-.12c-.36.5-.74,1-1.14,1.46.15.2.26.45.06.61a.14.14,0,0,1-.2,0,2,2,0,0,1-.2-.21c-.34.39-.69.76-1.06,1.12,0,.15,0,.38-.18.33a.31.31,0,0,1-.1-.05c-.35.33-.71.65-1.08,1a.71.71,0,0,1,.06.25c0,.08,0,.21-.11.24h0a.17.17,0,0,1-.17,0,2.09,2.09,0,0,0-.14-.17c-.4.32-.82.63-1.25.91s-.63.4-1,.59c0,.15-.12.34-.25.17l0,0a24.92,24.92,0,0,1-5.77,2.33c0,.18-.2.45-.29.17l0-.08c-.73.18-1.46.34-2.2.47a.12.12,0,0,1-.16,0c-.59.1-1.18.19-1.77.26a.5.5,0,0,1,0,.12c0,.24-.23.46-.3.13L34,49.68c-1.2.13-2.39.2-3.59.22C20.44,50,8.73,46.67,3.68,37.6l-.44.23c-.11.06-.11-.18-.07-.23a3.49,3.49,0,0,1,.34-.31,19.91,19.91,0,0,1-.87-1.87c-.25.13-.49.28-.74.43s-.12-.19-.07-.24A3.86,3.86,0,0,1,2.48,35c-.09-.23-.18-.47-.26-.71s-.06-.22-.1-.32a.8.8,0,0,0-.23.35c-.14.4-.47,0-.38-.32A1.26,1.26,0,0,1,2,33.37C-.93,23.07,4.61,12.42,12.74,6.1l-.41-.37c-.05,0-.06-.19,0-.19a1,1,0,0,1,.74.29c.57-.43,1.15-.84,1.74-1.22a.38.38,0,0,0,.09-.12,38.9,38.9,0,0,1,18.35-3,3,3,0,0,1,.17-.41c0-.09.12,0,.11.09a1.86,1.86,0,0,0-.06.34c.42,0,.85.1,1.27.16A3.39,3.39,0,0,1,35,1.1c.08-.15.19.08.15.17a3.5,3.5,0,0,0-.14.46c.48.07.95.15,1.43.25a1.25,1.25,0,0,1,.38-.57c.16-.13.21.2.16.29a1.48,1.48,0,0,0-.15.35q.7.15,1.41.33c0-.11,0-.22.05-.33s.2-.08.19.07,0,.21,0,.31a30.41,30.41,0,0,1,3.75,1.23,25.31,25.31,0,0,1,3,1.4c.19-.33.45-.75.84-.78.17,0,.19.3.12.4s-.35.42-.53.63A21.67,21.67,0,0,1,55.81,30.87,33.7,33.7,0,0,1,54.19,35.3Z"/><path class="cls-6" d="M4.46,32.86a.23.23,0,0,1,0,.34,1.11,1.11,0,0,1-.4.22c.17.34.35.67.54,1,.23,0,.47,0,.69,0s.2.41,0,.45L4.93,35c.21.38.42.76.62,1.15l.18.36a1.27,1.27,0,0,1,.54.17c.12.07.2.4,0,.45l-.22,0c1.17,2.34,2.39,4.74,4.81,6,.46.24.6-.84.26-1.06-2.49-1.6-3.61-4-4.92-6.57-.34-.67-.73-1.33-1.1-2,0,.1,0,.2,0,.3s-.11.14-.14,0c-.09-.32-.16-.65-.23-1s-.39-.77-.56-1.16a14.69,14.69,0,0,1-.68-6.35c0-.28-.33-.39-.37-.07A16.65,16.65,0,0,0,3,30.53,10.1,10.1,0,0,0,3.8,32.8,1,1,0,0,1,4.46,32.86Z"/><path class="cls-6" d="M33.46,47c.08.13.15.28.23.42.58-.09,1.16-.19,1.73-.32,0,0,0-.07.09,0h0c.68-.15,1.36-.32,2-.52,0-.1.06-.24.15-.14l.06.08a24.13,24.13,0,0,0,2.62-1,.75.75,0,0,1-.07-.12c-.08-.11,0-.41.15-.24l.18.24a22,22,0,0,0,2.5-1.32s0-.1.07-.08h0a17.61,17.61,0,0,0,2.12-1.54c.17-.14,0-.67-.2-.49A27.17,27.17,0,0,1,31,47.12c-4.62.32-10.5.34-14.58-2.12-.1,0-.12.17-.06.22a11.23,11.23,0,0,0,5.85,2.09,41.52,41.52,0,0,0,9.25.39c.67-.06,1.35-.13,2-.23l-.09-.35C33.33,47.06,33.4,46.91,33.46,47Z"/><path class="cls-6" d="M54,31.09c0-.2,0-.39,0-.58A24.4,24.4,0,0,1,48,39.93c-.08.08,0,.34.1.24a18,18,0,0,0,6.3-8.86C54.24,31.45,54,31.33,54,31.09Z"/><path class="cls-5" d="M54.41,31.13a18,18,0,0,0,.88-7.54c0-.33-.38-.34-.36,0A18.91,18.91,0,0,1,54.45,29,15.58,15.58,0,0,1,54.41,31.13Z"/><path class="cls-5" d="M38.2,4.34a1.21,1.21,0,0,1-.05-.18L37.3,4c.06.14.13.29.18.44a.31.31,0,0,1-.06.26c.27,0,.54.09.81.15s.32-.37.19-.54a.07.07,0,0,0,0,0C38.36,4.45,38.25,4.44,38.2,4.34Z"/><path class="cls-5" d="M36.78,3.86c-.54-.1-1.08-.19-1.62-.26a3.38,3.38,0,0,1,.08.34c0,.08-.05.34-.18.22a1.5,1.5,0,0,1-.38-.63l-.88-.09a.29.29,0,0,0,0,.09c0,.07,0,.23-.15.18a.63.63,0,0,1-.29-.31A32,32,0,0,0,19.25,5.53a1.07,1.07,0,0,1,0,.31c0,.17-.22.27-.3.07l-.06-.23-1.15.5a1.16,1.16,0,0,1,0,.32.11.11,0,0,1-.2,0,.72.72,0,0,1-.09-.2l-.88.43a1.42,1.42,0,0,1,0,.2c-.05.17-.24.12-.27,0-.38.2-.74.41-1.11.62a1.09,1.09,0,0,1,0,.26c0,.23-.29.26-.33,0a.07.07,0,0,1,0,0c-.34.21-.68.43-1,.66a.88.88,0,0,1,0,.17c0,.12-.16.14-.18,0v0a25,25,0,0,0-3.41,2.83.53.53,0,0,1-.12.3c-.05,0-.11,0-.15,0l-.48.51a.89.89,0,0,1-.07.46c-.05.09-.15,0-.18,0l0-.12c-.17.19-.35.39-.51.59a.74.74,0,0,1-.13.6c-.07.07-.15,0-.18-.07a.35.35,0,0,1,0-.11A22.21,22.21,0,0,0,4.33,21c0,.07.06.2.11.08C9.69,7.61,23.86,2.26,37.34,4.65h0A3.78,3.78,0,0,1,36.78,3.86Z"/><path class="cls-5" d="M44.43,6.79a.24.24,0,0,0,0-.08c-.22-.13-.45-.26-.69-.38l0,.12c-.07.13-.19,0-.21-.08a.88.88,0,0,1,0-.17,12.27,12.27,0,0,0-1.73-.61c-.17,0-.19.28-.06.33A20.11,20.11,0,0,1,45,7.73c.29.18.38-.37.19-.52a5.3,5.3,0,0,0-.54-.39.6.6,0,0,1-.08.08C44.46,7,44.42,6.84,44.43,6.79Z"/><path class="cls-5" d="M46.87,8.66c-.15-.08-.17.25-.08.32a33,33,0,0,1,2.9,2.77c.2.23.35-.31.23-.47A9.83,9.83,0,0,0,46.87,8.66Z"/><path class="cls-6" d="M20.66,10.27l-.81.33a.71.71,0,0,0,0,.14c-2.27,2-1.51,5.59.24,7.74s4.69,2.18,7,1c0-.07-.06-.13-.09-.21s.06-.32.14-.17a2.33,2.33,0,0,0,.17.26,5.48,5.48,0,0,0,1.56-1.25c2-2.39,1.91-4.85.07-7.19l-.47.27c-.08,0-.14,0-.17-.07h-.05c.19.23.36.48.53.73a2.42,2.42,0,0,1,.66,0c.14,0,.18.31,0,.35a2.14,2.14,0,0,1-.44.08,3.91,3.91,0,0,1-.31,4.83A5.42,5.42,0,0,1,23.4,19.2C19.46,18.84,17.87,14,20.14,11a0,0,0,0,1,0,0l0,0a6.07,6.07,0,0,1,3.69-1.58,2,2,0,0,1,1.73-.26c.11,0,.13.24.06.34a3.51,3.51,0,0,1,.49.12l.07,0a1.39,1.39,0,0,1,1,.09.34.34,0,0,1,0,.45,3.89,3.89,0,0,1,.53.46,3.9,3.9,0,0,1,.59,0h.05l.14-.13h0A5.41,5.41,0,0,0,26.24,9q-.49,0-1,0c-.13,0-.15-.21-.06-.3a5.92,5.92,0,0,0-4.67,1.07l.09,0C20.81,9.77,20.83,10.21,20.66,10.27Z"/><path class="cls-6" d="M22.25,15.93l0,0a.11.11,0,0,1,.08,0l.21-.16a.92.92,0,0,0-.26-.23.64.64,0,0,0-.17,0C22.17,15.63,22.21,15.78,22.25,15.93Z"/><path class="cls-6" d="M22.77,16.77a.76.76,0,0,0,0-.61.66.66,0,0,0-.25.07A2.11,2.11,0,0,0,22.77,16.77Z"/><path class="cls-6" d="M21.84,16.24,22,16.1a1.29,1.29,0,0,1-.11-.59.41.41,0,0,0-.24.24.74.74,0,0,0,0,.6Z"/><path class="cls-6" d="M22.27,16.43h0s-.07,0-.09,0a1.52,1.52,0,0,1-.38.2l.06.12a.65.65,0,0,0,.54.26A1.74,1.74,0,0,1,22.27,16.43Z"/><path class="cls-6" d="M22,16.1a1.06,1.06,0,0,1,.26-.17c0-.15-.08-.3-.11-.45a1.06,1.06,0,0,1,0-.31c0-.09-.12-.19-.16-.06a2.12,2.12,0,0,0-.06.4A1.29,1.29,0,0,0,22,16.1Z"/><path class="cls-6" d="M22.27,16.43a1.74,1.74,0,0,0,.13.59,1.21,1.21,0,0,0,.31.45.18.18,0,0,0,.14,0c.22-.12.12-.4,0-.56a1.29,1.29,0,0,1-.09-.16,2.11,2.11,0,0,1-.22-.54A1,1,0,0,0,22.27,16.43Z"/><path class="cls-6" d="M22.18,16.44a.27.27,0,0,1-.05-.27,2.4,2.4,0,0,1,.23-.25.11.11,0,0,0-.08,0l0,0a1.06,1.06,0,0,0-.26.17l-.15.14-.16.11a3.34,3.34,0,0,1-.4.25c-.07,0-.06.22,0,.19l.48-.15A1.52,1.52,0,0,0,22.18,16.44Z"/><path class="cls-6" d="M22.57,15.76l-.21.16a2.4,2.4,0,0,0-.23.25.27.27,0,0,0,.05.27s.05,0,.09,0h0a1,1,0,0,1,.28-.2.66.66,0,0,1,.25-.07h.05c.18,0,.41.06.56-.08a.3.3,0,0,0,0-.33C23.23,15.44,22.87,15.55,22.57,15.76Z"/><path class="cls-6" d="M37.94,19.33l-.09-.62a4.28,4.28,0,0,1-.52.67l0,.34c0,.11-.07.35-.2.19a1.41,1.41,0,0,1-.13-.24l-.31.25.06.19c.07.15-.1.4-.2.18a1.8,1.8,0,0,1-.08-.21,5.37,5.37,0,0,1-.91.5,1.63,1.63,0,0,1-.11.23c0,.06-.09,0-.09,0v-.1a6.07,6.07,0,0,1-1.57.42,9.28,9.28,0,0,1-5.14-.5,1.12,1.12,0,0,1-.44,0c-.08,0-.06-.17,0-.19h0a3.42,3.42,0,0,1-1-1,2.33,2.33,0,0,1-.17-.26c-.08-.15-.16.09-.14.17s.06.14.09.21c1.08,2.62,5.19,2.74,7.56,2.17a6.07,6.07,0,0,0,3.49-2.23C38,19.49,38,19.47,37.94,19.33Z"/><path class="cls-6" d="M28.35,11.15h-.09c0,.08.09.12.17.07L28.9,11a6.13,6.13,0,0,1,.8-.33c-.18-.05-.36-.07-.54-.13s0-.09,0-.1a.93.93,0,0,1,1,.1,6.83,6.83,0,0,1,.9-.18.51.51,0,0,0-.38-.18c-.1,0-.12-.24,0-.26.35-.09.58.15.78.4a7.85,7.85,0,0,1,1,0,4.5,4.5,0,0,0-.3-.42s0-.21.07-.15a5.12,5.12,0,0,1,.55.59c3.32.34,6.4,2.91,5.78,6.8a4.44,4.44,0,0,1-.35,1.12,4.66,4.66,0,0,1,.09,1.05s0,0,0,0a4.66,4.66,0,0,0,.78-2c.73-5.18-6.09-10.83-10.45-6.82l-.14.13C28.57,10.72,28.57,11.13,28.35,11.15Z"/><path class="cls-6" d="M40.24,27.25c-1.08-.38-2.76-1.09-3.92-.54a.08.08,0,0,0-.08,0c-3.2.46-5.15,4.38-4.67,7.4a5.92,5.92,0,0,0,7.72,4.58,6.74,6.74,0,0,0,4.13-8.14A4.62,4.62,0,0,0,40.24,27.25ZM40,37.49a5.44,5.44,0,0,1-7.32-2,6.2,6.2,0,0,1,.44-6l-.36.27c-.05,0-.07,0-.06-.07a1.92,1.92,0,0,1,1.17-1.18,4.93,4.93,0,0,1,2.4-1.43l0,0c.35.16.52.07.91.13a14.2,14.2,0,0,1,2.9.74C44.4,29.64,43.7,35.54,40,37.49Z"/><path class="cls-6" d="M21.64,27.66c-3.81-1.34-8.76,1.16-9,5.39a.18.18,0,0,0,0,.11V33c0-.13.12-.2.18-.11a5.48,5.48,0,0,1,1.63-3.22,2.37,2.37,0,0,1,.81-.85c.07,0,.11,0,.12.11a6.3,6.3,0,0,1,.72-.4,2.33,2.33,0,0,1,.5-.49c.12-.08.18.12.13.22A7.56,7.56,0,0,1,18,28c.09-.09.17-.19.26-.27s.17.1.15.21a6.59,6.59,0,0,1,3.47.53,8.3,8.3,0,0,1,1.95,1.26h.07c.07,0,.08.06.07.13a6,6,0,0,1,.57.56,3.51,3.51,0,0,1,.66-.13c.13,0,.15.27,0,.3l-.42.14a7.06,7.06,0,0,1,1.23,2,.28.28,0,0,1,.13,0c.16,0,.15.28,0,.36h0a1.9,1.9,0,0,1,.09.29,8.26,8.26,0,0,1,.05,3.25.31.31,0,0,1,0,.19l0,0c-.09.51-.19,1-.29,1.51.07.13.05.37-.08.43h0c0,.11-.05.22-.07.33v0L26,39c.17-.11.28.15.27.37,0,0,0-.08.05-.13C27.28,34.56,26.94,29.52,21.64,27.66ZM24,29.74s0,0,0,0S24,29.74,24,29.74Z"/><path class="cls-6" d="M26,39l-.13.08a7.24,7.24,0,0,1-6.92.87,8.86,8.86,0,0,1-1.36-.71v0c0,.18-.14.43-.26.18a1.51,1.51,0,0,0-.4-.59l0,0a1.28,1.28,0,0,0-.23-.14.36.36,0,0,1-.39-.08.6.6,0,0,1-.09-.38L16,38.09,15.8,38a.28.28,0,0,1-.13-.21A8.86,8.86,0,0,1,12.87,33a.11.11,0,0,0,0-.06c-.06-.09-.17,0-.18.11v.15c0,3,3,5.66,5.4,7.05a7.07,7.07,0,0,0,8.06-.61.35.35,0,0,0,.09-.24C26.23,39.14,26.12,38.88,26,39Z"/><path class="cls-6" d="M17.2,39a2.21,2.21,0,0,1-.05-.25s0-.07,0-.07a.24.24,0,0,1-.06-.08.75.75,0,0,1-.05-.16l0,0a3.4,3.4,0,0,1-.07.34s0,.05-.05.05a1.51,1.51,0,0,1,.4.59c.12.25.3,0,.26-.18v0a1.25,1.25,0,0,0-.09-.25C17.42,39.12,17.26,39.21,17.2,39Z"/><path class="cls-5" d="M16.84,38.67a.14.14,0,0,1-.18,0l0,0h0a1.28,1.28,0,0,1,.23.14s0,0,0,0Z"/><path class="cls-5" d="M16.93,38.79a3.4,3.4,0,0,0,.07-.34s0,0,0-.05a.08.08,0,0,1,0,0,.35.35,0,0,1-.14.3s0,0,0,0v.1s0,0,0,0l0,0S16.92,38.83,16.93,38.79Z"/><path class="cls-6" d="M41.31,33.75s-.05.08-.08.08a.63.63,0,0,0-.06.27.49.49,0,0,0-.06.43c.06.22.28.37.49.21a.68.68,0,0,0,.19-.68C41.74,33.86,41.52,33.62,41.31,33.75Z"/><path class="cls-6" d="M41.31,33.75a.35.35,0,0,0,0-.2,4.33,4.33,0,0,0-.5-.71c-.12-.16-.21.13-.14.23a4,4,0,0,0,.48.73s.05,0,.07,0S41.29,33.8,41.31,33.75Z"/><path class="cls-6" d="M35.18,28.76c.16-.07.14-.43,0-.45a2.61,2.61,0,0,0-1.24.23,1.92,1.92,0,0,0-1.17,1.18s0,.1.06.07l.36-.27a2.57,2.57,0,0,1,.64-.4C34.23,28.94,34.74,29,35.18,28.76Z"/><path class="cls-6" d="M38.65,29.59a3,3,0,0,0-1.22-.72s0,.05,0,.06c.35.33.79.57,1.14.91a6,6,0,0,1,.53.6,1.7,1.7,0,0,0,.41.47c.11.08.13-.11.11-.18A2.84,2.84,0,0,0,38.65,29.59Z"/><path class="cls-6" d="M35.6,19c0-.11-.16-.06-.17,0,0,.27,0,.55,0,.82s0,.53,0,.79v.1s0,.11.09,0a1.63,1.63,0,0,0,.11-.23A2.55,2.55,0,0,0,35.6,19Z"/><path class="cls-6" d="M35.15,15.61c-.09-.1-.14.08-.09.16a7.8,7.8,0,0,1,1.13,2.59,13.73,13.73,0,0,0,.31,1.72,1.8,1.8,0,0,0,.08.21c.1.22.27,0,.2-.18l-.06-.19c-.24-.73-.18-1.59-.43-2.33A5.69,5.69,0,0,0,35.15,15.61Z"/><path class="cls-6" d="M36.49,16.3c-.08-.11-.13.08-.1.16A4.6,4.6,0,0,1,37,18.81a2.23,2.23,0,0,0,.07.86,1.41,1.41,0,0,0,.13.24c.13.16.22-.08.2-.19l0-.34c0-.51,0-1-.13-1.54A3.68,3.68,0,0,0,36.49,16.3Z"/><path class="cls-6" d="M38.12,18.22a8.1,8.1,0,0,0-.6-1.8c-.08-.17-.21,0-.16.15a8.51,8.51,0,0,1,.49,2.14l.09.62c0,.14.09.16.16.13a.28.28,0,0,0,.1-.15s0,0,0,0A4.66,4.66,0,0,0,38.12,18.22Z"/><path class="cls-6" d="M30.62,11.35a8.33,8.33,0,0,1,.76,1.41c.08.16.18,0,.17-.12A3.48,3.48,0,0,0,30.68,11a2.07,2.07,0,0,0-.55-.45.93.93,0,0,0-1-.1s0,.08,0,.1.36.08.54.13l.18.06A2.23,2.23,0,0,1,30.62,11.35Z"/><path class="cls-6" d="M31.53,11.06a11.68,11.68,0,0,0,.66,1.06c.15.18.23-.12.19-.24a5.63,5.63,0,0,0-.91-1.5.36.36,0,0,0-.07-.1c-.2-.25-.43-.49-.78-.4-.09,0-.07.26,0,.26a.51.51,0,0,1,.38.18A3.45,3.45,0,0,1,31.53,11.06Z"/><path class="cls-6" d="M33.58,12.35a4.56,4.56,0,0,0-.89-2,5.12,5.12,0,0,0-.55-.59c-.08-.06-.11.1-.07.15a4.5,4.5,0,0,1,.3.42,5.87,5.87,0,0,1,1,2.18C33.38,12.72,33.61,12.55,33.58,12.35Z"/><path class="cls-6" d="M30.71,19.69a4,4,0,0,0,1.42-2c0-.06,0-.2-.09-.11a3.86,3.86,0,0,1-1.63,1.78c-.31.15-.65.25-1,.42a4.23,4.23,0,0,1-1.17.57h0c-.07,0-.09.17,0,.19a1.12,1.12,0,0,0,.44,0,1.77,1.77,0,0,0,.66-.24C29.79,20.11,30.28,20,30.71,19.69Z"/><path class="cls-6" d="M22,11.4s0,.16.06.1a8.39,8.39,0,0,1,1.39-1.27,4.16,4.16,0,0,1,2.16-.7.1.1,0,0,0,.08,0c.07-.1.05-.3-.06-.34a2,2,0,0,0-1.73.26A5.51,5.51,0,0,0,22,11.4Z"/><path class="cls-6" d="M23.19,11.54s0,.17,0,.12c.84-.62,2.74-2.13,3.87-1.47a.08.08,0,0,0,.11,0,.34.34,0,0,0,0-.45,1.39,1.39,0,0,0-1-.09,5.24,5.24,0,0,0-1,.41A6.34,6.34,0,0,0,23.19,11.54Z"/><path class="cls-6" d="M28.39,10.64h-.05a3.9,3.9,0,0,0-.59,0,4.4,4.4,0,0,0-3.06,1.44c-.05.07,0,.28.1.24.55-.21,1-.58,1.6-.79a7.18,7.18,0,0,1,1.82-.37h.14C28.57,11.13,28.57,10.72,28.39,10.64Z"/><path class="cls-6" d="M26.27,13.42s0,.16,0,.12c.5-.3.92-.74,1.44-1A3.54,3.54,0,0,1,29,12.31a2.14,2.14,0,0,0,.44-.08c.14,0,.1-.33,0-.35a2.42,2.42,0,0,0-.66,0A3.76,3.76,0,0,0,26.27,13.42Z"/><path class="cls-6" d="M14.12,31.29c0,.1.13.13.17,0a10.71,10.71,0,0,1,.4-1.21,7.15,7.15,0,0,1,.71-1,.24.24,0,0,0,0-.15c0-.08-.05-.15-.12-.11a2.37,2.37,0,0,0-.81.85A2.45,2.45,0,0,0,14.12,31.29Z"/><path class="cls-6" d="M15.58,31a4.47,4.47,0,0,1,1.16-2.73s0,0,0,0,0-.3-.13-.22a2.33,2.33,0,0,0-.5.49A4.28,4.28,0,0,0,15.41,31C15.4,31.13,15.55,31.17,15.58,31Z"/><path class="cls-6" d="M16.82,30.39c.29-.37.5-.81.76-1.2s.54-.83.79-1.26l0,0c0-.11,0-.32-.15-.21s-.17.18-.26.27a6,6,0,0,0-1.28,2.31C16.68,30.33,16.74,30.5,16.82,30.39Z"/><path class="cls-6" d="M25.79,38.19c-2.13.65-3.85.25-6,0-.09,0-.07.17,0,.2a7.23,7.23,0,0,0,6.09.38h0c.13-.06.15-.3.08-.43A.16.16,0,0,0,25.79,38.19Z"/><path class="cls-6" d="M26.21,36.5a7.52,7.52,0,0,1-4.14.61c-.06,0-.06.12,0,.13,1.17.26,3.37.76,4.21-.47l0,0a.31.31,0,0,0,0-.19S26.26,36.48,26.21,36.5Z"/><path class="cls-6" d="M20.45,32.55s0,.09.05.06c.5-.47.9-1,1.43-1.48a15.7,15.7,0,0,1,2-1.25s0-.05,0-.08,0-.14-.07-.13h-.07A4.94,4.94,0,0,0,20.45,32.55Z"/><path class="cls-5" d="M24,29.74s0,0,0,0S24,29.74,24,29.74Z"/><path class="cls-6" d="M22,32.11s0,.19,0,.16c.56-.25,1-.76,1.52-1.06a6.84,6.84,0,0,1,1.24-.54l.42-.14c.11,0,.09-.31,0-.3a3.51,3.51,0,0,0-.66.13A5.53,5.53,0,0,0,22,32.11Z"/><path class="cls-6" d="M21.15,34.65c.74-.25,1.83-.26,2.37-.9.05-.07.08-.31-.06-.29a4.67,4.67,0,0,0-1.13.37,6,6,0,0,0-1.24.57C21,34.45,21,34.69,21.15,34.65Z"/><path class="cls-6" d="M25.37,32.85a1.85,1.85,0,0,0-.62.48s0,.14,0,.14a2.31,2.31,0,0,0,.71-.21l.29-.14c.13-.07.25,0,.37-.12h0c.11-.08.12-.34,0-.36a.28.28,0,0,0-.13,0l-.25.09A2.12,2.12,0,0,0,25.37,32.85Z"/><path class="cls-6" d="M15.65,37.64a.44.44,0,0,1,.06-.12h0c-.06,0-.16.09-.09.18l0,0h0Z"/><path class="cls-6" d="M16.15,38.16v0s0-.2.12-.2h0s0,0,0,0h0a1,1,0,0,0,.24.1h0a.41.41,0,0,1,0-.29,2.71,2.71,0,0,0-.49-.22.94.94,0,0,0-.12-.09.12.12,0,0,0-.1,0h0a.13.13,0,0,0-.16.06h0a.44.44,0,0,0-.06.12v.08h0s0,0,0,.06a.28.28,0,0,0,.13.21l.21.1.14.07Z"/><path class="cls-6" d="M16.79,38.21h0s0,0,0,.08,0,0,0,0h0a.35.35,0,0,1-.12.32.14.14,0,0,0,.18,0s0,0,0,0a.35.35,0,0,0,.14-.3v0C16.92,38.25,16.86,38.19,16.79,38.21Z"/><path class="cls-6" d="M16.66,38.65a.35.35,0,0,0,.12-.32h0s0,0,0,0,0,0,0-.08a.12.12,0,0,1-.1-.05l0-.07s0,0,0,0h0a1,1,0,0,1-.24-.1h0s0,0,0,0h0c-.08,0-.12.15-.12.2v0h0a.09.09,0,0,1,0,.05.6.6,0,0,0,.09.38.36.36,0,0,0,.39.08h0Z"/><path class="cls-6" d="M17,38.15a3.76,3.76,0,0,0,.25.31c0,.07,0,.21-.08.13s-.1-.17-.17-.27v0a.08.08,0,0,0,0,0l0,.08a.75.75,0,0,0,.05.16.24.24,0,0,0,.06.08s0,0,0,.07a2.21,2.21,0,0,0,.05.25c.06.17.22.08.25-.06h0a.57.57,0,0,0,0-.26c0-.1,0-.2,0-.3a1.22,1.22,0,0,0-.25-.57A.13.13,0,0,0,17,37.8a.56.56,0,0,0-.17.09C16.9,38,16.93,38.05,17,38.15Z"/><path class="cls-6" d="M16.58,38.06s0,0,0,0l0,.07a.12.12,0,0,0,.1.05h0c.07,0,.13,0,.2.11s.14.22.17.27.12-.06.08-.13a3.76,3.76,0,0,1-.25-.31c-.06-.1-.09-.19-.13-.26a.29.29,0,0,0-.14-.15.09.09,0,0,0-.12,0A.41.41,0,0,0,16.58,38.06Z"/><path class="cls-5" d="M55.18,34c0,.82-.12,1.65-.2,2.47-.64,6.67-2.36,13.1-7.19,18.11s-13,7.77-19.94,7.05a44.25,44.25,0,0,1-10.4-2.76A20.35,20.35,0,0,1,9,53.72c-2.34-2.6-3.6-5.92-4.81-9.15a67.22,67.22,0,0,1-2.87-9.18c-.18-.81-.34-1.63-.47-2.46,0-.2-.24-.13-.23.06a.2.2,0,0,0,0,.07c.32,4.12,1.75,8,3.18,11.86,1.22,3.3,2.5,6.72,4.86,9.39s5.46,4.13,8.67,5.32a43,43,0,0,0,11,2.89c7.43.67,15.94-2.57,20.79-8.26s6.15-12.43,6.64-19.5c0-.27,0-.54,0-.81C55.8,33.4,55.21,33.43,55.18,34Z"/><path class="cls-5" d="M8,50.32c-.68-1.87-1.54-3.7-2.24-5.58,0-.12-.14,0-.13.09a18.22,18.22,0,0,0,2.14,5.78C7.92,50.85,8.05,50.46,8,50.32Z"/><path class="cls-5" d="M9.21,51.61c.15.27.31-.16.25-.31-.65-1.72-1.35-3.36-1.88-5.13-.06-.2-.24-.08-.2.1A16.83,16.83,0,0,0,9.21,51.61Z"/><path class="cls-5" d="M10.42,52.57c.09.29.38,0,.31-.22-.44-1.51-.92-3-1.39-4.54-.08-.23-.31,0-.25.17C9.53,49.51,10,51,10.42,52.57Z"/><path class="cls-5" d="M39.62,57.33c0,.19.2.5.31.19a12.67,12.67,0,0,0,.27-6.58c-.05-.21-.24-.13-.25.06,0,1,.09,2,0,3S39.7,56.21,39.62,57.33Z"/><path class="cls-5" d="M42,56.18a15.38,15.38,0,0,0,0-4.74c0-.16-.15-.15-.16,0a28.33,28.33,0,0,0-.15,4.69C41.69,56.35,41.9,56.45,42,56.18Z"/><path class="cls-5" d="M43.32,56c0,.3.34.43.4.07a17.72,17.72,0,0,0-.14-5.19c0-.26-.33-.16-.3.07C43.42,52.6,43.3,54.26,43.32,56Z"/><path class="cls-5" d="M45.49,55.47c.25-1.77.09-3.62.27-5.41,0-.27-.28-.47-.33-.13a19.13,19.13,0,0,0-.26,5.54C45.21,55.7,45.45,55.69,45.49,55.47Z"/><path class="cls-5" d="M51.08,48.79a26.28,26.28,0,0,0,1-5.77c0-.18-.18-.32-.22-.09-.34,1.89-.88,3.76-1.16,5.65C50.71,48.8,51,49.11,51.08,48.79Z"/><path class="cls-5" d="M52.82,45.48a18.65,18.65,0,0,0,.55-2.57,5.63,5.63,0,0,0,.05-2.31c0-.09-.11-.13-.15,0a8.35,8.35,0,0,0-.31,2,22.53,22.53,0,0,1-.53,2.57C52.36,45.44,52.69,45.91,52.82,45.48Z"/><path class="cls-5" d="M22.27,58.55a43.33,43.33,0,0,0-.05-6.93c0-.18-.23-.29-.26,0a42.93,42.93,0,0,0-.05,7C21.93,58.89,22.25,58.88,22.27,58.55Z"/><path class="cls-5" d="M23.39,58a14.07,14.07,0,0,0,0-4.8c0-.1-.15-.11-.16,0-.13,1.54-.09,3.1-.2,4.65C23,58.15,23.34,58.38,23.39,58Z"/><path class="cls-5" d="M24.54,59a19.52,19.52,0,0,0,.36-5.71c0-.18-.23-.27-.25-.05a56.41,56.41,0,0,0-.45,5.63C24.2,59,24.46,59.23,24.54,59Z"/><path class="cls-5" d="M26.23,58.12a13.74,13.74,0,0,0,.4-4.61c0-.22-.22-.21-.23,0,0,1.52-.39,3-.45,4.5C25.94,58.19,26.16,58.34,26.23,58.12Z"/><path class="cls-5" d="M20.65,56.92a16.22,16.22,0,0,0,.19-2.51,13.59,13.59,0,0,0,0-2.47c0-.09-.13-.14-.17,0a13.1,13.1,0,0,0-.28,2.42,16.31,16.31,0,0,0-.13,2.52C20.3,57.13,20.58,57.25,20.65,56.92Z"/><path class="cls-5" d="M19.11,55.83a10.69,10.69,0,0,0,.11-2,4.61,4.61,0,0,0-.1-1.7c0-.11-.13-.08-.17,0a4.9,4.9,0,0,0-.2,1.71,10.69,10.69,0,0,0,0,2C18.79,56.12,19.07,56.08,19.11,55.83Z"/><path class="cls-5" d="M4.5,33.2a.23.23,0,0,0,0-.34,1,1,0,0,0-.66-.06l-.44.08a5.84,5.84,0,0,0-.83.18,1.62,1.62,0,0,0-.58.31,1.26,1.26,0,0,0-.44.61c-.09.28.24.72.38.32A.8.8,0,0,1,2.12,34c.47-.43,1.36-.32,2-.53A1.11,1.11,0,0,0,4.5,33.2Z"/><path class="cls-5" d="M4.93,35l.41-.06c.19,0,.19-.43,0-.45s-.46,0-.69,0a6.29,6.29,0,0,0-1.24.11,2.08,2.08,0,0,0-.92.44,3.86,3.86,0,0,0-.65.63c-.05,0,0,.31.07.24s.49-.3.74-.43a3,3,0,0,1,.93-.35C4,35,4.47,35,4.93,35Z"/><path class="cls-5" d="M6.06,37.13l.22,0c.19-.05.11-.38,0-.45a1.27,1.27,0,0,0-.54-.17,3.3,3.3,0,0,0-2.22.82,3.49,3.49,0,0,0-.34.31s0,.29.07.23l.44-.23a4.49,4.49,0,0,1,1.08-.39C5.19,37.12,5.63,37.19,6.06,37.13Z"/><path class="cls-6" d="M5.12,33.8c0-.1,0-.2,0-.3-.08-2.53-.5-5.11.13-7.61s2.59-4.82,4.08-6.82A24.51,24.51,0,0,1,19.85,10.6l.81-.33c.17-.06.15-.5-.05-.46l-.09,0c-5.17.95-9,5.5-11.93,9.54-1.37,1.91-3.2,4-3.76,6.33a17.68,17.68,0,0,0-.08,7.14c.07.34.14.67.23,1C5,33.94,5.12,33.91,5.12,33.8Z"/><path class="cls-6" d="M25.25,9.06q.49,0,1,0C33.07,8.75,40,7.2,45.51,12.52c4.77,4.62,8.63,11.2,8.51,18,0,.19,0,.38,0,.58s.23.36.34.22a.26.26,0,0,0,.06-.15v0a15.58,15.58,0,0,0,0-2.16c-.26-5.86-3.57-11.41-7.4-15.67a14.62,14.62,0,0,0-8.7-5.16c-4.23-.72-8.9-.14-13.11.59a.05.05,0,0,0,0,0C25.1,8.85,25.12,9.07,25.25,9.06Z"/><path class="cls-5" d="M13.33,7a9.59,9.59,0,0,1,.2,1.6v0c0,.14.15.12.18,0a.88.88,0,0,0,0-.17,3.54,3.54,0,0,0-.64-2.61,1,1,0,0,0-.74-.29c-.09,0-.08.15,0,.19l.41.37A2,2,0,0,1,13.33,7Z"/><path class="cls-5" d="M15.09,7.82a1.09,1.09,0,0,0,0-.26,3.16,3.16,0,0,0-.76-2c-.14-.17-.22.13-.15.25a3.87,3.87,0,0,1,.43,1.08c.07.3.07.61.11.91a.07.07,0,0,0,0,0C14.8,8.08,15.05,8.05,15.09,7.82Z"/><path class="cls-5" d="M16.5,7a1.42,1.42,0,0,0,0-.2,2.62,2.62,0,0,0-.78-2c-.1-.1-.15.14-.1.21a2.59,2.59,0,0,1,.48,1c.07.32,0,.63.08,1,0,0,0,0,0,0S16.45,7.14,16.5,7Z"/><path class="cls-5" d="M17.71,6.5a1.16,1.16,0,0,0,0-.32,3.34,3.34,0,0,0-.14-.7,9.61,9.61,0,0,0-.37-1.15c-.07-.19-.25,0-.21.15a8.88,8.88,0,0,1,.28,1.13,4.45,4.45,0,0,0,.12.73.72.72,0,0,0,.09.2A.11.11,0,0,0,17.71,6.5Z"/><path class="cls-5" d="M19.25,5.84a1.07,1.07,0,0,0,0-.31,2.75,2.75,0,0,0-.15-.63c-.06-.19-.15-.64-.37-.69-.05,0-.08,0-.09.08a2.3,2.3,0,0,0,.16.76c0,.21.05.42.09.63l.06.23C19,6.11,19.22,6,19.25,5.84Z"/><path class="cls-5" d="M8.45,13.69a.74.74,0,0,0,.13-.6C8.5,12.57,8.12,12,7.72,12c-.06,0,0,.09,0,.12a4.7,4.7,0,0,1,.46.78c.07.22,0,.45.09.66a.35.35,0,0,0,0,.11C8.3,13.69,8.38,13.76,8.45,13.69Z"/><path class="cls-5" d="M9.3,12.65a.89.89,0,0,0,.07-.46,2.42,2.42,0,0,0-.14-.56,2.25,2.25,0,0,0-.69-1c-.15-.12-.2.2-.11.29A2,2,0,0,1,9,11.8c.08.23.06.47.12.7l0,.12C9.15,12.69,9.25,12.74,9.3,12.65Z"/><path class="cls-5" d="M10,11.71a.53.53,0,0,0,.12-.3,1.48,1.48,0,0,0-.08-.6A2,2,0,0,0,9.53,10c-.12-.11-.17.16-.12.24a1.67,1.67,0,0,1,.33.76,2.46,2.46,0,0,0,.08.67l0,0C9.89,11.73,10,11.76,10,11.71Z"/><path class="cls-5" d="M10.51,9.9c.05.21,0,.42.09.63s.26.22.31,0A2.05,2.05,0,0,0,10.36,9c-.13-.14-.2.12-.14.22A2.15,2.15,0,0,1,10.51,9.9Z"/><path class="cls-5" d="M36.78,3.86a3.78,3.78,0,0,0,.55.79h0a.07.07,0,0,0,.08,0,.31.31,0,0,0,.06-.26c0-.15-.12-.3-.18-.44a2.69,2.69,0,0,1-.45-1.92A1.48,1.48,0,0,1,37,1.7c0-.09,0-.42-.16-.29a1.25,1.25,0,0,0-.38.57A2.47,2.47,0,0,0,36.78,3.86Z"/><path class="cls-5" d="M38.15,4.16a1.21,1.21,0,0,0,.05.18c0,.1.16.11.21,0a.07.07,0,0,1,0,0,2.81,2.81,0,0,0,0-.87c0-.33,0-.65,0-1,0-.1,0-.2,0-.31s-.15-.27-.19-.07,0,.22-.05.33c0,.32-.09.65-.12,1A2.74,2.74,0,0,0,38.15,4.16Z"/><path class="cls-5" d="M34.68,3.53a1.5,1.5,0,0,0,.38.63c.13.12.2-.14.18-.22a3.38,3.38,0,0,0-.08-.34,4.18,4.18,0,0,1-.22-.86,3.1,3.1,0,0,1,.09-1,3.5,3.5,0,0,1,.14-.46c0-.09-.07-.32-.15-.17a3.39,3.39,0,0,0-.25.6A3.27,3.27,0,0,0,34.68,3.53Z"/><path class="cls-5" d="M33.17,2.53a2.4,2.4,0,0,0,.21.87.63.63,0,0,0,.29.31c.1,0,.16-.11.15-.18a.29.29,0,0,1,0-.09c-.06-.31-.22-.59-.28-.91a2.75,2.75,0,0,1,0-1,1.86,1.86,0,0,1,.06-.34c0-.06-.06-.18-.11-.09a3,3,0,0,0-.17.41A2.29,2.29,0,0,0,33.17,2.53Z"/><path class="cls-5" d="M43.71,6.45l0-.12c.09-.22.12-.47.19-.7a4.63,4.63,0,0,0,.22-.89c0-.09-.07-.35-.2-.22a1.79,1.79,0,0,0-.37.83,2.77,2.77,0,0,0-.12.85.88.88,0,0,0,0,.17C43.52,6.47,43.64,6.58,43.71,6.45Z"/><path class="cls-5" d="M44.45,6.71a.24.24,0,0,1,0,.08s0,.16.11.11a.6.6,0,0,0,.08-.08,4.39,4.39,0,0,0,.71-1.08,4.67,4.67,0,0,1,.3-.43c.18-.21.36-.4.53-.63s.05-.41-.12-.4c-.39,0-.65.45-.84.78l-.08.15A5.6,5.6,0,0,0,44.45,6.71Z"/><path class="cls-5" d="M33.46,47c-.06-.1-.13.05-.12.11l.09.35c.18.74.39,1.47.57,2.21l.06.21c.07.33.33.11.3-.13a.5.5,0,0,0,0-.12,7,7,0,0,0-.65-2.21C33.61,47.29,33.54,47.14,33.46,47Z"/><path class="cls-5" d="M35.52,47.09h0s-.07,0-.09,0a.57.57,0,0,0,0,.12c.1.33.28.63.38,1s.16.72.25,1.08a.18.18,0,0,0,.07.12.12.12,0,0,0,.16,0,.23.23,0,0,0,0-.16A3.8,3.8,0,0,0,35.52,47.09Z"/><path class="cls-5" d="M37.76,46.51l-.06-.08c-.09-.1-.16,0-.15.14a.06.06,0,0,1,0,0,15.36,15.36,0,0,1,.91,2.27l0,.08c.09.28.3,0,.29-.17v0A4.78,4.78,0,0,0,37.76,46.51Z"/><path class="cls-5" d="M40.31,45.43a.75.75,0,0,0,.07.12,8.78,8.78,0,0,1,.94,2c.11.34.39-.05.3-.29a6.48,6.48,0,0,0-1-1.81l-.18-.24C40.32,45,40.23,45.32,40.31,45.43Z"/><path class="cls-5" d="M44.83,46.25A3.46,3.46,0,0,0,44.16,45a2.79,2.79,0,0,0-.92-.92h0s-.06,0-.07.08a.07.07,0,0,0,0,0c.21.39.51.72.75,1.09s.39.86.66,1.21l0,0c.13.17.24,0,.25-.17Z"/><path class="cls-5" d="M47,44a8.29,8.29,0,0,0-.72-.61c-.2-.16-.26.28-.14.4.31.32.59.67.88,1a2.09,2.09,0,0,1,.14.17.17.17,0,0,0,.17,0h0c.08,0,.11-.16.11-.24a.71.71,0,0,0-.06-.25A1.75,1.75,0,0,0,47,44Z"/><path class="cls-5" d="M48.24,42.67l-.58-.42c-.18-.12-.21.22-.12.32l.53.58a2.41,2.41,0,0,0,.44.4.31.31,0,0,0,.1.05c.18,0,.21-.18.18-.33l0-.11A1.87,1.87,0,0,0,48.24,42.67Z"/><path class="cls-5" d="M49.58,41.11c-.13-.12-.28-.3-.47-.29s-.18.27-.13.38.35.39.53.57l.34.38a2,2,0,0,0,.2.21.14.14,0,0,0,.2,0c.2-.16.09-.41-.06-.61a1.79,1.79,0,0,0-.21-.24A5,5,0,0,0,49.58,41.11Z"/><path class="cls-5" d="M51.29,39.62a2,2,0,0,0-.54-.34c-.17-.05-.18.25-.12.33a2.58,2.58,0,0,0,.49.5l.21.18a.42.42,0,0,0,.29.12c.15,0,.16-.23.12-.33a.8.8,0,0,0-.13-.19A2.17,2.17,0,0,0,51.29,39.62Z"/><path class="cls-5" d="M51.8,37.16c-.19,0-.18.43,0,.43a1.34,1.34,0,0,1,.64.18c.11.06.22.18.34.25a.25.25,0,0,0,.15,0c.11,0,.13-.18.12-.25a.87.87,0,0,0-.07-.17A1.29,1.29,0,0,0,51.8,37.16Z"/><path class="cls-5" d="M53.36,35.34a2.87,2.87,0,0,0,.65.34l.29.1c.17.06.19-.27.09-.35l-.2-.13a2.72,2.72,0,0,0-.73-.35C53.26,34.9,53.24,35.25,53.36,35.34Z"/><path class="cls-5" d="M26.27,25.91a4.44,4.44,0,0,0-.68-.69c-.15-.11-.22.17-.17.28a5.87,5.87,0,0,0,.6.9c.16.21.35.58.64.61.13,0,.15-.21.13-.29A1.8,1.8,0,0,0,26.27,25.91Z"/><path class="cls-5" d="M28.72,26.89a4.44,4.44,0,0,1,.38-.67,1.92,1.92,0,0,0,.37-.65c0-.09,0-.37-.18-.34s-.38.34-.51.54a5.34,5.34,0,0,0-.39.75.41.41,0,0,0,.06.4A.16.16,0,0,0,28.72,26.89Z"/><path class="cls-5" d="M41.08,19.28c0,.2.28.3.36.06a3.23,3.23,0,0,0,.05-1.12,1.75,1.75,0,0,0-.19-.94c-.06-.07-.12,0-.15,0a2.31,2.31,0,0,0-.07.91A5.26,5.26,0,0,0,41.08,19.28Z"/><path class="cls-5" d="M43.05,20.58c.07.2.24.08.28-.06a4.44,4.44,0,0,0,0-1.09,3.35,3.35,0,0,0-.13-.95c0-.1-.16-.11-.19,0a3.61,3.61,0,0,0,0,1A3.44,3.44,0,0,0,43.05,20.58Z"/><path class="cls-5" d="M29.78,41.25c-.34.16-.58.55-.87.78s-.74.34-.89.68a.25.25,0,0,0,.05.26c.3.21.8-.2,1.06-.37a2.23,2.23,0,0,0,.88-.92C30.06,41.55,30,41.14,29.78,41.25Z"/><path class="cls-5" d="M31,42.15a2.7,2.7,0,0,0-.63.43,2.16,2.16,0,0,0-.59.53c-.05.08-.06.38.1.35a1.74,1.74,0,0,0,.63-.42,3.27,3.27,0,0,0,.62-.56C31.17,42.39,31.13,42.09,31,42.15Z"/><path class="cls-5" d="M13.75,24.77a1.53,1.53,0,0,0,.31.64c.16.15.3-.14.29-.27a2.29,2.29,0,0,0-.24-.71c-.11-.23-.22-.47-.32-.7s-.16-.19-.27-.1a.38.38,0,0,0,0,.4C13.56,24.28,13.65,24.52,13.75,24.77Z"/><path class="cls-7" d="M47.93,40l0,0c.07-.07.87-1,1.21-1.3A23.26,23.26,0,0,0,54,30.51c.12-6.79-3.74-13.37-8.51-18C40,7.2,33.07,8.75,26.24,9a5.41,5.41,0,0,1,2.28,1.48h0c4.36-4,11.18,1.64,10.45,6.82a4.66,4.66,0,0,1-.78,2,.28.28,0,0,1-.1.15,6.07,6.07,0,0,1-3.49,2.23c-2.37.57-6.48.45-7.56-2.17-2.26,1.14-5.29,1-6.95-1s-2.51-5.71-.24-7.74a.71.71,0,0,1,0-.14A24.51,24.51,0,0,0,9.32,19.07c-1.49,2-3.46,4.4-4.08,6.82S5,31,5.11,33.5c.37.66.76,1.32,1.1,2a33.81,33.81,0,0,0,2.07,3.72A29.77,29.77,0,0,0,18.67,46c.69.25,1.42.5,2.16.73A36.93,36.93,0,0,0,31,47.12,27.17,27.17,0,0,0,45.16,42,19.54,19.54,0,0,0,47.93,40ZM13.52,23.63c.11-.09.22,0,.27.1s.21.47.32.7a2.29,2.29,0,0,1,.24.71c0,.13-.13.42-.29.27a1.53,1.53,0,0,1-.31-.64c-.1-.25-.19-.49-.28-.74A.38.38,0,0,1,13.52,23.63Zm12.75,15.6c0,.05,0,.09-.05.13a.35.35,0,0,1-.09.24,7.07,7.07,0,0,1-8.06.61c-2.41-1.39-5.44-4-5.4-7.05a.18.18,0,0,1,0-.11c.25-4.23,5.2-6.73,9-5.39C26.94,29.52,27.28,34.56,26.27,39.23ZM26.66,27c-.29,0-.48-.4-.64-.61a5.87,5.87,0,0,1-.6-.9c-.05-.11,0-.39.17-.28a4.44,4.44,0,0,1,.68.69,1.8,1.8,0,0,1,.52.81C26.81,26.8,26.79,27,26.66,27ZM43,18.48c0-.11.15-.1.19,0a3.35,3.35,0,0,1,.13.95,4.44,4.44,0,0,1,0,1.09c0,.14-.21.26-.28.06a3.44,3.44,0,0,1-.1-1.06A3.61,3.61,0,0,1,43,18.48Zm-1.83-1.16c0-.07.09-.11.15,0a1.75,1.75,0,0,1,.19.94,3.23,3.23,0,0,1-.05,1.12c-.08.24-.32.14-.36-.06a5.26,5.26,0,0,1,0-1.05A2.31,2.31,0,0,1,41.15,17.32Zm-12.76,9.2a5.34,5.34,0,0,1,.39-.75c.13-.2.26-.5.51-.54s.2.25.18.34a1.92,1.92,0,0,1-.37.65,4.44,4.44,0,0,0-.38.67.16.16,0,0,1-.27,0A.41.41,0,0,1,28.39,26.52Zm.74,16.08c-.26.17-.76.58-1.06.37a.25.25,0,0,1-.05-.26c.15-.34.6-.46.89-.68s.53-.62.87-.78.28.3.23.43A2.23,2.23,0,0,1,29.13,42.6Zm2-.12a3.27,3.27,0,0,1-.62.56,1.74,1.74,0,0,1-.63.42c-.16,0-.15-.27-.1-.35a2.16,2.16,0,0,1,.59-.53,2.7,2.7,0,0,1,.63-.43C31.13,42.09,31.17,42.39,31.1,42.48Zm8.19-3.82a5.92,5.92,0,0,1-7.72-4.58c-.48-3,1.47-6.94,4.67-7.4a.08.08,0,0,1,.08,0c1.16-.55,2.84.16,3.92.54a4.62,4.62,0,0,1,3.18,3.27A6.74,6.74,0,0,1,39.29,38.66Z"/></g></g></g></svg>