<svg xmlns="http://www.w3.org/2000/svg" viewBox="0 0 95.6 90.32"><defs><style>.cls-1{fill:#cebcb1;}.cls-2{fill:#fff;}.cls-3{fill:#ecf0f8;}.cls-4{fill:#fffaf6;}.cls-5{fill:#50608c;}.cls-6{fill:#6f757b;}</style></defs><g id="レイヤー_2" data-name="レイヤー 2"><g id="Layer_1" data-name="Layer 1"><g id="milk"><path class="cls-1" d="M15.81,60.56c-.49-.85-1-1.7-1.37-2.57a5.07,5.07,0,0,1-.91.69c-.15.09-.32.19-.49.27.45.8.92,1.6,1.42,2.38a5.39,5.39,0,0,1,.6-.37A6.72,6.72,0,0,1,15.81,60.56Z"/><path class="cls-1" d="M12.85,54.3l-.15-.4-1.14.27c-.25.06-.51.14-.77.18.23.55.47,1.08.72,1.62a11,11,0,0,0,1.87-.34C13.19,55.19,13,54.75,12.85,54.3Z"/><path class="cls-1" d="M17.52,63.22c-.55-.78-1.07-1.59-1.56-2.41-.28.2-.58.38-.87.57-.13.08-.27.19-.41.29.54.83,1.12,1.65,1.71,2.44a5,5,0,0,1,.55-.48C17.13,63.49,17.32,63.35,17.52,63.22Z"/><path class="cls-1" d="M13.49,58.31a5.69,5.69,0,0,0,.85-.52c-.15-.32-.31-.65-.46-1-.32.18-.65.36-1,.53l-.56.3.5.94C13.05,58.49,13.28,58.41,13.49,58.31Z"/><path class="cls-1" d="M12.83,57c.33-.12.65-.26,1-.39-.11-.26-.22-.51-.32-.76a5.4,5.4,0,0,1-1.81.44c.1.2.19.4.29.61l.19.36C12.37,57.18,12.62,57.11,12.83,57Z"/><path class="cls-1" d="M42.93,74.82c-1,.05-2.09.06-3.14,0a8.44,8.44,0,0,1,.49,3.29c1,.07,2.06.1,3.1.08-.14-.7-.22-1.4-.3-2.09A11.68,11.68,0,0,1,42.93,74.82Z"/><path class="cls-1" d="M12.6,53.62A33,33,0,0,1,11.43,34,2.52,2.52,0,0,1,9.2,33c0-.08,0-.29.15-.24.4.15.75.44,1.15.6a5.07,5.07,0,0,0,1,.25c.15-.59.32-1.17.48-1.75a4.87,4.87,0,0,1-2.3-.58c-.09-.07,0-.29.11-.29a15.77,15.77,0,0,1,2.29.53c.15-.52.31-1,.47-1.54a2.91,2.91,0,0,1-.93,0,1.67,1.67,0,0,1-1-.29c-.1-.1,0-.29.12-.32a2.73,2.73,0,0,1,1,.15,5.48,5.48,0,0,1,.89.21c.17-.51.34-1,.52-1.52a1.23,1.23,0,0,1-.8,0,5.38,5.38,0,0,1-1.74-1c-.1-.09,0-.36.16-.32.63.17,1.72,1.29,2.48,1.09.19-.52.39-1,.59-1.56a7.8,7.8,0,0,1-1.19-.6,4.3,4.3,0,0,1-1.23-.83c-.08-.1,0-.37.16-.32a4.61,4.61,0,0,1,1.27.73c.37.24.76.47,1.11.75a24.33,24.33,0,0,1,7.47-10.28,33.32,33.32,0,0,1,5.47-3.44A3.28,3.28,0,0,1,25.65,11c-.1-.16.16-.53.28-.31a7.27,7.27,0,0,0,1.24,1.47.07.07,0,0,1,0,.05c.61-.3,1.22-.59,1.84-.85a3.78,3.78,0,0,1-.53-.73A5.55,5.55,0,0,1,28,9.7c0-.08.07-.34.16-.23a4.73,4.73,0,0,1,.53.86,4.73,4.73,0,0,1,.44.94l0,.06c.75-.32,1.5-.6,2.26-.87a16.07,16.07,0,0,1-.67-2c0-.13.2-.47.28-.26a16.55,16.55,0,0,1,.66,2.21,37.52,37.52,0,0,1,8.2-1.77c7.53-.75,15,1.12,21.94,4l.11.06a2.52,2.52,0,0,1,.25-.71,17.53,17.53,0,0,1,1.25-2.24c-.89-.49-1.79-.93-2.72-1.33-.45.65-.35,1.65-.91,2.23,0,.06-.16.07-.17,0a4.51,4.51,0,0,1,.52-1.9,3,3,0,0,1,.19-.46c-.54-.23-1.08-.44-1.64-.64a4.75,4.75,0,0,0-.32,1.21A8,8,0,0,1,58,10.1c-.07.15-.23.15-.21,0a7.38,7.38,0,0,1,.55-2.22,1.49,1.49,0,0,1,.18-.3c-.58-.21-1.17-.4-1.76-.58a9,9,0,0,1-.22.93A3.35,3.35,0,0,1,56.06,9c-.06.08-.15,0-.15-.06a3.58,3.58,0,0,1,.29-1.1l.3-1a40.54,40.54,0,0,0-9.25-1.52,44.52,44.52,0,0,0-23.51,5.52,3,3,0,0,1,.59.59,2.53,2.53,0,0,1,.47.81c0,.1-.09.33-.21.23a6.36,6.36,0,0,1-.61-.66,5.82,5.82,0,0,1-.6-.62s0-.08,0-.14l-.88.52a3.23,3.23,0,0,1,.47.51,10.13,10.13,0,0,1,.68.79c.08.09,0,.35-.15.26-.28-.23-.54-.48-.81-.72a2.26,2.26,0,0,1-.54-.62c-.44.27-.86.54-1.29.83a5.65,5.65,0,0,1,.54.56,2.59,2.59,0,0,1,.69.75s0,.05,0,.05a.68.68,0,0,1-.52-.09l-.4-.28a1.78,1.78,0,0,1-.66-.73c-.41.28-.81.57-1.21.87a6.77,6.77,0,0,1,.56.51,3.07,3.07,0,0,1,.67.77c0,.05,0,.15-.08.14a2.22,2.22,0,0,1-.77-.48,4.29,4.29,0,0,1-.77-.64c-.28.21-.56.42-.83.64a26.85,26.85,0,0,0-2,1.82,15.18,15.18,0,0,1,1.2,1c.1.1,0,.39-.17.29a11,11,0,0,1-1.35-1c-.36.36-.7.74-1,1.12l.32.23a5.19,5.19,0,0,1,.68.56c.07.07,0,.28-.12.24a5.46,5.46,0,0,1-.78-.35c-.15-.08-.31-.16-.45-.25-.36.43-.7.86-1,1.3.22.12.42.27.63.39l1.1.7c.09.06,0,.31-.12.26l-1.22-.58c-.23-.12-.47-.22-.69-.36-.3.43-.59.87-.86,1.31.92.53,1.84,1.08,2.77,1.6.09.05,0,.22-.07.2a8.9,8.9,0,0,1-3-1.38A31.22,31.22,0,0,0,7.7,35.31a4.67,4.67,0,0,1,1.18,0,10.17,10.17,0,0,1,1.35.17c.18,0,0,.37-.1.38a9.9,9.9,0,0,1-1.54,0,3.58,3.58,0,0,1-.93-.09c0,.44,0,.89-.07,1.33.26,0,.52.11.77.13a5.35,5.35,0,0,0,1.06,0c.13,0,.05.21,0,.25a3.14,3.14,0,0,1-1.12.25,2.92,2.92,0,0,1-.71-.06c0,.64,0,1.29,0,2,0,0,0-.09.1-.08a1.34,1.34,0,0,0,1.08-.24c.11-.11.14.07.08.15a1,1,0,0,1-1.24.39l0,0a42,42,0,0,0,3,14.15,7.89,7.89,0,0,1,1-.18Zm4.68-37.71c-.1-.12,0-.51.2-.42a4.9,4.9,0,0,1,.67.45c.27.18.56.32.83.49s0,.36-.12.32A3.28,3.28,0,0,1,17.28,15.91Z"/><path class="cls-1" d="M17.68,63.45a8,8,0,0,1-.6.56,5,5,0,0,1-.48.38c.29.38.59.75.89,1.12a11.07,11.07,0,0,1,1.19-.72C18.33,64.35,18,63.91,17.68,63.45Z"/><path class="cls-1" d="M37.28,74.89a.42.42,0,0,1,.08-.17A26.08,26.08,0,0,1,25.5,71.05a25,25,0,0,1-3.78-3c-.16.46-.34.93-.53,1.38A36.67,36.67,0,0,0,26,73.34a29.19,29.19,0,0,0,11.55,4.49c0-.45-.07-.9-.13-1.35A8.61,8.61,0,0,1,37.28,74.89Z"/><path class="cls-1" d="M20.09,66.45c-.43-.48-.85-1-1.25-1.47a12.71,12.71,0,0,1-1.11.82c.46.56.94,1.11,1.44,1.64h0Z"/><path class="cls-1" d="M20.28,66.65a4.07,4.07,0,0,1-.88,1c.51.53,1,1,1.55,1.56.19-.45.39-.89.59-1.33C21.11,67.52,20.69,67.09,20.28,66.65Z"/><path class="cls-1" d="M39.46,74.84c-.64,0-1.28,0-1.92-.1a5.09,5.09,0,0,1,.24,1.56c0,.53.07,1,.08,1.57.73.11,1.45.19,2.18.25a13.62,13.62,0,0,0-.18-1.43C39.76,76.07,39.56,75.46,39.46,74.84Z"/><path class="cls-2" d="M27.31,37.25a20.91,20.91,0,0,1-4-8.4c-.31,4,.22,8.11,2.74,11.33C27.51,42,29.43,42.81,31.36,44c.57.35,3.36,3.36,4.38,2.57C35,41.92,30.09,40.53,27.31,37.25Z"/><path class="cls-3" d="M78,66.43l.12.1a1.72,1.72,0,0,1,.56-.34,14.11,14.11,0,0,1-1.79-1.53l-.49.72C76.9,65.29,77.69,66.18,78,66.43Z"/><path class="cls-3" d="M78.46,66.79A10.53,10.53,0,0,1,80.73,69s0,.13-.06.11a22,22,0,0,1-2.13-1.73l-.46-.35a7.19,7.19,0,0,0-.73.73,16.11,16.11,0,0,1,1.92,2s0,.21-.09.15c-.72-.56-1.44-1.14-2.15-1.73l-.33.38c-.12.14-.23.28-.35.41q.27.25.51.51a6.13,6.13,0,0,1,1.36,1.61s0,.14-.07.12A8.43,8.43,0,0,1,76.72,70c-.22-.21-.46-.4-.71-.6-.26.32-.52.62-.79.93l.45.48c.52.54,1,1.08,1.54,1.66.07.08,0,.34-.15.24-.61-.51-1.17-1.07-1.74-1.63l-.41-.39a2.11,2.11,0,0,1-.19.23c-.09.1-.15,0-.1-.13s.11-.15.16-.22a8.12,8.12,0,0,1-.89-1l-.62.72a8.46,8.46,0,0,1,1.63,1.59c.61.65,1.21,1.31,1.79,2,.06.06,0,.24-.1.17-.64-.59-1.27-1.2-1.89-1.81a9.52,9.52,0,0,1-1.57-1.73,0,0,0,0,1,0,0c-.15.16-.3.33-.46.49.46.43.84,1,1.26,1.45s.92,1,1.35,1.53c.06.07,0,.27-.12.2a11.53,11.53,0,0,1-2.74-2.92l-.48.48a33.33,33.33,0,0,1,2.86,3.45c0,.06,0,.23-.1.16A31.34,31.34,0,0,1,71.6,72c-.25.24-.51.47-.78.7,2.33,2.72,4.72,5.4,7.07,8.11s4.41,5.45,7.28,7.44c3.49,2.41,6.86-2.09,8.34-4.88,1.38-2.6,1.4-4.39-.56-6.45a62.58,62.58,0,0,0-9.53-7.62c-1.32-.94-2.88-1.81-4.3-2.8A2.83,2.83,0,0,0,78.46,66.79ZM76.24,77.86a3.41,3.41,0,0,1-.81-.75c-.05-.08,0-.33.16-.27a3.53,3.53,0,0,1,.78.81C76.44,77.72,76.34,78,76.24,77.86Zm13.39-3.11A15,15,0,0,1,92,77.09a3.41,3.41,0,0,1,1.16,1.74c0,.13-.16.37-.23.17a6.24,6.24,0,0,0-1.79-2.14A12.4,12.4,0,0,1,89.43,75C89.36,74.91,89.49,74.66,89.63,74.75Zm-3,3.78a9.8,9.8,0,0,1,1.94,1.92l.38.41.8-1c-.72-.81-1.45-1.6-2.16-2.42-.1-.13,0-.48.21-.35a11.68,11.68,0,0,1,2.25,2.39l.75-.95c-.18-.22-.37-.44-.56-.65-.55-.58-1.2-1.09-1.69-1.71-.08-.09,0-.42.16-.33a8.61,8.61,0,0,1,2.38,2.33l.52-.66c.07-.08.12,0,.08.1l-.51.69c.28.41.54.82.75,1.2,0,.08-.06.29-.14.2-.31-.33-.59-.69-.88-1l-.73,1c.31.45.6.91.86,1.35,0,.07-.06.26-.13.18-.33-.39-.66-.78-1-1.16l-.78,1a16.1,16.1,0,0,1,1.22,1.51c0,.08-.06.28-.14.2-.47-.43-.9-.9-1.33-1.37-.18.23-.35.46-.52.7a16.71,16.71,0,0,1,1.05,1.66c0,.07-.06.28-.13.19-.41-.49-.79-1-1.2-1.49-.24.33-.48.65-.73,1a6.66,6.66,0,0,1,1.11,1.27s0,.12-.06.1a8,8,0,0,1-1.33-1l-.82,1.08c.43.4.85.81,1.25,1.21.07.07,0,.26-.12.2-.48-.31-1-.66-1.43-1l-.74,1c.35.4.71.8,1.08,1.18.07.07,0,.28-.13.21-.4-.33-.82-.68-1.22-1l-.27.35c-.17.21-.26-.13-.15-.28l.2-.27a12,12,0,0,1-2.1-2.48c-.06-.1.08-.4.2-.28.77.74,1.48,1.57,2.19,2.38l.69-.92A23.09,23.09,0,0,1,83,82.53c-.11-.12,0-.46.2-.33,1,.76,1.92,1.6,2.85,2.47l.82-1.08L86.18,83c-.85-.72-1.77-1.38-2.57-2.15-.11-.1,0-.47.18-.37a20.3,20.3,0,0,1,2.46,2l.89.79c.25-.34.51-.67.76-1-.12-.15-.25-.3-.38-.44-.62-.7-1.38-1.29-2-2-.07-.09,0-.41.16-.32a9.18,9.18,0,0,1,2.48,2.39l.52-.65-.47-.51a14.21,14.21,0,0,1-1.74-1.9C86.45,78.72,86.54,78.46,86.65,78.53ZM85,71.6A19.14,19.14,0,0,1,88,73.9s0,.19-.07.15a19.52,19.52,0,0,1-3.15-2.16C84.74,71.81,84.84,71.53,85,71.6Zm-2.6-1.41a1.34,1.34,0,0,1,.66.25,3,3,0,0,1,.61.39c.07.06,0,.28-.12.24s-.43-.24-.65-.34a2.05,2.05,0,0,1-.59-.3C82.21,70.36,82.27,70.19,82.36,70.19Zm-5.14,8.23c1.31,1.32,2.67,2.65,3.87,4.07,0,.06,0,.24-.11.18-.78-.66-1.5-1.39-2.23-2.09A9.06,9.06,0,0,1,77,78.73C76.93,78.62,77.08,78.28,77.22,78.42Z"/><path class="cls-3" d="M77.14,67.63l.29-.33c.13-.15.25-.3.38-.44-.17-.13-.33-.26-.51-.38a5.14,5.14,0,0,0-1-.69h0a1.21,1.21,0,0,1-.12.35c-.1.2-.22.39-.33.59a.09.09,0,0,1,.08,0A11.61,11.61,0,0,1,77.14,67.63Z"/><path class="cls-3" d="M75.8,69.2a5,5,0,0,1-.7-.68c-.09-.1,0-.45.18-.37a3.7,3.7,0,0,1,.87.63l.66-.78c-.36-.3-.72-.59-1.07-.9a.2.2,0,0,1,0-.08,20.58,20.58,0,0,1-1.57,2.25,6,6,0,0,1,.94.87C75.31,69.82,75.55,69.51,75.8,69.2Z"/><path class="cls-4" d="M75,33.43a38,38,0,0,0-2.71-9.1A22.89,22.89,0,0,0,66,15.91c-3.28-2.6-7.6-3.85-11.56-5a40.17,40.17,0,0,0-14.6-1.48C44.07,19.66,43.69,31,47,41.51c1.66,5.25,4.23,10.52,8.64,14,3.42,2.71,9.32,4.22,10.56,9A32.81,32.81,0,0,0,75.3,48.89a.35.35,0,0,1,.15-.2c1.25-4.19.52-8.88-.07-13.12-.09-.63-.19-1.26-.29-1.88l-.09,0C74.91,33.64,75,33.48,75,33.43Z"/><path class="cls-1" d="M64.25,13.89c5.2,3.14,8.46,8.51,10.19,14.39.16.56.3,1.12.44,1.68a4.14,4.14,0,0,1,2.89.73c.08,0,0,.21-.09.19-.57-.13-1.13-.31-1.71-.4-.32,0-.66,0-1-.08.09.38.17.76.25,1.14a9.81,9.81,0,0,1,1.08.21,13.46,13.46,0,0,1,1.52.37c.1,0,0,.24-.07.24a11.79,11.79,0,0,1-1.57-.18c-.27,0-.58-.08-.86-.14.09.47.18.94.25,1.42a12.63,12.63,0,0,1,2.3.65c.08,0,0,.21-.07.19-.71-.21-1.45-.31-2.17-.47.26,1.67.45,3.34.61,5A41.42,41.42,0,0,1,76.5,44a2.1,2.1,0,0,1,.53.29,2,2,0,0,1,.63.52c0,.06,0,.19-.1.17a6.26,6.26,0,0,1-.73-.37l-.35-.14c0,.54-.09,1.09-.17,1.63h0a10.7,10.7,0,0,1,3.16,2.8c.14-.81.25-1.62.35-2.44a1.29,1.29,0,0,1-.45-.27,1.89,1.89,0,0,1-.55-.54c-.06-.11,0-.37.19-.32a1.87,1.87,0,0,1,.58.51,2.55,2.55,0,0,1,.26.3,45.57,45.57,0,0,0-1-15.33,36,36,0,0,0-5.44-12.19,5.44,5.44,0,0,0-.61.19,4.41,4.41,0,0,1-1,.4c-.15,0-.1-.24,0-.29a2.69,2.69,0,0,1,1.05-.5l.37-.13c-.43-.61-.9-1.2-1.38-1.77a3.67,3.67,0,0,0-1.37.87.14.14,0,0,1-.14,0h0a.11.11,0,0,1-.06-.11c0-.38.47-.71.76-.86a2.52,2.52,0,0,1,.58-.21c-.37-.43-.75-.85-1.15-1.27L70,14.7c-.77.37-1.79.35-2.35,1-.06.07-.16.07-.18,0-.11-.47.35-.75.73-.87s.74-.21,1.11-.31l.38-.1a28.35,28.35,0,0,0-3.28-2.74,11.13,11.13,0,0,0-1.27,1.1C64.84,13.11,64.57,13.53,64.25,13.89Z"/><path class="cls-1" d="M76.21,46.71a12.73,12.73,0,0,1-.52,2,.25.25,0,0,1,0,.2c0,.12-.07.24-.1.37a.09.09,0,0,1,.07,0,9.6,9.6,0,0,1,3.17,2.68c.21-.85.4-1.7.56-2.57-.52-.41-1-.91-1.49-1.35S76.8,47.13,76.21,46.71Z"/><path class="cls-1" d="M62.19,12.82a18.37,18.37,0,0,1,1.77.9,5.18,5.18,0,0,1,2.22-2.25c-.84-.59-1.72-1.14-2.61-1.64-.18.43-.4.84-.62,1.25A4.18,4.18,0,0,0,62.19,12.82Z"/><path class="cls-2" d="M53.82,54.69a29.66,29.66,0,0,1-6.94-11.8c-3.71-10.82-3.13-22.65-7.64-33.25a.36.36,0,0,1,0-.18A32.66,32.66,0,0,0,20.78,17a.28.28,0,0,1,0,.11c1.45,5.76,5,10.46,9,14.75,3.31,3.57,7.87,7,8.87,12,.52,2.61.22,5.3.46,7.93a27.13,27.13,0,0,0,2.25,8.52A27.64,27.64,0,0,0,52.24,72.64a.12.12,0,0,1,0,.07,33.22,33.22,0,0,0,13.7-8,13.51,13.51,0,0,0-6-5.84A28.72,28.72,0,0,1,53.82,54.69Z"/><path class="cls-4" d="M38.51,47.18C38.41,43,36.74,40,33.88,37c-2-2.05-4-4-5.85-6.13C24.55,27,21.62,22.64,20.35,17.5a.25.25,0,0,1,0-.08q-.9.82-1.74,1.74c-2.75,3-4.23,6.68-5.41,10.53A41.1,41.1,0,0,0,10.9,40.34a37.23,37.23,0,0,0,5.35,19.6c3.48,5.94,8.6,11.14,15.4,13a40.4,40.4,0,0,0,20.08-.07A24,24,0,0,1,41.67,62.41C39.13,57.52,38.63,52.59,38.51,47.18Zm-2.7-.2c-.49.52-1.23.42-2-.09-.57-.4-1-1.08-1.49-1.54a14.17,14.17,0,0,0-2.52-1.54,13.86,13.86,0,0,1-3.13-2.05c-3.8-3.63-4.24-9.18-3.67-14.1,0,0,0,0,0-.06-.06-.27.37-.72.45-.33,1,4.57,2.85,8.82,6.65,11.75,2.56,2,5.5,3.79,5.88,7.2.09-.1.21,0,.16.13a1.82,1.82,0,0,1-.13.28c0,.06,0,.1,0,.16S35.87,47.09,35.81,47Z"/><path class="cls-1" d="M45.13,75.32c0-.22-.09-.43-.12-.64-.56,0-1.13.09-1.7.12.06.38.07.77.1,1.14.08.73.15,1.46.18,2.2a.11.11,0,0,1,0,.07c.58,0,1.16,0,1.73-.09a7.55,7.55,0,0,1-.12-1.58A8.29,8.29,0,0,0,45.13,75.32Z"/><path class="cls-1" d="M70.77,59.83a5.82,5.82,0,0,1,1.08,1.23c.35.44.71.86,1.08,1.28.08.08-.05.34-.15.24-.42-.39-.84-.79-1.24-1.21a4.83,4.83,0,0,1-1-1.23,36.56,36.56,0,0,1-2.77,3.44.07.07,0,0,1,.12,0,6.69,6.69,0,0,1,.75,1,9,9,0,0,1,.78,1.19s0,.22-.11.15a18.81,18.81,0,0,1-1.62-2.07.31.31,0,0,1,.05-.25A34.69,34.69,0,0,1,53.47,73a4.66,4.66,0,0,1,.66,1.43,19.23,19.23,0,0,1,.56,1.87l1.12-.36a.21.21,0,0,1,.08-.06c.27-.09.54-.2.8-.3a14.59,14.59,0,0,1-.53-1.44,4.75,4.75,0,0,1-.36-1.65c0-.08.12-.28.2-.15a5,5,0,0,1,.42,1.51c.14.55.29,1.11.45,1.67,1.06-.41,2.09-.86,3.11-1.35l-.47-1.08A6.18,6.18,0,0,1,59,71.85c0-.09.09-.36.22-.24a3.2,3.2,0,0,1,.6,1.21A10.74,10.74,0,0,1,60.2,74c.39-.18.77-.37,1.15-.57a3.32,3.32,0,0,1-.63-1.72c0-.09.14-.3.22-.16a6.39,6.39,0,0,1,.41,1c.1.24.21.47.32.69A33.32,33.32,0,0,0,77.35,56.55a20.72,20.72,0,0,1-3.13-3.08A33.38,33.38,0,0,1,70.77,59.83ZM58.51,74.7s-.07.21-.12.11a9,9,0,0,1-.5-1.43,5.21,5.21,0,0,1-.39-1.54c0-.06.11-.28.19-.17A3.68,3.68,0,0,1,58.12,73,11.54,11.54,0,0,1,58.51,74.7ZM67,68.25a10.84,10.84,0,0,1-1.31-2.35c0-.13.14-.45.23-.26.42.8.8,1.61,1.29,2.38C67.33,68.13,67.14,68.41,67,68.25ZM71.25,64a3.89,3.89,0,0,1-1-.94,10.4,10.4,0,0,1-.91-1.08c-.07-.11.09-.43.22-.3a9.14,9.14,0,0,1,.94,1.12,4.91,4.91,0,0,1,.77,1.11S71.3,64,71.25,64Z"/><path class="cls-3" d="M75.86,65c1.1-2,2.51-3.79,3.5-5.86a33.53,33.53,0,0,0,2.64-8A44.46,44.46,0,0,0,82.28,36C79.83,19.44,67.85,3.05,50,1.71,41.25,1.06,33.17,5,24.82,7a33.4,33.4,0,0,1-11.73,1C8.92,7.43,5.36,5,1.3,4.32,1,8.45,3.36,12.25,4.61,16.09c1.45,4.43.64,8.45,0,12.94-1.26,9.06.68,18.49,4.26,26.83s9,16.66,17,21.22c8.78,5,18.6,5,28.08,2.24,8-2.3,17.1-6.4,21.37-13.95C75.54,65.09,75.71,65,75.86,65ZM60,5.57a18.38,18.38,0,0,1,7.93,4.85c0,.05,0,.19-.09.14a38.41,38.41,0,0,0-8-4.57C59.65,5.92,59.8,5.52,60,5.57ZM50.91,3.23a10.52,10.52,0,0,1,6.44,1.71s0,.17-.07.15a25,25,0,0,0-6.45-1.41C50.6,3.67,50.72,3.25,50.91,3.23Zm-47,7a3.06,3.06,0,0,1,.22-2.41,1,1,0,0,1,.76-.28,8.84,8.84,0,0,1,1.78.07c.11,0,0,.19,0,.21C6,7.91,5.29,7.81,4.7,8c-.81.21-.62,1.5-.63,2.13C4.07,10.19,3.93,10.35,3.89,10.2Zm-.44,2.27c0-.2.11-.38.15-.57a2.94,2.94,0,0,0,0-.66c0-.06.12-.17.13-.07a2.4,2.4,0,0,1-.17,1.35C3.55,12.63,3.44,12.58,3.45,12.47ZM5.18,11c0,.08-.16.2-.18.06-.13-.72-.07-1.87.79-2.13a8.81,8.81,0,0,1,2,.08,18.16,18.16,0,0,0,2.08-.25s0,.06,0,.07a5,5,0,0,1-2.41.62,9.75,9.75,0,0,0-1.31-.1C5.33,9.45,5.26,10.33,5.18,11Zm-.3,4.1A21,21,0,0,0,5,11.82s0-.09.07,0A6.75,6.75,0,0,1,5,15.09C5,15.19,4.86,15.23,4.88,15.09ZM6.78,12c0,.11-.17.31-.22.13-.18-.62-.43-2,.56-1.89a8.55,8.55,0,0,0,2.37.06,8.29,8.29,0,0,0,2.22-.74c.06,0,0,.09,0,.11A5.2,5.2,0,0,1,9,10.86a10.16,10.16,0,0,1-1.56,0c-.31,0-.57-.14-.69.2A3.44,3.44,0,0,0,6.78,12Zm-.56,5a7.45,7.45,0,0,0,.47-2c0-.56-.05-1.11,0-1.67,0,0,0-.07,0,0a5.14,5.14,0,0,1-.3,3.75C6.34,17.24,6.16,17.17,6.22,17Zm1,2.54c-.14.13-.22-.08-.14-.19a7,7,0,0,0,1.41-3.27c0-.06.1-.1.1,0A5.37,5.37,0,0,1,7.26,19.53Zm2.23-7c-.58,0-.7-.06-1,.53a1.16,1.16,0,0,0,0,1.1c0,.13-.16.42-.26.23-.45-.8-.57-1.89.46-2.29.72-.28,1.51-.07,2.25-.42,1.08-.51,2.1-1.12,3.21-1.59.07,0,.05.1,0,.12a24.48,24.48,0,0,1-3.38,2A3.13,3.13,0,0,1,9.49,12.53Zm-.08,6.61c0,.13-.21.18-.18,0,.3-1.63.23-4.31,1.9-5.29,1.28-.75,3-.62,4.39-1.23a27.57,27.57,0,0,0,4.4-2.77C20,9.76,20,10,20,10a18.87,18.87,0,0,1-5.07,3.22c-1.54.59-2.3.43-3.65,1.61S9.81,17.27,9.41,19.14ZM5.32,38.28A34.14,34.14,0,0,1,7,26.58c0-.11.18-.1.15,0A44.15,44.15,0,0,0,5.68,38.15C5.68,38.38,5.33,38.61,5.32,38.28Zm.56,6.21a14.55,14.55,0,0,1-.25-4.11c0-.05.11-.14.12-.05.17,1.33.2,2.66.38,4C6.15,44.46,5.92,44.71,5.88,44.49ZM77.29,58.06c-4.12,9.12-12.1,15.18-21.4,18.47a.12.12,0,0,1-.1,0C44.91,80.73,33,80.12,23.59,72.93A42.75,42.75,0,0,1,9.68,54c-3-8.25-4.06-18-1.34-26.41A30.36,30.36,0,0,1,20.65,11.79,44.56,44.56,0,0,1,55.93,5.65c14,3.61,22.65,15.79,24.31,29.73a43.57,43.57,0,0,1-2.38,21.35.16.16,0,0,1,0,.11C77.65,57.25,77.48,57.65,77.29,58.06Zm4-18.23c0-.08.15-.21.17-.09.77,5.91.22,12.48-2.62,17.82-.13.24-.36,0-.26-.17A35.08,35.08,0,0,0,81.27,39.83Z"/><path class="cls-1" d="M76.71,53.2c-.49-.52-1.08-.92-1.6-1.4-.11-.11,0-.49.2-.4a7.45,7.45,0,0,1,2.84,3l.24-.75c.12-.41.23-.81.34-1.22-.55-.4-1-.93-1.54-1.36s-1.15-.86-1.71-1.3c-.3,1.08-.64,2.13-1,3.17a21.56,21.56,0,0,1,3,3.27c.18-.46.36-.93.52-1.4C77.58,54.26,77.19,53.7,76.71,53.2Z"/><path class="cls-1" d="M49.12,74.13c-.61.12-1.22.22-1.84.3s-1.23.15-1.86.21a3.72,3.72,0,0,1,.1,1.27,10.68,10.68,0,0,0,0,2.19c.63,0,1.26-.12,1.9-.2a12.33,12.33,0,0,1-.25-1.35,9.58,9.58,0,0,1-.17-1.85c0-.12.22-.38.26-.15.11.57.12,1.16.18,1.73s.14,1.06.18,1.59c.72-.1,1.43-.22,2.15-.36a10,10,0,0,1-.71-3.33A.09.09,0,0,1,49.12,74.13Z"/><path class="cls-1" d="M53.22,73.19a.22.22,0,0,1,0-.13,31.61,31.61,0,0,1-3.85,1,13.58,13.58,0,0,1,.33,1.82c.11.52.22,1,.34,1.56.67-.13,1.33-.28,2-.44-.12-.46-.26-.92-.41-1.37a14.92,14.92,0,0,1-.6-1.7c0-.11.12-.38.23-.21a5.7,5.7,0,0,1,.61,1.61c.15.53.28,1.07.39,1.61.72-.18,1.45-.39,2.17-.61-.2-.52-.41-1-.63-1.55A7.81,7.81,0,0,1,53.22,73.19Z"/><path class="cls-5" d="M70.76,72.62l.06.07c.27-.23.53-.46.78-.7-.12-.17-.26-.33-.38-.5s.08-.4.21-.28.33.31.5.48l.48-.48,0,0c-.06-.1.08-.4.21-.28l.07.07c.16-.16.31-.33.46-.49,0-.08,0-.23.13-.18h0l.62-.72,0,0c-.08-.12.07-.4.22-.3l.06,0A20.58,20.58,0,0,0,75.7,67a.26.26,0,0,1,.17-.28c.11-.2.23-.39.33-.59a1.21,1.21,0,0,0,.12-.35.08.08,0,0,1-.09,0l0-.05a.25.25,0,0,1,.09-.3l.12,0,.49-.72c-.08-.08-.17-.15-.25-.24-.29-.32.18-1.24.54-.88l.31.29a32.82,32.82,0,0,0,2.3-3.41,31.09,31.09,0,0,0,2.48-6A42.54,42.54,0,0,0,84,41.2a48.09,48.09,0,0,0-6.52-23.39A36.92,36.92,0,0,0,58,1.51C49.28-1.48,40.88.45,32.34,3.1c-5.15,1.6-10.4,3.23-15.85,3.24A22.06,22.06,0,0,1,8.3,4.84C5.86,3.89,3.58,2.77,1,2.45c-.42-.05-.74.59-.8.9-.63,3.72.67,7.08,2.06,10.47a27,27,0,0,1,2,6.2c.45,3-.34,6.05-.75,9.05-1.2,8.74.4,17.68,3.54,25.85C10.42,63.79,15.93,72.84,24.12,78c8.5,5.37,18.37,5.92,27.91,3.54,6.1-1.52,12.83-4.07,18-8.2C70,72.88,70.46,72.27,70.76,72.62ZM54,79.32c-9.48,2.72-19.3,2.76-28.08-2.24-8-4.56-13.48-12.9-17-21.22S3.37,38.09,4.63,29c.62-4.49,1.43-8.51,0-12.94C3.36,12.25,1,8.45,1.3,4.32,5.36,5,8.92,7.43,13.09,7.94A33.4,33.4,0,0,0,24.82,7C33.17,5,41.25,1.06,50,1.71,67.85,3.05,79.83,19.44,82.28,36A44.46,44.46,0,0,1,82,51.13a33.53,33.53,0,0,1-2.64,8c-1,2.07-2.4,3.87-3.5,5.86-.15,0-.32.12-.48.4C71.11,72.92,62,77,54,79.32Z"/><path class="cls-5" d="M77.75,56.85l-.4-.3A33.32,33.32,0,0,1,61.67,73.3c0,.12.11.24.17.36s-.07.33-.17.22a3.43,3.43,0,0,1-.32-.41c-.38.2-.76.39-1.15.57,0,0,0,.08,0,.13s-.12.3-.19.16L60,74.15c-1,.49-2,.94-3.11,1.35v0c0,.07-.1.24-.15.14a.42.42,0,0,0,0-.1c-.26.1-.53.21-.8.3a.21.21,0,0,0-.08.06l-1.12.36h0c0,.1-.14.33-.19.18a1.17,1.17,0,0,1,0-.11c-.72.22-1.45.43-2.17.61,0,.09,0,.18,0,.26s-.14.3-.18.14L52.06,77c-.67.16-1.33.31-2,.44,0,.11,0,.22.07.32s-.13.29-.18.13-.09-.26-.13-.4c-.72.14-1.43.26-2.15.36,0,.12,0,.24,0,.35s-.07.14-.1.07a2.91,2.91,0,0,1-.12-.39c-.64.08-1.27.15-1.9.2,0,.06,0,.11,0,.17s-.17.36-.23.17,0-.21-.07-.32c-.57,0-1.15.08-1.73.09,0,.09-.15.16-.18,0v0c-1,0-2.07,0-3.1-.08,0,.19,0,.37,0,.55s-.16.23-.17.06L40,78.12c-.73-.06-1.45-.14-2.18-.25,0,.16,0,.31,0,.46s-.24.32-.25.09,0-.39,0-.59A29.19,29.19,0,0,1,26,73.34a36.67,36.67,0,0,1-4.85-3.86s0,.1-.07.15c-.11.26-.38.16-.28-.11,0-.09.08-.17.11-.26-.53-.51-1-1-1.55-1.56l-.1.09c-.21.17-.23-.22-.13-.35-.5-.53-1-1.08-1.44-1.64l-.4.24c-.24.14-.22-.25-.08-.36l.24-.17c-.3-.37-.6-.74-.89-1.12a1.05,1.05,0,0,1-.3.15c-.13,0-.13-.15-.08-.22l.17-.21c-.59-.79-1.17-1.61-1.71-2.44a1.2,1.2,0,0,1-.53.24c-.12,0-.09-.18-.05-.23a1.5,1.5,0,0,1,.36-.35c-.5-.78-1-1.58-1.42-2.38a1.07,1.07,0,0,1-.65.12c-.12,0,0-.23,0-.27a2,2,0,0,1,.41-.22l-.5-.94a1.52,1.52,0,0,1-.55.15c-.17,0-.07-.25,0-.3a1.55,1.55,0,0,1,.38-.21L12,56.92c-.1-.21-.19-.41-.29-.61l-.29,0c-.18,0-.09-.34.06-.36h.07c-.25-.54-.49-1.07-.72-1.62a2,2,0,0,1-.42,0c-.18,0-.08-.3,0-.35l.23-.08a42,42,0,0,1-3-14.15.17.17,0,0,1,0-.19c0-.66,0-1.31,0-2a.79.79,0,0,1-.31-.18c-.08-.09,0-.33.1-.35a.9.9,0,0,1,.23,0c0-.44,0-.89.07-1.33a.8.8,0,0,1-.25-.11c-.11-.07,0-.28.09-.31a1.17,1.17,0,0,1,.2,0A31.22,31.22,0,0,1,11.88,21.9l-.3-.21c-.13-.11,0-.5.2-.41l.36.2c.27-.44.56-.88.86-1.31a1.31,1.31,0,0,1-.35-.27c-.07-.08,0-.35.13-.33a1.72,1.72,0,0,1,.52.19c.32-.44.66-.87,1-1.3a1,1,0,0,1-.22-.18c-.12-.13,0-.49.21-.43a1.22,1.22,0,0,1,.36.18c.34-.38.68-.76,1-1.12l-.18-.18c-.08-.1,0-.42.16-.34a2.27,2.27,0,0,1,.34.19,26.85,26.85,0,0,1,2-1.82c.27-.22.55-.43.83-.64l0,0c-.08-.11,0-.5.19-.41a1.64,1.64,0,0,1,.22.14c.4-.3.8-.59,1.21-.87l0-.09c0-.11.07-.33.21-.29a.82.82,0,0,1,.2.12c.43-.29.85-.56,1.29-.83a.43.43,0,0,0,0-.07c0-.11.07-.29.19-.26a.56.56,0,0,1,.2.11l.88-.52c0-.15.14-.35.28-.28a.34.34,0,0,1,.11.07A44.52,44.52,0,0,1,47.25,5.39,40.54,40.54,0,0,1,56.5,6.91c0-.14.09-.27.14-.4s.17-.1.15,0a3.07,3.07,0,0,1-.07.42c.59.18,1.18.37,1.76.58a.64.64,0,0,1,.47-.3c.07,0,0,.13,0,.15a.42.42,0,0,0-.27.21c.56.2,1.1.41,1.64.64a.91.91,0,0,1,.65-.54c.2,0,.08.33,0,.39a1,1,0,0,0-.28.31c.93.4,1.83.84,2.72,1.33l.06-.1c.1-.13.22,0,.17.11a.36.36,0,0,0,0,.09c.89.5,1.77,1.05,2.61,1.64a5,5,0,0,1,.62-.3c.12-.05.08.17,0,.21l-.37.28a28.35,28.35,0,0,1,3.28,2.74,2.06,2.06,0,0,1,.55-.06c.11,0,.06.19,0,.23L70,14.7l.31.3c.4.42.78.84,1.15,1.27a2.52,2.52,0,0,1,.67,0c.14,0,.06.24,0,.25l-.37.08c.48.57,1,1.16,1.38,1.77a1.28,1.28,0,0,1,.7-.09c.09,0,0,.19,0,.22a1.48,1.48,0,0,1-.44.2,36,36,0,0,1,5.44,12.19,45.57,45.57,0,0,1,1,15.33.84.84,0,0,1,.13.29.05.05,0,0,1,0,.05l-.13,0c-.1.82-.21,1.63-.35,2.44.1.15.19.29.28.45s0,.22-.12.16a2,2,0,0,1-.23-.18c-.16.87-.35,1.72-.56,2.57l.19.29c.07.11-.06.37-.2.27l-.11-.08c-.11.41-.22.81-.34,1.22l-.24.75a1.28,1.28,0,0,0,.11.2h0c0,.13-.1.37-.19.26l0-.06c-.16.47-.34.94-.52,1.4.13.17.25.33.36.5a0,0,0,0,1,0,0,43.57,43.57,0,0,0,2.38-21.35C78.58,21.44,69.93,9.26,55.93,5.65a44.56,44.56,0,0,0-35.28,6.14A30.36,30.36,0,0,0,8.34,27.58C5.62,36,6.7,45.74,9.68,54A42.75,42.75,0,0,0,23.59,72.93c9.44,7.19,21.32,7.8,32.2,3.61a.12.12,0,0,0,.1,0c9.3-3.29,17.28-9.35,21.4-18.47.19-.41.36-.81.52-1.22A.07.07,0,0,1,77.75,56.85Z"/><path class="cls-5" d="M87.53,70.82c-2.15-1.59-4.35-3.11-6.55-4.61a36.89,36.89,0,0,1-3.48-2.38l-.31-.29c-.36-.36-.83.56-.54.88.08.09.17.16.25.24a14.11,14.11,0,0,0,1.79,1.53,1.34,1.34,0,0,1,.8,0c.11,0,0,.23-.07.24l-.3.08c1.42,1,3,1.86,4.3,2.8A62.58,62.58,0,0,1,93,76.91c2,2.06,1.94,3.85.56,6.45-1.48,2.79-4.85,7.29-8.34,4.88-2.87-2-5-4.83-7.28-7.44s-4.74-5.39-7.07-8.11l-.06-.07c-.3-.35-.74.26-.73.73a.46.46,0,0,0,.1.31c2.46,2.87,4.94,5.72,7.42,8.58,1.11,1.28,2.19,2.59,3.34,3.85,1.35,1.49,3.57,4,5.72,4.21,2.43.26,4.92-2.4,6.21-4.16s3.06-4.55,2.74-6.9C95.09,75.66,90.12,72.74,87.53,70.82Z"/><path class="cls-5" d="M91.14,76.86A6.24,6.24,0,0,1,92.93,79c.07.2.26,0,.23-.17A3.41,3.41,0,0,0,92,77.09a15,15,0,0,0-2.37-2.34c-.14-.09-.27.16-.2.27A12.4,12.4,0,0,0,91.14,76.86Z"/><path class="cls-5" d="M91.81,79.68c.08.09.18-.12.14-.2-.21-.38-.47-.79-.75-1.2l-.27.37C91.22,79,91.5,79.35,91.81,79.68Z"/><path class="cls-5" d="M88.73,75.82c-.15-.09-.24.24-.16.33.49.62,1.14,1.13,1.69,1.71.19.21.38.43.56.65l.29-.36A8.61,8.61,0,0,0,88.73,75.82Z"/><path class="cls-5" d="M90.93,81.18c.07.08.16-.11.13-.18-.26-.44-.55-.9-.86-1.35l-.27.37C90.27,80.4,90.6,80.79,90.93,81.18Z"/><path class="cls-5" d="M87.82,77.07c-.16-.13-.31.22-.21.35.71.82,1.44,1.61,2.16,2.42l.3-.38A11.68,11.68,0,0,0,87.82,77.07Z"/><path class="cls-5" d="M90.23,82.78c.08.08.19-.12.14-.2a16.1,16.1,0,0,0-1.22-1.51c-.08.11-.17.22-.25.34C89.33,81.88,89.76,82.35,90.23,82.78Z"/><path class="cls-5" d="M88.24,80.69l.47.51c.08-.12.17-.23.26-.34l-.38-.41a9.8,9.8,0,0,0-1.94-1.92c-.11-.07-.2.19-.15.26A14.21,14.21,0,0,0,88.24,80.69Z"/><path class="cls-5" d="M85.71,79.46c-.14-.09-.23.23-.16.32.59.72,1.35,1.31,2,2,.13.14.26.29.38.44.1-.13.2-.25.29-.38A9.18,9.18,0,0,0,85.71,79.46Z"/><path class="cls-5" d="M89.3,84c.07.09.17-.12.13-.19a16.71,16.71,0,0,0-1.05-1.66l-.28.36C88.51,83,88.89,83.47,89.3,84Z"/><path class="cls-5" d="M88.42,84.81s.08-.07.06-.1a6.66,6.66,0,0,0-1.11-1.27l-.28.37A8,8,0,0,0,88.42,84.81Z"/><path class="cls-5" d="M86.25,82.44a20.3,20.3,0,0,0-2.46-2c-.15-.1-.29.27-.18.37.8.77,1.72,1.43,2.57,2.15l.68.61.28-.36Z"/><path class="cls-5" d="M87.4,86.3c.1.06.19-.13.12-.2-.4-.4-.82-.81-1.25-1.21l-.3.39C86.44,85.64,86.92,86,87.4,86.3Z"/><path class="cls-5" d="M83.19,82.2c-.16-.13-.31.21-.2.33a23.09,23.09,0,0,0,2.73,2.56l.32-.42C85.11,83.8,84.15,83,83.19,82.2Z"/><path class="cls-5" d="M86.18,87.63c.1.07.2-.14.13-.21-.37-.38-.73-.78-1.08-1.18l-.27.35C85.36,87,85.78,87.3,86.18,87.63Z"/><path class="cls-5" d="M82.84,83.63c-.12-.12-.26.18-.2.28a12,12,0,0,0,2.1,2.48c.1-.12.19-.25.29-.38C84.32,85.2,83.61,84.37,82.84,83.63Z"/><path class="cls-5" d="M80.67,69.15s.08-.08.06-.11a10.53,10.53,0,0,0-2.27-2.25c-.13.09-.26.18-.38.28l.46.35A22,22,0,0,0,80.67,69.15Z"/><path class="cls-5" d="M76.35,65.79a5.14,5.14,0,0,1,1,.69c.18.12.34.25.51.38a3.34,3.34,0,0,1,.32-.33l-.12-.1c-.32-.25-1.11-1.14-1.6-1.05l-.12,0a.25.25,0,0,0-.09.3l0,.05a.08.08,0,0,0,.09,0h0Z"/><path class="cls-5" d="M75.74,67.1c.35.31.71.6,1.07.9l.33-.37A11.61,11.61,0,0,0,76,66.76a.09.09,0,0,0-.08,0,.26.26,0,0,0-.17.28A.2.2,0,0,0,75.74,67.1Z"/><path class="cls-5" d="M79.27,69.76a16.11,16.11,0,0,0-1.92-2c-.11.13-.22.25-.32.38.71.59,1.43,1.17,2.15,1.73C79.25,70,79.32,69.81,79.27,69.76Z"/><path class="cls-5" d="M75.1,68.52a5,5,0,0,0,.7.68l.35-.42a3.7,3.7,0,0,0-.87-.63C75.11,68.07,75,68.42,75.1,68.52Z"/><path class="cls-5" d="M78.15,71.21s.08-.08.07-.12a6.13,6.13,0,0,0-1.36-1.61q-.24-.26-.51-.51c-.11.14-.22.27-.34.4.25.2.49.39.71.6A8.43,8.43,0,0,0,78.15,71.21Z"/><path class="cls-5" d="M77.06,72.68c.11.1.22-.16.15-.24-.49-.58-1-1.12-1.54-1.66l-.45-.48-.31.36.41.39C75.89,71.61,76.45,72.17,77.06,72.68Z"/><path class="cls-5" d="M75.07,70.14a6,6,0,0,0-.94-.87l-.06,0c-.15-.1-.3.18-.22.3l0,0a8.12,8.12,0,0,0,.89,1Z"/><path class="cls-5" d="M74.7,72.22c.62.61,1.25,1.22,1.89,1.81.08.07.16-.11.1-.17-.58-.67-1.18-1.33-1.79-2a8.46,8.46,0,0,0-1.63-1.59h0c-.08,0-.14.1-.13.18a0,0,0,0,0,0,0A9.52,9.52,0,0,0,74.7,72.22Z"/><path class="cls-5" d="M75.27,73.93c-.43-.53-.9-1-1.35-1.53s-.8-1-1.26-1.45l-.07-.07c-.13-.12-.27.18-.21.28l0,0a11.53,11.53,0,0,0,2.74,2.92C75.25,74.2,75.33,74,75.27,73.93Z"/><path class="cls-5" d="M74.79,75.14a33.33,33.33,0,0,0-2.86-3.45c-.17-.17-.33-.33-.5-.48s-.29.18-.21.28.26.33.38.5a31.34,31.34,0,0,0,3.09,3.31C74.76,75.37,74.83,75.2,74.79,75.14Z"/><path class="cls-5" d="M88.19,81.85c-.09.13-.19.25-.29.38-.25.33-.51.66-.76,1l-.28.36L86,84.67l-.32.42L85,86c-.1.13-.19.26-.29.38l-.2.27c-.11.15,0,.49.15.28l.27-.35.27-.35.74-1,.3-.39.82-1.08.28-.37c.25-.32.49-.64.73-1l.28-.36c.17-.24.34-.47.52-.7s.17-.23.25-.34l.78-1,.27-.37.73-1,.27-.37.51-.69c0-.06,0-.18-.08-.1l-.52.66-.29.36-.75.95-.3.38-.8,1c-.09.11-.18.22-.26.34Z"/><path class="cls-5" d="M78.13,66.53a3.34,3.34,0,0,0-.32.33c-.13.14-.25.29-.38.44l-.29.33-.33.37-.66.78-.35.42c-.25.31-.49.62-.73.94l-.29.4c0,.07-.11.14-.16.22s0,.23.1.13a2.11,2.11,0,0,0,.19-.23l.31-.36c.27-.31.53-.61.79-.93.12-.13.23-.26.34-.4s.23-.27.35-.41l.33-.38c.1-.13.21-.25.32-.38a7.19,7.19,0,0,1,.73-.73c.12-.1.25-.19.38-.28a2.83,2.83,0,0,1,.66-.3l.3-.08c.08,0,.18-.21.07-.24a1.34,1.34,0,0,0-.8,0A1.72,1.72,0,0,0,78.13,66.53Z"/><path class="cls-5" d="M4.7,8c.59-.16,1.29-.06,1.91-.18.08,0,.15-.19,0-.21a8.84,8.84,0,0,0-1.78-.07,1,1,0,0,0-.76.28,3.06,3.06,0,0,0-.22,2.41c0,.15.18,0,.18-.1C4.08,9.47,3.89,8.18,4.7,8Z"/><path class="cls-5" d="M6.13,9.34a9.75,9.75,0,0,1,1.31.1,5,5,0,0,0,2.41-.62s0-.07,0-.07A18.16,18.16,0,0,1,7.77,9a8.81,8.81,0,0,0-2-.08c-.86.26-.92,1.41-.79,2.13,0,.14.17,0,.18-.06C5.26,10.33,5.33,9.45,6.13,9.34Z"/><path class="cls-5" d="M7.46,10.85a10.16,10.16,0,0,0,1.56,0,5.2,5.2,0,0,0,2.7-1.18s0-.14,0-.11a8.29,8.29,0,0,1-2.22.74,8.55,8.55,0,0,1-2.37-.06c-1-.09-.74,1.27-.56,1.89.05.18.22,0,.22-.13a3.44,3.44,0,0,1,0-1C6.89,10.71,7.15,10.84,7.46,10.85Z"/><path class="cls-5" d="M14.2,10.09c-1.11.47-2.13,1.08-3.21,1.59-.74.35-1.53.14-2.25.42-1,.4-.91,1.49-.46,2.29.1.19.3-.1.26-.23a1.16,1.16,0,0,1,0-1.1c.25-.59.37-.5,1-.53a3.13,3.13,0,0,0,1.34-.31,24.48,24.48,0,0,0,3.38-2S14.27,10.06,14.2,10.09Z"/><path class="cls-5" d="M8.53,16.07a7,7,0,0,1-1.41,3.27c-.08.11,0,.32.14.19a5.37,5.37,0,0,0,1.37-3.48C8.63,16,8.54,16,8.53,16.07Z"/><path class="cls-5" d="M6.66,13.35c0,.56.07,1.11,0,1.67a7.45,7.45,0,0,1-.47,2c-.06.18.12.25.19.07a5.14,5.14,0,0,0,.3-3.75S6.66,13.33,6.66,13.35Z"/><path class="cls-5" d="M5,11.82a21,21,0,0,1-.15,3.27c0,.14.11.1.14,0a6.75,6.75,0,0,0,.08-3.31S5,11.79,5,11.82Z"/><path class="cls-5" d="M3.65,11.24a2.94,2.94,0,0,1,0,.66c0,.19-.11.37-.15.57s.1.16.16,0a2.4,2.4,0,0,0,.17-1.35C3.77,11.07,3.65,11.18,3.65,11.24Z"/><path class="cls-5" d="M14.89,13.26A18.87,18.87,0,0,0,20,10c.07-.06.07-.28,0-.19a27.57,27.57,0,0,1-4.4,2.77c-1.37.61-3.11.48-4.39,1.23-1.67,1-1.6,3.66-1.9,5.29,0,.18.15.13.18,0,.4-1.87.35-3,1.83-4.27S13.35,13.85,14.89,13.26Z"/><path class="cls-5" d="M7.16,26.6c0-.12-.11-.13-.15,0a34.14,34.14,0,0,0-1.69,11.7c0,.33.36.1.36-.13A44.15,44.15,0,0,1,7.16,26.6Z"/><path class="cls-5" d="M5.75,40.33c0-.09-.11,0-.12.05a14.55,14.55,0,0,0,.25,4.11c0,.22.27,0,.25-.18C6,43,5.92,41.66,5.75,40.33Z"/><path class="cls-5" d="M59.83,6a38.41,38.41,0,0,1,8,4.57c.07,0,.13-.09.09-.14A18.38,18.38,0,0,0,60,5.57C59.8,5.52,59.65,5.92,59.83,6Z"/><path class="cls-5" d="M50.83,3.68a25,25,0,0,1,6.45,1.41c.06,0,.12-.11.07-.15a10.52,10.52,0,0,0-6.44-1.71C50.72,3.25,50.6,3.67,50.83,3.68Z"/><path class="cls-5" d="M78.82,57.56c2.84-5.34,3.39-11.91,2.62-17.82,0-.12-.17,0-.17.09a35.08,35.08,0,0,1-2.71,17.56C78.46,57.6,78.69,57.8,78.82,57.56Z"/><path class="cls-5" d="M84.82,71.89A19.52,19.52,0,0,0,88,74.05c.06,0,.12-.11.07-.15A19.14,19.14,0,0,0,85,71.6C84.84,71.53,84.74,71.81,84.82,71.89Z"/><path class="cls-5" d="M82.86,70.73c.22.1.43.24.65.34s.19-.18.12-.24a3,3,0,0,0-.61-.39,1.34,1.34,0,0,0-.66-.25c-.09,0-.15.17-.09.24A2.05,2.05,0,0,0,82.86,70.73Z"/><path class="cls-5" d="M78.75,80.58c.73.7,1.45,1.43,2.23,2.09.08.06.16-.12.11-.18-1.2-1.42-2.56-2.75-3.87-4.07-.14-.14-.29.2-.23.31A9.06,9.06,0,0,0,78.75,80.58Z"/><path class="cls-5" d="M76.37,77.65a3.53,3.53,0,0,0-.78-.81c-.11-.06-.21.19-.16.27a3.41,3.41,0,0,0,.81.75C76.34,78,76.44,77.72,76.37,77.65Z"/><path class="cls-5" d="M36,46.63a1.33,1.33,0,0,1-.23.35c.06.11.25-.08.24-.19S36,46.69,36,46.63Z"/><path class="cls-5" d="M77.68,30.88c.08,0,.17-.14.09-.19A4.14,4.14,0,0,0,74.88,30l-.19,0c-.1,0-.2.28-.07.32a1.53,1.53,0,0,0,.37.08c.32.05.66,0,1,.08C76.55,30.57,77.11,30.75,77.68,30.88Z"/><path class="cls-5" d="M77.77,32.36c.09,0,.17-.21.07-.24a13.46,13.46,0,0,0-1.52-.37,9.81,9.81,0,0,0-1.08-.21H75c-.14,0-.24.28-.1.35a2,2,0,0,0,.49.16c.28.06.59.09.86.14A11.79,11.79,0,0,0,77.77,32.36Z"/><path class="cls-5" d="M77.89,34.11a12.63,12.63,0,0,0-2.3-.65,4.38,4.38,0,0,0-.51,0s0,0,0,0-.13.21,0,.24l.09,0,.56.14c.72.16,1.46.26,2.17.47C77.9,34.32,78,34.14,77.89,34.11Z"/><path class="cls-5" d="M72.78,62.58c.1.1.23-.16.15-.24-.37-.42-.73-.84-1.08-1.28a5.82,5.82,0,0,0-1.08-1.23h0c-.17-.11-.28.17-.22.29v0a4.83,4.83,0,0,0,1,1.23C71.94,61.79,72.36,62.19,72.78,62.58Z"/><path class="cls-5" d="M70.54,62.75a9.14,9.14,0,0,0-.94-1.12c-.13-.13-.29.19-.22.3A10.4,10.4,0,0,0,70.29,63a3.89,3.89,0,0,0,1,.94s.07-.06.06-.09A4.91,4.91,0,0,0,70.54,62.75Z"/><path class="cls-5" d="M67.71,63.85a18.81,18.81,0,0,0,1.62,2.07c.08.07.14-.1.11-.15a9,9,0,0,0-.78-1.19,6.69,6.69,0,0,0-.75-1,.07.07,0,0,0-.12,0l0,0A.31.31,0,0,0,67.71,63.85Z"/><path class="cls-5" d="M66,65.64c-.09-.19-.27.13-.23.26A10.84,10.84,0,0,0,67,68.25c.1.16.29-.12.21-.23C66.76,67.25,66.38,66.44,66,65.64Z"/><path class="cls-5" d="M30.69,8.43a16.07,16.07,0,0,0,.67,2c0,.07.05.13.07.19s.24-.09.22-.19a.31.31,0,0,1,0-.08A16.55,16.55,0,0,0,31,8.17C30.89,8,30.65,8.3,30.69,8.43Z"/><path class="cls-5" d="M29.12,11.27a4.73,4.73,0,0,0-.44-.94,4.73,4.73,0,0,0-.53-.86c-.09-.11-.19.15-.16.23a5.55,5.55,0,0,0,.5.93,3.78,3.78,0,0,0,.53.73h0s.06,0,.07,0Z"/><path class="cls-5" d="M25.93,10.69c-.12-.22-.38.15-.28.31a3.28,3.28,0,0,0,1.28,1.33l.13.05c.08,0,.14-.09.12-.17a.07.07,0,0,0,0-.05A7.27,7.27,0,0,1,25.93,10.69Z"/><path class="cls-5" d="M21.92,67.57c.06-.17-.1-.22-.17-.07l-.21.43c-.2.44-.4.88-.59,1.33,0,.09-.08.17-.11.26-.1.27.17.37.28.11,0,0,0-.1.07-.15.19-.45.37-.92.53-1.38C21.79,67.92,21.86,67.75,21.92,67.57Z"/><path class="cls-5" d="M20.52,66.19c0-.07,0-.17-.1-.09l-.33.35-.92,1h0c-.1.13-.08.52.13.35l.1-.09a4.07,4.07,0,0,0,.88-1A2.88,2.88,0,0,0,20.52,66.19Z"/><path class="cls-5" d="M19,64.84s.1-.27,0-.21l-.31.16a11.07,11.07,0,0,0-1.19.72l-.24.17c-.14.11-.16.5.08.36l.4-.24A12.71,12.71,0,0,0,18.84,65Z"/><path class="cls-5" d="M17.68,63.45l.14-.14c0-.06.09-.3-.05-.23a1.23,1.23,0,0,0-.25.14c-.2.13-.39.27-.58.41a5,5,0,0,0-.55.48l-.17.21c0,.07,0,.26.08.22a1.05,1.05,0,0,0,.3-.15,5,5,0,0,0,.48-.38A8,8,0,0,0,17.68,63.45Z"/><path class="cls-5" d="M16,60.81l.25-.17c.06,0,.11-.27,0-.23a2.39,2.39,0,0,0-.37.15,6.72,6.72,0,0,0-.75.4,5.39,5.39,0,0,0-.6.37,1.5,1.5,0,0,0-.36.35s-.07.24.05.23a1.2,1.2,0,0,0,.53-.24c.14-.1.28-.21.41-.29C15.38,61.19,15.68,61,16,60.81Z"/><path class="cls-5" d="M14.44,58l.23-.23c.05,0,0-.23-.06-.15l-.27.18a5.69,5.69,0,0,1-.85.52c-.21.1-.44.18-.66.27a2,2,0,0,0-.41.22c-.06,0-.15.25,0,.27A1.07,1.07,0,0,0,13,59c.17-.08.34-.18.49-.27A5.07,5.07,0,0,0,14.44,58Z"/><path class="cls-5" d="M13.88,56.81l.1-.05c.06,0,.08-.24,0-.2l-.16.07c-.32.13-.64.27-1,.39s-.46.16-.68.26a1.55,1.55,0,0,0-.38.21c-.06,0-.16.3,0,.3a1.52,1.52,0,0,0,.55-.15l.56-.3C13.23,57.17,13.56,57,13.88,56.81Z"/><path class="cls-5" d="M13.7,55.78c.08,0,.14-.28,0-.23l-.32.08a11,11,0,0,1-1.87.34h-.07c-.15,0-.24.36-.06.36l.29,0a5.4,5.4,0,0,0,1.81-.44Z"/><path class="cls-5" d="M12.7,53.9l.19,0c.1,0,.15-.3,0-.28l-.31,0-1,.15a7.89,7.89,0,0,0-1,.18L10.4,54c-.11,0-.21.34,0,.35a2,2,0,0,0,.42,0c.26,0,.52-.12.77-.18Z"/><path class="cls-5" d="M11.61,24.57c-.15-.05-.24.22-.16.32a4.3,4.3,0,0,0,1.23.83,7.8,7.8,0,0,0,1.19.6,1.76,1.76,0,0,0,.3.1c.07,0,.13-.11.08-.16L14,26.05c-.35-.28-.74-.51-1.11-.75A4.61,4.61,0,0,0,11.61,24.57Z"/><path class="cls-5" d="M10.8,26.79c-.15,0-.26.23-.16.32a5.38,5.38,0,0,0,1.74,1,1.23,1.23,0,0,0,.8,0,1.1,1.1,0,0,0,.3-.16c.07-.06.09-.27-.05-.2a.47.47,0,0,1-.15.06C12.52,28.08,11.43,27,10.8,26.79Z"/><path class="cls-5" d="M10.8,29.34c-.11,0-.22.22-.12.32a1.67,1.67,0,0,0,1,.29,2.91,2.91,0,0,0,.93,0l.18,0c.07,0,.11-.16,0-.2l-.13-.05a5.48,5.48,0,0,0-.89-.21A2.73,2.73,0,0,0,10.8,29.34Z"/><path class="cls-5" d="M9.7,31.29a4.87,4.87,0,0,0,2.3.58l.22,0c.12,0,.22-.3.09-.32l-.21,0A15.77,15.77,0,0,0,9.81,31C9.71,31,9.61,31.22,9.7,31.29Z"/><path class="cls-5" d="M9.35,32.77c-.11-.05-.2.16-.15.24a2.52,2.52,0,0,0,2.23,1,1.11,1.11,0,0,0,.25-.05c.07,0,.15-.22.05-.25l-.21,0a5.07,5.07,0,0,1-1-.25C10.1,33.21,9.75,32.92,9.35,32.77Z"/><path class="cls-5" d="M60.94,71.59c-.08-.14-.22.07-.22.16a3.32,3.32,0,0,0,.63,1.72,3.43,3.43,0,0,0,.32.41c.1.11.2-.14.17-.22s-.12-.24-.17-.36-.22-.45-.32-.69A6.39,6.39,0,0,0,60.94,71.59Z"/><path class="cls-5" d="M59.22,71.61c-.13-.12-.24.15-.22.24a6.18,6.18,0,0,0,.51,1.22L60,74.15l.07.18c.07.14.21-.08.19-.16s0-.09,0-.13a10.74,10.74,0,0,0-.38-1.22A3.2,3.2,0,0,0,59.22,71.61Z"/><path class="cls-5" d="M57.69,71.67c-.08-.11-.19.11-.19.17a5.21,5.21,0,0,0,.39,1.54,9,9,0,0,0,.5,1.43c0,.1.13-.06.12-.11A11.54,11.54,0,0,0,58.12,73,3.68,3.68,0,0,0,57.69,71.67Z"/><path class="cls-5" d="M56,72.32c-.08-.13-.2.07-.2.15a4.75,4.75,0,0,0,.36,1.65,14.59,14.59,0,0,0,.53,1.44.42.42,0,0,1,0,.1c.05.1.17-.07.15-.14v0c-.16-.56-.31-1.12-.45-1.67A5,5,0,0,0,56,72.32Z"/><path class="cls-5" d="M53.47,73l0,0c-.08-.09-.16,0-.2.12a.22.22,0,0,0,0,.13,7.81,7.81,0,0,0,.6,1.61c.22.51.43,1,.63,1.55a1.17,1.17,0,0,0,0,.11c0,.15.22-.08.19-.18h0a19.23,19.23,0,0,0-.56-1.87A4.66,4.66,0,0,0,53.47,73Z"/><path class="cls-5" d="M51.28,73.74c-.11-.17-.26.1-.23.21a14.92,14.92,0,0,0,.6,1.7c.15.45.29.91.41,1.37l.09.34c0,.16.2,0,.18-.14s0-.17,0-.26c-.11-.54-.24-1.08-.39-1.61A5.7,5.7,0,0,0,51.28,73.74Z"/><path class="cls-5" d="M49.39,74.08l0,0c-.06-.19-.22,0-.25.1a.09.09,0,0,0,0,.05,10,10,0,0,0,.71,3.33c0,.14.09.27.13.4s.21,0,.18-.13-.05-.21-.07-.32c-.12-.52-.23-1-.34-1.56A13.58,13.58,0,0,0,49.39,74.08Z"/><path class="cls-5" d="M47.31,74.55c0-.23-.26,0-.26.15a9.58,9.58,0,0,0,.17,1.85,12.33,12.33,0,0,0,.25,1.35,2.91,2.91,0,0,0,.12.39c0,.07.1,0,.1-.07s0-.23,0-.35c0-.53-.13-1.06-.18-1.59S47.42,75.12,47.31,74.55Z"/><path class="cls-5" d="M45.42,74.64a.87.87,0,0,0-.22-.34c-.1-.08-.19.1-.19.18a1.34,1.34,0,0,0,0,.2c0,.21.09.42.12.64a8.29,8.29,0,0,1,0,1.22,7.55,7.55,0,0,0,.12,1.58c0,.11,0,.21.07.32s.26,0,.23-.17,0-.11,0-.17a10.68,10.68,0,0,1,0-2.19A3.72,3.72,0,0,0,45.42,74.64Z"/><path class="cls-5" d="M43.59,78.14c0-.74-.1-1.47-.18-2.2,0-.37,0-.76-.1-1.14a2.12,2.12,0,0,0-.16-.56c0-.13-.19,0-.2.11a2.43,2.43,0,0,0,0,.47,11.68,11.68,0,0,0,.15,1.31c.08.69.16,1.39.3,2.09v0c0,.12.14,0,.18,0A.11.11,0,0,0,43.59,78.14Z"/><path class="cls-5" d="M39.79,74.85l-.11-.24c-.08-.18-.23.11-.22.21v0c.1.62.3,1.23.4,1.85A13.62,13.62,0,0,1,40,78.12l.06.63c0,.17.17,0,.17-.06s0-.36,0-.55A8.44,8.44,0,0,0,39.79,74.85Z"/><path class="cls-5" d="M37.54,74.74s0,0,0,0-.12-.06-.17,0a.42.42,0,0,0-.08.17,8.61,8.61,0,0,0,.18,1.59c.06.45.1.9.13,1.35,0,.2,0,.4,0,.59s.25.07.25-.09,0-.3,0-.46c0-.52,0-1-.08-1.57A5.09,5.09,0,0,0,37.54,74.74Z"/><path class="cls-5" d="M75.61,49.25c-.17,0-.29.39-.16.49l0,0c.56.44,1.16.84,1.71,1.3s1,1,1.54,1.36l.11.08c.14.1.27-.16.2-.27l-.19-.29a9.6,9.6,0,0,0-3.17-2.68A.09.09,0,0,0,75.61,49.25Z"/><path class="cls-5" d="M75.11,51.8c.52.48,1.11.88,1.6,1.4s.87,1.06,1.3,1.6l0,.06c.09.11.24-.13.19-.26h0a1.28,1.28,0,0,1-.11-.2,7.45,7.45,0,0,0-2.84-3C75.14,51.31,75,51.69,75.11,51.8Z"/><path class="cls-5" d="M77.86,56.73a0,0,0,0,0,0,0c-.11-.17-.23-.33-.36-.5a21.56,21.56,0,0,0-3-3.27l-.11-.1c-.21-.17-.4.29-.27.45s.11.13.16.19a20.72,20.72,0,0,0,3.13,3.08l.4.3a.07.07,0,0,0,.06,0A.16.16,0,0,0,77.86,56.73Z"/><path class="cls-5" d="M76.31,46.14c-.18-.09-.38.37-.22.48l.12.09c.59.42,1.17.84,1.71,1.31s1,.94,1.49,1.35a2,2,0,0,0,.23.18c.08.06.15-.1.12-.16s-.18-.3-.28-.45a10.7,10.7,0,0,0-3.16-2.8Z"/><path class="cls-5" d="M79,45.37c-.15,0-.25.21-.19.32a1.89,1.89,0,0,0,.55.54,1.29,1.29,0,0,0,.45.27l.13,0a.05.05,0,0,0,0-.05.84.84,0,0,0-.13-.29,2.55,2.55,0,0,0-.26-.3A1.87,1.87,0,0,0,79,45.37Z"/><path class="cls-5" d="M77.56,45c.08,0,.14-.11.1-.17a2,2,0,0,0-.63-.52A2.1,2.1,0,0,0,76.5,44a.83.83,0,0,0-.22,0c-.12,0-.2.22-.11.3a.83.83,0,0,0,.31.2l.35.14A6.26,6.26,0,0,0,77.56,45Z"/><path class="cls-5" d="M60.1,8.7a4.51,4.51,0,0,0-.52,1.9c0,.1.12.09.17,0,.56-.58.46-1.58.91-2.23a1,1,0,0,1,.28-.31c.08-.06.2-.43,0-.39a.91.91,0,0,0-.65.54A3,3,0,0,0,60.1,8.7Z"/><path class="cls-5" d="M61.88,12.68a1.53,1.53,0,0,0,0,.52c.06.26.34,0,.31-.22a.86.86,0,0,1,0-.16A4.18,4.18,0,0,1,63,11.08c.22-.41.44-.82.62-1.25a.36.36,0,0,1,0-.09c0-.14-.07-.24-.17-.11l-.06.1A17.53,17.53,0,0,0,62.13,12,2.52,2.52,0,0,0,61.88,12.68Z"/><path class="cls-5" d="M63.88,13.9c0,.09,0,.33.15.2a2.18,2.18,0,0,0,.22-.21c.32-.36.59-.78.93-1.13a11.13,11.13,0,0,1,1.27-1.1l.37-.28c.06,0,.1-.26,0-.21a5,5,0,0,0-.62.3A5.18,5.18,0,0,0,64,13.72C63.94,13.78,63.9,13.84,63.88,13.9Z"/><path class="cls-5" d="M57.75,10.06c0,.19.14.19.21,0a8,8,0,0,0,.37-1.29,4.75,4.75,0,0,1,.32-1.21.42.42,0,0,1,.27-.21c.06,0,.1-.16,0-.15a.64.64,0,0,0-.47.3,1.49,1.49,0,0,0-.18.3A7.38,7.38,0,0,0,57.75,10.06Z"/><path class="cls-5" d="M55.91,9c0,.09.09.14.15.06a3.35,3.35,0,0,0,.44-1.15A9,9,0,0,0,56.72,7a3.07,3.07,0,0,0,.07-.42c0-.13-.11-.14-.15,0s-.09.26-.14.4l-.3,1A3.58,3.58,0,0,0,55.91,9Z"/><path class="cls-5" d="M68.24,14.81c-.38.12-.84.4-.73.87,0,.1.12.1.18,0,.56-.66,1.58-.64,2.35-1l.24-.13c.06,0,.11-.22,0-.23a2.06,2.06,0,0,0-.55.06l-.38.1C69,14.6,68.61,14.69,68.24,14.81Z"/><path class="cls-5" d="M70.92,16.48c-.29.15-.8.48-.76.86a.11.11,0,0,0,.06.11h0a.14.14,0,0,0,.14,0,3.67,3.67,0,0,1,1.37-.87l.37-.08c.11,0,.19-.24,0-.25a2.25,2.25,0,0,0-1.25.25Z"/><path class="cls-5" d="M71.71,19c-.07.05-.12.31,0,.29a4.41,4.41,0,0,0,1-.4,5.44,5.44,0,0,1,.61-.19,1.48,1.48,0,0,0,.44-.2s.11-.19,0-.22a1.28,1.28,0,0,0-.7.09l-.37.13A2.69,2.69,0,0,0,71.71,19Z"/><path class="cls-5" d="M24,11.88a6.36,6.36,0,0,0,.61.66c.12.1.24-.13.21-.23a2.53,2.53,0,0,0-.47-.81,3,3,0,0,0-.59-.59.34.34,0,0,0-.11-.07c-.14-.07-.26.13-.28.28s0,.11,0,.14A5.82,5.82,0,0,0,24,11.88Z"/><path class="cls-5" d="M23.47,13.2c.12.09.23-.17.15-.26a10.13,10.13,0,0,0-.68-.79,3.23,3.23,0,0,0-.47-.51.56.56,0,0,0-.2-.11c-.12,0-.22.15-.19.26a.43.43,0,0,1,0,.07,2.26,2.26,0,0,0,.54.62C22.93,12.72,23.19,13,23.47,13.2Z"/><path class="cls-5" d="M21.12,13.68l.4.28a.68.68,0,0,0,.52.09s0,0,0-.05a2.59,2.59,0,0,0-.69-.75,5.65,5.65,0,0,0-.54-.56.82.82,0,0,0-.2-.12c-.14,0-.23.18-.21.29l0,.09A1.78,1.78,0,0,0,21.12,13.68Z"/><path class="cls-5" d="M20.4,15.24c.06,0,.1-.09.08-.14a3.07,3.07,0,0,0-.67-.77,6.77,6.77,0,0,0-.56-.51,1.64,1.64,0,0,0-.22-.14c-.19-.09-.27.3-.19.41l0,0a4.29,4.29,0,0,0,.77.64A2.22,2.22,0,0,0,20.4,15.24Z"/><path class="cls-5" d="M18.86,16.75c.15,0,.25-.24.12-.32s-.56-.31-.83-.49a4.9,4.9,0,0,0-.67-.45c-.19-.09-.3.3-.2.42A3.28,3.28,0,0,0,18.86,16.75Z"/><path class="cls-5" d="M17.23,17.62a15.18,15.18,0,0,0-1.2-1,2.27,2.27,0,0,0-.34-.19c-.16-.08-.24.24-.16.34l.18.18a11,11,0,0,0,1.35,1C17.19,18,17.33,17.72,17.23,17.62Z"/><path class="cls-5" d="M15.55,19.06c.11,0,.19-.17.12-.24a5.19,5.19,0,0,0-.68-.56L14.67,18a1.22,1.22,0,0,0-.36-.18c-.2-.06-.33.3-.21.43a1,1,0,0,0,.22.18c.14.09.3.17.45.25A5.46,5.46,0,0,0,15.55,19.06Z"/><path class="cls-5" d="M14.91,21.11c.1.05.21-.2.12-.26l-1.1-.7c-.21-.12-.41-.27-.63-.39a1.72,1.72,0,0,0-.52-.19c-.14,0-.2.25-.13.33a1.31,1.31,0,0,0,.35.27c.22.14.46.24.69.36Z"/><path class="cls-5" d="M14.84,23.28c.09,0,.16-.15.07-.2-.93-.52-1.85-1.07-2.77-1.6l-.36-.2c-.16-.09-.33.3-.2.41l.3.21A8.9,8.9,0,0,0,14.84,23.28Z"/><path class="cls-5" d="M8.59,35.87a9.9,9.9,0,0,0,1.54,0c.13,0,.28-.34.1-.38a10.17,10.17,0,0,0-1.35-.17,4.67,4.67,0,0,0-1.18,0,1.17,1.17,0,0,0-.2,0c-.09,0-.2.24-.09.31a.8.8,0,0,0,.25.11A3.58,3.58,0,0,0,8.59,35.87Z"/><path class="cls-5" d="M9.4,37.47c.07,0,.15-.27,0-.25a5.35,5.35,0,0,1-1.06,0c-.25,0-.51-.12-.77-.13a.9.9,0,0,0-.23,0c-.12,0-.18.26-.1.35a.79.79,0,0,0,.31.18,2.92,2.92,0,0,0,.71.06A3.14,3.14,0,0,0,9.4,37.47Z"/><path class="cls-5" d="M8.85,39.44c.06-.08,0-.26-.08-.15a1.34,1.34,0,0,1-1.08.24c-.05,0-.08,0-.1.08a.17.17,0,0,0,0,.19l0,0A1,1,0,0,0,8.85,39.44Z"/><path class="cls-6" d="M74.29,53.39a2.27,2.27,0,0,0,.06-.25,2,2,0,0,0,.08-.22h0c.37-1,.69-2,1-3a.18.18,0,0,0,.06-.09c0-.21.1-.41.13-.62h0c0-.13.07-.25.1-.37a.25.25,0,0,0,0-.2,13.37,13.37,0,0,0,.51-1.9.37.37,0,0,0,0-.11c0-.18,0-.36,0-.53h0a14.67,14.67,0,0,0,.16-1.47l0-.14a.58.58,0,0,0,0-.1.13.13,0,0,1,0-.06,3.15,3.15,0,0,0,0-.53,44.43,44.43,0,0,0-.24-5c-.16-1.68-.35-3.35-.61-5h0a2.2,2.2,0,0,0-.06-.37h0q-.09-.59-.21-1.17a3.59,3.59,0,0,0-.18-.9c-.06-.33-.14-.66-.21-1h0a3,3,0,0,0-.09-.32l0,0V30h0c-.14-.56-.28-1.12-.44-1.68-1.73-5.87-5-11.23-10.16-14.38a1,1,0,0,0-.35-.22l-.08,0c-.42-.24-.85-.46-1.29-.67-.09-.05-.19-.09-.28-.15a1.14,1.14,0,0,0-.45-.19l-.06,0c-6.92-2.89-14.41-4.76-21.94-4a38.25,38.25,0,0,0-8,1.7h0l0,0-.1,0h0a1.73,1.73,0,0,0-.32.11c-.74.25-1.47.53-2.2.84,0,0-.11,0-.16.06-.6.26-1.2.54-1.78.82l-.26.14h0a33.32,33.32,0,0,0-5.47,3.44A24.33,24.33,0,0,0,14,26.05l-.12.27c-.2.52-.4,1-.59,1.56l-.1.3c-.18.5-.35,1-.52,1.52l-.09.29c-.16.51-.32,1-.47,1.54l-.1.34c-.16.58-.33,1.16-.48,1.75.07,0,0,.33-.09.34A33,33,0,0,0,12.6,53.62h0v0a.34.34,0,0,0,0,.1l.11.25h0a2.83,2.83,0,0,0,.11.31c.16.43.33.85.5,1.28v0h0v0a1.54,1.54,0,0,0,.11.3l0,0,.26.6a.11.11,0,0,0,0,.08.36.36,0,0,0,0,.09v0l0,0v0h0v0l0,0h0c.12.28.26.56.39.84v0l0,0v0s0,0,0,0h0a.24.24,0,0,0,.05.1l0,0,0,0h0c.42.87.88,1.72,1.37,2.57h0a0,0,0,0,0,0,0h0a.14.14,0,0,0,.05.08h0a.23.23,0,0,0,.06.12l0,.05q.69,1.17,1.47,2.28h0a.08.08,0,0,1,0,0s0,0,0,0l.24.32h0c.26.36.52.72.8,1.07a.18.18,0,0,0,0,.09.77.77,0,0,0,.12.13.45.45,0,0,0,.06.09l.09.09c.35.43.71.84,1.07,1.25l0,0,0,.06s0,0,0,.06h0s0,0,0,0l.19.2h0c.38.41.77.8,1.17,1.19l.05.06.09.07.07.06.07,0v0a25,25,0,0,0,3.78,3A25.82,25.82,0,0,0,37,74.69a.2.2,0,0,0,.11,0,1.28,1.28,0,0,1,.27,0h.12s.12,0,.05,0h.1c.54,0,1.07.06,1.61.08a1.93,1.93,0,0,0,.48,0h0c1,0,2.05,0,3.06,0a2.35,2.35,0,0,0,.26,0l.19,0h0l1.56-.11h0c.2,0,.4,0,.6-.06h0c.59-.06,1.18-.12,1.75-.2s1.13-.17,1.69-.27h.12c.11,0,.2-.06.31-.07l.11,0a33.45,33.45,0,0,0,3.57-.94,1.26,1.26,0,0,0,.59-.2,34.76,34.76,0,0,0,12.62-7.79.21.21,0,0,0,.1-.09l0-.07c.45-.44.89-.89,1.32-1.36l0,0a35.28,35.28,0,0,0,2.72-3.38.1.1,0,0,0,0,0l.09-.12a.28.28,0,0,0,.09-.1.62.62,0,0,1,.12-.19.19.19,0,0,0,0-.12,33.83,33.83,0,0,0,3-5.47s0,0,.07-.07l.14-.33A2.43,2.43,0,0,0,74.29,53.39Zm-3.87,6.13h0l-.06.1h0a.61.61,0,0,0-.07.1,35.41,35.41,0,0,1-4,4.67.15.15,0,0,0-.07.07l0,.06a.23.23,0,0,0-.07.07l0,0s0,0,0,0,0,0-.06.07h0a33.22,33.22,0,0,1-13.7,8c.06.14,0,.41-.2.34s-.24-.13-.36-.18a40.4,40.4,0,0,1-20.08.07c-6.8-1.86-11.92-7.06-15.4-13a37.23,37.23,0,0,1-5.35-19.6,41.1,41.1,0,0,1,2.29-10.65c1.18-3.85,2.66-7.51,5.41-10.53.43-.47.87-.91,1.33-1.35,0,0,0,0,.05,0a1.07,1.07,0,0,1,.14-.16l.15-.14.16-.13a2.73,2.73,0,0,0,.35-.33h0A32.65,32.65,0,0,1,38.92,9.49h.25a3.11,3.11,0,0,0,.74-.08,40.32,40.32,0,0,1,14.51,1.49c4,1.17,8.28,2.42,11.56,5a22.89,22.89,0,0,1,6.35,8.42A38,38,0,0,1,75,33.43h0l0,.05c0,.07,0,.14,0,.21h0c.1.62.2,1.25.29,1.88a52.23,52.23,0,0,1,.74,8.53s0,0,0,0a.82.82,0,0,0,0,.27,17.06,17.06,0,0,1-.66,4.28.35.35,0,0,0-.15.2A31,31,0,0,1,70.42,59.52Z"/><path class="cls-6" d="M55.66,55.51c-4.41-3.48-7-8.75-8.64-14-3.33-10.51-3-21.85-7.2-32.1l-.12-.29c-.12-.3-.43.05-.48.34a.36.36,0,0,0,0,.18c4.51,10.6,3.93,22.43,7.64,33.25a29.66,29.66,0,0,0,6.94,11.8A28.72,28.72,0,0,0,60,58.86a13.51,13.51,0,0,1,6,5.84l.18.32c0,.12.16-.07.15-.13s-.07-.28-.1-.42C65,59.73,59.08,58.22,55.66,55.51Z"/><path class="cls-6" d="M52.24,72.64A27.64,27.64,0,0,1,41.38,60.36a27.13,27.13,0,0,1-2.25-8.52c-.24-2.63.06-5.32-.46-7.93-1-5-5.56-8.45-8.87-12-4-4.29-7.52-9-9-14.75a.28.28,0,0,0,0-.11c-.14-.17-.43.14-.44.39a.25.25,0,0,0,0,.08C21.62,22.64,24.55,27,28,30.89,29.91,33,31.93,35,33.88,37c2.86,3,4.53,5.93,4.63,10.16.12,5.41.62,10.34,3.16,15.23A24,24,0,0,0,51.73,72.87c.12,0,.24.12.36.18s.26-.2.2-.34A.12.12,0,0,0,52.24,72.64Z"/><path class="cls-6" d="M23.46,27.47c-.05.46-.1.92-.13,1.38a20.91,20.91,0,0,0,4,8.4c2.78,3.28,7.64,4.67,8.43,9.32a.73.73,0,0,0,.23-.3l0-.05c-.38-3.41-3.32-5.23-5.88-7.2-3.8-2.93-5.63-7.18-6.65-11.75-.08-.39-.51.06-.45.33,0,0,0,0,0,.06s0-.12,0-.17C23.1,27.17,23.51,27.09,23.46,27.47Z"/><path class="cls-6" d="M36.17,46.35c0-.16-.07-.23-.16-.13l0,.05a.73.73,0,0,1-.23.3c-1,.79-3.81-2.22-4.38-2.57-1.93-1.19-3.85-2-5.29-3.82C23.55,37,23,32.82,23.33,28.85c0-.46.08-.92.13-1.38s-.36-.3-.4,0c0,.05,0,.11,0,.17-.57,4.92-.13,10.47,3.67,14.1a13.86,13.86,0,0,0,3.13,2.05,14.17,14.17,0,0,1,2.52,1.54c.54.46.92,1.14,1.49,1.54.73.51,1.47.61,2,.09a1.33,1.33,0,0,0,.23-.35A1.82,1.82,0,0,0,36.17,46.35Z"/></g></g></g></svg>